<svg xmlns="http://www.w3.org/2000/svg" width="69.997" height="85.68" viewBox="0 0 69.997 85.68">
  <g id="Grupo_146524" data-name="Grupo 146524" transform="translate(-1152.357 -415.137)">
    <g id="Grupo_133610" data-name="Grupo 133610" transform="translate(1152.357 415.137)">
      <g id="Grupo_132045" data-name="Grupo 132045" transform="translate(0 18.235)">
        <path id="Trazado_192190" data-name="Trazado 192190" d="M470,284.6l-13.227,7.646L470,299.884l13.227-7.646Z" transform="translate(-456.762 -284.597)" fill="#ffb30b"/>
        <g id="Grupo_132044" data-name="Grupo 132044" transform="translate(0 7.641)">
          <path id="Trazado_192191" data-name="Trazado 192191" d="M456.766,318.461,470,326.1V297.489l-13.235-7.641Z" transform="translate(-456.766 -289.848)" fill="#ffb30b"/>
          <path id="Trazado_192192" data-name="Trazado 192192" d="M465.859,326.1l13.235-7.641V289.848l-13.235,7.641Z" transform="translate(-452.626 -289.848)" fill="#cc8f08"/>
        </g>
      </g>
      <path id="Trazado_192193" data-name="Trazado 192193" d="M470,296.774l-13.227-6.921L470,297.494l13.227-7.646Z" transform="translate(-456.762 -263.972)" fill="#fff"/>
      <g id="Grupo_132047" data-name="Grupo 132047" transform="translate(21.781 7.958)">
        <path id="Trazado_192194" data-name="Trazado 192194" d="M484.968,277.535l-13.227,7.646,13.229,7.641,13.227-7.646Z" transform="translate(-471.73 -277.535)" fill="#b9ddfc"/>
        <g id="Grupo_132046" data-name="Grupo 132046" transform="translate(0 7.641)">
          <path id="Trazado_192195" data-name="Trazado 192195" d="M471.733,333.281l13.235,7.641v-50.5l-13.235-7.641Z" transform="translate(-471.733 -282.785)" fill="#b9ddfc"/>
          <path id="Trazado_192196" data-name="Trazado 192196" d="M480.826,340.923l13.235-7.641v-50.5l-13.235,7.641Z" transform="translate(-467.594 -282.785)" fill="#94b0c9"/>
        </g>
      </g>
      <g id="Grupo_132049" data-name="Grupo 132049" transform="translate(21.792)">
        <path id="Trazado_192197" data-name="Trazado 192197" d="M499.913,272.066l-13.227,7.646,13.229,7.641,13.227-7.646Z" transform="translate(-464.938 -272.066)" fill="#00defc"/>
        <path id="Trazado_192198" data-name="Trazado 192198" d="M484.968,289.711l-13.227-6.921,13.229,7.641,13.227-7.646Z" transform="translate(-471.741 -267.186)" fill="#fff"/>
        <path id="Trazado_192199" data-name="Trazado 192199" d="M499.913,284.243l-13.227-6.921,13.229,7.641,13.227-7.646Z" transform="translate(-464.938 -269.676)" fill="#fff"/>
        <g id="Grupo_132048" data-name="Grupo 132048" transform="translate(21.737 7.641)">
          <path id="Trazado_192200" data-name="Trazado 192200" d="M486.678,347.714l13.235,7.641v-70.4l-13.235-7.641Z" transform="translate(-486.678 -277.317)" fill="#00defc"/>
          <path id="Trazado_192201" data-name="Trazado 192201" d="M495.771,355.356l13.235-7.641v-70.4l-13.235,7.641Z" transform="translate(-482.539 -277.317)" fill="#00b1c9"/>
        </g>
      </g>
    </g>
  </g>
</svg>
