<svg xmlns="http://www.w3.org/2000/svg" xmlns:xlink="http://www.w3.org/1999/xlink" width="1286" height="194.324" viewBox="0 0 1286 194.324">
  <defs>
    <filter id="Trazado_203812" x="218" y="4" width="190.187" height="190.187" filterUnits="userSpaceOnUse">
      <feOffset dy="4" input="SourceAlpha"/>
      <feGaussianBlur stdDeviation="4" result="blur"/>
      <feFlood flood-opacity="0.2"/>
      <feComposite operator="in" in2="blur"/>
      <feComposite in="SourceGraphic"/>
    </filter>
    <filter id="Trazado_203813" x="426" y="4.137" width="190.187" height="190.187" filterUnits="userSpaceOnUse">
      <feOffset dy="4" input="SourceAlpha"/>
      <feGaussianBlur stdDeviation="4" result="blur-2"/>
      <feFlood flood-opacity="0.2"/>
      <feComposite operator="in" in2="blur-2"/>
      <feComposite in="SourceGraphic"/>
    </filter>
    <filter id="Trazado_203814" x="634" y="4.137" width="190.187" height="190.187" filterUnits="userSpaceOnUse">
      <feOffset dy="4" input="SourceAlpha"/>
      <feGaussianBlur stdDeviation="4" result="blur-3"/>
      <feFlood flood-opacity="0.2"/>
      <feComposite operator="in" in2="blur-3"/>
      <feComposite in="SourceGraphic"/>
    </filter>
    <filter id="Trazado_203815" x="842" y="4.137" width="190.187" height="190.187" filterUnits="userSpaceOnUse">
      <feOffset dy="4" input="SourceAlpha"/>
      <feGaussianBlur stdDeviation="4" result="blur-4"/>
      <feFlood flood-opacity="0.2"/>
      <feComposite operator="in" in2="blur-4"/>
      <feComposite in="SourceGraphic"/>
    </filter>
    <filter id="Trazado_203816" x="1050" y="4.137" width="190.187" height="190.187" filterUnits="userSpaceOnUse">
      <feOffset dy="4" input="SourceAlpha"/>
      <feGaussianBlur stdDeviation="4" result="blur-5"/>
      <feFlood flood-opacity="0.2"/>
      <feComposite operator="in" in2="blur-5"/>
      <feComposite in="SourceGraphic"/>
    </filter>
  </defs>
  <g id="Grupo_146524" data-name="Grupo 146524" transform="translate(-180 -1632)">
    <path id="Trazado_203788" data-name="Trazado 203788" d="M91.683,198.632H29.345A29.378,29.378,0,0,1,0,169.287V44.61A29.378,29.378,0,0,1,29.345,15.265H91.683v2.427H29.345A26.948,26.948,0,0,0,2.427,44.61V169.287A26.948,26.948,0,0,0,29.345,196.2H91.683Z" transform="translate(401 1620.283)" fill="#ffb30b"/>
    <path id="Trazado_203789" data-name="Trazado 203789" d="M503.116,95.231l-13.59-7.846V32.957A32.994,32.994,0,0,0,456.569,0H394.295V190.462h62.274a32.994,32.994,0,0,0,32.957-32.957V103.077Z" transform="translate(98.341 1632)" fill="#ffb30b"/>
    <path id="Trazado_203794" data-name="Trazado 203794" d="M1282.809,795.681h-.607a1.456,1.456,0,0,1,0-2.913h.607a1.456,1.456,0,0,1,0,2.913" transform="translate(-582.093 1023.477)" fill="#359cef"/>
    <g id="Grupo_146473" data-name="Grupo 146473" transform="translate(0 -18)">
      <path id="Trazado_203790" data-name="Trazado 203790" d="M1398.487,95.231l-13.833-7.986V32.957A32.994,32.994,0,0,0,1351.7,0h-62.274V190.462H1351.7a32.994,32.994,0,0,0,32.957-32.957V103.217Z" transform="translate(-588.753 1650)" fill="#ffb30b"/>
      <path id="Trazado_203791" data-name="Trazado 203791" d="M897.555,92.21h-2.427V44.61a29.378,29.378,0,0,1,29.345-29.345h62.339v2.427H924.473A26.948,26.948,0,0,0,897.555,44.61Z" transform="translate(-286.095 1638.283)" fill="#ffb30b"/>
      <path id="Trazado_203792" data-name="Trazado 203792" d="M894.045,336.712a2.738,2.738,0,1,1-2.738-2.738,2.738,2.738,0,0,1,2.738,2.738" transform="translate(-281.06 1393.644)" fill="#ffb30b"/>
      <rect id="Rectángulo_296802" data-name="Rectángulo 296802" width="2.427" height="47.6" transform="translate(609.033 1759.97)" fill="#ffb30b"/>
      <path id="Trazado_203793" data-name="Trazado 203793" d="M894.045,464.724a2.738,2.738,0,1,0-2.738,2.738,2.738,2.738,0,0,0,2.738-2.738" transform="translate(-281.06 1295.383)" fill="#ffb30b"/>
      <path id="Trazado_203795" data-name="Trazado 203795" d="M982.617,743.375h-1.211a1.456,1.456,0,0,1,0-2.913h1.211a1.456,1.456,0,0,1,0,2.913m-13.316,0H968.09a1.456,1.456,0,0,1,0-2.913H969.3a1.456,1.456,0,0,1,0,2.913m-13.315,0h-1.211a1.456,1.456,0,0,1,0-2.913h1.211a1.456,1.456,0,0,1,0,2.913m-13.316,0h-1.211a1.456,1.456,0,1,1,0-2.913h1.211a1.456,1.456,0,1,1,0,2.913m-13.3-.231a1.472,1.472,0,0,1-.188-.012c-.417-.054-.84-.117-1.258-.189a1.457,1.457,0,0,1,.495-2.871c.377.065.759.122,1.135.171a1.457,1.457,0,0,1-.184,2.9m-12.318-4.718a1.449,1.449,0,0,1-.825-.258c-.348-.24-.7-.49-1.032-.744a1.457,1.457,0,1,1,1.754-2.326c.3.229.617.455.932.672a1.457,1.457,0,0,1-.828,2.656m-8.814-9.812a1.456,1.456,0,0,1-1.282-.763c-.2-.37-.4-.75-.581-1.131a1.456,1.456,0,0,1,2.619-1.275c.167.343.343.686.524,1.02a1.457,1.457,0,0,1-1.28,2.15" transform="translate(-294.612 1093.782)" fill="#ffb30b"/>
    </g>
    <path id="Trazado_203796" data-name="Trazado 203796" d="M895.545,675.246a1.456,1.456,0,0,1-1.456-1.426q-.007-.318-.007-.638a1.457,1.457,0,1,1,2.913,0q0,.289.006.576a1.457,1.457,0,0,1-1.425,1.487h-.031" transform="translate(-285.292 1116.387)" fill="#359cef"/>
    <g id="Grupo_146474" data-name="Grupo 146474" transform="translate(0 -18)">
      <path id="Trazado_203797" data-name="Trazado 203797" d="M2294.343,95.231l-14.561-8.407V32.957A32.994,32.994,0,0,0,2246.824,0h-62.274V190.462h62.274a32.994,32.994,0,0,0,32.957-32.957V103.638Z" transform="translate(-1275.848 1650)" fill="#ffb30b"/>
      <path id="Trazado_203798" data-name="Trazado 203798" d="M1790.669,45.264a1.456,1.456,0,0,1-1.456-1.456c0-.423.009-.852.027-1.275a1.456,1.456,0,1,1,2.91.123c-.016.382-.025.769-.025,1.151a1.456,1.456,0,0,1-1.456,1.456m3.1-12.853a1.457,1.457,0,0,1-1.294-2.123c.194-.377.4-.755.609-1.123a1.456,1.456,0,1,1,2.53,1.444c-.189.332-.374.673-.549,1.013a1.456,1.456,0,0,1-1.3.79m8.643-10.013a1.456,1.456,0,0,1-.851-2.639c.344-.247.7-.49,1.052-.721a1.456,1.456,0,0,1,1.595,2.437c-.318.208-.637.427-.948.65a1.45,1.45,0,0,1-.849.274m12.251-4.962a1.457,1.457,0,0,1-.21-2.9c.42-.062.846-.115,1.266-.159a1.457,1.457,0,0,1,.3,2.9c-.379.039-.763.087-1.141.143a1.482,1.482,0,0,1-.214.016m54.6-.3h-1.214a1.456,1.456,0,0,1,0-2.913h1.214a1.456,1.456,0,0,1,0,2.913m-13.351,0H1854.7a1.456,1.456,0,0,1,0-2.913h1.214a1.456,1.456,0,1,1,0,2.913m-13.351,0h-1.214a1.456,1.456,0,0,1,0-2.913h1.214a1.456,1.456,0,1,1,0,2.913m-13.351,0H1828a1.456,1.456,0,0,1,0-2.913h1.214a1.456,1.456,0,1,1,0,2.913" transform="translate(-972.389 1639.085)" fill="#ffb30b"/>
      <rect id="Rectángulo_296803" data-name="Rectángulo 296803" width="2.427" height="48.235" transform="translate(817.066 1682.893)" fill="#ffb30b"/>
      <path id="Trazado_203799" data-name="Trazado 203799" d="M1789.174,339.443a2.738,2.738,0,1,1-2.738-2.738,2.738,2.738,0,0,1,2.738,2.738" transform="translate(-968.156 1391.547)" fill="#ffb30b"/>
      <path id="Trazado_203800" data-name="Trazado 203800" d="M1881.938,550.122H1819.6a29.378,29.378,0,0,1-29.345-29.345v-47.6h2.427v47.6a26.948,26.948,0,0,0,26.917,26.917h62.339Z" transform="translate(-973.189 1286.792)" fill="#ffb30b"/>
      <path id="Trazado_203801" data-name="Trazado 203801" d="M1789.174,464.724a2.738,2.738,0,1,0-2.738,2.738,2.738,2.738,0,0,0,2.738-2.738" transform="translate(-968.156 1295.383)" fill="#ffb30b"/>
    </g>
    <g id="Grupo_146475" data-name="Grupo 146475" transform="translate(0 -18)">
      <path id="Trazado_203802" data-name="Trazado 203802" d="M3189.228,95.231l-14.318-8.267V32.957A32.994,32.994,0,0,0,3141.953,0h-62.274V190.462h62.274a32.994,32.994,0,0,0,32.957-32.957V103.5Z" transform="translate(-1962.943 1650)" fill="#ffb30b"/>
      <path id="Trazado_203803" data-name="Trazado 203803" d="M2687.812,92.844h-2.427V44.609a29.378,29.378,0,0,1,29.345-29.345h62.338v2.427h-62.338a26.948,26.948,0,0,0-26.917,26.917Z" transform="translate(-1660.285 1638.283)" fill="#ffb30b"/>
      <path id="Trazado_203804" data-name="Trazado 203804" d="M2684.3,339.443a2.738,2.738,0,1,1-2.738-2.738,2.738,2.738,0,0,1,2.738,2.738" transform="translate(-1655.25 1391.547)" fill="#ffb30b"/>
      <rect id="Rectángulo_296804" data-name="Rectángulo 296804" width="2.427" height="47.6" transform="translate(1025.099 1759.97)" fill="#ffb30b"/>
      <path id="Trazado_203805" data-name="Trazado 203805" d="M2684.3,464.724a2.738,2.738,0,1,0-2.738,2.738,2.738,2.738,0,0,0,2.738-2.738" transform="translate(-1655.25 1295.383)" fill="#ffb30b"/>
      <path id="Trazado_203806" data-name="Trazado 203806" d="M2784.394,740.831h-1.214a1.457,1.457,0,0,1,0-2.913h1.214a1.457,1.457,0,0,1,0,2.913m-13.351,0h-1.214a1.457,1.457,0,0,1,0-2.913h1.214a1.457,1.457,0,1,1,0,2.913m-13.351,0h-1.214a1.457,1.457,0,1,1,0-2.913h1.214a1.457,1.457,0,1,1,0,2.913m-13.351,0h-1.214a1.457,1.457,0,1,1,0-2.913h1.214a1.457,1.457,0,1,1,0,2.913m-13.351,0h-1.214a1.457,1.457,0,1,1,0-2.913h1.214a1.457,1.457,0,1,1,0,2.913m-13.329-.341a1.483,1.483,0,0,1-.228-.018c-.418-.065-.841-.141-1.256-.225a1.457,1.457,0,1,1,.575-2.856c.375.076.755.144,1.132.2a1.457,1.457,0,0,1-.223,2.9m-12.211-5.08a1.45,1.45,0,0,1-.859-.281c-.344-.252-.685-.513-1.014-.777a1.456,1.456,0,0,1,1.821-2.273c.3.237.6.473.914.7a1.456,1.456,0,0,1-.862,2.631m-8.542-10.092a1.456,1.456,0,0,1-1.3-.8c-.19-.377-.374-.764-.548-1.151a1.457,1.457,0,0,1,2.657-1.194c.156.348.322.7.493,1.036a1.457,1.457,0,0,1-1.3,2.111" transform="translate(-1667.61 1096.326)" fill="#ffb30b"/>
    </g>
    <g id="Grupo_146476" data-name="Grupo 146476" transform="translate(0 -18)">
      <path id="Trazado_203807" data-name="Trazado 203807" d="M4037.081,0h-62.274V190.462h62.274a32.994,32.994,0,0,0,32.957-32.957V32.957A32.994,32.994,0,0,0,4037.081,0" transform="translate(-2650.038 1650)" fill="#ffb30b"/>
      <path id="Trazado_203808" data-name="Trazado 203808" d="M3580.925,45.264a1.456,1.456,0,0,1-1.457-1.456c0-.425.009-.854.027-1.275a1.456,1.456,0,1,1,2.91.123c-.016.38-.024.767-.024,1.151a1.456,1.456,0,0,1-1.456,1.456m3.1-12.853a1.457,1.457,0,0,1-1.294-2.123c.194-.378.4-.756.61-1.124a1.456,1.456,0,0,1,2.529,1.444c-.189.331-.374.672-.549,1.012a1.457,1.457,0,0,1-1.3.79m8.643-10.013a1.457,1.457,0,0,1-.851-2.64c.345-.247.7-.49,1.052-.721a1.457,1.457,0,0,1,1.6,2.437c-.318.208-.637.427-.948.65a1.45,1.45,0,0,1-.848.273m12.25-4.962a1.457,1.457,0,0,1-.211-2.9c.42-.062.846-.115,1.266-.159a1.457,1.457,0,0,1,.3,2.9c-.379.039-.763.087-1.141.143a1.48,1.48,0,0,1-.214.016m54.6-.3h-1.214a1.456,1.456,0,0,1,0-2.913h1.214a1.456,1.456,0,0,1,0,2.913m-13.351,0h-1.214a1.456,1.456,0,0,1,0-2.913h1.214a1.456,1.456,0,1,1,0,2.913m-13.351,0h-1.214a1.456,1.456,0,0,1,0-2.913h1.214a1.456,1.456,0,1,1,0,2.913m-13.351,0h-1.214a1.456,1.456,0,0,1,0-2.913h1.214a1.456,1.456,0,0,1,0,2.913" transform="translate(-2346.579 1639.085)" fill="#ffb30b"/>
      <rect id="Rectángulo_296805" data-name="Rectángulo 296805" width="2.427" height="47.6" transform="translate(1233.133 1682.893)" fill="#ffb30b"/>
      <path id="Trazado_203809" data-name="Trazado 203809" d="M3579.429,336.712a2.738,2.738,0,1,1-2.738-2.738,2.738,2.738,0,0,1,2.738,2.738" transform="translate(-2342.344 1393.644)" fill="#ffb30b"/>
      <path id="Trazado_203810" data-name="Trazado 203810" d="M3672.2,550.122h-62.339a29.378,29.378,0,0,1-29.344-29.345v-47.6h2.427v47.6a26.948,26.948,0,0,0,26.917,26.917H3672.2Z" transform="translate(-2347.38 1286.792)" fill="#ffb30b"/>
      <path id="Trazado_203811" data-name="Trazado 203811" d="M3579.429,464.724a2.738,2.738,0,1,0-2.738,2.738,2.738,2.738,0,0,0,2.738-2.738" transform="translate(-2342.344 1295.383)" fill="#ffb30b"/>
    </g>
    <g transform="matrix(1, 0, 0, 1, 180, 1632)" filter="url(#Trazado_203812)">
      <path id="Trazado_203812-2" data-name="Trazado 203812" d="M202.945,78.063V192.575a25.837,25.837,0,0,1-25.837,25.837H62.6a25.838,25.838,0,0,1-25.838-25.837V78.063A25.838,25.838,0,0,1,62.6,52.225H177.108a25.837,25.837,0,0,1,25.837,25.838" transform="translate(193.24 -40.22)" fill="#fff"/>
    </g>
    <g transform="matrix(1, 0, 0, 1, 180, 1632)" filter="url(#Trazado_203813)">
      <path id="Trazado_203813-2" data-name="Trazado 203813" d="M1098.073,78.063V192.575a25.837,25.837,0,0,1-25.838,25.837H957.723a25.838,25.838,0,0,1-25.837-25.837V78.063a25.838,25.838,0,0,1,25.837-25.838h114.512a25.837,25.837,0,0,1,25.838,25.838" transform="translate(-493.89 -40.09)" fill="#fff"/>
    </g>
    <g transform="matrix(1, 0, 0, 1, 180, 1632)" filter="url(#Trazado_203814)">
      <path id="Trazado_203814-2" data-name="Trazado 203814" d="M1993.2,78.063V192.575a25.837,25.837,0,0,1-25.837,25.837H1852.852a25.838,25.838,0,0,1-25.837-25.837V78.063a25.837,25.837,0,0,1,25.837-25.838h114.512A25.837,25.837,0,0,1,1993.2,78.063" transform="translate(-1181.01 -40.09)" fill="#fff"/>
    </g>
    <g transform="matrix(1, 0, 0, 1, 180, 1632)" filter="url(#Trazado_203815)">
      <path id="Trazado_203815-2" data-name="Trazado 203815" d="M2888.329,78.063V192.575a25.837,25.837,0,0,1-25.837,25.837H2747.979a25.838,25.838,0,0,1-25.838-25.837V78.063a25.838,25.838,0,0,1,25.838-25.838h114.512a25.837,25.837,0,0,1,25.837,25.838" transform="translate(-1868.14 -40.09)" fill="#fff"/>
    </g>
    <g transform="matrix(1, 0, 0, 1, 180, 1632)" filter="url(#Trazado_203816)">
      <path id="Trazado_203816-2" data-name="Trazado 203816" d="M3783.457,78.063V192.575a25.837,25.837,0,0,1-25.837,25.837H3643.107a25.838,25.838,0,0,1-25.837-25.837V78.063a25.837,25.837,0,0,1,25.837-25.838H3757.62a25.837,25.837,0,0,1,25.837,25.838" transform="translate(-2555.27 -40.09)" fill="#fff"/>
    </g>
    <text id="MySQL_Workbench" data-name="MySQL
Workbench" transform="translate(489.542 1717)" fill="#12263f" font-size="18" font-family="Roboto-BlackItalic, Roboto" font-weight="800" font-style="italic"><tspan x="-28.622" y="19">MySQL</tspan><tspan x="-44.886" y="44">Workbench</tspan></text>
    <text id="Navicat_For_MySQL" data-name="Navicat For MySQL" transform="translate(699 1717)" fill="#12263f" font-size="18" font-family="Roboto-BlackItalic, Roboto" font-weight="800" font-style="italic"><tspan x="-45.321" y="19">Navicat For </tspan><tspan x="-28.622" y="44">MySQL</tspan></text>
    <text id="MySQL_Tools_Family" data-name="MySQL Tools Family" transform="translate(1114 1717)" fill="#12263f" font-size="18" font-family="Roboto-BlackItalic, Roboto" font-weight="800" font-style="italic"><tspan x="-52.066" y="19">MySQL Tools </tspan><tspan x="-26.358" y="44">Family</tspan></text>
    <text id="DBTools_Manager" data-name="DBTools
Manager" transform="translate(1323 1717)" fill="#12263f" font-size="18" font-family="Roboto-BlackItalic, Roboto" font-weight="800" font-style="italic"><tspan x="-32.73" y="19">DBTools</tspan><tspan x="-35.231" y="44">Manager</tspan></text>
    <text id="Heidy_SQL" data-name="Heidy SQL" transform="translate(906 1730)" fill="#12263f" font-size="18" font-family="Roboto-BlackItalic, Roboto" font-weight="800" font-style="italic"><tspan x="-41.52" y="19">Heidy SQL</tspan></text>
    <circle id="Elipse_5239" data-name="Elipse 5239" cx="15" cy="15" r="15" transform="translate(477.542 1671)" fill="rgba(255,179,11,0.3)"/>
    <circle id="Elipse_5240" data-name="Elipse 5240" cx="15" cy="15" r="15" transform="translate(686 1671)" fill="rgba(255,179,11,0.3)"/>
    <circle id="Elipse_5242" data-name="Elipse 5242" cx="15" cy="15" r="15" transform="translate(1102 1671)" fill="rgba(255,179,11,0.3)"/>
    <circle id="Elipse_5243" data-name="Elipse 5243" cx="15" cy="15" r="15" transform="translate(1310 1671)" fill="rgba(255,179,11,0.3)"/>
    <circle id="Elipse_5241" data-name="Elipse 5241" cx="15" cy="15" r="15" transform="translate(894 1671)" fill="rgba(255,179,11,0.3)"/>
    <text id="_1." data-name="1." transform="translate(494.542 1675)" fill="#12263f" font-size="18" font-family="Roboto-BlackItalic, Roboto" font-weight="800" font-style="italic"><tspan x="-7.778" y="19">1.</tspan></text>
    <text id="_2." data-name="2." transform="translate(704 1675)" fill="#12263f" font-size="18" font-family="Roboto-BlackItalic, Roboto" font-weight="800" font-style="italic"><tspan x="-7.778" y="19">2.</tspan></text>
    <text id="_4." data-name="4." transform="translate(1119 1675)" fill="#12263f" font-size="18" font-family="Roboto-BlackItalic, Roboto" font-weight="800" font-style="italic"><tspan x="-7.778" y="19">4.</tspan></text>
    <text id="_5." data-name="5." transform="translate(1328 1675)" fill="#12263f" font-size="18" font-family="Roboto-BlackItalic, Roboto" font-weight="800" font-style="italic"><tspan x="-7.778" y="19">5.</tspan></text>
    <text id="_3." data-name="3." transform="translate(911 1675)" fill="#12263f" font-size="18" font-family="Roboto-BlackItalic, Roboto" font-weight="800" font-style="italic"><tspan x="-7.778" y="19">3.</tspan></text>
    <rect id="Rectángulo_296807" data-name="Rectángulo 296807" width="175" height="84" rx="10" transform="translate(180 1685)" fill="#ffb30b"/>
    <path id="Polígono_5" data-name="Polígono 5" d="M19.5,0,39,21H0Z" transform="translate(370 1707.5) rotate(90)" fill="#ffb30b"/>
    <text id="Herramientas_SQL" data-name="Herramientas
SQL" transform="translate(261 1699)" fill="#12263f" font-size="22" font-family="Roboto-Black, Roboto" font-weight="800"><tspan x="-67.67" y="23">Herramientas</tspan><tspan x="-20.442" y="53">SQL</tspan></text>
  </g>
</svg>
