<svg xmlns="http://www.w3.org/2000/svg" width="400" height="382.641" viewBox="0 0 400 382.641">
  <g id="Grupo_146534" data-name="Grupo 146534" transform="translate(-180 -7796)">
    <g id="Grupo_131757" data-name="Grupo 131757" transform="translate(191.139 7888.641)">
      <path id="die" d="M2440.036,4128.718l-271.046-.256c-13.786-17.588-43.669-60.953-47.912-123.858-1.083-16.039-6.724-99.683,39.193-135.656,22.542-17.661,48.97-17.141,72.325-16.68,41.377.813,43.876,16.312,84.256,19.263,48.826,3.567,60.849-17.948,97.3-6.089,28.5,9.271,46.236,30.584,51.74,37.361,37.169,45.761,44.535,120.373,17.638,174.87A136.8,136.8,0,0,1,2440.036,4128.718Z" transform="translate(-2119.785 -3838.718)" fill="#f7f7fc"/>
      <g id="Grupo_131760" data-name="Grupo 131760" transform="translate(161 -92.641)">
        <path id="Trazado_191257" data-name="Trazado 191257" d="M2359.286,3834.933a8.711,8.711,0,0,0-8.851-8.565H2141.852a8.712,8.712,0,0,0-8.851,8.565v13.781h226.286Z" transform="translate(-2133 -3826.367)" fill="#61616b"/>
        <path id="Trazado_191258" data-name="Trazado 191258" d="M2359.286,3844.279v128.927c0,6.484-5.525,11.74-12.343,11.74h-201.6c-6.817,0-12.344-5.256-12.344-11.74V3844.279Z" transform="translate(-2133 -3821.933)" fill="#dbdbf1"/>
        <rect id="Rectángulo_293904" data-name="Rectángulo 293904" width="31.878" height="6.488" transform="translate(52.755 33.519)" fill="#00defc"/>
        <path id="Trazado_191259" data-name="Trazado 191259" d="M2227.1,3859.722h-19.114v-6.487H2227.1Zm87.039-6.487H2292.3v6.487h21.841Zm-73.152,0h-5.772v6.487h5.772Zm46.726,0h-41.883v6.487h41.883Z" transform="translate(-2114.437 -3819.715)" fill="#fff"/>
        <rect id="Rectángulo_293905" data-name="Rectángulo 293905" width="31.878" height="6.488" transform="translate(52.755 123.651)" fill="#00defc"/>
        <path id="Trazado_191260" data-name="Trazado 191260" d="M2189.641,3942.29h-14.354V3935.8h14.354Zm16.939-6.487h-14.354v6.487h14.354Z" transform="translate(-2122.532 -3799.275)" fill="#fff"/>
        <path id="Trazado_191261" data-name="Trazado 191261" d="M2227.1,3931.969h-19.113v-6.487H2227.1Zm13.887-6.487h-5.772v6.487h5.772Zm46.726,0h-41.882v6.487h41.882Z" transform="translate(-2114.437 -3801.831)" fill="#61616b"/>
        <path id="Trazado_191262" data-name="Trazado 191262" d="M2260.528,3870.043h-33.29v-6.487h33.29Zm13.437-6.487h-8.884v6.487h8.884Z" transform="translate(-2109.67 -3817.161)" fill="#61616b"/>
        <rect id="Rectángulo_293906" data-name="Rectángulo 293906" width="48.747" height="6.488" transform="translate(63.915 46.395)" fill="#00defc"/>
        <path id="Trazado_191263" data-name="Trazado 191263" d="M2271.016,3911.327h-33.288v-6.487h33.288Zm23.475-6.487H2275.57v6.487h18.922Z" transform="translate(-2107.074 -3806.941)" fill="#61616b"/>
        <rect id="Rectángulo_293907" data-name="Rectángulo 293907" width="61.414" height="6.488" transform="translate(63.915 97.899)" fill="#00defc"/>
        <path id="Trazado_191264" data-name="Trazado 191264" d="M2265.5,3890.685h-33.29V3884.2h33.29Zm-38.2-6.487h-20.15v6.487h20.15Z" transform="translate(-2114.643 -3812.051)" fill="#61616b"/>
        <path id="Trazado_191265" data-name="Trazado 191265" d="M2149.1,3859.722h-4.169v-6.487h4.169Zm0,6.389h-4.169v6.487h4.169Zm0,12.876h-4.169v6.487h4.169Zm0,12.876h-4.169v6.487h4.169Zm0,12.876h-4.169v6.487h4.169Zm0,12.876h-4.169v6.487h4.169Zm0,12.875h-4.169v6.488h4.169Zm0,12.876h-4.169v6.487h4.169Zm0,12.876h-4.169v6.487h4.169Z" transform="translate(-2130.048 -3819.715)" fill="#00defc"/>
        <path id="Trazado_191266" data-name="Trazado 191266" d="M2163.028,3859.722h-11.417v-6.487h11.417Zm0,6.389h-11.417v6.487h11.417Zm0,12.876h-11.417v6.487h11.417Zm0,12.876h-11.417v6.487h11.417Zm0,12.876h-11.417v6.487h11.417Zm0,12.876h-11.417v6.487h11.417Zm0,12.875h-11.417v6.488h11.417Zm0,12.876h-11.417v6.487h11.417Zm0,12.876h-11.417v6.487h11.417Z" transform="translate(-2128.393 -3819.715)" fill="#61616b"/>
        <rect id="Rectángulo_293908" data-name="Rectángulo 293908" width="11.417" height="6.488" transform="translate(76.872 59.271)" fill="#00defc"/>
        <rect id="Rectángulo_293909" data-name="Rectángulo 293909" width="5.708" height="6.488" transform="translate(92.511 59.271)" fill="#00defc"/>
        <rect id="Rectángulo_293910" data-name="Rectángulo 293910" width="15.358" height="6.488" transform="translate(106.894 85.023)" fill="#61616b"/>
        <rect id="Rectángulo_293911" data-name="Rectángulo 293911" width="25.945" height="6.488" transform="translate(103.105 59.271)" fill="#61616b"/>
        <rect id="Rectángulo_293912" data-name="Rectángulo 293912" width="11.417" height="6.488" transform="translate(76.872 110.775)" fill="#00defc"/>
        <g id="Grupo_131757-2" data-name="Grupo 131757" transform="translate(14.778 5.688)">
          <path id="Trazado_191267" data-name="Trazado 191267" d="M2147.67,3836.576a2.825,2.825,0,1,1,2.827-2.825A2.829,2.829,0,0,1,2147.67,3836.576Zm0-4.561a1.736,1.736,0,1,0,1.736,1.736A1.737,1.737,0,0,0,2147.67,3832.015Z" transform="translate(-2144.846 -3830.926)" fill="#fff"/>
        </g>
        <g id="Grupo_131758" data-name="Grupo 131758" transform="translate(23.259 5.688)">
          <path id="Trazado_191268" data-name="Trazado 191268" d="M2154.47,3836.576a2.825,2.825,0,1,1,2.826-2.825A2.828,2.828,0,0,1,2154.47,3836.576Zm0-4.561a1.736,1.736,0,1,0,1.736,1.736A1.737,1.737,0,0,0,2154.47,3832.015Z" transform="translate(-2151.644 -3830.926)" fill="#fff"/>
        </g>
        <g id="Grupo_131759" data-name="Grupo 131759" transform="translate(31.742 5.688)">
          <path id="Trazado_191269" data-name="Trazado 191269" d="M2161.267,3836.576a2.825,2.825,0,1,1,2.826-2.825A2.827,2.827,0,0,1,2161.267,3836.576Zm0-4.561a1.736,1.736,0,1,0,1.737,1.736A1.737,1.737,0,0,0,2161.267,3832.015Z" transform="translate(-2158.443 -3830.926)" fill="#fff"/>
        </g>
      </g>
      <g id="Grupo_131770" data-name="Grupo 131770" transform="translate(8.862 0.5)">
        <g id="man" transform="translate(-9 -32.526)">
          <g id="Grupo_131767" data-name="Grupo 131767" transform="translate(0)">
            <g id="Grupo_131761" data-name="Grupo 131761" transform="translate(0 136.54)">
              <path id="Trazado_191270" data-name="Trazado 191270" d="M2389.117,4083.246l1.84,29.219s-90.435.943-101.019,0-32.444.641-28.771-23.561c1.695-11.188,22.123-102.742,31.746-117.82,6.824-10.7,34.459-20.447,53.043-25.209.594-.152,1.182-.3,1.757-.442,6.788-1.677,12.145-2.626,14.468-2.626,8.657,0,38.977-8.576,50.521-6.688.966.157,2.218.4,3.7.727.664.14,1.373.3,2.125.472,17.535,4.058,57.764,15.946,61.99,23.4,4.809,8.482,36.56,117.82,36.56,117.82Z" transform="translate(-2260.755 -3935.847)" fill="#084a93"/>
              <rect id="Rectángulo_293913" data-name="Rectángulo 293913" width="1.629" height="109.541" transform="matrix(-0.001, -1, 1, -0.001, 70.223, 90.277)" fill="#fff"/>
              <path id="Trazado_191271" data-name="Trazado 191271" d="M2442,4025.379v1.63H2331.562l.25-1.63Z" transform="translate(-2264.684 -3925.486)" fill="#fff"/>
              <path id="Trazado_191272" data-name="Trazado 191272" d="M2443.482,4035.595v1.63H2333.748l.25-1.63Z" transform="translate(-2268.605 -3924.303)" fill="#fff"/>
              <path id="Trazado_191273" data-name="Trazado 191273" d="M2436.042,4057.135h-17.681l2.352-15.429.25-1.63,1.485-9.768.25-1.63,4.85-31.8a238.364,238.364,0,0,0-1.549,31.8c.017.552.035,1.094.058,1.63a96.122,96.122,0,0,0,.874,9.768c.082.564.163,1.107.256,1.63C2429.625,4055.959,2434.872,4057.07,2436.042,4057.135Z" transform="translate(-2355.569 -3928.784)" fill="#162547" opacity="0.47"/>
              <path id="Trazado_191274" data-name="Trazado 191274" d="M2418.385,4050.884a1.283,1.283,0,0,1-.239,0Z" transform="translate(-2337.674 -3922.534)" fill="#182051" opacity="0.88"/>
              <path id="Trazado_191275" data-name="Trazado 191275" d="M2419.029,3958.842c-4.687,8.378-14.415,14.2-25.384,15.195-1.228.111-2.479.169-3.743.169-7.917,0-16.522-2.177-25.638-6.5-4.407-2.084-9.932-5.111-13.576-10.007a17.236,17.236,0,0,1-3.528-11.929c.594-.152,1.182-.3,1.757-.442a15.849,15.849,0,0,0,3.121,11.369c3.417,4.6,8.715,7.492,12.948,9.495,10.292,4.874,19.887,6.953,28.509,6.172,10.427-.943,19.648-6.439,24.073-14.344a22.18,22.18,0,0,0,.035-21.279c.664.14,1.373.3,2.125.472A24.024,24.024,0,0,1,2419.029,3958.842Z" transform="translate(-2261.959 -3935.743)" fill="#fff"/>
              <path id="Trazado_191276" data-name="Trazado 191276" d="M2434.413,4060.205l-.712-.447a21.108,21.108,0,0,1,18.992-9.578l-.064.838A20.269,20.269,0,0,0,2434.413,4060.205Z" transform="translate(-2389.336 -3922.621)" fill="#162547"/>
              <rect id="Rectángulo_293914" data-name="Rectángulo 293914" width="0.84" height="17.028" transform="translate(40.374 124.363) rotate(-90.465)" fill="#162547"/>
              <path id="Trazado_191277" data-name="Trazado 191277" d="M2441.907,3990.391a25.034,25.034,0,0,0-16.72-20.581l.259-.8a25.9,25.9,0,0,1,17.3,21.292Z" transform="translate(-2369.886 -3932.009)" fill="#162547"/>
              <path id="Trazado_191278" data-name="Trazado 191278" d="M2301.168,3980.053l-.838-.067A22.166,22.166,0,0,1,2313.046,3962l.343.768A21.3,21.3,0,0,0,2301.168,3980.053Z" transform="translate(-2101.226 -3932.82)" fill="#162547"/>
            </g>
            <g id="Grupo_131766" data-name="Grupo 131766" transform="translate(78.786)">
              <g id="Grupo_131762" data-name="Grupo 131762" transform="translate(0.79)">
                <path id="Trazado_191279" data-name="Trazado 191279" d="M2428.418,3844.128a12.154,12.154,0,0,1-6.917,11.477c.719-.324,2.526,4.694,2.645,5.225a13.63,13.63,0,0,1-.036,6.374c-1.023,4.111-4.534,8.086-8.969,8.386-5.293.362-7.332-4.537-11.126-7.223a30.409,30.409,0,0,0-34.264-.7c-3.795,2.479-6.994,5.766-10.583,8.541-2.562,1.978-9.638,6.957-12.954,4.761-1.773-1.176-3.182-4.557-4.07-6.417a31.4,31.4,0,0,1-1.694-4.341q-.423-1.34-.713-2.71a31.282,31.282,0,0,1-.644-8.465,11.651,11.651,0,0,1,1.658-5.885,5.237,5.237,0,0,1,5.292-2.4,20.35,20.35,0,0,1,30.892-17.706c-.146-5.767,3.215-11.273,7.913-14.623s10.572-4.746,16.333-4.928c5.71-.174,11.768.916,16.082,4.657a13.587,13.587,0,0,1,4.52,8.709,9.878,9.878,0,0,1-1.566,6.67A12.176,12.176,0,0,1,2428.418,3844.128Z" transform="translate(-2339.036 -3813.469)" fill="#1c1e33"/>
                <path id="Trazado_191280" data-name="Trazado 191280" d="M2427.747,3826.854a6.658,6.658,0,0,0-1.923-1.619,17.873,17.873,0,0,0-8.048-2.292,50.647,50.647,0,0,0-17.333,2.727c-5.564,1.927-10.675,6.057-12.283,11.72-7.017-1.59-14.611-2.072-21.22.787s-11.852,9.749-10.94,16.892a15.719,15.719,0,0,0-9.586,15.139q-.423-1.34-.713-2.71a31.272,31.272,0,0,1-.644-8.465,11.648,11.648,0,0,1,1.658-5.885,5.237,5.237,0,0,1,5.292-2.4,20.35,20.35,0,0,1,30.892-17.706c-.146-5.767,3.215-11.273,7.913-14.623s10.572-4.746,16.333-4.928c5.71-.174,11.768.916,16.082,4.657A13.589,13.589,0,0,1,2427.747,3826.854Z" transform="translate(-2344.999 -3813.469)" fill="#fff" opacity="0.11"/>
                <path id="Trazado_191281" data-name="Trazado 191281" d="M2385.7,3863.609A11.426,11.426,0,0,0,2394.4,3854c.015-.136.027-.271.035-.4a18,18,0,0,0,9.206-4.3,5.858,5.858,0,0,0,7.378-7.094.193.193,0,0,0-.23-.135.189.189,0,0,0-.135.229,5.478,5.478,0,0,1-6.708,6.693,6.977,6.977,0,0,0,.616-.739c.615-.862.378-2.049.031-3.2a2.578,2.578,0,0,0-2.375-1.956,2.37,2.37,0,0,0-2.071,2.489,3.836,3.836,0,0,0,1.735,2.87,5.532,5.532,0,0,0,1.354.713,17.526,17.526,0,0,1-8.79,4.067,3.227,3.227,0,0,0-.911-2.5,2.139,2.139,0,0,0-2.246-.212,1.075,1.075,0,0,0-.64,1.107,2.155,2.155,0,0,0,1.773,1.893,5.347,5.347,0,0,0,1.634.114c-.008.113-.018.221-.03.327a11.034,11.034,0,0,1-8.4,9.281.188.188,0,0,0,.069.37Zm7.578-12.6a2.937,2.937,0,0,1,.786,2.253,5.089,5.089,0,0,1-1.555-.109,1.784,1.784,0,0,1-1.492-1.575.711.711,0,0,1,.442-.727,1.6,1.6,0,0,1,.5-.157A1.652,1.652,0,0,1,2393.279,3851.011Zm8.949-7.542a2.229,2.229,0,0,1,2,1.687c.32,1.063.544,2.147.025,2.874a7.049,7.049,0,0,1-.719.843,5.308,5.308,0,0,1-1.437-.727,3.469,3.469,0,0,1-1.579-2.579,2.055,2.055,0,0,1,1.55-2.083A1.235,1.235,0,0,1,2402.228,3843.469Z" transform="translate(-2373.598 -3810.161)"/>
                <path id="Trazado_191282" data-name="Trazado 191282" d="M2367.157,3847.891a9.741,9.741,0,0,0,2.8-1.626,6.938,6.938,0,0,0,3.521.437,6.6,6.6,0,0,0,2.462-12.171.189.189,0,1,0-.187.327,6.129,6.129,0,0,1-2.323,11.469,6.6,6.6,0,0,1-3.177-.35c.081-.086.161-.174.237-.266a3.571,3.571,0,0,0,.608-3.864,2.5,2.5,0,0,0-1.883-1.237,1.968,1.968,0,0,0-1.724.566,2.009,2.009,0,0,0-.518,1.532,3.952,3.952,0,0,0,1.4,2.6,5.8,5.8,0,0,0,1.2.785,9.783,9.783,0,0,1-2.565,1.449,12.533,12.533,0,0,1-5.249,1.188,5.876,5.876,0,0,1-4.1-1.778,5.658,5.658,0,0,0,3.192-.864,3.22,3.22,0,0,0,1.462-3.125,2.593,2.593,0,0,0-1.693-1.907,3.114,3.114,0,0,0-2.972.3,3.994,3.994,0,0,0-.764,5.191,10.208,10.208,0,0,1-8.023-5.187.185.185,0,0,0-.254-.077.188.188,0,0,0-.077.255,10.583,10.583,0,0,0,8.631,5.4,6.148,6.148,0,0,0,4.58,2.163,9.062,9.062,0,0,0,1.75-.1A15.708,15.708,0,0,0,2367.157,3847.891Zm2.009-6.907a2.157,2.157,0,0,1,1.6,1.042,3.239,3.239,0,0,1-.568,3.444,4.356,4.356,0,0,1-.32.35,5.531,5.531,0,0,1-1.261-.8,3.566,3.566,0,0,1-1.271-2.337,1.63,1.63,0,0,1,.418-1.253,1.474,1.474,0,0,1,.869-.444A1.891,1.891,0,0,1,2369.165,3840.985Zm-11.945,5.385a3.61,3.61,0,0,1,.657-4.707,2.771,2.771,0,0,1,2.611-.253,2.226,2.226,0,0,1,1.46,1.625,2.84,2.84,0,0,1-1.3,2.744,5.408,5.408,0,0,1-3.166.8l-.12,0C2357.311,3846.508,2357.265,3846.44,2357.22,3846.369Z" transform="translate(-2300.329 -3811.035)"/>
              </g>
              <path id="Trazado_191283" data-name="Trazado 191283" d="M2428.137,3881.943a19.949,19.949,0,0,1-5.3,8.446s-.012.711-.092,1.934c-.366,6.158-2.188,25.326-10.745,31.728l.731,29.6s2.512,16.376-16.613,20.834-30.62-3.22-40.154-14.565l.738-58.627s-9.677,1.484-14.139-7.737-.621-18.952,6.649-16.257l-.262-1.711-.764-4.987s8.552-.916,13.854-5.493a11.174,11.174,0,0,0,4.016-7.153s15.746-1.654,17.01-13.276c0,0,21.465,15.755,36.014,1.333a34.478,34.478,0,0,1,2.572,11.8c.222,5.322.452,12.882.452,12.882s4.983-2.287,6.3,1.321A16.487,16.487,0,0,1,2428.137,3881.943Z" transform="translate(-2340.661 -3809.857)" fill="#ff9e79"/>
              <path id="Trazado_191284" data-name="Trazado 191284" d="M2355.7,3912.159s21.175,18.847,37.958,4.083l.253,10.238S2374.7,3936.672,2355.7,3912.159Z" transform="translate(-2322.316 -3802.048)" fill="#602929" opacity="0.6"/>
              <path id="Trazado_191285" data-name="Trazado 191285" d="M2414.412,3880.981c-1.057.413-2.8.841-3.862,1.247a90.731,90.731,0,0,0-8.7-7.047l-1.141-7.444s8.667-.171,13.969-4.747C2412.6,3868.878,2411.984,3874.885,2414.412,3880.981Z" transform="translate(-2393.294 -3807.739)" fill="#4d5060"/>
              <g id="Grupo_131765" data-name="Grupo 131765" transform="translate(1.68 52.955)">
                <path id="Trazado_191286" data-name="Trazado 191286" d="M2373.277,3867.934s12.715-7.859,19.678-4.893c3.464,1.475,1.751,4.492.088,4.762s-7.143.133-9.748.9-8.537,2.065-9.255,1.841A1.56,1.56,0,0,1,2373.277,3867.934Z" transform="translate(-2344.115 -3860.766)" fill="#1c1e33"/>
                <path id="Trazado_191287" data-name="Trazado 191287" d="M2353.7,3865.924c-.853.043-1.889-.006-2.309-.751-.485-.859.265-1.9,1.065-2.477a10.45,10.45,0,0,1,6.656-1.746,21.641,21.641,0,0,1,6.774,1.693c.882.35,1.92,1.018,1.736,1.949s-1.4,1.155-2.353,1.168C2361.39,3865.816,2357.581,3865.7,2353.7,3865.924Z" transform="translate(-2292.749 -3860.932)" fill="#1c1e33"/>
                <path id="Trazado_191288" data-name="Trazado 191288" d="M2363.124,3889.078a.377.377,0,0,1-.153-.737,13.433,13.433,0,0,0,6.218-3.654.338.338,0,0,0,.056-.372,58,58,0,0,1-4.339-14.219.378.378,0,0,1,.308-.435.366.366,0,0,1,.434.309,57.217,57.217,0,0,0,4.283,14.035,1.082,1.082,0,0,1-.2,1.2,14.184,14.184,0,0,1-6.567,3.86Z" transform="translate(-2307.912 -3859.923)" fill="#602929" opacity="0.6"/>
                <ellipse id="Elipse_5083" data-name="Elipse 5083" cx="6.778" cy="9.414" rx="6.778" ry="9.414" transform="translate(25.209 34.812) rotate(-91.534)" fill="#cc4c46" opacity="0.32"/>
                <path id="Trazado_191289" data-name="Trazado 191289" d="M2358.6,3886.824a18.01,18.01,0,0,1-.091,1.934c-.185.089-.378.172-.572.248-4.9,1.949-9.995.7-11.374-2.774s1.467-7.874,6.372-9.823a12.654,12.654,0,0,1,4.578-.919S2358.489,3883.979,2358.6,3886.824Z" transform="translate(-2278.099 -3859.247)" fill="#cc4c46" opacity="0.32"/>
                <path id="Trazado_191290" data-name="Trazado 191290" d="M2419.117,3885.193a.375.375,0,0,1-.4-.222,15.827,15.827,0,0,0-4.143-5.624,3.184,3.184,0,0,0-2.4-1.051l-.029,0a2.308,2.308,0,0,0-1.515,1.1,6.992,6.992,0,0,0-.78,2.008.377.377,0,0,1-.728-.2,7.651,7.651,0,0,1,.876-2.221,2.994,2.994,0,0,1,2.074-1.437,4,4,0,0,1,2.99,1.227,16.567,16.567,0,0,1,4.342,5.894.377.377,0,0,1-.2.5A.354.354,0,0,1,2419.117,3885.193Z" transform="translate(-2409.112 -3859.011)" fill="#602929" opacity="0.6"/>
                <path id="Trazado_191291" data-name="Trazado 191291" d="M2415.887,3888.26a.375.375,0,0,1-.374-.169,9.024,9.024,0,0,1,.015-9.511.376.376,0,0,1,.631.408,8.252,8.252,0,0,0-.012,8.7.377.377,0,0,1-.26.576Z" transform="translate(-2411.533 -3858.909)" fill="#602929" opacity="0.6"/>
                <g id="Grupo_131763" data-name="Grupo 131763" transform="translate(39.815 12.665)">
                  <ellipse id="Elipse_5084" data-name="Elipse 5084" cx="4.895" cy="2.636" rx="4.895" ry="2.636" transform="translate(0.717 10.15) rotate(-94.197)" fill="#1c1e33"/>
                  <ellipse id="Elipse_5085" data-name="Elipse 5085" cx="0.753" cy="0.377" rx="0.753" ry="0.377" transform="translate(4.046 4.531) rotate(-98.72)" fill="#fff"/>
                  <ellipse id="Elipse_5086" data-name="Elipse 5086" cx="1.883" cy="1.13" rx="1.883" ry="1.13" transform="translate(2.384 8.596) rotate(-98.72)"/>
                </g>
                <g id="Grupo_131764" data-name="Grupo 131764" transform="translate(63.635 9.011)">
                  <ellipse id="Elipse_5087" data-name="Elipse 5087" cx="4.895" cy="2.636" rx="4.895" ry="2.636" transform="translate(0.717 10.15) rotate(-94.197)" fill="#1c1e33"/>
                  <path id="Trazado_191292" data-name="Trazado 191292" d="M2357.785,3873.039c.063.412-.052.771-.258.8s-.424-.277-.486-.687.052-.77.257-.8S2357.721,3872.628,2357.785,3873.039Z" transform="translate(-2352.994 -3868.622)" fill="#fff"/>
                  <ellipse id="Elipse_5088" data-name="Elipse 5088" cx="1.883" cy="1.13" rx="1.883" ry="1.13" transform="translate(2.385 8.596) rotate(-98.72)"/>
                </g>
                <path id="Trazado_191293" data-name="Trazado 191293" d="M2345.98,3870.224a3.9,3.9,0,0,0-3.778,3.77.377.377,0,0,0,.374.379c.02,0,.04,0,.06,0a.378.378,0,0,0,.319-.371,3.063,3.063,0,0,1,1.111-2.254,7.509,7.509,0,0,1,.742,7.04.376.376,0,0,0,.2.493.376.376,0,0,0,.492-.2,8.281,8.281,0,0,0-.814-7.755,2.835,2.835,0,0,1,1.3-.344.376.376,0,1,0,0-.752Z" transform="translate(-2261.379 -3859.857)" fill="#602929" opacity="0.6"/>
              </g>
              <path id="Trazado_191294" data-name="Trazado 191294" d="M2419.9,3873.751c.542,3.539-4.257,7.111-10.926,8.135s-12.319-.947-12.861-4.486a3.4,3.4,0,0,1-.027-.454,5.251,5.251,0,0,0-3.522-.58,5.193,5.193,0,0,0-3.176,2.095c.512,3.532-4.442,7.117-11.3,8.169-6.881,1.055-12.7-.893-13.239-4.435a4.15,4.15,0,0,1,.827-3.009l-22.353-4.772.152-.715,22.7,4.848c1.872-2.112,5.515-3.866,9.972-4.55,6.313-.968,11.718.6,12.988,3.6a5.782,5.782,0,0,1,7.01-1.442c.589-3.1,5.011-5.984,10.894-6.886C2413.7,3868.242,2419.353,3870.213,2419.9,3873.751Zm-31.237,4.791c-.473-3.084-6.039-4.8-12.407-3.823s-11.164,4.281-10.691,7.365,6.038,4.8,12.407,3.823S2389.132,3881.627,2388.659,3878.542Zm30.525-4.682c-.473-3.089-5.874-4.83-12.041-3.885-5.666.869-10.024,3.71-10.329,6.562h0v0a2.928,2.928,0,0,0,0,.75c.474,3.089,5.875,4.832,12.042,3.886S2419.659,3876.949,2419.184,3873.861Z" transform="translate(-2334.519 -3807.043)" fill="#fff"/>
              <path id="Trazado_191295" data-name="Trazado 191295" d="M2366.777,3898.205a14.081,14.081,0,0,1-7.9-2.334.472.472,0,0,1,.529-.781,13.741,13.741,0,0,0,16.533-1.272.471.471,0,0,1,.643.688A14.438,14.438,0,0,1,2366.777,3898.205Z" transform="translate(-2308.448 -3804.185)" fill="#602929" opacity="0.6"/>
              <path id="Trazado_191296" data-name="Trazado 191296" d="M2364.7,3901.595a6.369,6.369,0,0,1-2.781-.627.471.471,0,0,1,.411-.849,5.74,5.74,0,0,0,6.508-1.229.471.471,0,0,1,.693.638A6.6,6.6,0,0,1,2364.7,3901.595Z" transform="translate(-2304.695 -3803.602)" fill="#602929" opacity="0.6"/>
            </g>
          </g>
          <g id="Grupo_131768" data-name="Grupo 131768" transform="translate(87.933 188.386)">
            <path id="Trazado_191297" data-name="Trazado 191297" d="M2407.405,4107.507H2242.221a12.582,12.582,0,0,1-12.481-14.173l12.753-100.028a12.583,12.583,0,0,1,12.481-10.991h165.184a12.583,12.583,0,0,1,12.48,14.173l-12.753,100.028A12.583,12.583,0,0,1,2407.405,4107.507Z" transform="translate(-2229.638 -3982.315)" fill="#b0c0d2"/>
            <ellipse id="Elipse_5089" data-name="Elipse 5089" cx="11.352" cy="11.352" rx="11.352" ry="11.352" transform="translate(97.197 51.252)" fill="#fff"/>
          </g>
          <path id="Trazado_191298" data-name="Trazado 191298" d="M2406.357,4087.256h54.15v8.105h-61.9a.179.179,0,0,1-.18-.179h0A7.926,7.926,0,0,1,2406.357,4087.256Z" transform="translate(-2357.798 -3781.784)" fill="#b0c0d2"/>
        </g>
        <g id="cup" transform="translate(278.526 228.52)">
          <g id="Grupo_131769" data-name="Grupo 131769" transform="translate(0)">
            <path id="Trazado_191299" data-name="Trazado 191299" d="M2183.6,4042.872l4.786,52.008a.856.856,0,0,0,.9.743h32.942a.868.868,0,0,0,.9-.728l.65-6.6,4.476-45.1a.843.843,0,0,0-.883-.882l-34.568-.264-8.286-.062A.854.854,0,0,0,2183.6,4042.872Z" transform="translate(-2178.7 -4041.989)" fill="#ffb30b"/>
            <path id="Trazado_191300" data-name="Trazado 191300" d="M2188.079,4042.872l4.786,52.008a.856.856,0,0,0,.9.743h32.942a.868.868,0,0,0,.9-.728l.65-6.6c-2.958-1.688-6.21-2.849-9.261-4.383a39.9,39.9,0,0,1-15.07-13.6c-3.314-4.987-6.224-10.635-6.536-16.633a115.758,115.758,0,0,1-.108-11.632l-8.286-.062A.854.854,0,0,0,2188.079,4042.872Z" transform="translate(-2183.182 -4041.989)" fill="#e39c00"/>
            <path id="Trazado_191301" data-name="Trazado 191301" d="M2231.5,4083.934a1.647,1.647,0,0,0,.416-3.24,13.634,13.634,0,0,1-1.493-25.89,1.646,1.646,0,1,0-1.2-3.067,16.926,16.926,0,0,0,1.855,32.142A1.681,1.681,0,0,0,2231.5,4083.934Z" transform="translate(-2218.454 -4041.989)" fill="#ffc33d"/>
          </g>
        </g>
        <path id="table" d="M2133.339,4102.969H2507.23a4.443,4.443,0,0,0,4.443-4.442h0a4.443,4.443,0,0,0-4.443-4.443H2133.339a4.443,4.443,0,0,0-4.442,4.443h0A4.443,4.443,0,0,0,2133.339,4102.969Z" transform="translate(-2148.897 -3813.469)" fill="#636363"/>
      </g>
      <path id="Trazado_191302" data-name="Trazado 191302" d="M2469.225,3842.72a28.56,28.56,0,0,1,.331-5.911l.012-.078,3.806.631a24.583,24.583,0,0,1,1.352-4.95l-3.6-1.4a28.329,28.329,0,0,1,2.721-5.278l3.234,2.125a24.63,24.63,0,0,1,3.249-3.963l-2.722-2.753a28.557,28.557,0,0,1,4.628-3.709l2.094,3.254a24.629,24.629,0,0,1,4.577-2.307l-1.375-3.621a28.341,28.341,0,0,1,5.743-1.513l.587,3.822a24.259,24.259,0,0,1,5.12-.25l.223-3.851a28.9,28.9,0,0,1,5.851.954l-1.011,3.724a24.305,24.305,0,0,1,4.776,1.86l1.77-3.437a28.306,28.306,0,0,1,4.964,3.257l-2.452,3a24.608,24.608,0,0,1,3.609,3.64l3.017-2.422a28.515,28.515,0,0,1,3.211,4.988l-3.455,1.746a24.539,24.539,0,0,1,1.823,4.791l3.742-.989a28.279,28.279,0,0,1,.9,5.87l-3.857.182a24.512,24.512,0,0,1-.283,5.094l-.006.028,3.807.618a28.616,28.616,0,0,1-1.552,5.725l-3.6-1.394a24.321,24.321,0,0,1-2.349,4.554l3.236,2.122a28.426,28.426,0,0,1-3.755,4.594l-2.725-2.75a24.681,24.681,0,0,1-4,3.213l2.1,3.253a28.543,28.543,0,0,1-5.293,2.679l-1.378-3.619a24.378,24.378,0,0,1-4.953,1.318l.591,3.821a28.4,28.4,0,0,1-5.93.285l.219-3.851a24.641,24.641,0,0,1-5.065-.82l-1.007,3.725a28.358,28.358,0,0,1-5.537-2.141l1.765-3.439a24.4,24.4,0,0,1-4.284-2.812l-2.448,3a28.533,28.533,0,0,1-4.179-4.212l3.015-2.424a24.784,24.784,0,0,1-2.778-4.309l-3.454,1.75a28.392,28.392,0,0,1-2.115-5.545l3.74-.993a24.3,24.3,0,0,1-.794-5.062Zm26.325,11.243a12.808,12.808,0,1,0-10.6-14.683A12.823,12.823,0,0,0,2495.55,3853.963Z" transform="translate(-2469.192 -3893.996)" fill="#ffb30b"/>
      <path id="Trazado_203847" data-name="Trazado 203847" d="M2469.217,3835.906a22.01,22.01,0,0,1,.255-4.557l.009-.06,2.934.487a18.961,18.961,0,0,1,1.042-3.817l-2.776-1.078a21.835,21.835,0,0,1,2.1-4.069l2.493,1.638a18.993,18.993,0,0,1,2.5-3.055l-2.1-2.123a22.013,22.013,0,0,1,3.568-2.86l1.615,2.509a19,19,0,0,1,3.529-1.779l-1.06-2.792a21.847,21.847,0,0,1,4.427-1.167l.452,2.947a18.7,18.7,0,0,1,3.948-.193l.172-2.969a22.281,22.281,0,0,1,4.511.736l-.78,2.871a18.735,18.735,0,0,1,3.682,1.434l1.365-2.65a21.828,21.828,0,0,1,3.827,2.511l-1.89,2.31a18.968,18.968,0,0,1,2.782,2.807l2.326-1.867a21.993,21.993,0,0,1,2.476,3.845l-2.664,1.346a18.928,18.928,0,0,1,1.405,3.693l2.885-.762a21.807,21.807,0,0,1,.7,4.526l-2.974.14a18.9,18.9,0,0,1-.218,3.927l0,.021,2.935.476a22.06,22.06,0,0,1-1.2,4.414l-2.778-1.075a18.745,18.745,0,0,1-1.811,3.511l2.5,1.635a21.92,21.92,0,0,1-2.9,3.542l-2.1-2.12a19.015,19.015,0,0,1-3.081,2.477l1.616,2.508a22.011,22.011,0,0,1-4.081,2.065l-1.062-2.79a18.771,18.771,0,0,1-3.818,1.016l.455,2.946a21.9,21.9,0,0,1-4.572.22l.169-2.969a19.026,19.026,0,0,1-3.9-.633l-.776,2.872a21.875,21.875,0,0,1-4.269-1.651l1.361-2.652a18.793,18.793,0,0,1-3.3-2.167l-1.888,2.313a22,22,0,0,1-3.222-3.247l2.324-1.869a19.112,19.112,0,0,1-2.142-3.322l-2.663,1.349a21.885,21.885,0,0,1-1.631-4.275l2.884-.766a18.727,18.727,0,0,1-.612-3.9Zm20.3,8.668a9.874,9.874,0,1,0-8.176-11.32A9.886,9.886,0,0,0,2489.513,3844.574Z" transform="translate(-2427.954 -3847.96)" fill="#00defc"/>
      <g id="Grupo_131771" data-name="Grupo 131771" transform="translate(357.27 225.504)">
        <ellipse id="Elipse_5090" data-name="Elipse 5090" cx="1.708" cy="1.708" rx="1.708" ry="1.708" transform="translate(13.977)" fill="#00defc"/>
        <ellipse id="Elipse_5091" data-name="Elipse 5091" cx="1.708" cy="1.708" rx="1.708" ry="1.708" transform="translate(9.318 4.659)" fill="#00defc"/>
        <ellipse id="Elipse_5092" data-name="Elipse 5092" cx="1.708" cy="1.708" rx="1.708" ry="1.708" transform="translate(4.659 9.318)" fill="#00defc"/>
        <ellipse id="Elipse_5093" data-name="Elipse 5093" cx="1.708" cy="1.708" rx="1.708" ry="1.708" transform="translate(0 13.977)" fill="#00defc"/>
        <ellipse id="Elipse_5094" data-name="Elipse 5094" cx="1.708" cy="1.708" rx="1.708" ry="1.708" transform="translate(18.709 4.732)" fill="#00defc"/>
        <ellipse id="Elipse_5095" data-name="Elipse 5095" cx="1.708" cy="1.708" rx="1.708" ry="1.708" transform="translate(14.05 9.391)" fill="#00defc"/>
        <ellipse id="Elipse_5096" data-name="Elipse 5096" cx="1.708" cy="1.708" rx="1.708" ry="1.708" transform="translate(9.392 14.05)" fill="#00defc"/>
        <ellipse id="Elipse_5097" data-name="Elipse 5097" cx="1.708" cy="1.708" rx="1.708" ry="1.708" transform="translate(4.733 18.709)" fill="#00defc"/>
        <ellipse id="Elipse_5098" data-name="Elipse 5098" cx="1.708" cy="1.708" rx="1.708" ry="1.708" transform="translate(23.442 9.465)" fill="#00defc"/>
        <ellipse id="Elipse_5099" data-name="Elipse 5099" cx="1.708" cy="1.708" rx="1.708" ry="1.708" transform="translate(18.783 14.124)" fill="#00defc"/>
        <ellipse id="Elipse_5100" data-name="Elipse 5100" cx="1.708" cy="1.708" rx="1.708" ry="1.708" transform="translate(14.124 18.783)" fill="#00defc"/>
        <ellipse id="Elipse_5101" data-name="Elipse 5101" cx="1.708" cy="1.708" rx="1.708" ry="1.708" transform="translate(9.465 23.442)" fill="#00defc"/>
        <path id="Trazado_191303" data-name="Trazado 191303" d="M2120.786,4016.587a1.708,1.708,0,1,0,0-2.416A1.709,1.709,0,0,0,2120.786,4016.587Z" transform="translate(-2092.111 -3999.473)" fill="#00defc"/>
        <ellipse id="Elipse_5102" data-name="Elipse 5102" cx="1.708" cy="1.708" rx="1.708" ry="1.708" transform="translate(23.516 18.857)" fill="#00defc"/>
        <ellipse id="Elipse_5103" data-name="Elipse 5103" cx="1.708" cy="1.708" rx="1.708" ry="1.708" transform="translate(18.857 23.515)" fill="#00defc"/>
        <ellipse id="Elipse_5104" data-name="Elipse 5104" cx="1.708" cy="1.708" rx="1.708" ry="1.708" transform="translate(14.198 28.174)" fill="#00defc"/>
      </g>
    </g>
  </g>
</svg>
