<svg xmlns="http://www.w3.org/2000/svg" xmlns:xlink="http://www.w3.org/1999/xlink" width="300" height="218.856" viewBox="0 0 300 218.856">
  <defs>
    <clipPath id="clip-path">
      <rect id="Rectángulo_293583" data-name="Rectángulo 293583" width="5.354" height="42.75" transform="translate(-1062.952 1228.017)" fill="none"/>
    </clipPath>
    <clipPath id="clip-path-2">
      <rect id="Rectángulo_293584" data-name="Rectángulo 293584" width="11.465" height="8.869" transform="translate(-903.248 1271.225)" fill="none"/>
    </clipPath>
    <clipPath id="clip-path-3">
      <rect id="Rectángulo_293585" data-name="Rectángulo 293585" width="6.528" height="12.466" transform="translate(-895.237 1280.608)" fill="none"/>
    </clipPath>
    <clipPath id="clip-path-4">
      <rect id="Rectángulo_293586" data-name="Rectángulo 293586" width="11.205" height="8.938" transform="translate(-886.182 1272.693)" fill="none"/>
    </clipPath>
    <clipPath id="clip-path-5">
      <rect id="Rectángulo_293587" data-name="Rectángulo 293587" width="11.962" height="5.302" transform="translate(-898.067 1265.766)" fill="none"/>
    </clipPath>
    <clipPath id="clip-path-6">
      <rect id="Rectángulo_293588" data-name="Rectángulo 293588" width="7.391" height="15.863" transform="translate(-900.952 1289.801)" fill="none"/>
    </clipPath>
    <clipPath id="clip-path-7">
      <rect id="Rectángulo_293589" data-name="Rectángulo 293589" width="11.183" height="6.058" transform="translate(-886.5 1260.341)" fill="none"/>
    </clipPath>
    <clipPath id="clip-path-8">
      <rect id="Rectángulo_293590" data-name="Rectángulo 293590" width="11.844" height="7.706" transform="translate(-895.389 1249.214)" fill="none"/>
    </clipPath>
    <clipPath id="clip-path-9">
      <rect id="Rectángulo_293591" data-name="Rectángulo 293591" width="6.155" height="11.786" transform="translate(-881.131 1243.169)" fill="none"/>
    </clipPath>
    <clipPath id="clip-path-10">
      <rect id="Rectángulo_293592" data-name="Rectángulo 293592" width="30.149" height="40.491" transform="translate(-899.062 1254.425)" fill="none"/>
    </clipPath>
  </defs>
  <g id="Grupo_146543" data-name="Grupo 146543" transform="translate(-180 -10706)">
    <g id="Grupo_131774" data-name="Grupo 131774" transform="translate(0 10278)">
      <rect id="Rectángulo_293841" data-name="Rectángulo 293841" width="126.336" height="126.336" rx="10" transform="translate(269.667 517.333) rotate(-45)" fill="#ffb30b" opacity="0.2"/>
      <g id="Grupo_131463" data-name="Grupo 131463" transform="translate(1294.221 -658.808)">
        <path id="Trazado_190268" data-name="Trazado 190268" d="M-1000.406,1298.112h-35.448l.143-.105a19.166,19.166,0,0,1,10.93-3.825l25.349-.747Z" fill="#375a64"/>
        <path id="Trazado_190269" data-name="Trazado 190269" d="M-833.181,1298.105c0,.094-65.566.169-146.429.169-80.889,0-146.442-.075-146.442-.169s65.553-.167,146.442-.167c80.862,0,146.429.076,146.429.167" transform="translate(11.831 0.007)" fill="#1a2e35"/>
        <g id="Grupo_130259" data-name="Grupo 130259">
          <path id="Trazado_190270" data-name="Trazado 190270" d="M-1032.794,1206.595c-2.623-4.5-5.425-9.012-9.557-12.736-10.47-9.433-28.441-12.238-43.716-8.85-11.789,2.615-22.923,9.248-26.014,18.622-1.395,4.232-1.084,8.684-.645,13.043,2.872,28.509,17.141,80.241,17.7,81.439l96.2-.393a279.235,279.235,0,0,0-33.969-91.125" fill="#113356"/>
          <path id="Trazado_190271" data-name="Trazado 190271" d="M-998.826,1297.72s-.059-.247-.158-.732-.243-1.211-.43-2.153-.406-2.121-.7-3.5-.651-2.97-1.042-4.76a277.869,277.869,0,0,0-8.587-29.815,289.254,289.254,0,0,0-18.675-42.024q-.777-1.425-1.563-2.871-.815-1.427-1.638-2.874c-1.093-1.93-2.208-3.878-3.413-5.8a39.22,39.22,0,0,0-8.941-10.453,14.593,14.593,0,0,0-1.414-1.051c-.486-.331-.961-.684-1.461-1-1.031-.582-2.021-1.249-3.11-1.741l-1.611-.793-1.666-.688-.834-.346-.857-.3-1.719-.587a57.176,57.176,0,0,0-14.527-2.4,61.564,61.564,0,0,0-14.681,1.3,49.745,49.745,0,0,0-13.4,4.963,33.7,33.7,0,0,0-5.751,3.928,25.738,25.738,0,0,0-4.6,5.022c-.3.478-.62.939-.892,1.427q-.384.745-.764,1.49-.3.775-.6,1.548a16.032,16.032,0,0,0-.466,1.586,24.979,24.979,0,0,0-.6,6.493c.061,2.158.255,4.29.512,6.382s.462,4.167.79,6.194c.572,4.064,1.254,7.992,1.939,11.783,1.378,7.582,2.9,14.6,4.321,21,2.871,12.792,5.491,23.074,7.342,30.168.924,3.548,1.674,6.293,2.183,8.155.26.924.46,1.629.6,2.114s.213.715.213.715-.088-.235-.247-.706c-.143-.481-.353-1.184-.629-2.1-.531-1.858-1.3-4.6-2.246-8.141-1.891-7.084-4.549-17.359-7.451-30.148-1.438-6.4-2.974-13.416-4.366-21-.691-3.794-1.38-7.724-1.958-11.793-.33-2.027-.538-4.1-.8-6.2s-.458-4.233-.522-6.409a25.344,25.344,0,0,1,.6-6.577,16.569,16.569,0,0,1,.473-1.617q.307-.785.614-1.578.389-.756.776-1.516c.278-.5.605-.965.907-1.45a25.983,25.983,0,0,1,4.654-5.094,34.116,34.116,0,0,1,5.805-3.969,49.992,49.992,0,0,1,13.491-5,61.878,61.878,0,0,1,14.767-1.313,57.46,57.46,0,0,1,14.618,2.419l1.733.593.861.3.842.348,1.679.695,1.624.8c1.1.5,2.1,1.171,3.138,1.758.505.319.984.675,1.476,1.01a15.231,15.231,0,0,1,1.429,1.064,39.557,39.557,0,0,1,9.011,10.543c1.208,1.926,2.323,3.877,3.415,5.809l1.637,2.879q.786,1.447,1.562,2.875a287.393,287.393,0,0,1,18.626,42.1,270.7,270.7,0,0,1,8.486,29.867c.38,1.793.717,3.386,1.01,4.769s.487,2.561.668,3.508.3,1.666.4,2.16.123.738.123.738" fill="#1a2e35"/>
          <path id="Trazado_190272" data-name="Trazado 190272" d="M-1108.195,1196.934a1.475,1.475,0,0,1-.025.269c-.027.194-.063.453-.11.785-.1.689-.207,1.708-.288,3.026a52.369,52.369,0,0,0,.809,11.132c1.62,9.315,3.6,22.236,6.508,36.368,1.458,7.064,3.055,13.753,4.744,19.769s3.461,11.362,5.075,15.8c1.664,4.424,3.142,7.952,4.223,10.364.54,1.191.963,2.121,1.258,2.773l.319.724a1.582,1.582,0,0,1,.1.253,134.759,134.759,0,0,1-6.13-14.028c-1.646-4.438-3.454-9.778-5.154-15.8s-3.316-12.715-4.777-19.787c-2.9-14.144-4.85-27.069-6.409-36.4a50.648,50.648,0,0,1-.7-11.178,27.03,27.03,0,0,1,.558-4.072" fill="#1a2e35"/>
          <path id="Trazado_190273" data-name="Trazado 190273" d="M-1095.738,1219.681c.012.057-.666.2-1.71.581a16.113,16.113,0,0,0-3.819,2,19.776,19.776,0,0,0-4.235,4.4,5.961,5.961,0,0,1,.907-1.58,13.688,13.688,0,0,1,3.125-3.1,13.774,13.774,0,0,1,3.944-1.953,5.946,5.946,0,0,1,1.788-.347" fill="#1a2e35"/>
          <path id="Trazado_190274" data-name="Trazado 190274" d="M-1099.524,1226.1c-.005.105-1.272.063-2.773.414-1.5.336-2.627.925-2.677.833a5.579,5.579,0,0,1,2.6-1.174,5.584,5.584,0,0,1,2.85-.073" fill="#1a2e35"/>
          <path id="Trazado_190275" data-name="Trazado 190275" d="M-1102.263,1258.56c-.04-.015-.024-.185.121-.411a1.647,1.647,0,0,1,.817-.624,1.651,1.651,0,0,1,1.027-.035c.255.083.375.2.355.242-.041.089-.609-.125-1.265.122-.663.225-.967.749-1.055.706" fill="#1a2e35"/>
          <path id="Trazado_190276" data-name="Trazado 190276" d="M-1100.964,1261.3c-.1,0-.04-.689.581-1.18s1.3-.4,1.278-.309c0,.1-.555.166-1.061.582-.516.4-.7.93-.8.907" fill="#1a2e35"/>
          <path id="Trazado_190277" data-name="Trazado 190277" d="M-976.777,1271.734s-2.146-52.6-4.126-61.713c-2.52-11.6-12.282-18.6-12.282-18.6l-3.74,90.46,3.888,2.325,2.29,1.206c1.03,3.846-1.1,4.786,9.426,7.49.844.216,17.646,2.871,17.646,2.871l1.649-17.069Z" fill="#c68876"/>
          <path id="Trazado_190278" data-name="Trazado 190278" d="M-948.1,1295.178s-6.075.415-8.554,1.417a9.434,9.434,0,0,1-8.266-1.006,23.33,23.33,0,0,1-3.581-2.8l-8.281.043a9.938,9.938,0,0,1-1.83-10.223,11.123,11.123,0,0,1,1.829-3.271c.961-1.083,1.4-1.727,4.072-2.246l10.977,1.667s15.213-1.41,17.947-.186c0,0,3.448,1.948,4.519,2.773.4.31,1.692,4.162-.745,6.23,0,0,2.2,1.67,1.058,3.234l-.545.694s1.49,1.847.762,2.681-7.167,4.789-9.517,3.929-.712-2.8.305-3.216" fill="#c68876"/>
          <path id="Trazado_190279" data-name="Trazado 190279" d="M-941.712,1284.265a5.753,5.753,0,0,0-.8.3c-.511.207-1.25.5-2.179.818-.466.159-.977.321-1.532.48s-1.157.3-1.783.513a3.841,3.841,0,0,0-1.764,1.115,2.206,2.206,0,0,0-.432,2.186,1.711,1.711,0,0,0,.824.848,3.028,3.028,0,0,0,1.089.28,8.973,8.973,0,0,0,2.066-.154,18.128,18.128,0,0,0,3.344-.947c.924-.347,1.653-.675,2.155-.9a4.888,4.888,0,0,0,.766-.383,5.452,5.452,0,0,0-.807.286c-.514.2-1.253.5-2.18.819a19.367,19.367,0,0,1-3.319.881,8.868,8.868,0,0,1-2,.134,2.764,2.764,0,0,1-.992-.255,1.449,1.449,0,0,1-.7-.714,1.957,1.957,0,0,1,.389-1.913,3.653,3.653,0,0,1,1.642-1.047c.6-.216,1.207-.357,1.762-.532s1.07-.344,1.532-.516c.927-.341,1.66-.664,2.157-.9a4.666,4.666,0,0,0,.759-.4" fill="#be654e"/>
          <path id="Trazado_190280" data-name="Trazado 190280" d="M-942.394,1279.586a5.655,5.655,0,0,0-.8.308c-.506.208-1.241.505-2.163.835s-2.029.688-3.28,1.016a4.51,4.51,0,0,0-1.908.82,1.641,1.641,0,0,0-.544,1.006,2.091,2.091,0,0,0,.192,1.154,2.789,2.789,0,0,0,1.729,1.41,4.517,4.517,0,0,0,2.071.12,20,20,0,0,0,3.307-1.032l2.176-.814a5.039,5.039,0,0,0,.786-.333,4.98,4.98,0,0,0-.821.234l-2.206.732a21.7,21.7,0,0,1-3.277.967,4.278,4.278,0,0,1-1.955-.127,2.526,2.526,0,0,1-1.563-1.272,1.533,1.533,0,0,1,.284-1.85,4.347,4.347,0,0,1,1.793-.774,34.533,34.533,0,0,0,3.283-1.077c.919-.354,1.644-.681,2.14-.919a4.651,4.651,0,0,0,.752-.4" fill="#be654e"/>
          <path id="Trazado_190281" data-name="Trazado 190281" d="M-945.493,1280.991a7.884,7.884,0,0,0,.266-1.309,7.875,7.875,0,0,0,.3-1.3,2.255,2.255,0,0,0-.567,1.243,2.245,2.245,0,0,0,0,1.368" fill="#be654e"/>
          <path id="Trazado_190282" data-name="Trazado 190282" d="M-968.386,1281.666l5.738-2.35s15.9-7.833,16.185-7.432,1.149.337,1,2.3-9.426,6.107-9.708,6.793.284,4.1-3.121,6.632-5.9,2.636-5.9,2.636" fill="#c68876"/>
          <path id="Trazado_190283" data-name="Trazado 190283" d="M-964.192,1290.244a.408.408,0,0,0,.137,0,3.791,3.791,0,0,0,.4-.048,8.827,8.827,0,0,0,1.494-.391,13.262,13.262,0,0,0,2.222-1.023,13.222,13.222,0,0,0,2.625-1.9,6.968,6.968,0,0,0,1.9-3.423,15.566,15.566,0,0,0,.3-2.166,1.281,1.281,0,0,1,.051-.25.463.463,0,0,1,.149-.158c.141-.111.3-.212.462-.315.326-.2.664-.391,1.008-.587,1.378-.77,2.844-1.552,4.322-2.443.739-.445,1.481-.916,2.2-1.453a8.538,8.538,0,0,0,1.029-.9,2.88,2.88,0,0,0,.429-.568,1.2,1.2,0,0,0,.126-.363,3.245,3.245,0,0,0,.027-.357,2.532,2.532,0,0,0-.278-1.391,1.653,1.653,0,0,0-.521-.5,1.039,1.039,0,0,1-.226-.187.269.269,0,0,0-.056-.054.183.183,0,0,0-.114-.034.574.574,0,0,0-.114.01c-.061.014-.119.029-.173.046-.865.286-1.655.652-2.447,1-1.573.7-3.075,1.411-4.505,2.09-2.857,1.359-5.414,2.612-7.558,3.673-.537.259-1.044.531-1.53.748l-1.4.586-2.245.944-1.414.608c-.15.066-.27.12-.366.164a.6.6,0,0,0-.122.064.5.5,0,0,0,.132-.038l.376-.14,1.435-.559,2.265-.9,1.413-.567c.5-.218,1-.478,1.544-.732,2.163-1.035,4.731-2.261,7.58-3.622,1.433-.671,2.936-1.375,4.508-2.073.785-.339,1.59-.709,2.413-.98.051-.017.1-.028.15-.039a.4.4,0,0,1,.051-.007c0-.009,0,.019.009-.021s-.005-.043.009-.066a.039.039,0,0,1,.018-.02c-.181.126-.045.042-.083.072l.016.021a1.185,1.185,0,0,0,.285.241,1.388,1.388,0,0,1,.444.423,2.3,2.3,0,0,1,.237,1.242,1.2,1.2,0,0,1-.122.6,2.6,2.6,0,0,1-.387.511,8.288,8.288,0,0,1-.994.864c-.705.527-1.442,1-2.176,1.441-1.466.889-2.929,1.674-4.307,2.454-.344.2-.684.391-1.012.6a5.278,5.278,0,0,0-.487.332.709.709,0,0,0-.222.262,1.564,1.564,0,0,0-.063.3,15.525,15.525,0,0,1-.279,2.148,6.785,6.785,0,0,1-1.817,3.339,13.255,13.255,0,0,1-2.565,1.906,13.683,13.683,0,0,1-2.181,1.056,10.787,10.787,0,0,1-1.469.438c-.172.037-.3.057-.393.072a.522.522,0,0,0-.133.027" fill="#be654e"/>
          <path id="Trazado_190284" data-name="Trazado 190284" d="M-946.462,1290.627a2.031,2.031,0,0,0-.611.192,6.086,6.086,0,0,0-1.5.908,5.429,5.429,0,0,0-.858.868,1.836,1.836,0,0,0-.437,1.36,1.5,1.5,0,0,0,1.094,1.136,2.884,2.884,0,0,0,1.682-.089,30.918,30.918,0,0,0,5.28-2.249,16.986,16.986,0,0,0,1.479-.918,2.526,2.526,0,0,0,.5-.4,3.243,3.243,0,0,0-.559.306c-.35.209-.864.5-1.511.838a37.264,37.264,0,0,1-5.269,2.159,2.67,2.67,0,0,1-1.525.094,1.252,1.252,0,0,1-.927-.923,1.627,1.627,0,0,1,.373-1.186,5.527,5.527,0,0,1,.8-.856,9.118,9.118,0,0,1,1.983-1.245" fill="#be654e"/>
          <path id="Trazado_190285" data-name="Trazado 190285" d="M-1065.111,1136.317a2.138,2.138,0,0,1-.862-3.547c-1.085-.6-.778-2.313.072-3.214s2.066-1.454,2.728-2.5a2.542,2.542,0,0,1-3.037-2.2,2.139,2.139,0,0,1-2.143-1.387,2.138,2.138,0,0,1,.829-2.416c-1.16-.1-1.062-2.018-.092-2.662s2.246-.6,3.3-1.095a13.72,13.72,0,0,1,7.276-4.269q-2.373-1.766-4.748-3.536a2.736,2.736,0,0,1-.956-1.01c-.414-.942.326-1.983,1.108-2.654a11.108,11.108,0,0,1,5.9-2.579c.694-.081,1.583.024,1.8.689a9.924,9.924,0,0,1,4.811-.537,3.83,3.83,0,0,1,2.565.777,7.58,7.58,0,0,0-1.693-2.122,3.257,3.257,0,0,1-1.1-2.408c.091-.908,1.186-1.691,1.939-1.179-.843-.4-.732-1.751-.014-2.348a4.224,4.224,0,0,1,2.659-.664c.65-.015,1.477.093,1.655.719a1.823,1.823,0,0,1,3.308-.271,2.249,2.249,0,0,1,3.242.255,2.892,2.892,0,0,1,4.092,1.523l-2.524-4.236c-.477-.8-.559-2.3.367-2.2-1.329.005-2.089-1.812-1.441-2.972a3.454,3.454,0,0,1,3.47-1.436l1.154,1.67a2.7,2.7,0,0,1,3.054.029,2.7,2.7,0,0,1,.965,2.9,1.354,1.354,0,0,1,2,.4,3.912,3.912,0,0,1,.383,2.277,2.248,2.248,0,0,1,3.486,1.856,7.308,7.308,0,0,1,3.814-.79,2.665,2.665,0,0,1,.289-3.114,2.663,2.663,0,0,1,3.076-.558,2.549,2.549,0,0,1,3.29-2.072c.411-1.542,2.434-2.683,3.664-1.665,1.272,1.05.588,3.088-.192,4.543q-1.269,2.366-2.536,4.73l8.254-4.425a1.431,1.431,0,0,1,.826-.245c.4.049.678.412,1.037.591.5.249,1.1.125,1.637.288,1.457.445,1.432,2.671.434,3.822s-2.524,1.7-3.653,2.725q1.833.344,3.668.692a3.751,3.751,0,0,1,4.839-2.536c.5-1.354,2.314-1.527,3.755-1.468a5.31,5.31,0,0,1,3.629,1.076c1.17,1.168.95,3.22-.036,4.547a10.482,10.482,0,0,1-4.007,2.836c.246,1.1,1.671,1.436,2.785,1.272s2.27-.6,3.323-.2c1.43.537,2.035,2.385,3.471,2.909a6.122,6.122,0,0,1,1.312.434,2.616,2.616,0,0,1,.883,1.708l.537,2.383a2.914,2.914,0,0,1,.1,1.2c-.263,1.295-2.069,1.575-3.292,1.076s-2.27-1.464-3.577-1.657c1.723.859,3.541,1.806,4.505,3.474s.567,4.256-1.245,4.905c-1.834.658-3.64-.928-4.975-2.347s-3.254-2.93-5.026-2.119" fill="#1a2e35"/>
          <path id="Trazado_190286" data-name="Trazado 190286" d="M-1062.46,1135.181a2.356,2.356,0,0,0-3.55,2.051,5.028,5.028,0,0,0-3.473,3.692,5.02,5.02,0,0,0,1.635,4.8c1.083.913,3.236.946,3.464-.452a3.824,3.824,0,0,0,2.713,2.356,3.7,3.7,0,0,0,1.494,5.249,3.949,3.949,0,0,0,.683,6.544,3.142,3.142,0,0,0,1.525,4,3.142,3.142,0,0,0,4-1.535,6.4,6.4,0,0,0,2.012,3.018c1.017.691,2.676.57,3.19-.545a4.153,4.153,0,0,0,5.912,2.493,2.786,2.786,0,0,0,2.205,2.945,2.785,2.785,0,0,0,3.076-2.017l6.918.53a24.77,24.77,0,0,0,4.6.064,12.406,12.406,0,0,0,5.477-1.984,4.214,4.214,0,0,1,1.679-.833,4.31,4.31,0,0,1,2.086.507,11.227,11.227,0,0,0,10.84-1.6,5.581,5.581,0,0,1,1.5-1,5.073,5.073,0,0,1,2.064-.108,20.218,20.218,0,0,0,5.087-.29,5.359,5.359,0,0,0,3.743-2.02c.773-1.24.169-3.308-1.289-3.41a3.139,3.139,0,0,1,1-2.56,1.888,1.888,0,0,1,2.562.114,1.36,1.36,0,0,1-.812,2.154c1.471,1.211,4.029-.093,4.232-1.988a3.752,3.752,0,0,0-3.447-3.81,8.623,8.623,0,0,0,.469-4.17,3.084,3.084,0,0,0,4.145.835,5.322,5.322,0,0,0,3.216,2.76,3.186,3.186,0,0,0,3.669-1.612,2.3,2.3,0,0,0-1.918-3.131,2.74,2.74,0,0,0-2.086-4.158,4.263,4.263,0,0,0-2.2-4.733,2.245,2.245,0,0,0,3.287-.955c.761,1.464,2.932,1.307,4.421.6,1.168-.556,2.314-1.393,2.131-3.087a3.384,3.384,0,0,0-1.057-2.074c-1.369-1.292-3.272-1.53-5.081-1.732a22.16,22.16,0,0,1-1.533-7.072,4.269,4.269,0,0,0,4.625-3.074l-10.017-6.226s-23.186-3.58-24.018-3.58-49.293,24.958-49.293,24.958c-1.12,1.173-3.31.642-4.133-.755a4.493,4.493,0,0,1,.39-4.6,13.223,13.223,0,0,1,3.543-3.291c-1.551-.107-3.207-.251-4.354-1.378a2.468,2.468,0,0,1-.664-2.68c.559-1.336,2.1-1.245,3.094-2.005a5.58,5.58,0,0,0,1.275-1.768" fill="#1a2e35"/>
          <path id="Trazado_190287" data-name="Trazado 190287" d="M-997.693,1129.906c-.578-8.279-6.135-18.4-14.382-17.474l-25.726,6.688a4.859,4.859,0,0,0-4.311,4.955l2.846,55.583-6.2,2.964c-.06.014,6.417,3.6,6.356,3.617,0,0,5.417,25.194,22.424,19.761,3.373-1.078,8.709-8.529,9.361-12.333h0c5.73,3.587,2.52-8.677,2.525-9.107-.005.43-5.542-3.142-5.542-3.142l-.014-1.507c.025-5.016.011-7.075.014-7.027,0,0,10.569-1.83,12.668-15.652,1.044-6.872.621-18.128-.021-27.326" fill="#c68876"/>
          <path id="Trazado_190288" data-name="Trazado 190288" d="M-1001.165,1139.878a1.77,1.77,0,0,1-1.7,1.8,1.694,1.694,0,0,1-1.836-1.584,1.771,1.771,0,0,1,1.693-1.8,1.694,1.694,0,0,1,1.838,1.585" fill="#1a2e35"/>
          <path id="Trazado_190289" data-name="Trazado 190289" d="M-1000.095,1135.779c-.218.233-1.566-.752-3.472-.733-1.9-.01-3.294.979-3.5.748-.1-.1.119-.521.725-.969a4.865,4.865,0,0,1,2.8-.884,4.664,4.664,0,0,1,2.765.873c.589.445.791.861.683.965" fill="#1a2e35"/>
          <path id="Trazado_190290" data-name="Trazado 190290" d="M-1019.361,1139.953a1.771,1.771,0,0,1-1.7,1.8,1.694,1.694,0,0,1-1.837-1.584,1.774,1.774,0,0,1,1.694-1.8,1.7,1.7,0,0,1,1.838,1.585" fill="#1a2e35"/>
          <path id="Trazado_190291" data-name="Trazado 190291" d="M-1018.821,1136.263c-.219.232-1.568-.752-3.472-.734-1.9-.008-3.295.981-3.5.749-.1-.1.116-.52.724-.969a4.867,4.867,0,0,1,2.8-.885,4.669,4.669,0,0,1,2.765.873c.587.445.79.862.683.966" fill="#1a2e35"/>
          <path id="Trazado_190292" data-name="Trazado 190292" d="M-1011.81,1150.345a12.563,12.563,0,0,1,3.091-.579c.486-.054.946-.154,1.025-.487a2.474,2.474,0,0,0-.334-1.439q-.7-1.761-1.465-3.693c-2.032-5.263-3.509-9.589-3.3-9.669s2.034,4.118,4.068,9.379c.489,1.3.959,2.534,1.4,3.718a2.816,2.816,0,0,1,.266,1.907,1.227,1.227,0,0,1-.8.717,3.169,3.169,0,0,1-.825.12,12.254,12.254,0,0,1-3.137.026" fill="#1a2e35"/>
          <path id="Trazado_190293" data-name="Trazado 190293" d="M-1010.34,1172.883a35.117,35.117,0,0,1-18.524-4.806s4.551,9.453,18.36,8.068Z" fill="#be654e"/>
          <path id="Trazado_190294" data-name="Trazado 190294" d="M-1011.586,1154.641a4.827,4.827,0,0,0-3.958-2.1,3.064,3.064,0,0,0-2.536,1.4,3.05,3.05,0,0,0,.087,3.164,2.987,2.987,0,0,0,3.163,1.14,6.975,6.975,0,0,0,2.835-1.784,2.2,2.2,0,0,0,.6-.735,1,1,0,0,0-.088-.991" fill="#be654e"/>
          <path id="Trazado_190295" data-name="Trazado 190295" d="M-1017.408,1151.7c.309-.019.327,2.049,2.108,3.5s3.98,1.214,4,1.5c.029.129-.489.4-1.418.437a5.156,5.156,0,0,1-3.337-1.137,4.481,4.481,0,0,1-1.635-2.94c-.085-.864.142-1.378.284-1.367" fill="#1a2e35"/>
          <path id="Trazado_190296" data-name="Trazado 190296" d="M-1017.987,1131.864c-.184.521-2.088.287-4.321.572-2.24.241-4.038.907-4.338.445-.134-.222.177-.711.9-1.219a7.263,7.263,0,0,1,3.209-1.147,7.227,7.227,0,0,1,3.388.375c.823.324,1.238.728,1.159.974" fill="#1a2e35"/>
          <path id="Trazado_190297" data-name="Trazado 190297" d="M-1000.833,1130.271c-.333.433-1.647-.006-3.227-.016-1.577-.066-2.912.31-3.223-.141-.136-.218.072-.653.653-1.068a4.471,4.471,0,0,1,2.618-.727,4.467,4.467,0,0,1,2.578.853c.561.441.747.886.6,1.1" fill="#1a2e35"/>
          <path id="Trazado_190298" data-name="Trazado 190298" d="M-1042.172,1138.233a2.308,2.308,0,0,0,.657,2.644,1.591,1.591,0,0,0,2.263-.626c.6.813,1.987-.011,1.8-1.069.747.419,1.727-.583,1.488-1.522.867.335,1.385-1.065,1.84-2a15.108,15.108,0,0,1,.892-1.426,9.694,9.694,0,0,0,1.436-5.207c1.13-1.282,1.421-3.261,1.65-5.1q.216-1.718.431-3.437l.642-.8a1.872,1.872,0,0,0,1.234,1.788,3.994,3.994,0,0,0,2.084-.026c.685-.13,1.371-.263,2.055-.392.427.123.853.251,1.28.377a5.193,5.193,0,0,0,.367,3.348,3.231,3.231,0,0,0,1.181,1.872.97.97,0,0,0,1.357-1.034,1.076,1.076,0,0,0,1.668-.257,3.538,3.538,0,0,0,.472-2.116,9.044,9.044,0,0,0-1.629-4.988q1.777,1.679,3.555,3.359a1.662,1.662,0,0,0,.872.538.944.944,0,0,0,1,1.047,2.456,2.456,0,0,0,1.326-.89c.873-.91,1.8-2.458,1.029-3.49a.773.773,0,0,0,.348-1.131l4.039,3.1c-.4-.239-.854.39-.767.913a2.154,2.154,0,0,0,.839,1.2,3.165,3.165,0,0,0-.475,1.918c-.725-.658-1.826.552-1.594,1.6a2.291,2.291,0,0,0,2.133,1.681,1.6,1.6,0,0,0,1.811-1.173c.889.191,1.751-1.028,1.438-2.033.64.432,1.21-.721,1.25-1.6a12.565,12.565,0,0,0-.686-4.709c-.026.224.224.415.384.292a.345.345,0,0,0-.061-.537q1.131,2.792,2.265,5.579a13.026,13.026,0,0,1,1.232,4.641c.009.664.082,1.577.64,1.638a.83.83,0,0,0,.439-.113,8.341,8.341,0,0,0,3.67-4.233,6.265,6.265,0,0,0,.566-1.955c.133-1.426-.457-2.8-.554-4.233a13.731,13.731,0,0,0-.116-1.887,5.679,5.679,0,0,0-1.455-2.47c-2.173-2.534-4.47-5.156-7.391-6.185-1.784-.629-3.693-.616-5.482-1.227a31.9,31.9,0,0,1-3.213-1.49c-4.412-2.081-9.287-2.365-14.022-1.974a22.483,22.483,0,0,0-7.78,1.8,27.19,27.19,0,0,0-7.315,5.589,41.514,41.514,0,0,0-8.607,11.517,20.3,20.3,0,0,0-2.077,11.4c.569,3.907,2.981,7.575,6.25,8.39l1.29-1.472" fill="#1a2e35"/>
          <path id="Trazado_190299" data-name="Trazado 190299" d="M-1038.4,1140.879c-.191-.089-7.687-2.468-7.619,5.238s7.791,6.05,7.8,5.829-.183-11.067-.183-11.067" fill="#c68876"/>
          <path id="Trazado_190300" data-name="Trazado 190300" d="M-1040.592,1149.046c-.034-.024-.134.095-.36.2a1.332,1.332,0,0,1-1,.029c-.816-.291-1.514-1.578-1.563-2.966a4.439,4.439,0,0,1,.358-1.925,1.553,1.553,0,0,1,1-1.04.683.683,0,0,1,.8.361c.1.215.057.369.1.381.022.019.165-.129.1-.447a.868.868,0,0,0-.308-.482,1.018,1.018,0,0,0-.744-.188,1.883,1.883,0,0,0-1.392,1.207,4.56,4.56,0,0,0-.446,2.152c.063,1.552.87,3,1.988,3.311a1.44,1.44,0,0,0,1.225-.215c.238-.192.277-.365.25-.379" fill="#be654e"/>
          <path id="Trazado_190301" data-name="Trazado 190301" d="M-1013.193,1138.524a16.488,16.488,0,0,0-.351-2.214,9.1,9.1,0,0,0-3.332-4.948,8.958,8.958,0,0,0-3.791-1.668,9.021,9.021,0,0,0-4.716.4,8.429,8.429,0,0,0-2.268,1.223,8.4,8.4,0,0,0-1.893,1.907,9,9,0,0,0-1.742,5.295,9.006,9.006,0,0,0,1.741,5.3,8.407,8.407,0,0,0,1.894,1.907,8.418,8.418,0,0,0,2.268,1.224,9.031,9.031,0,0,0,4.716.4,8.962,8.962,0,0,0,3.793-1.669,9.1,9.1,0,0,0,3.33-4.948,16.417,16.417,0,0,0,.351-2.213,3.477,3.477,0,0,1,.006.585,4.032,4.032,0,0,1-.055.707,6.4,6.4,0,0,1-.17.955,9.1,9.1,0,0,1-3.313,5.112,9.175,9.175,0,0,1-3.889,1.756,9.3,9.3,0,0,1-4.879-.385,8.725,8.725,0,0,1-2.357-1.259,8.74,8.74,0,0,1-1.971-1.972,9.316,9.316,0,0,1-1.814-5.5,9.326,9.326,0,0,1,1.814-5.5,8.742,8.742,0,0,1,1.972-1.971,8.736,8.736,0,0,1,2.356-1.259,9.314,9.314,0,0,1,4.878-.385,9.148,9.148,0,0,1,3.89,1.757,9.1,9.1,0,0,1,3.313,5.112,6.379,6.379,0,0,1,.17.953,4.053,4.053,0,0,1,.055.709,3.469,3.469,0,0,1-.006.584" fill="#375a64"/>
          <path id="Trazado_190302" data-name="Trazado 190302" d="M-991.451,1138.524a16.5,16.5,0,0,0-.351-2.214,9.1,9.1,0,0,0-3.331-4.948,8.962,8.962,0,0,0-3.792-1.668,9.022,9.022,0,0,0-4.716.4,8.444,8.444,0,0,0-2.268,1.223,8.419,8.419,0,0,0-1.893,1.907,9,9,0,0,0-1.742,5.295,9.019,9.019,0,0,0,1.741,5.3,8.42,8.42,0,0,0,1.893,1.907,8.437,8.437,0,0,0,2.269,1.224,9.032,9.032,0,0,0,4.716.4,8.947,8.947,0,0,0,3.792-1.669,9.1,9.1,0,0,0,3.331-4.948,16.43,16.43,0,0,0,.351-2.213,3.477,3.477,0,0,1,.006.585,4.129,4.129,0,0,1-.055.707,6.4,6.4,0,0,1-.17.955,9.1,9.1,0,0,1-3.313,5.112,9.175,9.175,0,0,1-3.889,1.756,9.3,9.3,0,0,1-4.879-.385,8.723,8.723,0,0,1-2.357-1.259,8.737,8.737,0,0,1-1.971-1.972,9.316,9.316,0,0,1-1.815-5.5,9.332,9.332,0,0,1,1.815-5.5,8.74,8.74,0,0,1,1.972-1.971,8.733,8.733,0,0,1,2.356-1.259,9.316,9.316,0,0,1,4.879-.385,9.149,9.149,0,0,1,3.889,1.757,9.088,9.088,0,0,1,3.313,5.112,6.379,6.379,0,0,1,.17.953,4.15,4.15,0,0,1,.055.709,3.469,3.469,0,0,1-.006.584" fill="#375a64"/>
          <path id="Trazado_190303" data-name="Trazado 190303" d="M-1009.32,1136.381c-.042.1-.923-.266-2.066-.3-1.141-.048-2.044.251-2.079.153a3.146,3.146,0,0,1,2.092-.5,3.151,3.151,0,0,1,2.053.647" fill="#375a64"/>
          <path id="Trazado_190304" data-name="Trazado 190304" d="M-1031.528,1139.431a15.16,15.16,0,0,1-3.849.976,15.082,15.082,0,0,1-3.96.282c-.006-.1,1.755-.277,3.905-.626s3.878-.73,3.9-.632" fill="#375a64"/>
          <path id="Trazado_190305" data-name="Trazado 190305" d="M-1014.156,1137.087a4.885,4.885,0,0,1-.091,1.723,10.867,10.867,0,0,1-1.514,3.883,9.373,9.373,0,0,1-2.91,2.989,2.185,2.185,0,0,1-1.684.371,4.126,4.126,0,0,0,1.556-.582,10.361,10.361,0,0,0,2.742-2.966,12.35,12.35,0,0,0,1.568-3.744c.237-1.021.275-1.678.333-1.674" fill="#fff"/>
          <path id="Trazado_190306" data-name="Trazado 190306" d="M-994.272,1142.953a11.994,11.994,0,0,1,.739-1.438,7.133,7.133,0,0,0,.606-1.606,5.565,5.565,0,0,0,.035-2.076,11,11,0,0,0-1.088-3.674c-.469-.867-.94-1.284-.894-1.328.013-.016.147.069.353.264a4.7,4.7,0,0,1,.753.939,9.673,9.673,0,0,1,1.222,3.75,5.547,5.547,0,0,1-.068,2.2,6.413,6.413,0,0,1-.7,1.646,5.5,5.5,0,0,1-.955,1.322" fill="#fff"/>
          <path id="Trazado_190307" data-name="Trazado 190307" d="M-1043,1152.183c.017.044-.292.141-.742.473a3.7,3.7,0,0,0-1.294,1.9,3.21,3.21,0,0,0,.68,3.158,3.816,3.816,0,0,0,3.775,1.107,4.084,4.084,0,0,0,2.678-2.939,4.072,4.072,0,0,0-.632-3.268,5.015,5.015,0,0,0-1.725-1.577,8.141,8.141,0,0,1-.789-.405,1.9,1.9,0,0,1,.877.223,4.765,4.765,0,0,1,1.934,1.551,4.369,4.369,0,0,1,.8,3.584,4.5,4.5,0,0,1-2.994,3.324,4.248,4.248,0,0,1-4.273-1.284,3.519,3.519,0,0,1-.857-1.839,3.79,3.79,0,0,1,.183-1.746,3.664,3.664,0,0,1,1.53-1.954,1.634,1.634,0,0,1,.853-.307" fill="#0ddcf1"/>
          <path id="Trazado_190308" data-name="Trazado 190308" d="M-1011.87,1116.419a1.908,1.908,0,0,0,.518-.991,1.36,1.36,0,0,0-.346-1.161,1.455,1.455,0,0,0-1.474-.38l-.32.108.138-.31a1.52,1.52,0,0,0-.4-1.707,1.489,1.489,0,0,0-1.915.066l-.255-.238a.645.645,0,0,0,.107-.193.861.861,0,0,0-.124-.725.983.983,0,0,0-.626-.4,1.636,1.636,0,0,0-.771.035,2.1,2.1,0,0,1-.865.192c-.368-.068-.531-.34-.721-.464a2.957,2.957,0,0,0-.6-.37,3.258,3.258,0,0,0-1.237-.282,3.374,3.374,0,0,0-1.8.429c-.385.224-.563.408-.586.385a1.559,1.559,0,0,1,.515-.5,3.288,3.288,0,0,1,1.871-.563,3.465,3.465,0,0,1,1.349.265,3.186,3.186,0,0,1,.67.394c.223.161.39.371.578.385a2,2,0,0,0,.726-.193,1.977,1.977,0,0,1,.933-.048,1.332,1.332,0,0,1,.845.537,1.2,1.2,0,0,1,.166,1.029.987.987,0,0,1-.17.307l-.255-.237a1.821,1.821,0,0,1,2.374-.069,1.825,1.825,0,0,1,.459,2.086l-.183-.2a1.7,1.7,0,0,1,1.746.5,1.533,1.533,0,0,1,.339,1.356,1.554,1.554,0,0,1-.426.787c-.152.142-.257.183-.263.173" fill="#375a64"/>
          <path id="Trazado_190309" data-name="Trazado 190309" d="M-1003.264,1118.653a2.367,2.367,0,0,0,.657-.964,1.726,1.726,0,0,0-.078-1.306,1.8,1.8,0,0,0-1.355-.985l-.248-.034.169-.187a2.155,2.155,0,0,0,.589-1.883,1.15,1.15,0,0,0-.692-.778.915.915,0,0,0-1.021.135l-.984,1.043.718-1.244a1.785,1.785,0,0,0,.1-1.5,1.641,1.641,0,0,0-1.19-1.02,1.747,1.747,0,0,0-1.153.114l-.4.2.165-.418c.236-.593-.367-1.281-.966-1.36a2.943,2.943,0,0,0-1.828.455l-.331.179.105-.36a1.27,1.27,0,0,0-.416-1.231,2.351,2.351,0,0,0-1.181-.526,5.977,5.977,0,0,0-2.214.051,9.787,9.787,0,0,0-1.859.666,1.711,1.711,0,0,1,.435-.3,5.6,5.6,0,0,1,1.381-.548,5.926,5.926,0,0,1,2.3-.125,2.571,2.571,0,0,1,1.333.568,1.56,1.56,0,0,1,.523,1.531l-.227-.179a3.209,3.209,0,0,1,2.034-.512,1.62,1.62,0,0,1,1.01.6,1.235,1.235,0,0,1,.223,1.216l-.237-.22a2.1,2.1,0,0,1,1.386-.143,1.994,1.994,0,0,1,1.434,1.237,2.117,2.117,0,0,1-.131,1.8l-.265-.2a1.238,1.238,0,0,1,1.39-.2,1.469,1.469,0,0,1,.863,1,2.412,2.412,0,0,1-.692,2.139l-.08-.221a2.017,2.017,0,0,1,1.511,1.159,1.853,1.853,0,0,1,.026,1.443,1.85,1.85,0,0,1-.525.75.679.679,0,0,1-.272.166" fill="#375a64"/>
          <path id="Trazado_190310" data-name="Trazado 190310" d="M-984.707,1120.263a1.3,1.3,0,0,0-.447-.948,1.653,1.653,0,0,0-1.148-.414,4.933,4.933,0,0,0-1.647.389l-.192.071.027-.2a1.5,1.5,0,0,0-1.214-1.454,4.322,4.322,0,0,0-2.451.394l-1.078.4.924-.685a1.229,1.229,0,0,0-.093-1.764,2.8,2.8,0,0,0-2.154-.511l-.1.011-.68.062.566-.381a1.317,1.317,0,0,0-.146-2.082,1.994,1.994,0,0,0-2.216.213l-.71.562.474-.772a2.982,2.982,0,0,0-.007-3.032,2.78,2.78,0,0,0-2.044-1.3,3.14,3.14,0,0,0-1.628.208c-.359.153-.528.287-.543.266s.033-.046.113-.111a1.95,1.95,0,0,1,.386-.248,3.079,3.079,0,0,1,1.7-.309,2.965,2.965,0,0,1,2.249,1.358,3.243,3.243,0,0,1,.051,3.341l-.236-.21a2.31,2.31,0,0,1,2.6-.251,1.677,1.677,0,0,1,.747,1.263,1.474,1.474,0,0,1-.594,1.4l-.114-.321.11-.008a3.08,3.08,0,0,1,2.421.61,1.775,1.775,0,0,1,.522,1.14,1.282,1.282,0,0,1-.468,1.132l-.155-.285a4.549,4.549,0,0,1,2.639-.37,1.752,1.752,0,0,1,1.385,1.772l-.165-.135a5.022,5.022,0,0,1,1.734-.351,1.777,1.777,0,0,1,1.238.512,1.241,1.241,0,0,1,.384.756.527.527,0,0,1-.032.292" fill="#375a64"/>
          <path id="Trazado_190311" data-name="Trazado 190311" d="M-994.428,1102.595a1.063,1.063,0,0,1-.457.164,6.015,6.015,0,0,1-1.348.069,4.008,4.008,0,0,0-1.941.291,1.233,1.233,0,0,0-.677.843.892.892,0,0,0,.354,1.017l-.238.168c-.072-.445-.623-.727-1.12-1.023a5.787,5.787,0,0,0-1.625-.7,2.09,2.09,0,0,0-1.652.254,1.386,1.386,0,0,0-.715,1.28l.055.427-.325-.284a3.849,3.849,0,0,0-2.265-.935,4.35,4.35,0,0,0-1.943.279,5.519,5.519,0,0,0-1.489.951,1.391,1.391,0,0,1,.3-.379,3.688,3.688,0,0,1,1.117-.756,4.344,4.344,0,0,1,2.037-.368,4.065,4.065,0,0,1,2.464.964l-.27.141a1.712,1.712,0,0,1,.851-1.608,2.433,2.433,0,0,1,1.912-.308,6.027,6.027,0,0,1,1.724.743,7.534,7.534,0,0,1,.753.486,1.27,1.27,0,0,1,.517.786l.048.328-.286-.16a1.2,1.2,0,0,1-.5-1.375,1.525,1.525,0,0,1,.848-1.018,4.053,4.053,0,0,1,2.076-.247,7.517,7.517,0,0,0,1.323.025,4.214,4.214,0,0,1,.473-.057" fill="#375a64"/>
          <path id="Trazado_190312" data-name="Trazado 190312" d="M-1011.644,1095.924a3.562,3.562,0,0,0-.911.125,2.215,2.215,0,0,0-.869.552,1.9,1.9,0,0,0-.555,1.168l-.016.187-.178-.06a1.145,1.145,0,0,0-1.27.712,3.481,3.481,0,0,0-.068,1.917l.106.68-.423-.558-.066-.087a1.474,1.474,0,0,0-1.194-.5,1.656,1.656,0,0,0-1.136.494,2.629,2.629,0,0,0-.7,2.052,4.852,4.852,0,0,0,.388,1.5,2.709,2.709,0,0,1,.214.545c-.018.012-.152-.151-.336-.486a4.294,4.294,0,0,1-.512-1.536,2.83,2.83,0,0,1,.717-2.3,1.938,1.938,0,0,1,2.828.007l.085.115-.317.121a3.684,3.684,0,0,1,.111-2.109,1.439,1.439,0,0,1,1.665-.85l-.194.127a2.117,2.117,0,0,1,.682-1.314,2.245,2.245,0,0,1,.988-.542,1.82,1.82,0,0,1,.718-.042c.162.031.244.064.241.079" fill="#375a64"/>
          <path id="Trazado_190313" data-name="Trazado 190313" d="M-1026.826,1106.468a.933.933,0,0,1-.458-.1,2.9,2.9,0,0,1-1.048-.742,3.083,3.083,0,0,1-.792-1.743,1.582,1.582,0,0,0-.23-.946c-.2-.244-.621-.4-.882-.8a1.746,1.746,0,0,1,.448-2.347l-.015.256a5.585,5.585,0,0,1-1.483-2.064,2.253,2.253,0,0,1-.244-.95,8.92,8.92,0,0,1,.419.87,6.127,6.127,0,0,0,1.514,1.9l.165.137-.18.117a1.438,1.438,0,0,0-.332,1.888c.175.3.554.434.852.772a1.816,1.816,0,0,1,.288,1.14,2.966,2.966,0,0,0,.659,1.61,4.414,4.414,0,0,0,1.319,1.006" fill="#375a64"/>
          <path id="Trazado_190314" data-name="Trazado 190314" d="M-1031.3,1109.522c0,.015-.1.033-.29.043a4.025,4.025,0,0,1-.826-.072,4.644,4.644,0,0,1-2.567-1.459l.225-.005a2.989,2.989,0,0,1-2.044,1.08,3.11,3.11,0,0,1-1.3-.154,1.909,1.909,0,0,1-1.107-.866,4,4,0,0,1-.137-.5.692.692,0,0,0-.218-.323,2.147,2.147,0,0,0-.8-.356,2.8,2.8,0,0,1-.9-.367.991.991,0,0,1-.493-.856l.22.153a3.063,3.063,0,0,1-2.122.05,3.322,3.322,0,0,1-1.393-.874,2.712,2.712,0,0,1-.575-.9.948.948,0,0,1-.087-.367,4.449,4.449,0,0,0,.794,1.127,3.28,3.28,0,0,0,1.339.758,2.847,2.847,0,0,0,1.919-.09l.233-.1-.014.251a.684.684,0,0,0,.363.569,2.516,2.516,0,0,0,.8.311,2.437,2.437,0,0,1,.936.42,1.045,1.045,0,0,1,.325.482,4.248,4.248,0,0,0,.124.462,1.589,1.589,0,0,0,.905.685,2.786,2.786,0,0,0,1.149.146,2.726,2.726,0,0,0,1.846-.929l.111-.137.114.132a4.717,4.717,0,0,0,2.382,1.486c.672.173,1.079.154,1.079.194" fill="#375a64"/>
          <path id="Trazado_190315" data-name="Trazado 190315" d="M-1058.759,1120.212c-.008,0-.022-.039-.041-.119a1.888,1.888,0,0,1-.057-.363,3.609,3.609,0,0,1,.167-1.381,8.123,8.123,0,0,1,.935-1.952,7.674,7.674,0,0,1,.773-1.1,2.031,2.031,0,0,1,.606-.467.924.924,0,0,1,.853,0l-.22.144a2.37,2.37,0,0,1,1.09-2.2,2.365,2.365,0,0,1,2.681.183l-.28.138a1.6,1.6,0,0,1,.647-1.3,1.533,1.533,0,0,1,1.484-.181,1.565,1.565,0,0,1,.683.519l-.314.116a.992.992,0,0,1,.368-.817,1.345,1.345,0,0,1,.785-.328,3.156,3.156,0,0,1,1.488.381l-.213.067a2.476,2.476,0,0,1,1.507-1.052,3.474,3.474,0,0,1,1.7,0,8.8,8.8,0,0,1,2.622,1.306l-.183.157a.613.613,0,0,1,.069-.6,1.066,1.066,0,0,1,.432-.328,1.793,1.793,0,0,1,.927-.139,5.026,5.026,0,0,1,1.384.419,4.554,4.554,0,0,1,.784.463.942.942,0,0,1,.237.21c-.019.03-.36-.25-1.077-.545a5.265,5.265,0,0,0-1.351-.349,1.608,1.608,0,0,0-.809.147c-.265.119-.491.367-.364.626l.189.383-.373-.226a8.8,8.8,0,0,0-2.557-1.224,3.2,3.2,0,0,0-1.552.016,2.161,2.161,0,0,0-1.3.916l-.076.125-.136-.059a2.857,2.857,0,0,0-1.324-.347c-.415.024-.868.378-.832.775l.054.612-.368-.5a1.213,1.213,0,0,0-.53-.4,1.183,1.183,0,0,0-1.15.134,1.261,1.261,0,0,0-.511,1.016l.011.376-.292-.24a2.038,2.038,0,0,0-2.293-.17,2.068,2.068,0,0,0-.966,1.891l.025.286-.244-.145c-.372-.22-.825.084-1.119.394a7.615,7.615,0,0,0-.765,1.044,8.588,8.588,0,0,0-.976,1.875,4.629,4.629,0,0,0-.231,1.812" fill="#375a64"/>
          <path id="Trazado_190316" data-name="Trazado 190316" d="M-1056.817,1130.4c-.01.007-.071-.068-.175-.22a5.384,5.384,0,0,1-.408-.7,2.469,2.469,0,0,1-.277-1.273,1.807,1.807,0,0,1,.264-.8,1.3,1.3,0,0,1,.763-.584l-.072.188a1.658,1.658,0,0,1-.068-1.725,1.67,1.67,0,0,1,1.8-.768l-.161.247a1.308,1.308,0,0,1,.052-1.549,1.939,1.939,0,0,1,1.486-.691,7.089,7.089,0,0,0,.776,0,.663.663,0,0,0,.482-.416,2.877,2.877,0,0,1,.45-.751,1.508,1.508,0,0,1,.82-.452,8.634,8.634,0,0,1,1.855-.045,2,2,0,0,0,1.5-.435,7.718,7.718,0,0,0,.478-.664,1.732,1.732,0,0,1,.7-.543,1.826,1.826,0,0,1,1.628.09l-.2.215a1.383,1.383,0,0,1,.19-1.6,1.948,1.948,0,0,1,1.3-.646,6.21,6.21,0,0,1,2.275.283,7.593,7.593,0,0,1,1.363.546,1.777,1.777,0,0,1,.441.276,17.98,17.98,0,0,0-1.851-.65,6.365,6.365,0,0,0-2.195-.207,1.7,1.7,0,0,0-1.119.574,1.1,1.1,0,0,0-.154,1.257l.37.545-.574-.329a1.521,1.521,0,0,0-1.346-.053,1.381,1.381,0,0,0-.568.445,7.29,7.29,0,0,1-.5.7,1.823,1.823,0,0,1-.828.459,4.1,4.1,0,0,1-.919.089,8.579,8.579,0,0,0-1.775.038,1.158,1.158,0,0,0-.643.35,2.628,2.628,0,0,0-.4.677,1.02,1.02,0,0,1-.727.591,6.489,6.489,0,0,1-.824,0,1.616,1.616,0,0,0-1.238.549,1,1,0,0,0-.066,1.162l.274.356-.436-.11a1.375,1.375,0,0,0-1.482.606,1.408,1.408,0,0,0,.025,1.446l.1.145-.169.043a1.323,1.323,0,0,0-.892,1.165,2.417,2.417,0,0,0,.207,1.2c.275.631.489.958.46.973" fill="#375a64"/>
          <path id="Trazado_190317" data-name="Trazado 190317" d="M-1056.23,1151.589a.8.8,0,0,1-.339-.111,2.4,2.4,0,0,1-.794-.625,2.484,2.484,0,0,1-.586-1.474,2.652,2.652,0,0,1,.715-1.943l-.015.186a4.834,4.834,0,0,1-.905-1.731,1.969,1.969,0,0,1,.081-1.115,1.442,1.442,0,0,1,.824-.862l-.034.308a2.022,2.022,0,0,1-.868-1.817,2.266,2.266,0,0,1,.358-1.134,1.9,1.9,0,0,1,.9-.719c.332-.147.485-.3.495-.639a2.75,2.75,0,0,1,.234-1.019,3.526,3.526,0,0,1,1.3-1.389c.469-.338.9-.658,1.311-.938a5.79,5.79,0,0,1,2.126-1,2.742,2.742,0,0,1,.64-.053c.147.013.222.025.222.037,0,.034-.31.005-.832.148a6.253,6.253,0,0,0-2.015,1.068l-1.28.967a3.266,3.266,0,0,0-1.175,1.287,2.449,2.449,0,0,0-.2.918,1,1,0,0,1-.193.574,1.352,1.352,0,0,1-.487.343,1.68,1.68,0,0,0-1.058,1.56,1.682,1.682,0,0,0,.7,1.513l.3.184-.33.123a1.38,1.38,0,0,0-.7,1.586,4.64,4.64,0,0,0,.826,1.629l.068.1-.084.085a2.428,2.428,0,0,0-.686,1.73,2.361,2.361,0,0,0,.481,1.379,3.484,3.484,0,0,0,1,.84" fill="#375a64"/>
          <path id="Trazado_190318" data-name="Trazado 190318" d="M-1045.338,1142.536a1.354,1.354,0,0,1-.478-.1,4.382,4.382,0,0,1-1.221-.637,4.636,4.636,0,0,1-1.388-1.624,1.864,1.864,0,0,1-.236-1.34.926.926,0,0,1,.534-.594.738.738,0,0,1,.848.144l-.262.158a2.366,2.366,0,0,1-.238-1.34,1.125,1.125,0,0,1,.417-.656.928.928,0,0,1,.8-.112,1.422,1.422,0,0,0,.6.082c.126-.039.154-.2.139-.46a2.124,2.124,0,0,1,.59-1.474,2.293,2.293,0,0,1,2.364-.676l-.222.2a1.972,1.972,0,0,1,.362-1.919,1.2,1.2,0,0,1,.943-.3.894.894,0,0,1,.775.567l-.3.061a4.719,4.719,0,0,1,.595-2.538,4.888,4.888,0,0,1,1.3-1.529,4.332,4.332,0,0,1,1.123-.634,1.431,1.431,0,0,1,.442-.112,6.952,6.952,0,0,0-1.453.885,4.921,4.921,0,0,0-1.193,1.508,4.54,4.54,0,0,0-.511,2.4l.084,1.264-.379-1.2c-.131-.415-.858-.478-1.206-.134a1.666,1.666,0,0,0-.256,1.6l.084.311-.305-.1a1.959,1.959,0,0,0-2,.589,1.79,1.79,0,0,0-.5,1.231,1.447,1.447,0,0,1-.029.412.555.555,0,0,1-.337.376,1.489,1.489,0,0,1-.794-.074.592.592,0,0,0-.53.053.808.808,0,0,0-.293.459,2.1,2.1,0,0,0,.209,1.154l.322.846-.583-.688c-.231-.272-.8-.028-.874.329a1.627,1.627,0,0,0,.192,1.143,4.612,4.612,0,0,0,1.27,1.593,6.71,6.71,0,0,0,1.587.883" fill="#375a64"/>
          <path id="Trazado_190319" data-name="Trazado 190319" d="M-1027.9,1121.071a2.6,2.6,0,0,1-1.03-.413,2.915,2.915,0,0,1-.935-.811,1.921,1.921,0,0,1-.338-1.512,1.44,1.44,0,0,1,.141-.364l.074.24a1.663,1.663,0,0,1-.857-1.15,1.52,1.52,0,0,1,.223-1.129c.381-.557.832-.612.828-.578.029.049-.353.188-.624.7a1.341,1.341,0,0,0-.122.944,1.4,1.4,0,0,0,.708.906l.154.077-.08.164a1.119,1.119,0,0,0-.106.275,1.671,1.671,0,0,0,.266,1.249,3,3,0,0,0,.8.784c.547.372.924.572.9.621" fill="#375a64"/>
          <path id="Trazado_190320" data-name="Trazado 190320" d="M-1019.8,1117.323a2.031,2.031,0,0,0,.246-1.271,1.446,1.446,0,0,0-.819-1.092,1.558,1.558,0,0,0-1.664.258l-.218.206-.058-.3a2.837,2.837,0,0,0-.4-1.026,1.315,1.315,0,0,0-.869-.622c-.556-.076-1.18.44-1.028.9l-.329.066a2.658,2.658,0,0,0-.953-1.735,2.59,2.59,0,0,0-1.492-.572,4.007,4.007,0,0,0-1.458.262c-.01-.015.1-.112.341-.23a2.644,2.644,0,0,1,1.123-.246,2.731,2.731,0,0,1,1.665.558,2.9,2.9,0,0,1,1.108,1.925l-.328.066a.976.976,0,0,1,.346-1.01,1.382,1.382,0,0,1,1.046-.33,1.626,1.626,0,0,1,1.115.778,3.135,3.135,0,0,1,.433,1.156l-.275-.09a1.838,1.838,0,0,1,2.008-.272,1.643,1.643,0,0,1,.9,1.315,1.68,1.68,0,0,1-.2,1.023c-.125.209-.234.288-.244.278" fill="#375a64"/>
          <path id="Trazado_190321" data-name="Trazado 190321" d="M-985.7,1236.613l10.155-4.2a136.789,136.789,0,0,0-6.081-25.021c-3.653-10.092-9.649-14.63-11.526-15.853l-.037-.119-3.027-1.833-13.047-8.4c2.294,10.429-11.1,41.655-32.254-1.265l-26.248,10.614,6.868,74.328-6.509,32.88,65.664-.19.01.63,13.971-.132-2.99-14.591c1.3-14.032,5.479-31.07,4.993-42.328.07-1.414.084-2.935.058-4.526" fill="#0ddcf1"/>
          <path id="Trazado_190322" data-name="Trazado 190322" d="M-988.637,1265.839a3.291,3.291,0,0,0,.157-.528q.142-.571.384-1.532c.167-.665.361-1.483.548-2.439s.437-2.04.629-3.251c.212-1.21.439-2.535.622-3.966.216-1.428.364-2.964.537-4.577.292-3.233.489-6.8.492-10.547-.018-3.749-.228-7.315-.531-10.548-.179-1.612-.333-3.148-.556-4.574-.187-1.433-.419-2.757-.635-3.965-.2-1.212-.446-2.294-.641-3.249s-.388-1.772-.559-2.437q-.243-.96-.389-1.531a3.555,3.555,0,0,0-.158-.528,3.15,3.15,0,0,0,.09.545c.081.386.189.9.325,1.544.149.669.326,1.488.5,2.446s.408,2.041.589,3.252c.2,1.209.417,2.531.592,3.961.21,1.426.352,2.958.521,4.567.286,3.225.485,6.781.5,10.517,0,3.735-.189,7.291-.462,10.518-.163,1.609-.3,3.14-.5,4.567-.169,1.43-.381,2.754-.578,3.962-.176,1.214-.4,2.3-.577,3.256s-.342,1.778-.489,2.447c-.133.647-.24,1.161-.319,1.546a3.12,3.12,0,0,0-.088.544" fill="#1a2e35"/>
          <path id="Trazado_190323" data-name="Trazado 190323" d="M-988.481,1265.311a1.218,1.218,0,0,1-.037.338c-.047.259-.1.574-.172.955-.164.827-.38,2.024-.636,3.506a72.022,72.022,0,0,0-1.072,11.678,54.173,54.173,0,0,0,.393,6.44,50.164,50.164,0,0,0,.952,5.186c.155.734.356,1.384.507,1.962s.3,1.068.428,1.471c.111.371.2.677.276.928a1.138,1.138,0,0,1,.073.333,1.341,1.341,0,0,1-.139-.308l-.34-.91c-.146-.4-.319-.883-.485-1.459s-.389-1.223-.559-1.957a45.859,45.859,0,0,1-1.032-5.2,51.034,51.034,0,0,1-.423-6.483,64.443,64.443,0,0,1,1.178-11.719c.287-1.48.541-2.674.746-3.492.094-.377.173-.687.237-.942a1.284,1.284,0,0,1,.1-.323" fill="#1a2e35"/>
          <path id="Trazado_190324" data-name="Trazado 190324" d="M-1093.907,1242.653l13.462-38.525s3.557-11.351,14.226-14.155l7.631,38.534-3.54,21.073Z" fill="#0ddcf1"/>
          <path id="Trazado_190325" data-name="Trazado 190325" d="M-1055.961,1218.406a1.156,1.156,0,0,1-.009.324c-.025.251-.055.556-.092.923-.085.8-.239,1.956-.466,3.377-.441,2.846-1.239,6.746-2.205,11.026s-1.831,8.158-2.413,10.974c-.283,1.367-.517,2.493-.689,3.334-.08.361-.146.659-.2.907a1.159,1.159,0,0,1-.093.31,1.172,1.172,0,0,1,.023-.324c.037-.249.082-.552.135-.916.121-.8.322-1.943.581-3.36.522-2.828,1.35-6.718,2.314-11s1.8-8.16,2.3-10.99c.257-1.414.447-2.56.574-3.355.063-.362.114-.662.157-.912a1.054,1.054,0,0,1,.079-.316" fill="#1a2e35"/>
          <g id="Grupo_130229" data-name="Grupo 130229" opacity="0.3">
            <g id="Grupo_130228" data-name="Grupo 130228">
              <g id="Grupo_130227" data-name="Grupo 130227" clip-path="url(#clip-path)">
                <path id="Trazado_190326" data-name="Trazado 190326" d="M-1062.463,1270.246c3.982-4.723,4.361-11.409,4.552-17.583.241-7.814.072-16.833.314-24.646-1.448,6.924-3.633,17.56-4.713,21.563,0,0,.524,4.085.553,5.685.027,1.459-.1,3.056.035,4.508.354,3.757.943,7.908-1.23,10.994"/>
              </g>
            </g>
          </g>
          <path id="Trazado_190327" data-name="Trazado 190327" d="M-1037.583,1274.806l10.21.211s15.309-5.532,18.456-5c2.836.475,13.216,7.372,15.249,8.736a1.283,1.283,0,0,1,.493.627,2.226,2.226,0,0,1-1.238,2.828l-.215.089.093.31a3.676,3.676,0,0,1,.156,1.238,1.5,1.5,0,0,1-2.782.645l.393.7a1.7,1.7,0,0,1,.216.929l-.035.631a1.7,1.7,0,0,1-1.172,1.525,1.7,1.7,0,0,1-1.783-.466c-1.316-1.45-4.16-4.35-6.083-4.669a44.923,44.923,0,0,0-6.283-.317,2.13,2.13,0,0,0-1.976,1.361c1.141.082,9.1,4.229,11.911,5.715a3.014,3.014,0,0,1,1.637,2.266c.1.88-.342,1.8-2.085,1.4a77.034,77.034,0,0,1-10.471-3.968s-3.472-.993-5.721.595c-3.164,2.232-4.614,3.049-7.33,2.15a22.974,22.974,0,0,1-4.721-2.194l-9.817.572s-5.106-8.9,2.9-15.905" fill="#c68876"/>
          <path id="Trazado_190328" data-name="Trazado 190328" d="M-1013.942,1277.6c.013.058,1.087-.286,2.877-.4a15.2,15.2,0,0,1,6.818,1.157,15.193,15.193,0,0,1,5.555,4.123c1.157,1.371,1.65,2.384,1.7,2.353a3.44,3.44,0,0,0-.34-.708,12.822,12.822,0,0,0-1.2-1.774,14.572,14.572,0,0,0-5.6-4.258,14.593,14.593,0,0,0-6.948-1.1,12.876,12.876,0,0,0-2.114.359,3.582,3.582,0,0,0-.747.243" fill="#be654e"/>
          <path id="Trazado_190329" data-name="Trazado 190329" d="M-1012.321,1273.884a12.462,12.462,0,0,1,2.994-.522,13.046,13.046,0,0,1,6.963,1.971,28.081,28.081,0,0,1,5.612,4.747l1.537,1.635a4.392,4.392,0,0,0,.587.579,4.56,4.56,0,0,0-.5-.654c-.339-.409-.836-.993-1.473-1.7a25.73,25.73,0,0,0-5.611-4.854,12.744,12.744,0,0,0-7.12-1.93,8.545,8.545,0,0,0-2.222.409,4.934,4.934,0,0,0-.573.219c-.129.057-.194.09-.191.1" fill="#be654e"/>
          <path id="Trazado_190330" data-name="Trazado 190330" d="M-1090,1243.5c0-.067-5.312,23.882-6,28.092-.809,4.924-2.153,16.894,8.821,19.228s56.522-.684,56.522-.684l3.291-15.121-41.731-5.927,4.559-20.037Z" fill="#c68876"/>
          <path id="Trazado_190331" data-name="Trazado 190331" d="M-906.949,1298.112h-93.457l12.059-65.589a4.9,4.9,0,0,1,4.821-4.016h83.974a4.9,4.9,0,0,1,4.816,5.824Z" fill="#cc8f08"/>
          <path id="Trazado_190332" data-name="Trazado 190332" d="M-977.959,1228.6c0,.023-.26-.048-.756-.052a4.641,4.641,0,0,0-2.076.515,6.4,6.4,0,0,0-2.49,2.266,12.029,12.029,0,0,0-1.527,4.239c-.3,1.66-.573,3.5-.9,5.467s-.7,4.064-1.112,6.267c-.813,4.408-1.779,9.242-2.828,14.305-2.111,10.13-4.064,19.29-5.341,25.945-.643,3.327-1.138,6.024-1.474,7.89-.166.914-.3,1.631-.391,2.148-.046.227-.082.412-.11.557a.776.776,0,0,1-.05.187.93.93,0,0,1,.015-.193c.019-.147.045-.331.076-.564.077-.518.187-1.24.326-2.158.294-1.872.753-4.578,1.365-7.912,1.217-6.672,3.132-15.843,5.242-25.97,1.049-5.063,2.023-9.89,2.854-14.3.422-2.2.792-4.3,1.142-6.258s.625-3.792.948-5.464a12.123,12.123,0,0,1,1.6-4.3,6.48,6.48,0,0,1,2.6-2.284,4.537,4.537,0,0,1,2.137-.461,2.712,2.712,0,0,1,.754.122" fill="#1a2e35"/>
          <path id="Trazado_190333" data-name="Trazado 190333" d="M-938.49,1261.834a4.519,4.519,0,0,1-4.518,4.519,4.518,4.518,0,0,1-4.518-4.519,4.519,4.519,0,0,1,4.518-4.519,4.52,4.52,0,0,1,4.518,4.519" fill="#ffe09f"/>
          <g id="Grupo_130257" data-name="Grupo 130257">
            <path id="Trazado_190334" data-name="Trazado 190334" d="M-828.552,1249.861a.491.491,0,0,0-.065-.146c-.06-.112-.133-.247-.222-.41a17.927,17.927,0,0,0-.969-1.513,16.266,16.266,0,0,0-4.788-4.525,11.762,11.762,0,0,0-4.3-1.577,10.638,10.638,0,0,0-5.217.546,8.464,8.464,0,0,0-4.465,3.658c-1.027,1.79-1.357,3.893-1.957,5.9a10.666,10.666,0,0,1-1.247,2.815,8.485,8.485,0,0,1-2.12,2.089c-.8.589-1.634,1.12-2.391,1.739a10.269,10.269,0,0,0-1.941,2.1,12.951,12.951,0,0,0-1.99,4.86,17.278,17.278,0,0,0-.266,4.568,34.638,34.638,0,0,0,1.168,6.495c.2.754.366,1.335.48,1.728a3.953,3.953,0,0,0,.2.594,3.785,3.785,0,0,0-.124-.612q-.153-.645-.413-1.743a37.487,37.487,0,0,1-1.05-6.477,17.284,17.284,0,0,1,.3-4.492,12.715,12.715,0,0,1,1.97-4.729,9.99,9.99,0,0,1,1.886-2.027c.738-.6,1.568-1.123,2.383-1.72a8.9,8.9,0,0,0,2.209-2.173,11.046,11.046,0,0,0,1.294-2.914c.607-2.045.937-4.119,1.918-5.832a8.135,8.135,0,0,1,4.274-3.519,10.375,10.375,0,0,1,5.059-.564,11.618,11.618,0,0,1,4.207,1.5,16.72,16.72,0,0,1,4.8,4.388c.463.621.8,1.124,1.02,1.468a3.829,3.829,0,0,0,.349.518" fill="#e0e0e0"/>
            <path id="Trazado_190335" data-name="Trazado 190335" d="M-854.835,1257.231c.552-.514.823-.156,1.566-.02a4.647,4.647,0,0,1,2.01,1,8.463,8.463,0,0,1,2.742,8.882,6.744,6.744,0,0,1-5.995-3.15,6.745,6.745,0,0,1-.07-6.771" fill="#e0e0e0"/>
            <path id="Trazado_190336" data-name="Trazado 190336" d="M-832.1,1246.882c.279-.7.676-.495,1.406-.693a4.621,4.621,0,0,1,2.244.041,8.467,8.467,0,0,1,6.3,6.837,6.74,6.74,0,0,1-6.766-.263,6.746,6.746,0,0,1-2.977-6.084" fill="#e0e0e0"/>
            <path id="Trazado_190337" data-name="Trazado 190337" d="M-859.843,1271.237a7.743,7.743,0,0,1,6.134-2.625,7.746,7.746,0,0,1,5.851,3.208,9.428,9.428,0,0,1-6.216,2.452,9.621,9.621,0,0,1-6.26-2.532" fill="#e0e0e0"/>
            <path id="Trazado_190338" data-name="Trazado 190338" d="M-857.976,1260.777a7.839,7.839,0,0,1-6.122-2.73,7.846,7.846,0,0,1-1.681-6.487,7.076,7.076,0,0,1,6.749,2.172,7.085,7.085,0,0,1,1.31,6.971" fill="#e0e0e0"/>
            <path id="Trazado_190339" data-name="Trazado 190339" d="M-849.974,1248.481a7.843,7.843,0,0,1-6.681-.541,7.852,7.852,0,0,1-3.743-5.56,7.084,7.084,0,0,1,7.088-.194,7.08,7.08,0,0,1,3.551,6.139" fill="#e0e0e0"/>
            <path id="Trazado_190340" data-name="Trazado 190340" d="M-847.292,1244.467a7.843,7.843,0,0,1,6.681.543,7.846,7.846,0,0,1,3.743,5.558,7.081,7.081,0,0,1-7.089.195,7.081,7.081,0,0,1-3.55-6.139" fill="#e0e0e0"/>
            <path id="Trazado_190341" data-name="Trazado 190341" d="M-844.094,1242.306a7.848,7.848,0,0,1-4.79-4.69,7.848,7.848,0,0,1,.677-6.667,7.085,7.085,0,0,1,5.575,4.385,7.079,7.079,0,0,1-1.2,6.988" fill="#e0e0e0"/>
            <path id="Trazado_190342" data-name="Trazado 190342" d="M-835.9,1242.7a7.84,7.84,0,0,1,.674-6.668,7.847,7.847,0,0,1,5.633-3.631,7.081,7.081,0,0,1,.052,7.09,7.082,7.082,0,0,1-6.207,3.429" fill="#e0e0e0"/>
            <path id="Trazado_190343" data-name="Trazado 190343" d="M-854.5,1265.681a5.7,5.7,0,0,0,5.552.47,6.013,6.013,0,0,0,3.038-4.8,6.821,6.821,0,0,0-5.543-.284,6.755,6.755,0,0,0-3.686,4.125" fill="#ffb30c"/>
            <path id="Trazado_190344" data-name="Trazado 190344" d="M-839.2,1271.583a5.706,5.706,0,0,0,5.552.469,6.012,6.012,0,0,0,3.038-4.8,6.815,6.815,0,0,0-5.542-.284,6.743,6.743,0,0,0-3.687,4.125" fill="#ffb30c"/>
            <path id="Trazado_190345" data-name="Trazado 190345" d="M-847.787,1258.4a5.71,5.71,0,0,0,4.378,3.447,6.022,6.022,0,0,0,5.178-2.34,6.816,6.816,0,0,0-4.474-3.285,6.749,6.749,0,0,0-5.347,1.418" fill="#ffb30c"/>
            <path id="Trazado_190346" data-name="Trazado 190346" d="M-842.205,1265.231a5.709,5.709,0,0,0-4.994,2.473,6.015,6.015,0,0,0-.116,5.679,6.819,6.819,0,0,0,4.892-2.626,6.76,6.76,0,0,0,1.018-5.438" fill="#ffb30c"/>
            <path id="Trazado_190347" data-name="Trazado 190347" d="M-836.815,1276.019a5.707,5.707,0,0,0,.131,5.571,6.021,6.021,0,0,0,5.1,2.5,6.826,6.826,0,0,0-.315-5.541c-.88-1.6-2.466-2.391-4.451-2.84" fill="#ffb30c"/>
            <path id="Trazado_190348" data-name="Trazado 190348" d="M-827.923,1277.286a4.069,4.069,0,0,0-1.324-.843,5.732,5.732,0,0,0-1.814-.317,21.6,21.6,0,0,0-2.469.145,7.221,7.221,0,0,1-3.039-.26,4.672,4.672,0,0,1-2.511-2.426,13.947,13.947,0,0,1-1.081-3.7,10.6,10.6,0,0,0-1.289-3.8,13.443,13.443,0,0,0-2.828-2.876,13.712,13.712,0,0,1-2.708-2.747,9.053,9.053,0,0,1-1.347-6.3,8.837,8.837,0,0,1,1.642-4.049,6.814,6.814,0,0,1,.8-.883,1.726,1.726,0,0,1,.318-.269,1.942,1.942,0,0,1-.266.321,8.8,8.8,0,0,0-.74.915,9.044,9.044,0,0,0-1.5,4,8.868,8.868,0,0,0,1.37,6.074,13.572,13.572,0,0,0,2.659,2.665,13.507,13.507,0,0,1,2.9,2.951,10.853,10.853,0,0,1,1.334,3.925,13.718,13.718,0,0,0,1.032,3.62,4.354,4.354,0,0,0,2.316,2.294,7.058,7.058,0,0,0,2.916.287,20.255,20.255,0,0,1,2.5-.092,5.58,5.58,0,0,1,1.857.389,3.1,3.1,0,0,1,1.006.652,1.776,1.776,0,0,1,.208.232c.042.055.062.085.057.089" fill="#ffb30c"/>
            <path id="Trazado_190349" data-name="Trazado 190349" d="M-827.923,1277.286a4.069,4.069,0,0,0-1.324-.843,5.732,5.732,0,0,0-1.814-.317,21.6,21.6,0,0,0-2.469.145,7.221,7.221,0,0,1-3.039-.26,4.672,4.672,0,0,1-2.511-2.426,13.947,13.947,0,0,1-1.081-3.7,10.6,10.6,0,0,0-1.289-3.8,13.443,13.443,0,0,0-2.828-2.876,13.712,13.712,0,0,1-2.708-2.747,9.053,9.053,0,0,1-1.347-6.3,8.837,8.837,0,0,1,1.642-4.049,6.814,6.814,0,0,1,.8-.883,1.726,1.726,0,0,1,.318-.269,1.942,1.942,0,0,1-.266.321,8.8,8.8,0,0,0-.74.915,9.044,9.044,0,0,0-1.5,4,8.868,8.868,0,0,0,1.37,6.074,13.572,13.572,0,0,0,2.659,2.665,13.507,13.507,0,0,1,2.9,2.951,10.853,10.853,0,0,1,1.334,3.925,13.718,13.718,0,0,0,1.032,3.62,4.354,4.354,0,0,0,2.316,2.294,7.058,7.058,0,0,0,2.916.287,20.255,20.255,0,0,1,2.5-.092,5.58,5.58,0,0,1,1.857.389,3.1,3.1,0,0,1,1.006.652,1.776,1.776,0,0,1,.208.232c.042.055.062.085.057.089" fill="#ffb30c"/>
            <path id="Trazado_190350" data-name="Trazado 190350" d="M-891.792,1280.094a8.624,8.624,0,0,0-3.474-7.267,8.627,8.627,0,0,0-7.983-1.07,14.12,14.12,0,0,0,11.157,8.233" fill="#ffb30c"/>
            <path id="Trazado_190351" data-name="Trazado 190351" d="M-894,1281.261c-1.636,1.8-1.53,4.686-.36,6.816a15.305,15.305,0,0,0,5.2,5,11.1,11.1,0,0,0-.26-7.032,11.1,11.1,0,0,0-4.473-5.433" fill="#ffb30c"/>
            <path id="Trazado_190352" data-name="Trazado 190352" d="M-886.076,1272.835a9.9,9.9,0,0,0,3.694,6.72,9.892,9.892,0,0,0,7.406,1.981,13.343,13.343,0,0,0-3.72-7.064c-2.033-1.786-5.237-2.45-7.485-.948" fill="#ffb30c"/>
            <path id="Trazado_190353" data-name="Trazado 190353" d="M-886.128,1270.152a5.737,5.737,0,0,0-5.19-4.355,9.96,9.96,0,0,0-6.748,2.27,8.874,8.874,0,0,0,5.747,2.961,8.875,8.875,0,0,0,6.214-1.78" fill="#ffb30c"/>
            <path id="Trazado_190354" data-name="Trazado 190354" d="M-898.593,1290.515c-2.3,1.962-2.872,5.456-1.918,8.321a13.84,13.84,0,0,0,5.7,6.828,18.173,18.173,0,0,0,1.062-8.845,9.287,9.287,0,0,0-5.038-7.017" fill="#ffb30c"/>
            <path id="Trazado_190355" data-name="Trazado 190355" d="M-886.5,1263.435a7.17,7.17,0,0,1,5.43-3.082,7.18,7.18,0,0,1,5.753,2.428,6.238,6.238,0,0,1-5.416,3.616,6.244,6.244,0,0,1-5.594-3.332" fill="#ffb30c"/>
            <path id="Trazado_190356" data-name="Trazado 190356" d="M-883.685,1256.533a9.3,9.3,0,0,1-7.466-.957,9.294,9.294,0,0,1-4.237-6.22,20.872,20.872,0,0,1,5.527.082,8.982,8.982,0,0,1,4.9,2.411,4.854,4.854,0,0,1,1.281,4.684" fill="#ffb30c"/>
            <path id="Trazado_190357" data-name="Trazado 190357" d="M-878.377,1254.747a7.609,7.609,0,0,1-2.754-5.777,7.611,7.611,0,0,1,2.706-5.8,15.684,15.684,0,0,1,3.28,6.995,5.9,5.9,0,0,1-.024,2.9,2.669,2.669,0,0,1-2.025,1.895" fill="#ffb30c"/>
            <g id="Grupo_130232" data-name="Grupo 130232" opacity="0.4">
              <g id="Grupo_130231" data-name="Grupo 130231">
                <g id="Grupo_130230" data-name="Grupo 130230" clip-path="url(#clip-path-2)">
                  <path id="Trazado_190358" data-name="Trazado 190358" d="M-891.792,1280.094a8.624,8.624,0,0,0-3.474-7.267,8.627,8.627,0,0,0-7.983-1.07,14.12,14.12,0,0,0,11.157,8.233"/>
                </g>
              </g>
            </g>
            <g id="Grupo_130235" data-name="Grupo 130235" opacity="0.4">
              <g id="Grupo_130234" data-name="Grupo 130234">
                <g id="Grupo_130233" data-name="Grupo 130233" clip-path="url(#clip-path-3)">
                  <path id="Trazado_190359" data-name="Trazado 190359" d="M-894,1281.261c-1.636,1.8-1.53,4.686-.36,6.816a15.305,15.305,0,0,0,5.2,5,11.1,11.1,0,0,0-.26-7.032,11.1,11.1,0,0,0-4.473-5.433"/>
                </g>
              </g>
            </g>
            <g id="Grupo_130238" data-name="Grupo 130238" opacity="0.4">
              <g id="Grupo_130237" data-name="Grupo 130237">
                <g id="Grupo_130236" data-name="Grupo 130236" clip-path="url(#clip-path-4)">
                  <path id="Trazado_190360" data-name="Trazado 190360" d="M-886.076,1272.835a9.9,9.9,0,0,0,3.694,6.72,9.892,9.892,0,0,0,7.406,1.981,13.343,13.343,0,0,0-3.72-7.064c-2.033-1.786-5.237-2.45-7.485-.948"/>
                </g>
              </g>
            </g>
            <g id="Grupo_130241" data-name="Grupo 130241" opacity="0.4">
              <g id="Grupo_130240" data-name="Grupo 130240">
                <g id="Grupo_130239" data-name="Grupo 130239" clip-path="url(#clip-path-5)">
                  <path id="Trazado_190361" data-name="Trazado 190361" d="M-886.128,1270.152a5.737,5.737,0,0,0-5.19-4.355,9.96,9.96,0,0,0-6.748,2.27,8.874,8.874,0,0,0,5.747,2.961,8.875,8.875,0,0,0,6.214-1.78"/>
                </g>
              </g>
            </g>
            <g id="Grupo_130244" data-name="Grupo 130244" opacity="0.4">
              <g id="Grupo_130243" data-name="Grupo 130243">
                <g id="Grupo_130242" data-name="Grupo 130242" clip-path="url(#clip-path-6)">
                  <path id="Trazado_190362" data-name="Trazado 190362" d="M-898.593,1290.515c-2.3,1.962-2.872,5.456-1.918,8.321a13.84,13.84,0,0,0,5.7,6.828,18.173,18.173,0,0,0,1.062-8.845,9.287,9.287,0,0,0-5.038-7.017"/>
                </g>
              </g>
            </g>
            <g id="Grupo_130247" data-name="Grupo 130247" opacity="0.4">
              <g id="Grupo_130246" data-name="Grupo 130246">
                <g id="Grupo_130245" data-name="Grupo 130245" clip-path="url(#clip-path-7)">
                  <path id="Trazado_190363" data-name="Trazado 190363" d="M-886.5,1263.435a7.17,7.17,0,0,1,5.43-3.082,7.18,7.18,0,0,1,5.753,2.428,6.238,6.238,0,0,1-5.416,3.616,6.244,6.244,0,0,1-5.594-3.332"/>
                </g>
              </g>
            </g>
            <g id="Grupo_130250" data-name="Grupo 130250" opacity="0.4">
              <g id="Grupo_130249" data-name="Grupo 130249">
                <g id="Grupo_130248" data-name="Grupo 130248" clip-path="url(#clip-path-8)">
                  <path id="Trazado_190364" data-name="Trazado 190364" d="M-883.685,1256.533a9.3,9.3,0,0,1-7.466-.957,9.294,9.294,0,0,1-4.237-6.22,20.872,20.872,0,0,1,5.527.082,8.982,8.982,0,0,1,4.9,2.411,4.854,4.854,0,0,1,1.281,4.684"/>
                </g>
              </g>
            </g>
            <g id="Grupo_130253" data-name="Grupo 130253" opacity="0.4">
              <g id="Grupo_130252" data-name="Grupo 130252">
                <g id="Grupo_130251" data-name="Grupo 130251" clip-path="url(#clip-path-9)">
                  <path id="Trazado_190365" data-name="Trazado 190365" d="M-878.377,1254.747a7.609,7.609,0,0,1-2.754-5.777,7.611,7.611,0,0,1,2.706-5.8,15.684,15.684,0,0,1,3.28,6.995,5.9,5.9,0,0,1-.024,2.9,2.669,2.669,0,0,1-2.025,1.895"/>
                </g>
              </g>
            </g>
            <path id="Trazado_190366" data-name="Trazado 190366" d="M-869.2,1271.568a.755.755,0,0,1,0-.188c.009-.146.019-.326.033-.551.032-.484.077-1.2.093-2.118a18.95,18.95,0,0,0-1.244-7.6,11.6,11.6,0,0,0-3.057-4.3,8.161,8.161,0,0,0-5.564-2.048,6.953,6.953,0,0,0-3.139.788,6.24,6.24,0,0,0-2.424,2.313,12.486,12.486,0,0,0-1.409,6.992,49.8,49.8,0,0,1,.168,7.355,11.23,11.23,0,0,1-.916,3.409,7.147,7.147,0,0,1-2.057,2.7,10.362,10.362,0,0,1-2.867,1.467,14.622,14.622,0,0,0-2.7,1.226,9.792,9.792,0,0,0-3.548,3.866,9.339,9.339,0,0,0-1.024,4.229,9.877,9.877,0,0,0,.536,3.269,12.105,12.105,0,0,0,1.266,2.544.676.676,0,0,1-.123-.144,5.233,5.233,0,0,1-.323-.45,8.916,8.916,0,0,1-.954-1.9,9.876,9.876,0,0,1-.606-3.316,9.483,9.483,0,0,1,1-4.343,10.008,10.008,0,0,1,3.619-4.008c1.654-1.1,3.838-1.375,5.519-2.7a8.615,8.615,0,0,0,2.829-5.886,50.4,50.4,0,0,0-.177-7.3,12.768,12.768,0,0,1,1.468-7.188,6.568,6.568,0,0,1,2.566-2.435,7.278,7.278,0,0,1,3.294-.815,8.458,8.458,0,0,1,5.766,2.155,11.778,11.778,0,0,1,3.1,4.43,15.907,15.907,0,0,1,1.054,4.339,23.883,23.883,0,0,1,.093,3.366c-.037.923-.106,1.637-.161,2.119-.028.223-.05.4-.069.549a.71.71,0,0,1-.036.184" fill="#ffb30c"/>
            <g id="Grupo_130256" data-name="Grupo 130256" opacity="0.4">
              <g id="Grupo_130255" data-name="Grupo 130255">
                <g id="Grupo_130254" data-name="Grupo 130254" clip-path="url(#clip-path-10)">
                  <path id="Trazado_190367" data-name="Trazado 190367" d="M-869.2,1271.568a.755.755,0,0,1,0-.188c.009-.146.019-.326.033-.551.032-.484.077-1.2.093-2.118a18.95,18.95,0,0,0-1.244-7.6,11.6,11.6,0,0,0-3.057-4.3,8.161,8.161,0,0,0-5.564-2.048,6.953,6.953,0,0,0-3.139.788,6.24,6.24,0,0,0-2.424,2.313,12.486,12.486,0,0,0-1.409,6.992,49.8,49.8,0,0,1,.168,7.355,11.23,11.23,0,0,1-.916,3.409,7.147,7.147,0,0,1-2.057,2.7,10.362,10.362,0,0,1-2.867,1.467,14.622,14.622,0,0,0-2.7,1.226,9.792,9.792,0,0,0-3.548,3.866,9.339,9.339,0,0,0-1.024,4.229,9.877,9.877,0,0,0,.536,3.269,12.105,12.105,0,0,0,1.266,2.544.676.676,0,0,1-.123-.144,5.233,5.233,0,0,1-.323-.45,8.916,8.916,0,0,1-.954-1.9,9.876,9.876,0,0,1-.606-3.316,9.483,9.483,0,0,1,1-4.343,10.008,10.008,0,0,1,3.619-4.008c1.654-1.1,3.838-1.375,5.519-2.7a8.615,8.615,0,0,0,2.829-5.886,50.4,50.4,0,0,0-.177-7.3,12.768,12.768,0,0,1,1.468-7.188,6.568,6.568,0,0,1,2.566-2.435,7.278,7.278,0,0,1,3.294-.815,8.458,8.458,0,0,1,5.766,2.155,11.778,11.778,0,0,1,3.1,4.43,15.907,15.907,0,0,1,1.054,4.339,23.883,23.883,0,0,1,.093,3.366c-.037.923-.106,1.637-.161,2.119-.028.223-.05.4-.069.549a.71.71,0,0,1-.036.184"/>
                </g>
              </g>
            </g>
            <path id="Trazado_190368" data-name="Trazado 190368" d="M-820.483,1265.589a7.127,7.127,0,0,0,.5-2.452,6.116,6.116,0,0,0-.652-2.829,5.9,5.9,0,0,0-2.728-2.636,5.959,5.959,0,0,0-2.15-.581,7.023,7.023,0,0,0-2.405.282c-1.638.432-3.26,1.362-5.2,1.749a6.16,6.16,0,0,1-3.015-.074,4.538,4.538,0,0,1-2.456-1.963c-1.169-1.813-1.5-4.086-2.909-5.757a5.744,5.744,0,0,0-2.643-1.726,7.4,7.4,0,0,0-3.088-.313,7.91,7.91,0,0,0-5.136,2.671,12.068,12.068,0,0,0-2.549,4.716,14.267,14.267,0,0,0-.57,4.674,51.558,51.558,0,0,0,.868,6.834q.2,1.172.321,1.852c.028.195.052.354.071.484a.58.58,0,0,1,.013.168.587.587,0,0,1-.049-.161c-.029-.129-.064-.285-.108-.477q-.141-.675-.387-1.84a46.637,46.637,0,0,1-.985-6.852,14.374,14.374,0,0,1,.536-4.765,12.308,12.308,0,0,1,2.592-4.857,9.189,9.189,0,0,1,2.346-1.88,7.767,7.767,0,0,1,3-.921,7.726,7.726,0,0,1,3.237.324,6.089,6.089,0,0,1,2.807,1.834c1.493,1.79,1.812,4.08,2.931,5.8a4.169,4.169,0,0,0,2.263,1.824,5.822,5.822,0,0,0,2.848.077c1.867-.358,3.5-1.276,5.184-1.709a7.257,7.257,0,0,1,2.505-.271,6.178,6.178,0,0,1,2.24.628,6.084,6.084,0,0,1,2.8,2.776,6.194,6.194,0,0,1,.611,2.923,5.84,5.84,0,0,1-.361,1.853,3.132,3.132,0,0,1-.28.6" fill="#ffb30c"/>
            <path id="Trazado_190369" data-name="Trazado 190369" d="M-840.051,1253.446a6.5,6.5,0,0,0,5.966.394,6.013,6.013,0,0,0,3.039-4.8,6.82,6.82,0,0,0-5.544-.284,6.754,6.754,0,0,0-3.686,4.124" fill="#ffb30c"/>
            <path id="Trazado_190370" data-name="Trazado 190370" d="M-833.708,1259.2a6.5,6.5,0,0,0,2.769,5.3,6.013,6.013,0,0,0,5.679.1,6.808,6.808,0,0,0-2.641-4.881,6.757,6.757,0,0,0-5.441-1" fill="#ffb30c"/>
            <path id="Trazado_190371" data-name="Trazado 190371" d="M-822.7,1257.925a6.5,6.5,0,0,0,5.974-.244,6.022,6.022,0,0,0,2.509-5.1,6.826,6.826,0,0,0-5.542.31,6.755,6.755,0,0,0-3.226,4.494" fill="#ffb30c"/>
            <path id="Trazado_190372" data-name="Trazado 190372" d="M-849.292,1249.637a6.8,6.8,0,0,1-2.372-5.63,6.016,6.016,0,0,1,3.688-4.322,6.826,6.826,0,0,1,1.91,5.212,6.75,6.75,0,0,1-2.85,4.74" fill="#ffb30c"/>
            <path id="Trazado_190373" data-name="Trazado 190373" d="M-892.257,1241.759a.57.57,0,0,1,.065-.146l.222-.411c.2-.355.519-.874.969-1.512a16.29,16.29,0,0,1,4.788-4.525,11.776,11.776,0,0,1,4.3-1.578,10.63,10.63,0,0,1,5.218.548,8.462,8.462,0,0,1,4.465,3.656c1.026,1.791,1.356,3.894,1.957,5.9a10.707,10.707,0,0,0,1.246,2.817,8.514,8.514,0,0,0,2.12,2.088c.8.59,1.634,1.121,2.391,1.74a10.215,10.215,0,0,1,1.941,2.1,12.935,12.935,0,0,1,1.991,4.86,17.309,17.309,0,0,1,.265,4.567,34.65,34.65,0,0,1-1.168,6.495c-.2.754-.365,1.334-.48,1.729a4.021,4.021,0,0,1-.2.595,4.014,4.014,0,0,1,.125-.614q.152-.642.413-1.744a37.5,37.5,0,0,0,1.049-6.477,17.231,17.231,0,0,0-.3-4.491,12.685,12.685,0,0,0-1.97-4.728,10.028,10.028,0,0,0-1.886-2.029c-.738-.6-1.568-1.123-2.382-1.718a8.885,8.885,0,0,1-2.209-2.174,11.084,11.084,0,0,1-1.3-2.914c-.606-2.044-.935-4.117-1.916-5.831a8.159,8.159,0,0,0-4.274-3.522,10.4,10.4,0,0,0-5.061-.561,11.575,11.575,0,0,0-4.206,1.5,16.7,16.7,0,0,0-4.8,4.386c-.465.622-.8,1.125-1.021,1.469a3.95,3.95,0,0,1-.349.518" fill="#ffb30c"/>
            <path id="Trazado_190374" data-name="Trazado 190374" d="M-865.973,1249.13c-.553-.516-.823-.156-1.568-.021a4.632,4.632,0,0,0-2.007,1,8.464,8.464,0,0,0-2.744,8.882,6.748,6.748,0,0,0,6-3.149,6.753,6.753,0,0,0,.07-6.773" fill="#ffb30c"/>
            <path id="Trazado_190375" data-name="Trazado 190375" d="M-888.708,1238.78c-.279-.7-.677-.494-1.406-.692a4.609,4.609,0,0,0-2.244.04,8.465,8.465,0,0,0-6.3,6.838,6.742,6.742,0,0,0,6.767-.265,6.743,6.743,0,0,0,2.976-6.083" fill="#ffb30c"/>
            <path id="Trazado_190376" data-name="Trazado 190376" d="M-860.965,1263.136a7.739,7.739,0,0,0-6.135-2.625,7.739,7.739,0,0,0-5.85,3.209,9.433,9.433,0,0,0,6.216,2.45,9.621,9.621,0,0,0,6.26-2.532" fill="#ffb30c"/>
            <path id="Trazado_190377" data-name="Trazado 190377" d="M-862.832,1252.677a7.845,7.845,0,0,0,6.121-2.732,7.848,7.848,0,0,0,1.682-6.487,7.077,7.077,0,0,0-6.75,2.174,7.084,7.084,0,0,0-1.31,6.969" fill="#ffb30c"/>
            <path id="Trazado_190378" data-name="Trazado 190378" d="M-870.834,1240.379a7.841,7.841,0,0,0,6.68-.541,7.847,7.847,0,0,0,3.743-5.56,7.08,7.08,0,0,0-7.088-.193,7.078,7.078,0,0,0-3.551,6.139" fill="#ffb30c"/>
            <path id="Trazado_190379" data-name="Trazado 190379" d="M-873.517,1236.364a7.848,7.848,0,0,0-6.68.543,7.851,7.851,0,0,0-3.744,5.56,7.081,7.081,0,0,0,7.089.193,7.079,7.079,0,0,0,3.551-6.138" fill="#ffb30c"/>
            <path id="Trazado_190380" data-name="Trazado 190380" d="M-876.714,1234.2a7.843,7.843,0,0,0,4.789-4.689,7.844,7.844,0,0,0-.678-6.667,7.08,7.08,0,0,0-5.573,4.383,7.079,7.079,0,0,0,1.2,6.99" fill="#ffb30c"/>
            <path id="Trazado_190381" data-name="Trazado 190381" d="M-884.909,1234.595a7.843,7.843,0,0,0-.675-6.668,7.836,7.836,0,0,0-5.633-3.631,7.083,7.083,0,0,0-.052,7.09,7.08,7.08,0,0,0,6.206,3.428" fill="#ffb30c"/>
          </g>
          <g id="Grupo_130258" data-name="Grupo 130258">
            <path id="Trazado_190382" data-name="Trazado 190382" d="M-868.935,1298.091l-4.367-27.4,33.459.406-3.3,26.64" fill="#768691"/>
            <path id="Trazado_190383" data-name="Trazado 190383" d="M-873.726,1294.916l2.56,3.175h31.487l2.146-3.175Z" fill="#768691"/>
            <path id="Trazado_190384" data-name="Trazado 190384" d="M-838.225,1294.887c0,.1-7.737.181-17.28.181s-17.281-.082-17.281-.181,7.736-.183,17.281-.183,17.28.083,17.28.183" fill="#768691"/>
            <path id="Trazado_190385" data-name="Trazado 190385" d="M-841.765,1282.931c.01.009-.058.1-.2.259a7.031,7.031,0,0,1-.642.674,11.759,11.759,0,0,1-2.811,1.951,12.413,12.413,0,0,1-4.916,1.263,11.922,11.922,0,0,1-3.007-.253,17.609,17.609,0,0,1-3.065-1.017c-2.029-.864-3.875-1.848-5.673-2.419a9.762,9.762,0,0,0-4.9-.473,6.362,6.362,0,0,0-3.005,1.394c-.6.525-.825.917-.857.894a1.062,1.062,0,0,1,.158-.286,4.533,4.533,0,0,1,.6-.713,6.269,6.269,0,0,1,3.049-1.541,9.83,9.83,0,0,1,5.051.405c1.84.568,3.706,1.552,5.711,2.405a17.884,17.884,0,0,0,3,1,11.732,11.732,0,0,0,2.917.263,12.414,12.414,0,0,0,4.818-1.158,14.875,14.875,0,0,0,3.76-2.652" fill="#375a64"/>
            <path id="Trazado_190386" data-name="Trazado 190386" d="M-841.451,1280.473c.009.009-.067.092-.216.243a7.638,7.638,0,0,1-.69.629,12.982,12.982,0,0,1-2.914,1.808,13.692,13.692,0,0,1-4.949,1.182,13.448,13.448,0,0,1-3.015-.2,20.373,20.373,0,0,1-3.114-.879c-2.077-.755-3.985-1.621-5.809-2.131a11.51,11.51,0,0,0-4.939-.447,7.4,7.4,0,0,0-3.117,1.19c-.654.46-.941.81-.967.783-.01-.008.058-.1.2-.26a5.22,5.22,0,0,1,.687-.636,7.148,7.148,0,0,1,3.16-1.33,11.464,11.464,0,0,1,5.07.378c1.861.5,3.786,1.365,5.842,2.111a20.414,20.414,0,0,0,3.056.872,13.435,13.435,0,0,0,2.936.219,13.884,13.884,0,0,0,4.861-1.084,17.237,17.237,0,0,0,3.922-2.445" fill="#375a64"/>
          </g>
          <path id="Trazado_190387" data-name="Trazado 190387" d="M-1046.016,1129.39s20.524-28.768,42.092-14.034C-1003.924,1115.356-1022.828,1093.969-1046.016,1129.39Z" fill="#ffb30c"/>
          <path id="Trazado_190388" data-name="Trazado 190388" d="M-1047.333,1232c3.333,8,25.666,11.333,26,0" fill="none" stroke="#0ddcf1" stroke-miterlimit="10" stroke-width="1" style="mix-blend-mode: multiply;isolation: isolate"/>
          <path id="Trazado_190389" data-name="Trazado 190389" d="M-1006.99,1232c2.007,8,15.456,11.333,15.657,0" fill="none" stroke="#0ddcf1" stroke-miterlimit="10" stroke-width="1" style="mix-blend-mode: multiply;isolation: isolate"/>
        </g>
      </g>
    </g>
  </g>
</svg>
