<svg xmlns="http://www.w3.org/2000/svg" xmlns:xlink="http://www.w3.org/1999/xlink" width="400.001" height="274.424" viewBox="0 0 400.001 274.424">
  <defs>
    <clipPath id="clip-path">
      <path id="Trazado_192323" data-name="Trazado 192323" d="M914.012,1060.236a35.624,35.624,0,1,0-50.347,1.986A35.627,35.627,0,0,0,914.012,1060.236Z" transform="translate(-852.224 -1000.434)" fill="none"/>
    </clipPath>
  </defs>
  <g id="Grupo_146544" data-name="Grupo 146544" transform="translate(-180 -5693.711)">
    <g id="Grupo_132850" data-name="Grupo 132850" transform="translate(0 4881)">
      <g id="Grupo_132849" data-name="Grupo 132849" transform="translate(180 814)">
        <path id="Trazado_192265" data-name="Trazado 192265" d="M1179.845,769.128a9.334,9.334,0,0,0-8.205-3.976c-.1.006-.207.014-.31.022a9.343,9.343,0,0,0-5.922,15.747v0a9.513,9.513,0,0,0,1.418,1.219,5.319,5.319,0,0,1,2.2,3.739l-.432.006a.455.455,0,0,0-.318.137c-.015.015-.027.033-.042.05a.431.431,0,1,1,.056.859c-.008.009-.015.018-.023.026a.455.455,0,0,0,.355.745.449.449,0,0,0-.319.14c-.013.013-.025.028-.038.043a.467.467,0,0,0-.09.279.455.455,0,0,0,.46.447.448.448,0,0,0-.319.139.106.106,0,0,0-.015.017.453.453,0,0,0,.347.752l.468-.007a3.306,3.306,0,0,0,.033.331,3.052,3.052,0,0,0,.381,1.048h0q.053.09.112.175c.02.029.041.056.061.084s.055.074.084.11.042.052.064.078.072.08.108.118c.017.018.034.037.052.054.054.053.109.1.167.154l.061.05c.043.035.086.068.131.1l.068.049q.079.054.161.1l.04.025c.068.039.138.075.209.109l.067.03q.079.036.162.067l.073.027c.069.024.138.046.209.066l.024.007c.078.021.159.038.24.052l.072.011c.061.01.123.017.186.023l.075.006c.084.006.169.009.256.008l.51-.008a3.063,3.063,0,0,0,2.986-2.647c.007-.057.012-.115.016-.173s.005-.1.007-.156v0l.426-.006a.457.457,0,0,0,.319-.137.45.45,0,0,0,.13-.323.463.463,0,0,0-.462-.448.454.454,0,0,0-.013-.909.453.453,0,0,0,.333-.755.456.456,0,0,0-.346-.153.46.46,0,0,0,.449-.462.443.443,0,0,0-.1-.27.453.453,0,0,0-.366-.176l-.43.007a5.333,5.333,0,0,1,2.092-3.8,9.343,9.343,0,0,0,2.077-12.848Z" transform="translate(-981.941 -729.219)" fill="#fff"/>
        <path id="Trazado_192266" data-name="Trazado 192266" d="M440.579,841.024S330.39,555.557,532.6,574.88c86.608,8.276,70.44,58.486,108.69,105.465,24.794,30.451,72.479,5.54,90.349,32.149s-3.13,102.483-10.5,128.53Z" transform="translate(-370.588 -573.83)" fill="#dae4ef"/>
        <g id="Grupo_132810" data-name="Grupo 132810" transform="translate(342.642 96.493)">
          <path id="Trazado_192267" data-name="Trazado 192267" d="M2026.538,1131.366v-2.31l13.337-7.218v3.529l-8.909,4.845,8.909,4.845v3.529Z" transform="translate(-2026.538 -1115.614)" fill="#dae4ef"/>
          <path id="Trazado_192268" data-name="Trazado 192268" d="M2109.937,1114.459l-2.187-.962,8.224-24.9,2.188,1.027Z" transform="translate(-2092.541 -1088.601)" fill="#dae4ef"/>
          <path id="Trazado_192269" data-name="Trazado 192269" d="M2188.362,1129.056v2.31l-13.337,7.218v-3.529l8.909-4.845-8.909-4.845v-3.529Z" transform="translate(-2147.217 -1115.614)" fill="#dae4ef"/>
        </g>
        <g id="Grupo_132811" data-name="Grupo 132811" transform="translate(0 225.972)">
          <path id="Trazado_192270" data-name="Trazado 192270" d="M253.932,1819.841s-7.062-28.172-24.667-36.866-36.395,3.209-31.624,15.725c4.114,10.793,21.032-2.478,34.195,2.741s15.238,18.4,15.238,18.4Z" transform="translate(-196.888 -1779.997)" fill="#e8e8e8"/>
          <path id="Trazado_192271" data-name="Trazado 192271" d="M219.079,1817.93s18.895-10.768,32.913-.813,18.455,29.459,18.455,29.459" transform="translate(-214.923 -1806.733)" fill="none" stroke="#636363" stroke-miterlimit="10" stroke-width="1"/>
          <line id="Línea_385" data-name="Línea 385" x2="4.396" y2="1.916" transform="translate(7.203 6.161)" fill="none" stroke="#636363" stroke-miterlimit="10" stroke-width="1"/>
          <line id="Línea_386" data-name="Línea 386" x2="8.756" y2="4.107" transform="translate(13.552 2.054)" fill="none" stroke="#636363" stroke-miterlimit="10" stroke-width="1"/>
          <line id="Línea_387" data-name="Línea 387" x2="4.555" y2="5.381" transform="translate(26.708 2.054)" fill="none" stroke="#636363" stroke-miterlimit="10" stroke-width="1"/>
          <line id="Línea_388" data-name="Línea 388" x2="2.048" y2="4.956" transform="translate(35.342 5.66)" fill="none" stroke="#636363" stroke-miterlimit="10" stroke-width="1"/>
          <line id="Línea_389" data-name="Línea 389" y1="11.165" x2="6.749" transform="translate(9.401 6.889)" fill="none" stroke="#636363" stroke-miterlimit="10" stroke-width="1"/>
          <line id="Línea_390" data-name="Línea 390" y1="9.94" x2="6.189" transform="translate(21.324 6.513)" fill="none" stroke="#636363" stroke-miterlimit="10" stroke-width="1"/>
          <line id="Línea_391" data-name="Línea 391" y1="1.156" x2="9.305" transform="translate(31.837 13.773)" fill="none" stroke="#636363" stroke-miterlimit="10" stroke-width="1"/>
          <line id="Línea_392" data-name="Línea 392" x2="5.334" y2="1.751" transform="translate(42.67 20.568)" fill="none" stroke="#636363" stroke-miterlimit="10" stroke-width="1"/>
        </g>
        <g id="Grupo_132815" data-name="Grupo 132815" transform="translate(238.575 0)">
          <path id="Trazado_192272" data-name="Trazado 192272" d="M1592.918,573.346H1473.4c-1.415,0-2.562,1.726-2.562,3.855v88.336H1595.48V577.2C1595.48,575.072,1594.333,573.346,1592.918,573.346Z" transform="translate(-1470.841 -573.346)" fill="#dae4ef"/>
          <rect id="Rectángulo_293932" data-name="Rectángulo 293932" width="121.307" height="82.107" transform="translate(1.666 8.664)" fill="#fff"/>
          <g id="Grupo_132812" data-name="Grupo 132812" transform="translate(114.334 1.909)">
            <line id="Línea_393" data-name="Línea 393" y1="5.068" x2="5.514" fill="none" stroke="#fff" stroke-linecap="round" stroke-linejoin="round" stroke-width="4.527"/>
            <line id="Línea_394" data-name="Línea 394" x1="5.514" y1="5.068" fill="none" stroke="#fff" stroke-linecap="round" stroke-linejoin="round" stroke-width="4.527"/>
          </g>
          <g id="Grupo_132813" data-name="Grupo 132813" transform="translate(4.059 51.984)">
            <rect id="Rectángulo_293933" data-name="Rectángulo 293933" width="116.52" height="7.784" fill="#dae4ef"/>
            <rect id="Rectángulo_293934" data-name="Rectángulo 293934" width="37.803" height="1.733" transform="translate(4.159 3.012)" fill="#fff"/>
            <rect id="Rectángulo_293935" data-name="Rectángulo 293935" width="25.599" height="1.733" transform="translate(44.266 3.012)" fill="#fff"/>
            <rect id="Rectángulo_293936" data-name="Rectángulo 293936" width="108.165" height="22.241" transform="translate(4.177 10.554)" fill="none" stroke="#e5f0f8" stroke-miterlimit="10" stroke-width="2.608"/>
            <rect id="Rectángulo_293937" data-name="Rectángulo 293937" width="9.385" height="22.241" transform="translate(4.177 10.554)" fill="none" stroke="#e5f0f8" stroke-miterlimit="10" stroke-width="2.608"/>
            <rect id="Rectángulo_293938" data-name="Rectángulo 293938" width="54.251" height="22.241" transform="translate(13.563 10.554)" fill="none" stroke="#e5f0f8" stroke-miterlimit="10" stroke-width="2.608"/>
            <rect id="Rectángulo_293939" data-name="Rectángulo 293939" width="8.561" height="22.241" transform="translate(103.781 10.554)" fill="none" stroke="#e5f0f8" stroke-miterlimit="10" stroke-width="2.608"/>
            <rect id="Rectángulo_293940" data-name="Rectángulo 293940" width="8.561" height="22.241" transform="translate(95.22 10.554)" fill="none" stroke="#e5f0f8" stroke-miterlimit="10" stroke-width="2.608"/>
            <rect id="Rectángulo_293941" data-name="Rectángulo 293941" width="10.697" height="22.241" transform="translate(84.524 10.554)" fill="none" stroke="#e5f0f8" stroke-miterlimit="10" stroke-width="2.608"/>
            <rect id="Rectángulo_293942" data-name="Rectángulo 293942" width="16.71" height="22.241" transform="translate(67.814 10.554)" fill="none" stroke="#e5f0f8" stroke-miterlimit="10" stroke-width="2.608"/>
            <rect id="Rectángulo_293943" data-name="Rectángulo 293943" width="108.165" height="5.202" transform="translate(4.177 17.187)" fill="none" stroke="#e5f0f8" stroke-miterlimit="10" stroke-width="2.608"/>
            <rect id="Rectángulo_293944" data-name="Rectángulo 293944" width="108.165" height="5.202" transform="translate(4.177 22.389)" fill="none" stroke="#e5f0f8" stroke-miterlimit="10" stroke-width="2.608"/>
            <rect id="Rectángulo_293945" data-name="Rectángulo 293945" width="108.165" height="5.202" transform="translate(4.177 27.592)" fill="none" stroke="#e5f0f8" stroke-miterlimit="10" stroke-width="2.608"/>
          </g>
          <g id="Grupo_132814" data-name="Grupo 132814" transform="translate(4.059 12.528)">
            <rect id="Rectángulo_293946" data-name="Rectángulo 293946" width="116.52" height="7.784" fill="#dae4ef"/>
            <rect id="Rectángulo_293947" data-name="Rectángulo 293947" width="37.803" height="1.733" transform="translate(4.159 3.012)" fill="#fff"/>
            <rect id="Rectángulo_293948" data-name="Rectángulo 293948" width="25.599" height="1.733" transform="translate(44.266 3.012)" fill="#fff"/>
            <rect id="Rectángulo_293949" data-name="Rectángulo 293949" width="108.165" height="22.241" transform="translate(4.177 10.554)" fill="none" stroke="#e5f0f8" stroke-miterlimit="10" stroke-width="2.608"/>
            <rect id="Rectángulo_293950" data-name="Rectángulo 293950" width="9.385" height="22.241" transform="translate(4.177 10.554)" fill="none" stroke="#e5f0f8" stroke-miterlimit="10" stroke-width="2.608"/>
            <rect id="Rectángulo_293951" data-name="Rectángulo 293951" width="54.251" height="22.241" transform="translate(13.563 10.554)" fill="none" stroke="#e5f0f8" stroke-miterlimit="10" stroke-width="2.608"/>
            <rect id="Rectángulo_293952" data-name="Rectángulo 293952" width="8.561" height="22.241" transform="translate(103.781 10.554)" fill="none" stroke="#e5f0f8" stroke-miterlimit="10" stroke-width="2.608"/>
            <rect id="Rectángulo_293953" data-name="Rectángulo 293953" width="8.561" height="22.241" transform="translate(95.22 10.554)" fill="none" stroke="#e5f0f8" stroke-miterlimit="10" stroke-width="2.608"/>
            <rect id="Rectángulo_293954" data-name="Rectángulo 293954" width="10.697" height="22.241" transform="translate(84.524 10.554)" fill="none" stroke="#e5f0f8" stroke-miterlimit="10" stroke-width="2.608"/>
            <rect id="Rectángulo_293955" data-name="Rectángulo 293955" width="16.71" height="22.241" transform="translate(67.814 10.554)" fill="none" stroke="#e5f0f8" stroke-miterlimit="10" stroke-width="2.608"/>
            <rect id="Rectángulo_293956" data-name="Rectángulo 293956" width="108.165" height="5.202" transform="translate(4.177 17.187)" fill="none" stroke="#e5f0f8" stroke-miterlimit="10" stroke-width="2.608"/>
            <rect id="Rectángulo_293957" data-name="Rectángulo 293957" width="108.165" height="5.202" transform="translate(4.177 22.389)" fill="none" stroke="#e5f0f8" stroke-miterlimit="10" stroke-width="2.608"/>
            <rect id="Rectángulo_293958" data-name="Rectángulo 293958" width="108.165" height="5.202" transform="translate(4.177 27.592)" fill="none" stroke="#e5f0f8" stroke-miterlimit="10" stroke-width="2.608"/>
          </g>
        </g>
        <path id="Trazado_192273" data-name="Trazado 192273" d="M312.229,1631.49s4.983-94.431-40.12-82.262,35.183,63.062,35.115,82.262Z" transform="translate(-246.845 -1365.593)" fill="#afafaf"/>
        <g id="Grupo_133615" data-name="Grupo 133615" transform="translate(18.712 189.458)">
          <path id="Trazado_192274" data-name="Trazado 192274" d="M389.929,1673.205s-1.575-49.337-33.726-73.732" transform="translate(-345.08 -1596.767)" fill="#afafaf" stroke="#e8e8e8" stroke-miterlimit="10" stroke-width="1"/>
          <line id="Línea_395" data-name="Línea 395" x1="0.803" y1="17.013" transform="translate(24.421)" fill="none" stroke="#e8e8e8" stroke-miterlimit="10" stroke-width="1"/>
          <line id="Línea_396" data-name="Línea 396" x2="21.731" y2="2.833" transform="translate(0 9.963)" fill="none" stroke="#e8e8e8" stroke-miterlimit="10" stroke-width="1"/>
          <line id="Línea_397" data-name="Línea 397" x2="22.977" y2="2.677" transform="translate(8.451 24.483)" fill="none" stroke="#e8e8e8" stroke-miterlimit="10" stroke-width="1"/>
          <line id="Línea_398" data-name="Línea 398" x2="17.747" y2="2.508" transform="translate(19.939 38.872)" fill="none" stroke="#e8e8e8" stroke-miterlimit="10" stroke-width="1"/>
          <line id="Línea_399" data-name="Línea 399" x1="4.068" y2="9.883" transform="translate(35.321 25.428)" fill="none" stroke="#e8e8e8" stroke-miterlimit="10" stroke-width="1"/>
          <line id="Línea_400" data-name="Línea 400" x1="3.468" y2="13.914" transform="translate(29.237 9.388)" fill="none" stroke="#e8e8e8" stroke-miterlimit="10" stroke-width="1"/>
          <line id="Línea_401" data-name="Línea 401" x1="3.241" y2="6.459" transform="translate(39.946 41.926)" fill="none" stroke="#e8e8e8" stroke-miterlimit="10" stroke-width="1"/>
          <line id="Línea_402" data-name="Línea 402" x2="12.717" y2="4.01" transform="translate(29.237 52.212)" fill="none" stroke="#e8e8e8" stroke-miterlimit="10" stroke-width="1"/>
        </g>
        <g id="Grupo_132822" data-name="Grupo 132822" transform="translate(81.346 61.158)">
          <g id="Grupo_132817" data-name="Grupo 132817" transform="translate(0 0)">
            <path id="Trazado_192275" data-name="Trazado 192275" d="M710.435,899.922l10.8,21.585H880.493v163.634H631.262V921.507h27.909V899.922Z" transform="translate(-631.262 -899.922)" fill="#93acbf"/>
          </g>
          <g id="Grupo_132819" data-name="Grupo 132819" transform="translate(4.985 0)">
            <g id="Grupo_132818" data-name="Grupo 132818">
              <path id="Trazado_192276" data-name="Trazado 192276" d="M737.055,899.922l10.8,21.585H907.113v163.634H657.882V921.507h27.909V899.922Z" transform="translate(-657.882 -899.922)" fill="#b9ddfc"/>
            </g>
          </g>
          <g id="Grupo_132821" data-name="Grupo 132821" transform="translate(11.874 35.575)">
            <g id="Grupo_132820" data-name="Grupo 132820" transform="translate(80.841 18.759)">
              <path id="Trazado_192277" data-name="Trazado 192277" d="M1198.3,1230.871h-15.029V1210.1a20.05,20.05,0,0,0-40.1,0v20.767h-15.029a1.8,1.8,0,0,0-1.8,1.8V1287.8a1.8,1.8,0,0,0,1.8,1.8H1198.3a1.8,1.8,0,0,0,1.8-1.8v-55.129A1.8,1.8,0,0,0,1198.3,1230.871Zm-48.774-20.767a13.7,13.7,0,0,1,27.391,0v20.767h-27.391Z" transform="translate(-1126.343 -1190.055)" fill="#fff"/>
              <path id="Trazado_192278" data-name="Trazado 192278" d="M1307.081,1519.823a4.854,4.854,0,1,0-7.124,4.289v10.654a2.27,2.27,0,0,0,4.54,0v-10.654A4.851,4.851,0,0,0,1307.081,1519.823Z" transform="translate(-1265.344 -1454.122)" fill="#b9ddfc"/>
            </g>
            <path id="Trazado_192279" data-name="Trazado 192279" d="M1419.149,1135.251h31.644v-30h52.858" transform="translate(-1283.474 -1102.375)" fill="none" stroke="#fff" stroke-miterlimit="10" stroke-width="3.803"/>
            <path id="Trazado_192280" data-name="Trazado 192280" d="M1419.149,1270.708h57.572v-12.964h28.809" transform="translate(-1283.474 -1226.308)" fill="none" stroke="#fff" stroke-miterlimit="10" stroke-width="3.803"/>
            <line id="Línea_403" data-name="Línea 403" x2="39.181" transform="translate(150.609 62.771)" fill="none" stroke="#fff" stroke-miterlimit="10" stroke-width="3.803"/>
            <path id="Trazado_192281" data-name="Trazado 192281" d="M1506.585,1436.375h24.488v5.824h31.114v-17.126h20.455" transform="translate(-1354.536 -1362.302)" fill="none" stroke="#fff" stroke-miterlimit="10" stroke-width="3.803"/>
            <path id="Trazado_192282" data-name="Trazado 192282" d="M1491.869,1573.887h25.8v13.487h55.314" transform="translate(-1342.575 -1483.247)" fill="none" stroke="#fff" stroke-miterlimit="10" stroke-width="3.803"/>
            <path id="Trazado_192283" data-name="Trazado 192283" d="M1498.893,1688.477h13.252v14.983h47.516v8.965" transform="translate(-1348.285 -1576.377)" fill="none" stroke="#fff" stroke-miterlimit="10" stroke-width="3.803"/>
            <path id="Trazado_192284" data-name="Trazado 192284" d="M860.743,1135.251H829.1v-30H776.241" transform="translate(-760.964 -1102.375)" fill="none" stroke="#fff" stroke-miterlimit="10" stroke-width="3.803"/>
            <path id="Trazado_192285" data-name="Trazado 192285" d="M852.588,1270.708H795.016v-12.964H766.206" transform="translate(-752.809 -1226.308)" fill="none" stroke="#fff" stroke-miterlimit="10" stroke-width="3.803"/>
            <line id="Línea_404" data-name="Línea 404" x1="39.181" transform="translate(45.664 62.771)" fill="none" stroke="#fff" stroke-miterlimit="10" stroke-width="3.803"/>
            <path id="Trazado_192286" data-name="Trazado 192286" d="M809.957,1436.375H785.469v5.824H754.355v-17.126H733.9" transform="translate(-726.553 -1362.302)" fill="none" stroke="#fff" stroke-miterlimit="10" stroke-width="3.803"/>
            <path id="Trazado_192287" data-name="Trazado 192287" d="M802.711,1573.887h-25.8v13.487H721.593" transform="translate(-716.551 -1483.247)" fill="none" stroke="#fff" stroke-miterlimit="10" stroke-width="3.803"/>
            <path id="Trazado_192288" data-name="Trazado 192288" d="M884,1688.477H870.748v14.983H823.232v8.965" transform="translate(-799.155 -1576.377)" fill="none" stroke="#fff" stroke-miterlimit="10" stroke-width="3.803"/>
            <line id="Línea_405" data-name="Línea 405" y2="22.194" transform="translate(144.351 115.25)" fill="none" stroke="#fff" stroke-miterlimit="10" stroke-width="3.803"/>
            <path id="Trazado_192289" data-name="Trazado 192289" d="M1343.218,1692.677v13.461h-8.931v11.1" transform="translate(-1214.504 -1579.791)" fill="none" stroke="#fff" stroke-miterlimit="10" stroke-width="3.803"/>
            <line id="Línea_406" data-name="Línea 406" y2="21.228" transform="translate(104.028 114.119)" fill="none" stroke="#fff" stroke-miterlimit="10" stroke-width="3.803"/>
            <path id="Trazado_192290" data-name="Trazado 192290" d="M1165.065,1705.3V1718h8.787v13.253" transform="translate(-1076.973 -1590.049)" fill="none" stroke="#fff" stroke-miterlimit="10" stroke-width="3.803"/>
            <circle id="Elipse_5120" data-name="Elipse 5120" cx="2.089" cy="2.089" r="2.089" transform="translate(219.832 4.431) rotate(-76.717)" fill="none" stroke="#fff" stroke-miterlimit="10" stroke-width="3.803"/>
            <circle id="Elipse_5121" data-name="Elipse 5121" cx="2.089" cy="2.089" r="2.089" transform="matrix(0.23, -0.973, 0.973, 0.23, 221.44, 32.988)" fill="none" stroke="#fff" stroke-miterlimit="10" stroke-width="3.803"/>
            <circle id="Elipse_5122" data-name="Elipse 5122" cx="2.089" cy="2.089" r="2.089" transform="translate(188.934 64.324) rotate(-76.717)" fill="none" stroke="#fff" stroke-miterlimit="10" stroke-width="3.803"/>
            <circle id="Elipse_5123" data-name="Elipse 5123" cx="2.089" cy="2.089" r="2.089" transform="translate(227.425 64.324) rotate(-76.717)" fill="none" stroke="#fff" stroke-miterlimit="10" stroke-width="3.803"/>
            <circle id="Elipse_5124" data-name="Elipse 5124" cx="2.089" cy="2.089" r="2.089" transform="translate(229.546 104.127) rotate(-45)" fill="none" stroke="#fff" stroke-miterlimit="10" stroke-width="3.803"/>
            <circle id="Elipse_5125" data-name="Elipse 5125" cx="2.089" cy="2.089" r="2.089" transform="translate(208.415 138.145) rotate(-45)" fill="none" stroke="#fff" stroke-miterlimit="10" stroke-width="3.803"/>
            <circle id="Elipse_5126" data-name="Elipse 5126" cx="2.089" cy="2.089" r="2.089" transform="translate(141.838 140.684) rotate(-76.717)" fill="none" stroke="#fff" stroke-miterlimit="10" stroke-width="3.803"/>
            <circle id="Elipse_5127" data-name="Elipse 5127" cx="2.089" cy="2.089" r="2.089" transform="matrix(0.23, -0.973, 0.973, 0.23, 101.516, 138.595)" fill="none" stroke="#fff" stroke-miterlimit="10" stroke-width="3.803"/>
            <circle id="Elipse_5128" data-name="Elipse 5128" cx="2.089" cy="2.089" r="2.089" transform="translate(21.344 137.014) rotate(-22.662)" fill="none" stroke="#fff" stroke-miterlimit="10" stroke-width="3.803"/>
            <circle id="Elipse_5129" data-name="Elipse 5129" cx="2.089" cy="2.089" r="2.089" transform="translate(116.829 139.131) rotate(-45)" fill="none" stroke="#fff" stroke-miterlimit="10" stroke-width="3.803"/>
            <circle id="Elipse_5130" data-name="Elipse 5130" cx="2.089" cy="2.089" r="2.089" transform="translate(93.925 143.308) rotate(-45)" fill="none" stroke="#fff" stroke-miterlimit="10" stroke-width="3.803"/>
            <circle id="Elipse_5131" data-name="Elipse 5131" cx="2.089" cy="2.089" r="2.089" transform="translate(0 104.127) rotate(-45)" fill="none" stroke="#fff" stroke-miterlimit="10" stroke-width="3.803"/>
            <circle id="Elipse_5132" data-name="Elipse 5132" cx="2.089" cy="2.089" r="2.089" transform="translate(3.415 64.497) rotate(-80.75)" fill="none" stroke="#fff" stroke-miterlimit="10" stroke-width="3.803"/>
            <circle id="Elipse_5133" data-name="Elipse 5133" cx="2.089" cy="2.089" r="2.089" transform="translate(8.387 30.998) rotate(-36.488)" fill="none" stroke="#fff" stroke-miterlimit="10" stroke-width="3.803"/>
            <circle id="Elipse_5134" data-name="Elipse 5134" cx="2.089" cy="2.089" r="2.089" transform="translate(10.519 2.214) rotate(-32.006)" fill="none" stroke="#fff" stroke-miterlimit="10" stroke-width="3.803"/>
            <circle id="Elipse_5135" data-name="Elipse 5135" cx="2.089" cy="2.089" r="2.089" transform="matrix(0.231, -0.973, 0.973, 0.231, 41.142, 64.321)" fill="none" stroke="#fff" stroke-miterlimit="10" stroke-width="3.803"/>
          </g>
        </g>
        <path id="Trazado_192291" data-name="Trazado 192291" d="M2002.135,1805s7.667-30.584,26.78-40.024,39.512,3.484,34.332,17.072c-4.467,11.717-22.833-2.69-37.123,2.976S2009.581,1805,2009.581,1805Z" transform="translate(-1664.063 -1539.188)" fill="#afafaf"/>
        <g id="Grupo_133613" data-name="Grupo 133613" transform="translate(339.722 224.783)">
          <path id="Trazado_192292" data-name="Trazado 192292" d="M2066.711,1802.92s-20.513-11.69-35.732-.882-20.035,31.982-20.035,31.982" transform="translate(-2010.944 -1792.995)" fill="none" stroke="#636363" stroke-miterlimit="10" stroke-width="1"/>
          <line id="Línea_407" data-name="Línea 407" x1="4.772" y2="2.081" transform="translate(47.686 4.458)" fill="none" stroke="#636363" stroke-miterlimit="10" stroke-width="1"/>
          <line id="Línea_408" data-name="Línea 408" x1="9.506" y2="4.458" transform="translate(36.06)" fill="none" stroke="#636363" stroke-miterlimit="10" stroke-width="1"/>
          <line id="Línea_409" data-name="Línea 409" x1="4.945" y2="5.842" transform="translate(26.339)" fill="none" stroke="#636363" stroke-miterlimit="10" stroke-width="1"/>
          <line id="Línea_410" data-name="Línea 410" x1="2.223" y2="5.38" transform="translate(19.687 3.914)" fill="none" stroke="#636363" stroke-miterlimit="10" stroke-width="1"/>
          <line id="Línea_411" data-name="Línea 411" x1="7.326" y1="12.121" transform="translate(42.746 5.248)" fill="none" stroke="#636363" stroke-miterlimit="10" stroke-width="1"/>
          <line id="Línea_412" data-name="Línea 412" x1="6.72" y1="10.792" transform="translate(30.41 4.841)" fill="none" stroke="#636363" stroke-miterlimit="10" stroke-width="1"/>
          <line id="Línea_413" data-name="Línea 413" x1="10.102" y1="1.255" transform="translate(15.613 12.723)" fill="none" stroke="#636363" stroke-miterlimit="10" stroke-width="1"/>
          <line id="Línea_414" data-name="Línea 414" x1="5.79" y2="1.901" transform="translate(8.164 20.099)" fill="none" stroke="#636363" stroke-miterlimit="10" stroke-width="1"/>
        </g>
        <path id="Trazado_192293" data-name="Trazado 192293" d="M1953.018,1600.514s-5.41-102.517,43.555-89.307-38.2,68.463-38.122,89.307Z" transform="translate(-1624 -1334.618)" fill="#afafaf"/>
        <g id="Grupo_133614" data-name="Grupo 133614" transform="translate(330.996 182.911)">
          <path id="Trazado_192294" data-name="Trazado 192294" d="M1964.353,1645.8s1.709-53.562,36.614-80.047" transform="translate(-1964.353 -1562.816)" fill="none" stroke="#e8e8e8" stroke-miterlimit="10" stroke-width="1"/>
          <line id="Línea_415" data-name="Línea 415" y1="18.47" x2="0.872" transform="translate(21.305)" fill="none" stroke="#e8e8e8" stroke-miterlimit="10" stroke-width="1"/>
          <line id="Línea_416" data-name="Línea 416" x1="23.592" y2="3.075" transform="translate(25.098 10.817)" fill="none" stroke="#e8e8e8" stroke-miterlimit="10" stroke-width="1"/>
          <line id="Línea_417" data-name="Línea 417" x1="24.945" y2="2.906" transform="translate(14.571 26.581)" fill="none" stroke="#e8e8e8" stroke-miterlimit="10" stroke-width="1"/>
          <line id="Línea_418" data-name="Línea 418" x1="19.267" y2="2.723" transform="translate(7.776 42.202)" fill="none" stroke="#e8e8e8" stroke-miterlimit="10" stroke-width="1"/>
          <line id="Línea_419" data-name="Línea 419" x2="4.416" y2="10.729" transform="translate(5.928 27.606)" fill="none" stroke="#e8e8e8" stroke-miterlimit="10" stroke-width="1"/>
          <line id="Línea_420" data-name="Línea 420" x2="3.765" y2="15.105" transform="translate(13.185 10.192)" fill="none" stroke="#e8e8e8" stroke-miterlimit="10" stroke-width="1"/>
          <line id="Línea_421" data-name="Línea 421" x2="3.518" y2="7.013" transform="translate(1.805 45.518)" fill="none" stroke="#e8e8e8" stroke-miterlimit="10" stroke-width="1"/>
          <line id="Línea_422" data-name="Línea 422" x1="13.806" y2="4.353" transform="translate(3.143 56.684)" fill="none" stroke="#e8e8e8" stroke-miterlimit="10" stroke-width="1"/>
        </g>
        <g id="Grupo_132825" data-name="Grupo 132825" transform="translate(258.511 161.108)">
          <ellipse id="Elipse_5136" data-name="Elipse 5136" cx="37.813" cy="11.05" rx="37.813" ry="11.05" transform="translate(0 82.012)" fill="#93acbf"/>
          <rect id="Rectángulo_293959" data-name="Rectángulo 293959" width="75.627" height="15.633" transform="translate(0 77.428)" fill="#93acbf"/>
          <ellipse id="Elipse_5137" data-name="Elipse 5137" cx="37.813" cy="11.05" rx="37.813" ry="11.05" transform="translate(0 66.378)" fill="#586773"/>
          <path id="Trazado_192295" data-name="Trazado 192295" d="M1607.109,1784.465v12.517a1.535,1.535,0,0,0,.927,1.412c6.8,2.929,18.283,4.852,31.3,4.852s24.5-1.923,31.3-4.852a1.534,1.534,0,0,0,.927-1.412v-12.517a1.535,1.535,0,0,0-1.535-1.535h-61.386A1.535,1.535,0,0,0,1607.109,1784.465Z" transform="translate(-1601.525 -1717.517)" fill="#00defc"/>
          <ellipse id="Elipse_5138" data-name="Elipse 5138" cx="37.813" cy="11.05" rx="37.813" ry="11.05" transform="translate(0 59.484)" fill="#93acbf"/>
          <rect id="Rectángulo_293960" data-name="Rectángulo 293960" width="75.627" height="15.633" transform="translate(0 54.9)" fill="#93acbf"/>
          <ellipse id="Elipse_5139" data-name="Elipse 5139" cx="37.813" cy="11.05" rx="37.813" ry="11.05" transform="translate(0 43.85)" fill="#586773"/>
          <path id="Trazado_192296" data-name="Trazado 192296" d="M1607.109,1665.716v12.1a1.78,1.78,0,0,0,1.079,1.642c6.819,2.892,18.227,4.787,31.152,4.787s24.327-1.9,31.147-4.787a1.78,1.78,0,0,0,1.079-1.642v-12.1a1.786,1.786,0,0,0-1.786-1.786h-60.885A1.786,1.786,0,0,0,1607.109,1665.716Z" transform="translate(-1601.525 -1620.802)" fill="#00defc"/>
          <ellipse id="Elipse_5140" data-name="Elipse 5140" cx="37.813" cy="11.05" rx="37.813" ry="11.05" transform="translate(0 37.475)" fill="#93acbf"/>
          <rect id="Rectángulo_293961" data-name="Rectángulo 293961" width="75.627" height="15.633" transform="translate(0 32.891)" fill="#93acbf"/>
          <path id="Trazado_192297" data-name="Trazado 192297" d="M1577.3,1561.311c0,2.119,2.041,4.1,5.583,5.781,6.653,3.158,18.6,5.266,32.231,5.266s25.573-2.1,32.225-5.266c3.542-1.683,5.589-3.661,5.589-5.781a3.283,3.283,0,0,0-.125-.893c-.483-1.781-2.42-3.443-5.464-4.887-6.653-3.163-18.6-5.271-32.225-5.271s-25.578,2.108-32.231,5.271c-3.038,1.444-4.976,3.106-5.458,4.887A3.282,3.282,0,0,0,1577.3,1561.311Z" transform="translate(-1577.296 -1528.419)" fill="#586773"/>
          <path id="Trazado_192298" data-name="Trazado 192298" d="M1607.109,1545.99v11.561c6.653,3.163,18.6,5.272,32.231,5.272s25.573-2.109,32.225-5.272V1545.99a49.294,49.294,0,0,0-11.6-3.485,119.931,119.931,0,0,0-41.247,0A49.348,49.348,0,0,0,1607.109,1545.99Z" transform="translate(-1601.525 -1520.666)" fill="#586773"/>
          <path id="Trazado_192299" data-name="Trazado 192299" d="M1607.109,1551.852v12.422a1.591,1.591,0,0,0,.961,1.465c6.805,2.92,18.27,4.837,31.27,4.837s24.459-1.917,31.264-4.837a1.591,1.591,0,0,0,.961-1.465v-12.422a1.593,1.593,0,0,0-1.593-1.593H1608.7A1.593,1.593,0,0,0,1607.109,1551.852Z" transform="translate(-1601.525 -1528.419)" fill="#00defc"/>
          <ellipse id="Elipse_5141" data-name="Elipse 5141" cx="37.813" cy="11.05" rx="37.813" ry="11.05" transform="translate(0 15.633)" fill="#93acbf"/>
          <rect id="Rectángulo_293962" data-name="Rectángulo 293962" width="75.627" height="15.633" transform="translate(0 11.05)" fill="#93acbf"/>
          <ellipse id="Elipse_5142" data-name="Elipse 5142" cx="37.813" cy="11.05" rx="37.813" ry="11.05" transform="translate(0)" fill="#dae4ef"/>
          <circle id="Elipse_5143" data-name="Elipse 5143" cx="1.431" cy="1.431" r="1.431" transform="translate(18.743 26.593) rotate(-45)" fill="#b9ddfc"/>
          <circle id="Elipse_5144" data-name="Elipse 5144" cx="1.431" cy="1.431" r="1.431" transform="translate(9.672 23.271)" fill="#b9ddfc"/>
          <circle id="Elipse_5145" data-name="Elipse 5145" cx="1.431" cy="1.431" r="1.431" transform="translate(14.504 24.453)" fill="#00defc"/>
          <circle id="Elipse_5146" data-name="Elipse 5146" cx="1.431" cy="1.431" r="1.431" transform="translate(19.336 45.741)" fill="#b9ddfc"/>
          <circle id="Elipse_5147" data-name="Elipse 5147" cx="1.431" cy="1.431" r="1.431" transform="translate(9.382 44.217) rotate(-13.283)" fill="#586773"/>
          <circle id="Elipse_5148" data-name="Elipse 5148" cx="1.431" cy="1.431" r="1.431" transform="translate(14.065 47.237) rotate(-67.5)" fill="#b9ddfc"/>
          <circle id="Elipse_5149" data-name="Elipse 5149" cx="1.431" cy="1.431" r="1.431" transform="translate(19.045 68.245) rotate(-13.283)" fill="#586773"/>
          <circle id="Elipse_5150" data-name="Elipse 5150" cx="1.431" cy="1.431" r="1.431" transform="translate(9.672 65.987)" fill="#00defc"/>
          <circle id="Elipse_5151" data-name="Elipse 5151" cx="1.431" cy="1.431" r="1.431" transform="translate(14.504 67.168)" fill="#b9ddfc"/>
          <circle id="Elipse_5152" data-name="Elipse 5152" cx="1.431" cy="1.431" r="1.431" transform="translate(19.336 90.014)" fill="#00defc"/>
          <circle id="Elipse_5153" data-name="Elipse 5153" cx="1.431" cy="1.431" r="1.431" transform="translate(9.672 88.123)" fill="#b9ddfc"/>
          <circle id="Elipse_5154" data-name="Elipse 5154" cx="1.431" cy="1.431" r="1.431" transform="translate(14.504 89.305)" fill="#00defc"/>
        </g>
        <g id="Grupo_132826" data-name="Grupo 132826" transform="translate(19.617 0.468)">
          <path id="Trazado_192300" data-name="Trazado 192300" d="M393.336,597.029l-34.63-21.182a26.156,26.156,0,0,1-11.16,2.483h0a26.157,26.157,0,0,1-11.16-2.483l-34.63,21.182s-4.708,70.387,45.79,91.612h0C398.045,667.416,393.336,597.029,393.336,597.029Z" transform="translate(-301.639 -575.847)" fill="#ffb30b"/>
          <path id="Trazado_192301" data-name="Trazado 192301" d="M416.294,636.828l-29.037-17.756a26.974,26.974,0,0,1-9.994,1.9h0a26.877,26.877,0,0,1-9.99-1.9L338.24,636.829a124.078,124.078,0,0,0,3.644,32.375A82.471,82.471,0,0,0,353.708,696.1a56.566,56.566,0,0,0,23.555,19.689h0v0A56.528,56.528,0,0,0,400.823,696.1a82.437,82.437,0,0,0,11.822-26.9A124,124,0,0,0,416.294,636.828Z" transform="translate(-331.359 -610.975)" fill="#d9faff"/>
          <path id="Trazado_192302" data-name="Trazado 192302" d="M492.009,741.836l-18.4,31.686-.161.278-9.112-13.836-6.038,3.98,12.328,18.708,3.024-.086,3.121-.086,21.489-37.014Z" transform="translate(-428.961 -710.751)" fill="#084a93"/>
        </g>
        <path id="Trazado_192421" data-name="Trazado 192421" d="M3.936,0h314.7a3.936,3.936,0,0,1,0,7.873H3.936A3.936,3.936,0,0,1,3.936,0Z" transform="translate(40.487 265.262)" fill="#084a93"/>
        <g id="Grupo_132836" data-name="Grupo 132836" transform="translate(56.066 73.918)">
          <path id="Trazado_192303" data-name="Trazado 192303" d="M633.1,1323.77l-9.715-.165.509-10.2.243-4.878.014-.243,7.6-3.2.248,3.448.183,2.512Z" transform="translate(-599.58 -1241.971)" fill="#fdae97"/>
          <path id="Trazado_192304" data-name="Trazado 192304" d="M555.692,1558.081l-4.085,33.818a7.772,7.772,0,0,0,9.182,8.8c4.223-.821,5.839-4.081,6.6-8.93,1.456-9.307,6.541-37.233,6.541-37.233Z" transform="translate(-541.171 -1444.705)" fill="#00defc"/>
          <path id="Trazado_192305" data-name="Trazado 192305" d="M650.132,1564.374l-15.007,1.007.075,16.626,1.781,2.634,1.651,16.028,15.191-1.215Z" transform="translate(-609.122 -1452.7)" fill="#00defc"/>
          <path id="Trazado_192306" data-name="Trazado 192306" d="M498.445,1406.028l.051.034a4.9,4.9,0,0,0,6.779-1.362l12.138-18.241a4.9,4.9,0,0,0-1.362-6.779l-.051-.034a4.9,4.9,0,0,0-6.779,1.362l-12.138,18.241A4.9,4.9,0,0,0,498.445,1406.028Z" transform="translate(-496.269 -1301.905)" fill="#084a93"/>
          <path id="Trazado_192307" data-name="Trazado 192307" d="M813.284,1384.487l-4,5.353-5.207-3.17,5.888-5.778,4.251.781Z" transform="translate(-746.433 -1303.579)" fill="#e89780"/>
          <path id="Trazado_192308" data-name="Trazado 192308" d="M740.881,1419.711c2.426,1.411,5.444.811,6.683-1.334l6.131-11.2,2.162-3.971,2.263-4.133-3.763-2.6-2.672-1.845-.258-.182-2.746,4.075-2.522,3.732-7.421,10.991C737.5,1415.384,738.455,1418.3,740.881,1419.711Z" transform="translate(-692.889 -1314.591)" fill="#084a93"/>
          <path id="Trazado_192309" data-name="Trazado 192309" d="M625.406,1367.162c3.565.078,5.083-1.693,5.541-2.389l-1.333-.6-8.815-.444-1.059.339A6.308,6.308,0,0,0,625.406,1367.162Z" transform="translate(-596.617 -1289.628)" fill="#fdae97"/>
          <path id="Trazado_192310" data-name="Trazado 192310" d="M599.375,1389.5l.211,14.578H572.146l.325-36.752,9.417-3.4c.106.193.22.4.36.607l.035.044c.51.651,1.486,1.266,4.22,1.328,2.277.053,3.394-.264,4.027-.677l.009-.009a2.406,2.406,0,0,0,.7-.747l8.889,1.961-.6,18.552Z" transform="translate(-557.936 -1289.787)" fill="#084a93"/>
          <path id="Trazado_192311" data-name="Trazado 192311" d="M536.8,1757.388l14.116-.01,4.255-32.849a7.789,7.789,0,1,0-15.493-1.631,7.507,7.507,0,0,0-.032,1.1l-2.457,28.832-.389,4.555Z" transform="translate(-529.212 -1575.867)" fill="#00defc"/>
          <path id="Trazado_192312" data-name="Trazado 192312" d="M704.226,1404.937h0a4.98,4.98,0,0,1-6.679-2.169l-9.966-19.552a4.98,4.98,0,0,1,2.169-6.679h0a4.98,4.98,0,0,1,6.678,2.169l9.966,19.553A4.98,4.98,0,0,1,704.226,1404.937Z" transform="translate(-651.316 -1299.602)" fill="#084a93"/>
          <g id="Grupo_132832" data-name="Grupo 132832" transform="translate(21.032 0)">
            <path id="Trazado_192313" data-name="Trazado 192313" d="M889.857,1040.376a41.712,41.712,0,1,0-58.944-2.317A41.752,41.752,0,0,0,889.857,1040.376Zm-55.984-5.066a37.675,37.675,0,1,1,53.245,2.1A37.674,37.674,0,0,1,833.874,1035.31Z" transform="translate(-780.29 -968.054)" fill="#93acbf"/>
            <path id="Trazado_192314" data-name="Trazado 192314" d="M904.518,1054.825a37.679,37.679,0,1,0-53.245-2.1A37.681,37.681,0,0,0,904.518,1054.825Zm-51.736-3.494a35.624,35.624,0,1,1,50.347,1.986A35.626,35.626,0,0,1,852.782,1051.33Z" transform="translate(-797.69 -985.464)" fill="#586773"/>
            <g id="Grupo_132827" data-name="Grupo 132827" transform="translate(45.628 6.064)">
              <path id="Trazado_192315" data-name="Trazado 192315" d="M861.688,1060.236a35.624,35.624,0,1,1,50.347,1.986A35.626,35.626,0,0,1,861.688,1060.236Z" transform="translate(-852.224 -1000.434)" fill="#dae4ef"/>
            </g>
            <path id="Trazado_192316" data-name="Trazado 192316" d="M803.836,1347.065l-1.582-1.621,16.507-15.249,1.482,1.712Z" transform="translate(-765.983 -1262.376)" fill="#93acbf"/>
            <path id="Trazado_192317" data-name="Trazado 192317" d="M609.31,1440.642c-.008-.006-.009-.012-.017-.018a2.688,2.688,0,0,1,.151-3.8l34.225-31.632,1.178,1.205.723.735.859.885,1,1.027L613.1,1440.775A2.688,2.688,0,0,1,609.31,1440.642Z" transform="translate(-608.577 -1323.325)" fill="#586773"/>
            <path id="Trazado_192318" data-name="Trazado 192318" d="M612.5,1449.065a.138.138,0,0,1,.03-.026l36.229-33.487.859.885,1,1.027L616.283,1449.2A2.688,2.688,0,0,1,612.5,1449.065Z" transform="translate(-611.761 -1331.748)" fill="#93acbf"/>
            <g id="Grupo_132831" data-name="Grupo 132831" transform="translate(45.628 6.064)">
              <g id="Grupo_132830" data-name="Grupo 132830" clip-path="url(#clip-path)">
                <g id="Grupo_132828" data-name="Grupo 132828" transform="translate(10.66 14.301)">
                  <path id="Trazado_192319" data-name="Trazado 192319" d="M909.146,1080.009v-.778l4.491-2.43v1.188l-3,1.631,3,1.631v1.188Z" transform="translate(-909.146 -1076.801)" fill="#00defc"/>
                  <path id="Trazado_192320" data-name="Trazado 192320" d="M1376.373,1414.216v-1.188l3-1.631-3-1.631v-1.188l4.491,2.43v.778Z" transform="translate(-1288.874 -1346.446)" fill="#00defc"/>
                  <rect id="Rectángulo_293964" data-name="Rectángulo 293964" width="17.859" height="1.835" transform="translate(6.156 1.902)" fill="#00defc"/>
                  <rect id="Rectángulo_293965" data-name="Rectángulo 293965" width="17.859" height="1.835" transform="translate(0 8.992)" fill="#00defc"/>
                  <rect id="Rectángulo_293966" data-name="Rectángulo 293966" width="17.859" height="1.835" transform="translate(3.804 13.931)" fill="#00defc"/>
                  <rect id="Rectángulo_293967" data-name="Rectángulo 293967" width="17.859" height="1.835" transform="translate(3.804 27.525)" fill="#00defc"/>
                  <rect id="Rectángulo_293968" data-name="Rectángulo 293968" width="17.859" height="1.835" transform="translate(3.804 31.73)" fill="#00defc"/>
                  <rect id="Rectángulo_293969" data-name="Rectángulo 293969" width="53.858" height="1.835" transform="translate(9.941 18.635)" fill="#00defc"/>
                  <rect id="Rectángulo_293970" data-name="Rectángulo 293970" width="71.95" height="1.835" transform="translate(9.941 36.198)" fill="#00defc"/>
                  <rect id="Rectángulo_293971" data-name="Rectángulo 293971" width="71.95" height="1.835" transform="translate(9.941 50.264)" fill="#00defc"/>
                  <rect id="Rectángulo_293972" data-name="Rectángulo 293972" width="68.931" height="1.835" transform="translate(16.708 64.034)" fill="#00defc"/>
                  <rect id="Rectángulo_293973" data-name="Rectángulo 293973" width="15.411" height="1.835" transform="translate(9.941 55.044)" fill="#00defc"/>
                  <rect id="Rectángulo_293974" data-name="Rectángulo 293974" width="15.411" height="1.835" transform="translate(9.941 59.59)" fill="#00defc"/>
                  <rect id="Rectángulo_293975" data-name="Rectángulo 293975" width="71.95" height="1.835" transform="translate(9.941 40.688)" fill="#00defc"/>
                  <rect id="Rectángulo_293976" data-name="Rectángulo 293976" width="38.928" height="1.835" transform="translate(9.941 45.179)" fill="#00defc"/>
                  <rect id="Rectángulo_293977" data-name="Rectángulo 293977" width="16.515" height="1.835" transform="translate(9.941 22.864)" fill="#00defc"/>
                </g>
                <g id="Grupo_132829" data-name="Grupo 132829" transform="translate(10.66 -54.078)">
                  <path id="Trazado_192321" data-name="Trazado 192321" d="M909.146,714.872v-.778l4.491-2.43v1.188l-3,1.631,3,1.631V717.3Z" transform="translate(-909.146 -711.664)" fill="#00defc"/>
                  <path id="Trazado_192322" data-name="Trazado 192322" d="M1376.373,1049.08v-1.188l3-1.631-3-1.631v-1.188l4.491,2.43v.778Z" transform="translate(-1288.874 -981.309)" fill="#00defc"/>
                  <rect id="Rectángulo_293978" data-name="Rectángulo 293978" width="17.859" height="1.835" transform="translate(6.156 1.902)" fill="#00defc"/>
                  <rect id="Rectángulo_293979" data-name="Rectángulo 293979" width="17.859" height="1.835" transform="translate(0 8.992)" fill="#00defc"/>
                  <rect id="Rectángulo_293980" data-name="Rectángulo 293980" width="17.859" height="1.835" transform="translate(3.804 13.931)" fill="#00defc"/>
                  <rect id="Rectángulo_293981" data-name="Rectángulo 293981" width="17.859" height="1.835" transform="translate(3.804 27.525)" fill="#00defc"/>
                  <rect id="Rectángulo_293982" data-name="Rectángulo 293982" width="17.859" height="1.835" transform="translate(3.804 31.73)" fill="#00defc"/>
                  <rect id="Rectángulo_293983" data-name="Rectángulo 293983" width="53.858" height="1.835" transform="translate(9.941 18.635)" fill="#00defc"/>
                  <rect id="Rectángulo_293984" data-name="Rectángulo 293984" width="71.95" height="1.835" transform="translate(9.941 36.198)" fill="#00defc"/>
                  <rect id="Rectángulo_293985" data-name="Rectángulo 293985" width="71.95" height="1.835" transform="translate(9.941 50.265)" fill="#00defc"/>
                  <rect id="Rectángulo_293986" data-name="Rectángulo 293986" width="68.931" height="1.835" transform="translate(16.708 64.034)" fill="#00defc"/>
                  <rect id="Rectángulo_293987" data-name="Rectángulo 293987" width="15.411" height="1.835" transform="translate(9.941 55.044)" fill="#00defc"/>
                  <rect id="Rectángulo_293988" data-name="Rectángulo 293988" width="15.411" height="1.835" transform="translate(9.941 59.59)" fill="#00defc"/>
                  <rect id="Rectángulo_293989" data-name="Rectángulo 293989" width="71.95" height="1.835" transform="translate(9.941 40.688)" fill="#00defc"/>
                  <rect id="Rectángulo_293990" data-name="Rectángulo 293990" width="38.928" height="1.835" transform="translate(9.941 45.179)" fill="#00defc"/>
                  <rect id="Rectángulo_293991" data-name="Rectángulo 293991" width="16.515" height="1.835" transform="translate(9.941 22.864)" fill="#00defc"/>
                </g>
              </g>
            </g>
          </g>
          <path id="Trazado_192324" data-name="Trazado 192324" d="M665.146,1273.578s.077-3.361-.844-3.361S663.654,1273.57,665.146,1273.578Z" transform="translate(-632.402 -1213.63)" fill="#332b27"/>
          <path id="Trazado_192325" data-name="Trazado 192325" d="M634.525,1368.047l-4.027,6.365-4.221-7.016c.51.651,1.486,1.266,4.221,1.328C632.775,1368.776,633.892,1368.46,634.525,1368.047Z" transform="translate(-601.931 -1292.611)" fill="#d6eaff"/>
          <path id="Trazado_192326" data-name="Trazado 192326" d="M643.158,1509.992c-.058.428-2.617.977-4.515.775-1.609-.169-5.278-.96-6.358-1.2l.4-5.133a13.28,13.28,0,0,0,1.97-.217c1.495-.3,5.651-.651,5.7-.047s-2.754,1.413-2.527,1.649,2.421.116,3.349-.009,2.885-.711,3.267-.318-.035,1.089-.035,1.089.721-.312.833.174-.888,1.25-.888,1.25.377-.218.368.347-1.889,1.2-1.889,1.2A.348.348,0,0,1,643.158,1509.992Z" transform="translate(-606.813 -1403.501)" fill="#fdae97"/>
          <path id="Trazado_192327" data-name="Trazado 192327" d="M653.433,1718.261l3.625,34.142h13.868l-2.224-34.329a9.349,9.349,0,0,0-.115-1.14,7.489,7.489,0,0,0-8.075-7.116A7.8,7.8,0,0,0,653.433,1718.261Z" transform="translate(-623.976 -1570.882)" fill="#00defc"/>
          <path id="Trazado_192328" data-name="Trazado 192328" d="M524.366,1479.546l-4.909-.989-4.445-.889-11.858-2.385c-2.454-.327-4.77,1.676-5.147,4.459s1.334,5.33,3.79,5.662l12.378.914,4.5.337,4.648.344Z" transform="translate(-497.64 -1380.265)" fill="#084a93"/>
          <path id="Trazado_192329" data-name="Trazado 192329" d="M648.1,1339.485l-5.461-3.982,5.193.264Z" transform="translate(-615.225 -1266.691)" fill="#ea9d85"/>
          <path id="Trazado_192330" data-name="Trazado 192330" d="M624.343,1263.928l1.479,5.381.507,1.845c.4,1.458.586,3.734-.917,4.686a5.858,5.858,0,0,1-5.981-.388c-2.042-1.279-7.646-8.027-3.58-12.206S624.022,1263.206,624.343,1263.928Z" transform="translate(-592.282 -1206.468)" fill="#fdae97"/>
          <path id="Trazado_192331" data-name="Trazado 192331" d="M610.774,1255.855s1.526-3.009,2.851-2.785-.078,1.392-.078,1.392,4.392-1.156,5.868,1.7-5.461,2-5.461,2,1.373,1.71,0,1.877a2.548,2.548,0,0,1-2-.417s1.37,2.538.606,3.347.18,3.1,1.033,3.751a2.79,2.79,0,0,0,3.093-.213,2.868,2.868,0,0,1,1.59-.816c.438-.048,1.473.214,1.92.142a1.723,1.723,0,0,0,.622-.329,7.731,7.731,0,0,1,.246,1.1c.034.651.356,3.563-2.945,3.7a6.676,6.676,0,0,1-6.7-3.857l-.421,1.877a6.572,6.572,0,0,0-1.553-3.146c-1.154-1.033-2.6-5.817-.515-7.659,0,0-1.794,1.027-1.564-.257C607.54,1256.278,610.774,1255.855,610.774,1255.855Z" transform="translate(-586.544 -1199.685)" fill="#332b27"/>
          <g id="Grupo_132833" data-name="Grupo 132833" transform="translate(21.937 64.61)">
            <path id="Trazado_192332" data-name="Trazado 192332" d="M616.313,1314.637c.394,1.024.418,1.693-.386,2a1.881,1.881,0,0,1-2.351-1.1,1.812,1.812,0,0,1,.743-2.414C615.123,1312.817,615.919,1313.613,616.313,1314.637Z" transform="translate(-613.41 -1313.059)" fill="#fdae97"/>
          </g>
          <path id="Trazado_192333" data-name="Trazado 192333" d="M650.045,1299.975c.093.338.346.564.565.5s.321-.383.228-.722-.346-.564-.565-.5S649.952,1299.636,650.045,1299.975Z" transform="translate(-621.219 -1237.221)" fill="#332b27"/>
          <path id="Trazado_192334" data-name="Trazado 192334" d="M668.455,1294.915c.093.338-.009.661-.228.721s-.472-.165-.565-.5.009-.661.228-.721S668.362,1294.577,668.455,1294.915Z" transform="translate(-635.537 -1233.286)" fill="#332b27"/>
          <path id="Trazado_192335" data-name="Trazado 192335" d="M646.228,1311.176c-.018.34-.581.584-1.256.547s-1.207-.342-1.188-.681.581-.584,1.256-.548S646.247,1310.836,646.228,1311.176Z" transform="translate(-616.159 -1246.362)" fill="#e89780"/>
          <path id="Trazado_192336" data-name="Trazado 192336" d="M671.91,1303.617l.33,1.2c-.49.2-.943.172-1.085-.072C670.994,1304.453,671.33,1303.95,671.91,1303.617Z" transform="translate(-638.371 -1240.775)" fill="#e89780"/>
          <path id="Trazado_192337" data-name="Trazado 192337" d="M619.108,1319.964a2.817,2.817,0,0,1,1.023.208c-.309-1.038-1.062-1.078-1.062-1.078" transform="translate(-596.072 -1253.354)" fill="none" stroke="#ea9d85" stroke-linecap="round" stroke-linejoin="round" stroke-width="1.353"/>
          <path id="Trazado_192338" data-name="Trazado 192338" d="M659.524,1301.928l1.34,1.955a.522.522,0,0,1-.04.643l-.247.278-.253.285" transform="translate(-628.951 -1239.402)" fill="none" stroke="#332b27" stroke-miterlimit="10" stroke-width="0.866"/>
          <path id="Trazado_192339" data-name="Trazado 192339" d="M646.527,1296.223a1.874,1.874,0,0,1,1.437-.917" transform="translate(-618.388 -1234.022)" fill="none" stroke="#332b27" stroke-miterlimit="10" stroke-width="0.866"/>
          <path id="Trazado_192340" data-name="Trazado 192340" d="M666.29,1290.442a1.307,1.307,0,0,0-1.423.2" transform="translate(-633.293 -1229.964)" fill="none" stroke="#332b27" stroke-miterlimit="10" stroke-width="0.866"/>
          <path id="Trazado_192341" data-name="Trazado 192341" d="M653.225,1364.433l-4.407,1.885,2.316,2.813,2.636-4.157Z" transform="translate(-620.25 -1290.203)" fill="#fff"/>
          <path id="Trazado_192342" data-name="Trazado 192342" d="M623.776,1362.206l4.372,2.3-2.085,2.694-2.677-4.619Z" transform="translate(-599.58 -1288.392)" fill="#fff"/>
          <path id="Trazado_192343" data-name="Trazado 192343" d="M681.992,1942.678l-.372-5.336h10.39l.406,5.336Z" transform="translate(-646.909 -1755.822)" fill="#fdae97"/>
          <path id="Trazado_192344" data-name="Trazado 192344" d="M692.194,1939.759l-10.574-2.417h10.39Z" transform="translate(-646.909 -1755.822)" fill="#ea9d85"/>
          <path id="Trazado_192345" data-name="Trazado 192345" d="M556.014,1942.641l.4-5.344-10.642.008-.18,5.336Z" transform="translate(-536.353 -1755.785)" fill="#fdae97"/>
          <path id="Trazado_192346" data-name="Trazado 192346" d="M838.224,1373.727l-1.625-.222a1.051,1.051,0,0,0-1.07.546l-1.578,2.967a1.046,1.046,0,0,0,.729,1.518l1.748.336a1.052,1.052,0,0,0,1.149-.581l1.455-3.082A1.047,1.047,0,0,0,838.224,1373.727Z" transform="translate(-770.612 -1297.568)" fill="#fdae97"/>
          <path id="Trazado_192347" data-name="Trazado 192347" d="M556.973,1940.277l-10.42-2.972,10.642-.008Z" transform="translate(-537.136 -1755.785)" fill="#ea9d85"/>
          <path id="Trazado_192348" data-name="Trazado 192348" d="M620.63,1369.979l5.279,8.491,5.208-7.943" transform="translate(-597.341 -1294.709)" fill="none" stroke="#fff" stroke-linecap="round" stroke-linejoin="round" stroke-width="0.704"/>
          <line id="Línea_423" data-name="Línea 423" x1="2.012" y1="0.367" transform="translate(11.168 96.155)" fill="none" stroke="#322a28" stroke-linecap="round" stroke-linejoin="round" stroke-width="0.704"/>
          <line id="Línea_424" data-name="Línea 424" y1="1.847" x2="1.229" transform="translate(14.383 92.867)" fill="none" stroke="#322a28" stroke-linecap="round" stroke-linejoin="round" stroke-width="0.704"/>
          <path id="Trazado_192349" data-name="Trazado 192349" d="M699.093,1969.146H683.751l-.026-.624-.188-4.135h10.44a5.481,5.481,0,0,1,3.4,1.55,5.226,5.226,0,0,1,1.583,2.585A3.745,3.745,0,0,1,699.093,1969.146Z" transform="translate(-648.466 -1777.802)" fill="#322a28"/>
          <path id="Trazado_192350" data-name="Trazado 192350" d="M699.911,1987.092H684.568l-.027-.624h15.237A3.806,3.806,0,0,1,699.911,1987.092Z" transform="translate(-649.284 -1795.747)" fill="#fff1f0"/>
          <g id="Grupo_132834" data-name="Grupo 132834" transform="translate(43.444 185.813)">
            <path id="Trazado_192351" data-name="Trazado 192351" d="M730.632,1961.888s-1.326-2.328-2.219-1.407,2.219,1.407,2.219,1.407" transform="translate(-728.252 -1960.265)" fill="none" stroke="#fff1f0" stroke-linecap="round" stroke-linejoin="round" stroke-width="1.072"/>
            <path id="Trazado_192352" data-name="Trazado 192352" d="M738.469,1962.351l.467-.463s1.326-2.328,2.219-1.407-2.219,1.407-2.219,1.407" transform="translate(-736.556 -1960.265)" fill="none" stroke="#fff1f0" stroke-linecap="round" stroke-linejoin="round" stroke-width="1.072"/>
            <line id="Línea_425" data-name="Línea 425" x1="0.356" y1="0.463" transform="translate(2.38 1.623)" fill="none" stroke="#fff1f0" stroke-linecap="round" stroke-linejoin="round" stroke-width="1.072"/>
          </g>
          <path id="Trazado_192353" data-name="Trazado 192353" d="M518.674,1969.146h15.342l.026-.624.188-4.135h-10.44a5.48,5.48,0,0,0-3.4,1.55,5.228,5.228,0,0,0-1.583,2.585A3.763,3.763,0,0,0,518.674,1969.146Z" transform="translate(-514.478 -1777.802)" fill="#322a28"/>
          <path id="Trazado_192354" data-name="Trazado 192354" d="M518.674,1987.092h15.342l.026-.624H518.806A3.774,3.774,0,0,0,518.674,1987.092Z" transform="translate(-514.478 -1795.747)" fill="#fff1f0"/>
          <g id="Grupo_132835" data-name="Grupo 132835" transform="translate(6.618 185.954)">
            <path id="Trazado_192355" data-name="Trazado 192355" d="M544.321,1962.64s1.326-2.327,2.219-1.407-2.219,1.407-2.219,1.407" transform="translate(-541.941 -1961.017)" fill="none" stroke="#fff1f0" stroke-linecap="round" stroke-linejoin="round" stroke-width="1.072"/>
            <path id="Trazado_192356" data-name="Trazado 192356" d="M534.457,1963.1l-.467-.463s-1.326-2.327-2.219-1.407,2.219,1.407,2.219,1.407" transform="translate(-531.61 -1961.017)" fill="none" stroke="#fff1f0" stroke-linecap="round" stroke-linejoin="round" stroke-width="1.072"/>
            <line id="Línea_426" data-name="Línea 426" y1="0.463" x2="0.356" transform="translate(2.024 1.623)" fill="none" stroke="#fff1f0" stroke-linecap="round" stroke-linejoin="round" stroke-width="1.072"/>
          </g>
          <path id="Trazado_192357" data-name="Trazado 192357" d="M647.07,1631.058l.5-4.088,2.509-1.731,2.039-8.3" transform="translate(-618.829 -1495.418)" fill="none" stroke="#fff" stroke-miterlimit="10" stroke-width="1.552"/>
          <line id="Línea_427" data-name="Línea 427" x1="9.868" transform="translate(35.639 177.337)" fill="none" stroke="#fff" stroke-miterlimit="10" stroke-width="1.552"/>
          <line id="Línea_428" data-name="Línea 428" x1="9.868" transform="translate(9.236 177.337)" fill="none" stroke="#fff" stroke-miterlimit="10" stroke-width="1.552"/>
          <line id="Línea_429" data-name="Línea 429" x2="12.516" y2="2.532" transform="translate(14.21 96.748)" fill="none" stroke="#322a28" stroke-linecap="round" stroke-linejoin="round" stroke-width="0.704"/>
          <line id="Línea_430" data-name="Línea 430" x2="6.823" y2="0.506" transform="translate(14.21 105.884)" fill="none" stroke="#322a28" stroke-linecap="round" stroke-linejoin="round" stroke-width="0.704"/>
          <path id="Trazado_192358" data-name="Trazado 192358" d="M661.865,1324.7c.04.3.488.5,1,.428s.895-.369.855-.672-.488-.5-1-.428S661.825,1324.392,661.865,1324.7Z" transform="translate(-630.851 -1257.35)" fill="#fdae97"/>
        </g>
        <g id="Grupo_132840" data-name="Grupo 132840" transform="translate(229.212 17.273)">
          <path id="Trazado_192359" data-name="Trazado 192359" d="M1686.6,962.461l.046-6.961-8.168,1.205Z" transform="translate(-1630.231 -901.206)" fill="#2d628c"/>
          <path id="Trazado_192360" data-name="Trazado 192360" d="M1433.015,781.971l-.737-2.16s-1.328-2.065-1.724-2.865a10.356,10.356,0,0,0-1.137-1.744c-.148-.113-.581-.07-.619.109a11.919,11.919,0,0,0,.45,2.024l.508,1.926s-2.79-2.535-3.676-3.437c-.5-.508-1.891-2.052-2.268-1.729-.286.247.963,1.986,1.385,2.585.388.551,1.536,2.214,1.536,2.214l-2.6-2.7c-.472-.491-1.695-2.131-2.126-1.781s.9,1.876,1.279,2.435l2.169,3.158-2.779-2.762c-.384-.382-1.382-1.669-1.762-1.314s.786,1.528,1.124,1.965l2.32,2.99-2.063-1.942c-.22-.207-.9-.806-1.093-.583-.268.3.585,1.177.838,1.5l2.095,2.681a3.483,3.483,0,0,0,.577.583l3.548,3.562Z" transform="translate(-1420.839 -753.738)" fill="#fdae97"/>
          <path id="Trazado_192361" data-name="Trazado 192361" d="M1492.286,949.387l-27.644,17.506a7.741,7.741,0,1,0,8.2,12.869l31.867-16.7Z" transform="translate(-1452.575 -896.238)" fill="#084a93"/>
          <path id="Trazado_192362" data-name="Trazado 192362" d="M1459.7,1048.4a7.74,7.74,0,1,1,15.4-1.09l-.458,34.581h-12.887Z" transform="translate(-1452.352 -969.527)" fill="#084a93"/>
          <path id="Trazado_192363" data-name="Trazado 192363" d="M1569.6,959.908l-17.314,20.71a8.689,8.689,0,0,1-12.2,1.09h0a8.689,8.689,0,0,1-1.09-12.2l17.314-20.71a8.69,8.69,0,0,1,12.2-1.09h0A8.689,8.689,0,0,1,1569.6,959.908Z" transform="translate(-1515.232 -893.239)" fill="#084a93"/>
          <path id="Trazado_192364" data-name="Trazado 192364" d="M1599.941,769.287l-8.19,3.688,1.129,33.268,23.281.361,3.528-34.222-11.37-3.7Z" transform="translate(-1559.745 -749.372)" fill="#dae4ef"/>
          <path id="Trazado_192365" data-name="Trazado 192365" d="M1635.5,716.869v5.2s.311,1.122,2.952,1.133a12.067,12.067,0,0,0,5.424-1.743l-.817-11.36Z" transform="translate(-1595.297 -701.758)" fill="#fdae97"/>
          <path id="Trazado_192366" data-name="Trazado 192366" d="M1635.484,745.59l5.4-5.6-5.4-.071Z" transform="translate(-1595.287 -725.997)" fill="#e89780"/>
          <path id="Trazado_192367" data-name="Trazado 192367" d="M1623.688,674.281v7.314c0,1.476.414,3.665,2.075,4.172a5.715,5.715,0,0,0,5.528-1.911c1.59-1.732,5.119-9.53.212-12.411S1623.8,673.518,1623.688,674.281Z" transform="translate(-1585.7 -669.621)" fill="#fdae97"/>
          <path id="Trazado_192368" data-name="Trazado 192368" d="M1475.623,832.274a4.627,4.627,0,0,1-5.887-.046h0l-14.563-16.853,2-2.107,3.68-3.888.424-.453,15,16.886A4.6,4.6,0,0,1,1475.623,832.274Z" transform="translate(-1448.743 -782.082)" fill="#ffb30b"/>
          <path id="Trazado_192369" data-name="Trazado 192369" d="M1536.756,1064.8a7.744,7.744,0,0,1,7.744-7.744c4.277,0,6.624,1.784,7.557,6.049,2.166,9.9,6.709,36.276,6.709,36.276h-13.419l-8.507-33.491A7.8,7.8,0,0,1,1536.756,1064.8Z" transform="translate(-1515.048 -983.747)" fill="#084a93"/>
          <path id="Trazado_192370" data-name="Trazado 192370" d="M1523.857,817.388h0a5.371,5.371,0,0,0,7.3-2.015l9.66-17.029a5.371,5.371,0,0,0-2.015-7.3h0a5.37,5.37,0,0,0-7.3,2.016l-9.66,17.029A5.37,5.37,0,0,0,1523.857,817.388Z" transform="translate(-1502.363 -766.985)" fill="#ffb30b"/>
          <path id="Trazado_192371" data-name="Trazado 192371" d="M1623.122,667.134s-5.937-2.739-7.307-.94.912,2.427.912,2.427-2.832-.334-2.722,1.575,7.2-.7,7.2-.7-2.35,1.065-.991,1.909a2.866,2.866,0,0,0,2.912-.257s1.347.77,1.126,4.308,1.892,4.319,1.892,4.319-.253-5.36.782-6.792S1626.437,666.238,1623.122,667.134Z" transform="translate(-1577.828 -665.581)" fill="#322a28"/>
          <g id="Grupo_132837" data-name="Grupo 132837" transform="translate(45.593 9.488)">
            <path id="Trazado_192372" data-name="Trazado 192372" d="M1664.792,717.455c-.576.9-.73,1.537-.022,1.99a1.836,1.836,0,0,0,2.463-.593,1.769,1.769,0,0,0-.24-2.453C1666.285,715.946,1665.368,716.552,1664.792,717.455Z" transform="translate(-1664.297 -716.245)" fill="#fdae97"/>
            <path id="Trazado_192373" data-name="Trazado 192373" d="M1671.494,722.317a1.278,1.278,0,0,0-1.226.824,2.752,2.752,0,0,1,1.019,0" transform="translate(-1669.15 -721.177)" fill="none" stroke="#e89780" stroke-miterlimit="10" stroke-width="0.697"/>
          </g>
          <path id="Trazado_192374" data-name="Trazado 192374" d="M1643.767,709.9c0,.342-.179.62-.4.62s-.4-.277-.4-.62.179-.62.4-.62S1643.767,709.562,1643.767,709.9Z" transform="translate(-1601.367 -701.101)" fill="#2c3447"/>
          <path id="Trazado_192375" data-name="Trazado 192375" d="M1636.75,733.356a1.924,1.924,0,0,1-2.1.888" transform="translate(-1594.607 -720.664)" fill="none" stroke="#2c3447" stroke-miterlimit="10" stroke-width="0.872"/>
          <path id="Trazado_192376" data-name="Trazado 192376" d="M1634.753,713.86l-.756,2.186a.511.511,0,0,0,.2.594l.615.4" transform="translate(-1594.056 -704.819)" fill="none" stroke="#2c3447" stroke-miterlimit="10" stroke-width="0.872"/>
          <path id="Trazado_192377" data-name="Trazado 192377" d="M1643.461,705.623a1.828,1.828,0,0,0-1.649-.216" transform="translate(-1600.43 -697.847)" fill="none" stroke="#2c3447" stroke-miterlimit="10" stroke-width="0.872"/>
          <path id="Trazado_192378" data-name="Trazado 192378" d="M1625.136,709.9c0,.342.18.62.4.62s.4-.277.4-.62-.18-.62-.4-.62S1625.136,709.562,1625.136,709.9Z" transform="translate(-1586.877 -701.101)" fill="#2c3447"/>
          <path id="Trazado_192379" data-name="Trazado 192379" d="M1623.149,705.566a1.276,1.276,0,0,1,1.39-.182" transform="translate(-1585.262 -697.825)" fill="none" stroke="#2c3447" stroke-miterlimit="10" stroke-width="0.872"/>
          <path id="Trazado_192380" data-name="Trazado 192380" d="M1717.5,817.177h0a5.37,5.37,0,0,0,3.839-6.527l-4.914-18.951a5.371,5.371,0,0,0-6.527-3.839h0a5.371,5.371,0,0,0-3.839,6.527l4.914,18.952A5.371,5.371,0,0,0,1717.5,817.177Z" transform="translate(-1652.506 -764.821)" fill="#ffb30b"/>
          <path id="Trazado_192381" data-name="Trazado 192381" d="M1643.774,720.05c.105.314.7.4,1.323.19s1.047-.634.942-.949-.7-.4-1.323-.19S1643.669,719.736,1643.774,720.05Z" transform="translate(-1602.011 -708.985)" fill="#e89780"/>
          <path id="Trazado_192382" data-name="Trazado 192382" d="M1623.688,719.545v1.214c.512.06.932-.082,1-.348C1624.766,720.095,1624.32,719.708,1623.688,719.545Z" transform="translate(-1585.7 -709.439)" fill="#e89780"/>
          <path id="Trazado_192383" data-name="Trazado 192383" d="M1486.634,1270.759l.267-5.185h-10.466l-.166,5.185Z" transform="translate(-1465.889 -1153.212)" fill="#fdae97"/>
          <path id="Trazado_192384" data-name="Trazado 192384" d="M1476.64,1268.588l10.562-3.015h-10.465Z" transform="translate(-1466.19 -1153.212)" fill="#e89780"/>
          <path id="Trazado_192385" data-name="Trazado 192385" d="M1606.594,1288.256l-.856-5.185h-10.215l1.3,5.185Z" transform="translate(-1562.81 -1167.432)" fill="#fdae97"/>
          <path id="Trazado_192386" data-name="Trazado 192386" d="M1642.766,784.992h1.9l.166.36-.873.65h-.746l-.622-.761Z" transform="translate(-1601.059 -762.629)" fill="#636363"/>
          <path id="Trazado_192387" data-name="Trazado 192387" d="M1596.148,1285.561l9.59-2.491h-10.215Z" transform="translate(-1562.81 -1167.432)" fill="#e89780"/>
          <path id="Trazado_192388" data-name="Trazado 192388" d="M1654.195,768.361l-5.958,2.191,1.086,2.487,5.134-4.132Z" transform="translate(-1605.652 -749.113)" fill="#fff"/>
          <path id="Trazado_192389" data-name="Trazado 192389" d="M1634.255,771.583l-.286.583,1.544,3.256,1.128-2.251Z" transform="translate(-1594.056 -751.732)" fill="#fff"/>
          <path id="Trazado_192390" data-name="Trazado 192390" d="M1633.661,790.385l-2.822,21.907,2.2,2.836,2.86-2.573-1.492-22.171Z" transform="translate(-1591.512 -767.013)" fill="#636363"/>
          <line id="Línea_431" data-name="Línea 431" x2="3.134" y2="12.949" transform="translate(54.645 34.172)" fill="none" stroke="#2c3447" stroke-miterlimit="10" stroke-width="0.872"/>
          <line id="Línea_432" data-name="Línea 432" x1="0.267" y1="7.861" transform="translate(32.352 34.172)" fill="none" stroke="#2c3447" stroke-miterlimit="10" stroke-width="0.872"/>
          <path id="Trazado_192391" data-name="Trazado 192391" d="M1598.787,1310.76l.918,3.78H1586a3.089,3.089,0,0,1,3.011-3.78h9.779Z" transform="translate(-1555.003 -1189.936)" fill="#403534"/>
          <path id="Trazado_192392" data-name="Trazado 192392" d="M1469.3,1293.263v4.115h-14.359l.018-.339a3.982,3.982,0,0,1,3.977-3.776H1469.3Z" transform="translate(-1448.555 -1175.716)" fill="#403534"/>
          <path id="Trazado_192393" data-name="Trazado 192393" d="M1469.631,1293.032s-.312-1.367-1.084-1,1.035,1.045,1.035,1.045l-1.074.742" transform="translate(-1459.457 -1174.666)" fill="none" stroke="#fff" stroke-linecap="round" stroke-linejoin="round" stroke-width="0.464"/>
          <path id="Trazado_192394" data-name="Trazado 192394" d="M1475.169,1293.032s.313-1.367,1.084-1-1.035,1.045-1.035,1.045l1.074.742" transform="translate(-1464.994 -1174.666)" fill="none" stroke="#fff" stroke-linecap="round" stroke-linejoin="round" stroke-width="0.464"/>
          <path id="Trazado_192395" data-name="Trazado 192395" d="M1597.45,1311.356s-.313-1.368-1.084-1,1.035,1.045,1.035,1.045l-1.074.743" transform="translate(-1563.339 -1189.559)" fill="none" stroke="#fff" stroke-linecap="round" stroke-linejoin="round" stroke-width="0.464"/>
          <path id="Trazado_192396" data-name="Trazado 192396" d="M1602.987,1311.356s.313-1.368,1.084-1-1.036,1.045-1.036,1.045l1.075.743" transform="translate(-1568.876 -1189.559)" fill="none" stroke="#fff" stroke-linecap="round" stroke-linejoin="round" stroke-width="0.464"/>
          <path id="Trazado_192397" data-name="Trazado 192397" d="M1569.788,774.052s-.56,5.859-1.468,14.706-.848,22.656-3.7,25.306a48.567,48.567,0,0,0-8.9,1.976,42.99,42.99,0,0,1,3.708-8.774c2.041-3.172,3.041-29.924,3.041-29.924Z" transform="translate(-1530.453 -753.739)" fill="#ffb30b"/>
          <path id="Trazado_192398" data-name="Trazado 192398" d="M1625.292,800.482l-.692,6.9,2.2-1.875-.159-4.889Z" transform="translate(-1586.441 -775.219)" fill="#dae4ef"/>
          <path id="Trazado_192399" data-name="Trazado 192399" d="M1661.7,772.2s-2.2,9.488-3.277,18.286-.712,17.307-3.484,22.473c0,0,11.119,2,11.094,6.485a13.532,13.532,0,0,0,3.162-8.192c.027-4.735,1.85-36.01,1.85-36.01Z" transform="translate(-1611.096 -752.236)" fill="#ffb30b"/>
          <g id="Grupo_132839" data-name="Grupo 132839" transform="translate(7.507 50.6)">
            <path id="Trazado_192400" data-name="Trazado 192400" d="M1467.5,956.877h25.2l-6.576-18.87h-25.2Z" transform="translate(-1460.924 -937.589)" fill="#a5bbd6"/>
            <g id="Grupo_132838" data-name="Grupo 132838">
              <path id="Trazado_192401" data-name="Trazado 192401" d="M1519.772,1002.245l8.24-7.288h-24.372l-9.066,7.288Z" transform="translate(-1488.272 -983.874)" fill="#89a5c7"/>
              <path id="Trazado_192402" data-name="Trazado 192402" d="M1470.042,954.647h25.2l-6.577-18.869h-25.2Z" transform="translate(-1462.99 -935.777)" fill="#a5bbd6"/>
              <path id="Trazado_192403" data-name="Trazado 192403" d="M1461.4,935.777l-.476.417h25.2l6.576,18.869.476-.417-6.576-18.869Z" transform="translate(-1460.924 -935.777)" fill="#89a5c7"/>
              <path id="Trazado_192404" data-name="Trazado 192404" d="M1637.175,994.957l.275.916-8.24,7.288-.319-.916Z" transform="translate(-1597.436 -983.874)" fill="#586773"/>
            </g>
            <ellipse id="Elipse_5155" data-name="Elipse 5155" cx="2.794" cy="1.237" rx="2.794" ry="1.237" transform="translate(12.031 8.83)" fill="#89a5c7"/>
          </g>
          <path id="Trazado_192405" data-name="Trazado 192405" d="M1604.961,964.3l3.731,6.409-.021.013c-1.711.9-5.3,4.346-6.6,5.618a.975.975,0,0,1-1.1.18l-3.523-1.635a2.117,2.117,0,0,1-1.144-1.309l-.772-2.5a.343.343,0,0,1,.41-.429l2,.561a.613.613,0,0,0,.714-.329l1.139-2.363-3.246,1.915a.426.426,0,0,1-.557-.118l-.179-.256a.424.424,0,0,1,.068-.574l5.133-4.164,3.766-.895S1604.847,964.381,1604.961,964.3Z" transform="translate(-1562.81 -908.358)" fill="#fdae97"/>
          <path id="Trazado_192406" data-name="Trazado 192406" d="M1666.669,894.633c1.576,2.374,1.143,5.468-.962,6.856l-20.881,11.97-5.177-8.9L1659,892.582C1661.109,891.194,1665.1,892.247,1666.669,894.633Z" transform="translate(-1598.672 -849.567)" fill="#ffb30b"/>
          <path id="Trazado_192407" data-name="Trazado 192407" d="M1667.084,872.516l11.381-7.042-2.47-9.026" transform="translate(-1620.969 -820.704)" fill="none" stroke="#322a28" stroke-miterlimit="10" stroke-width="1.2"/>
        </g>
        <path id="Trazado_192408" data-name="Trazado 192408" d="M1237.985,815.253a9.334,9.334,0,0,0-8.205-3.976c-.1.006-.207.014-.31.022a9.343,9.343,0,0,0-5.923,15.747v0a9.522,9.522,0,0,0,1.418,1.219,5.32,5.32,0,0,1,2.2,3.739l-.432.007a.457.457,0,0,0-.319.137c-.015.015-.027.032-.042.05a.431.431,0,1,1,.055.859l-.023.026a.443.443,0,1,1,.036.884c-.013.013-.025.028-.038.044a.468.468,0,0,0-.09.279.455.455,0,0,0,.46.447.449.449,0,0,0-.319.139.113.113,0,0,0-.015.017.448.448,0,0,0-.113.305.453.453,0,0,0,.46.446l.468-.007a3.122,3.122,0,0,0,.033.331,3.033,3.033,0,0,0,.381,1.048h0q.053.09.111.176c.02.029.041.056.061.084s.055.074.084.11.042.052.065.078c.035.041.071.08.108.118.017.018.034.037.051.054.054.053.109.1.167.154l.061.05q.064.052.13.1l.068.049c.053.036.107.07.162.1l.04.025c.068.039.138.075.209.109l.067.03c.053.024.107.046.162.067l.073.027c.069.024.139.046.209.066l.024.007c.079.021.159.038.24.052l.071.011q.092.014.186.023l.074.007c.084.006.17.009.256.008l.511-.007a3.064,3.064,0,0,0,2.985-2.647c.007-.057.012-.115.016-.173s.005-.1.007-.156v0l.426-.006a.456.456,0,0,0,.318-.137.448.448,0,0,0,.13-.323.462.462,0,0,0-.462-.449.454.454,0,0,0-.014-.908.453.453,0,0,0,.333-.755.456.456,0,0,0-.346-.153.46.46,0,0,0,.448-.462.443.443,0,0,0-.1-.27.454.454,0,0,0-.366-.176l-.43.006a5.333,5.333,0,0,1,2.092-3.8,9.343,9.343,0,0,0,2.077-12.848Z" transform="translate(-1029.193 -766.706)" fill="#fff"/>
        <path id="Trazado_192409" data-name="Trazado 192409" d="M833.952,602.873a10.5,10.5,0,0,0,13.181,3.343l11.189,15.842,2.745-1.939-11.188-15.84a10.5,10.5,0,1,0-15.928-1.406Zm15.315-10.817a8.219,8.219,0,1,1-11.455-1.972A8.243,8.243,0,0,1,849.267,592.056Z" transform="translate(-713.084 -583.854)" fill="#fff"/>
        <g id="Grupo_132842" data-name="Grupo 132842" transform="translate(163.11 234.579)">
          <rect id="Rectángulo_293992" data-name="Rectángulo 293992" width="44.105" height="25.515" rx="10.951" transform="translate(0 0)" fill="#ffb30b"/>
          <g id="Grupo_132841" data-name="Grupo 132841" transform="translate(3.849 5.715)">
            <path id="Trazado_192410" data-name="Trazado 192410" d="M1098.584,1859.713a3.75,3.75,0,0,0-1.439-1.135,4.291,4.291,0,0,0-1.8-.4,4.81,4.81,0,0,0-2.054.426,4.69,4.69,0,0,0-1.572,1.164,5.316,5.316,0,0,0-1.014,1.732,6.228,6.228,0,0,0-.359,2.13,5.894,5.894,0,0,0,.341,2.007,5.021,5.021,0,0,0,.984,1.665,4.6,4.6,0,0,0,1.572,1.136,5.084,5.084,0,0,0,2.1.417,4.175,4.175,0,0,0,2.026-.473,4.349,4.349,0,0,0,1.476-1.325l1.535,1.155a6.328,6.328,0,0,1-.532.6,5.255,5.255,0,0,1-1,.777,7.067,7.067,0,0,1-1.505.681,6.436,6.436,0,0,1-2.036.294,6.611,6.611,0,0,1-2.867-.606,7.02,7.02,0,0,1-4.023-6.323,7.862,7.862,0,0,1,.51-2.869,6.79,6.79,0,0,1,1.43-2.271,6.384,6.384,0,0,1,2.206-1.487,7.389,7.389,0,0,1,2.84-.53,6.961,6.961,0,0,1,2.6.51,4.866,4.866,0,0,1,2.092,1.572Z" transform="translate(-1088.418 -1856.476)" fill="#fff"/>
            <path id="Trazado_192411" data-name="Trazado 192411" d="M1161.512,1876.564h4.317v-4.316h1.476v4.316h4.318v1.477h-4.318v4.316h-1.476v-4.316h-4.317Z" transform="translate(-1147.823 -1869.294)" fill="#fff"/>
            <path id="Trazado_192412" data-name="Trazado 192412" d="M1228.839,1876.564h4.317v-4.316h1.476v4.316h4.317v1.477h-4.317v4.316h-1.476v-4.316h-4.317Z" transform="translate(-1202.542 -1869.294)" fill="#fff"/>
          </g>
        </g>
        <g id="Grupo_132844" data-name="Grupo 132844" transform="translate(156.202 11.041)">
          <rect id="Rectángulo_293993" data-name="Rectángulo 293993" width="46.356" height="25.958" rx="11.324" transform="translate(0 0)" fill="#084a93"/>
          <g id="Grupo_132843" data-name="Grupo 132843" transform="translate(4.313 5.599)">
            <path id="Trazado_192413" data-name="Trazado 192413" d="M1054.011,662.2h5.191a6.066,6.066,0,0,1,2.334.386,3.963,3.963,0,0,1,1.449.98,3.34,3.34,0,0,1,.739,1.334,4.992,4.992,0,0,1,0,2.856,3.35,3.35,0,0,1-.739,1.334,3.97,3.97,0,0,1-1.449.98,6.069,6.069,0,0,1-2.334.385h-3.189v6.5h-2Zm2,6.5h2.626a7.12,7.12,0,0,0,1.157-.094,3.1,3.1,0,0,0,1.021-.343,1.878,1.878,0,0,0,.719-.72,2.873,2.873,0,0,0,0-2.439,1.87,1.87,0,0,0-.719-.719,3.1,3.1,0,0,0-1.021-.344,7.12,7.12,0,0,0-1.157-.093h-2.626Z" transform="translate(-1054.011 -662.204)" fill="#fff"/>
            <path id="Trazado_192414" data-name="Trazado 192414" d="M1120.022,662.2h2v6.129h7.651V662.2h2v14.759h-2v-6.754h-7.651v6.754h-2Z" transform="translate(-1107.66 -662.204)" fill="#fff"/>
            <path id="Trazado_192415" data-name="Trazado 192415" d="M1202.5,662.2h5.191a6.066,6.066,0,0,1,2.334.386,3.962,3.962,0,0,1,1.449.98,3.332,3.332,0,0,1,.739,1.334,4.986,4.986,0,0,1,0,2.856,3.341,3.341,0,0,1-.739,1.334,3.969,3.969,0,0,1-1.449.98,6.068,6.068,0,0,1-2.334.385H1204.5v6.5h-2Zm2,6.5h2.626a7.128,7.128,0,0,0,1.157-.094,3.108,3.108,0,0,0,1.021-.343,1.877,1.877,0,0,0,.719-.72,2.873,2.873,0,0,0,0-2.439,1.869,1.869,0,0,0-.719-.719,3.1,3.1,0,0,0-1.021-.344,7.128,7.128,0,0,0-1.157-.093H1204.5Z" transform="translate(-1174.694 -662.204)" fill="#fff"/>
          </g>
        </g>
        <g id="Grupo_132846" data-name="Grupo 132846" transform="translate(307.893 127.279)">
          <rect id="Rectángulo_293994" data-name="Rectángulo 293994" width="37.661" height="28.04" rx="10.609" transform="translate(0 0)" fill="#ffb30b"/>
          <g id="Grupo_132845" data-name="Grupo 132845" transform="translate(5.322 4.138)">
            <path id="Trazado_192416" data-name="Trazado 192416" d="M1880.592,1291.247a6.567,6.567,0,0,1-.359,2.151,5.313,5.313,0,0,1-1.063,1.82,5.059,5.059,0,0,1-1.766,1.248,6.135,6.135,0,0,1-2.471.465,6.048,6.048,0,0,1-3.652-1.036,5.118,5.118,0,0,1-1.875-3.295l3.135-.744a2.563,2.563,0,0,0,.759,1.487,2.077,2.077,0,0,0,1.475.558,2.009,2.009,0,0,0,1.952-.969,5.714,5.714,0,0,0,.517-2.67v-12.619h3.349Z" transform="translate(-1869.407 -1277.167)" fill="#fff"/>
            <path id="Trazado_192417" data-name="Trazado 192417" d="M1954.52,1279.609a3.07,3.07,0,0,0-1.422-1.129,4.94,4.94,0,0,0-1.872-.359,4.75,4.75,0,0,0-1.129.132,3.084,3.084,0,0,0-.984.426,2.229,2.229,0,0,0-.7.757,2.178,2.178,0,0,0-.264,1.1,1.723,1.723,0,0,0,.664,1.462,6.4,6.4,0,0,0,1.647.875q.983.373,2.151.718a8.826,8.826,0,0,1,2.151.955,5.36,5.36,0,0,1,1.647,1.622,4.808,4.808,0,0,1,.663,2.682,5.9,5.9,0,0,1-.557,2.644,5.376,5.376,0,0,1-1.5,1.872,6.486,6.486,0,0,1-2.192,1.116,9.144,9.144,0,0,1-2.629.372,9.881,9.881,0,0,1-3.375-.584,6.487,6.487,0,0,1-2.789-1.965l2.523-2.445a4.241,4.241,0,0,0,1.609,1.448,4.53,4.53,0,0,0,2.112.517,4.432,4.432,0,0,0,1.168-.158,3.664,3.664,0,0,0,1.064-.48,2.5,2.5,0,0,0,.769-.808,2.176,2.176,0,0,0,.292-1.131,1.964,1.964,0,0,0-.664-1.593,5.893,5.893,0,0,0-1.647-.943q-.983-.386-2.151-.73a9.044,9.044,0,0,1-2.151-.943,5.2,5.2,0,0,1-1.647-1.6,4.737,4.737,0,0,1-.664-2.668,5.077,5.077,0,0,1,.6-2.525,5.475,5.475,0,0,1,1.567-1.766,6.821,6.821,0,0,1,2.218-1.049,9.491,9.491,0,0,1,2.551-.346,9.317,9.317,0,0,1,2.882.452,6.657,6.657,0,0,1,2.51,1.487Z" transform="translate(-1930.052 -1275.093)" fill="#fff"/>
          </g>
        </g>
        <g id="Grupo_132848" data-name="Grupo 132848" transform="translate(25.504 125.971)">
          <rect id="Rectángulo_293995" data-name="Rectángulo 293995" width="36.865" height="25.388" rx="9.987" transform="translate(0 0)" fill="#00defc"/>
          <g id="Grupo_132847" data-name="Grupo 132847" transform="translate(1.972 2.349)">
            <path id="Trazado_192418" data-name="Trazado 192418" d="M343.605,1292.769v-1.848l10.672-5.775v2.823l-7.128,3.877,7.128,3.876v2.823Z" transform="translate(-343.605 -1280.165)" fill="#fff"/>
            <path id="Trazado_192419" data-name="Trazado 192419" d="M410.335,1279.241l-1.75-.77,6.58-19.921,1.75.822Z" transform="translate(-396.416 -1258.551)" fill="#fff"/>
            <path id="Trazado_192420" data-name="Trazado 192420" d="M473.087,1290.92v1.848l-10.672,5.776v-2.823l7.128-3.876-7.128-3.877v-2.823Z" transform="translate(-440.165 -1280.165)" fill="#fff"/>
          </g>
        </g>
      </g>
    </g>
  </g>
</svg>
