<svg xmlns="http://www.w3.org/2000/svg" width="150" height="150" viewBox="0 0 150 150">
  <g id="Grupo_146553" data-name="Grupo 146553" transform="translate(-1080 -9588)">
    <g id="codificacion" transform="translate(1080 9587.999)">
      <g id="Grupo_146468" data-name="Grupo 146468" transform="translate(2.93 2.931)">
        <path id="Trazado_203766" data-name="Trazado 203766" d="M101.709,21.719H130.7V16.511a6.53,6.53,0,0,0-6.51-6.51H16.511A6.53,6.53,0,0,0,10,16.511V27.579H50.246l5.859-5.86Z" transform="translate(-10 -10.001)" fill="#ffb30b"/>
        <path id="Trazado_203767" data-name="Trazado 203767" d="M121.913,50H56.105l-5.859,5.86H10v63.8a6.529,6.529,0,0,0,6.51,6.51H33.438V71.747a6.529,6.529,0,0,1,6.51-6.51H130.7V50Z" transform="translate(-10 -38.282)" fill="#e8e8e8"/>
        <path id="Trazado_203768" data-name="Trazado 203768" d="M187.267,102.007H96.513a6.529,6.529,0,0,0-6.51,6.51v11.068h40.246l5.86-5.86h74.6v-5.208a6.53,6.53,0,0,0-6.51-6.51Z" transform="translate(-66.565 -75.052)" fill="#ffb30b"/>
        <path id="Trazado_203769" data-name="Trazado 203769" d="M210.705,142.006h-74.6l-5.86,5.86H90v63.8a6.529,6.529,0,0,0,6.51,6.51h43.88a29.3,29.3,0,0,1,58.593,0h5.208a6.531,6.531,0,0,0,6.51-6.51Z" transform="translate(-66.565 -103.333)" fill="#fff"/>
        <ellipse id="Elipse_4937" data-name="Elipse 4937" cx="30" cy="29.464" rx="30" ry="29.464" transform="translate(73.142 84.927)" fill="#00defc"/>
      </g>
      <path id="Trazado_203770" data-name="Trazado 203770" d="M140.559,26.956h-14V9.441A9.451,9.451,0,0,0,117.121,0H9.44A9.451,9.451,0,0,0,0,9.441V84.31a9.451,9.451,0,0,0,9.44,9.44h14v17.515a9.451,9.451,0,0,0,9.44,9.44h8.789a2.93,2.93,0,1,0,0-5.859H32.879a3.585,3.585,0,0,1-3.581-3.581V50.393H66.614a2.93,2.93,0,0,0,2.072-.858l5-5H144.14v66.731a3.585,3.585,0,0,1-3.581,3.581h-2.413a32.225,32.225,0,0,0-64.184,0H61.872a2.93,2.93,0,1,0,0,5.859H73.963a32.225,32.225,0,0,0,64.184,0h2.413a9.451,9.451,0,0,0,9.44-9.44V36.4A9.451,9.451,0,0,0,140.559,26.956Zm-34.5,117.186a26.367,26.367,0,1,1,26.367-26.367A26.4,26.4,0,0,1,106.055,144.141ZM9.44,87.89a3.585,3.585,0,0,1-3.581-3.581V23.438H43.175a2.93,2.93,0,0,0,2.072-.858l5-5h44.39a2.93,2.93,0,1,0,0-5.859h-45.6l-.048,0c-.08,0-.16,0-.24.012-.048,0-.094.013-.141.021s-.1.012-.143.022-.1.024-.15.037-.086.02-.128.033-.094.032-.14.049-.088.03-.131.048-.083.038-.124.057-.092.042-.137.066-.074.043-.11.065-.091.053-.136.082-.075.055-.112.083-.08.057-.118.088c-.06.05-.117.1-.174.157-.013.013-.027.023-.04.036l-5,5H5.859V9.441A3.585,3.585,0,0,1,9.44,5.86H117.122A3.585,3.585,0,0,1,120.7,9.441v2.278h-5.859a2.93,2.93,0,0,0,0,5.859H120.7v9.377H32.879a9.451,9.451,0,0,0-9.44,9.44V87.89h-14ZM72.473,38.674l-.048,0c-.08,0-.16,0-.24.012-.048,0-.094.013-.141.021s-.1.012-.143.022-.1.024-.15.037-.086.02-.128.033-.094.032-.14.049-.088.03-.131.048-.083.038-.124.057-.092.042-.137.066-.074.043-.11.065-.091.053-.136.082-.075.055-.112.083-.08.057-.118.088c-.06.05-.117.1-.174.157-.013.013-.027.023-.04.036l-5,5H29.3V36.4a3.585,3.585,0,0,1,3.581-3.581H140.56a3.585,3.585,0,0,1,3.581,3.581v2.278H72.473Z" transform="translate(0 0)"/>
      <path id="Trazado_203771" data-name="Trazado 203771" d="M175.2,392h-.079a2.93,2.93,0,1,0,0,5.859h.079a2.93,2.93,0,1,0,0-5.859Z" transform="translate(-121.744 -277.158)"/>
      <path id="Trazado_203772" data-name="Trazado 203772" d="M117.511,122.007h-.079a2.93,2.93,0,1,0,0,5.859h.079a2.93,2.93,0,1,0,0-5.859Z" transform="translate(-80.957 -86.262)"/>
      <path id="Trazado_203773" data-name="Trazado 203773" d="M157.511,122.007h-.079a2.93,2.93,0,0,0,0,5.859h.079a2.93,2.93,0,0,0,0-5.859Z" transform="translate(-109.238 -86.262)"/>
      <path id="Trazado_203774" data-name="Trazado 203774" d="M197.511,122.007h-.079a2.93,2.93,0,0,0,0,5.859h.079a2.93,2.93,0,0,0,0-5.859Z" transform="translate(-137.52 -86.262)"/>
      <path id="Trazado_203775" data-name="Trazado 203775" d="M37.509,30H37.43a2.93,2.93,0,1,0,0,5.859h.079a2.93,2.93,0,0,0,0-5.859Z" transform="translate(-24.393 -21.211)"/>
      <path id="Trazado_203776" data-name="Trazado 203776" d="M77.509,30h-.079a2.93,2.93,0,1,0,0,5.859h.079a2.93,2.93,0,1,0,0-5.859Z" transform="translate(-52.675 -21.211)"/>
      <path id="Trazado_203777" data-name="Trazado 203777" d="M117.51,30h-.079a2.93,2.93,0,1,0,0,5.859h.079a2.93,2.93,0,0,0,0-5.859Z" transform="translate(-80.956 -21.211)"/>
      <path id="Trazado_203778" data-name="Trazado 203778" d="M344.695,45.859h.079a2.93,2.93,0,1,0,0-5.859h-.079a2.93,2.93,0,0,0,0,5.859Z" transform="translate(-241.639 -28.281)"/>
      <path id="Trazado_203779" data-name="Trazado 203779" d="M122.934,218.181H141a2.93,2.93,0,1,0,0-5.859H122.934a2.93,2.93,0,1,0,0,5.859Z" transform="translate(-84.847 -150.118)"/>
      <path id="Trazado_203780" data-name="Trazado 203780" d="M122.934,258.181h36.135a2.93,2.93,0,1,0,0-5.859H122.934a2.93,2.93,0,1,0,0,5.859Z" transform="translate(-84.847 -178.399)"/>
      <path id="Trazado_203781" data-name="Trazado 203781" d="M141,292.322H122.934a2.93,2.93,0,1,0,0,5.859H141a2.93,2.93,0,0,0,0-5.859Z" transform="translate(-84.847 -206.681)"/>
      <path id="Trazado_203782" data-name="Trazado 203782" d="M367.725,218.181a2.93,2.93,0,1,0,0-5.859H331.591a2.93,2.93,0,1,0,0,5.859Z" transform="translate(-232.374 -150.118)"/>
      <path id="Trazado_203783" data-name="Trazado 203783" d="M352.748,365.6a2.929,2.929,0,0,0-3.588,2.072L345,383.2a2.93,2.93,0,1,0,5.66,1.516l4.16-15.527A2.929,2.929,0,0,0,352.748,365.6Z" transform="translate(-243.855 -258.42)"/>
      <path id="Trazado_203784" data-name="Trazado 203784" d="M301.2,369.041a2.929,2.929,0,0,0-4.129-.347l-8.318,7.031c-.022.019-.042.04-.064.059-.039.035-.078.07-.115.108s-.075.078-.11.118c-.019.021-.039.04-.057.062s-.017.023-.027.035c-.038.046-.073.093-.108.141-.023.032-.046.063-.068.1s-.06.1-.088.144-.043.072-.062.109-.045.091-.066.136-.04.085-.057.128-.031.084-.046.126-.034.1-.049.146-.021.08-.031.12-.026.1-.036.156-.013.081-.019.122-.016.1-.02.155-.006.088-.008.132-.005.1-.005.145,0,.1.005.145,0,.089.008.132.013.1.02.155.011.081.019.122.023.1.036.156.019.08.031.12.032.1.049.146.029.084.046.126.037.086.057.128.042.091.066.136.041.073.062.109.057.1.088.144.045.064.068.1c.035.048.07.1.108.141.009.012.017.024.027.035s.034.035.05.053c.043.048.087.1.134.141s.069.066.1.1c.02.018.038.037.058.055l8.319,7.031a2.93,2.93,0,0,0,3.782-4.475l-5.671-4.794,5.671-4.794A2.93,2.93,0,0,0,301.2,369.041Z" transform="translate(-203.421 -260.189)"/>
      <path id="Trazado_203785" data-name="Trazado 203785" d="M392.723,368.7a2.93,2.93,0,1,0-3.782,4.475l5.671,4.793-5.671,4.794a2.93,2.93,0,0,0,3.782,4.475l8.318-7.031c.021-.018.039-.038.06-.056s.069-.063.1-.1.091-.093.134-.142c.016-.018.034-.034.05-.053s.017-.023.027-.035c.038-.046.073-.094.108-.142.023-.032.046-.063.068-.1s.06-.1.089-.144.043-.072.062-.109.045-.091.066-.136.04-.085.057-.128.031-.084.046-.126.034-.1.049-.146.021-.08.031-.12.026-.1.036-.156.013-.081.019-.122.016-.1.021-.155.006-.088.008-.132.005-.1.005-.145,0-.1-.005-.145,0-.089-.008-.132-.013-.1-.021-.155-.011-.081-.019-.122-.023-.1-.036-.156-.019-.08-.031-.12-.032-.1-.049-.146-.029-.084-.046-.126-.037-.086-.057-.128-.042-.091-.066-.136-.041-.073-.062-.109-.057-.1-.089-.144-.045-.064-.068-.1c-.035-.048-.07-.1-.108-.141-.009-.011-.017-.024-.027-.035s-.039-.04-.058-.061c-.036-.04-.072-.079-.11-.118s-.077-.073-.116-.108c-.021-.019-.041-.04-.063-.059Z" transform="translate(-274.259 -260.19)"/>
    </g>
  </g>
</svg>
