<svg xmlns="http://www.w3.org/2000/svg" xmlns:xlink="http://www.w3.org/1999/xlink" width="241" height="240.836" viewBox="0 0 241 240.836">
  <defs>
    <linearGradient id="linear-gradient" y1="0.5" x2="1" y2="0.5" gradientUnits="objectBoundingBox">
      <stop offset="0" stop-color="#e1473d"/>
      <stop offset="1" stop-color="#e9605a"/>
    </linearGradient>
  </defs>
  <g id="Grupo_146558" data-name="Grupo 146558" transform="translate(-339 -11474)">
    <g id="Grupo_146471" data-name="Grupo 146471" transform="translate(9261.386 12151)">
      <g id="Grupo_133748" data-name="Grupo 133748" transform="translate(-8922.386 -677)">
        <path id="Trazado_196972" data-name="Trazado 196972" d="M704.1,619.183c-24.273,56.735-88.345,81.1-138.547,76.949-13.707-1.134-41.286-3.417-62.82-23.781-41.354-39.107-34.986-120.853,4.6-168.981,5.1-6.2,40.387-47.722,95.377-47.167,40.261.407,68.52,23.15,71.956,25.983a110.833,110.833,0,0,1,22.543,25.578C717.481,539.469,719.263,583.729,704.1,619.183Z" transform="translate(-473.141 -456.198)" fill="#f5faff"/>
        <g id="Grupo_133719" data-name="Grupo 133719" transform="translate(86.468 42.234)">
          <rect id="Rectángulo_294688" data-name="Rectángulo 294688" width="136.311" height="114.222" transform="translate(8.852 14.82)" fill="#ffb30b"/>
          <g id="Grupo_133712" data-name="Grupo 133712" transform="translate(0.42 0)">
            <path id="Trazado_196973" data-name="Trazado 196973" d="M1614.937,945.7l-145.857.918a3.464,3.464,0,0,0-3.61,3.233v21.762a3.306,3.306,0,0,0,3.444,3.114l146.024.919c2.166.014,3.99-1.455,3.99-3.28V948.984C1618.928,947.159,1617.1,945.69,1614.937,945.7Z" transform="translate(-1465.467 -945.704)" fill="#ffe4a9"/>
            <g id="Grupo_133711" data-name="Grupo 133711">
              <path id="Trazado_196974" data-name="Trazado 196974" d="M1614.833,945.7l-145.958.919a3.308,3.308,0,0,0-3.447,3.114l153.328-.752C1618.757,947.159,1617,945.69,1614.833,945.7Z" transform="translate(-1465.429 -945.704)" fill="#fff4da"/>
              <path id="Trazado_196975" data-name="Trazado 196975" d="M1468.875,1249.166l145.958.919c2.166.014,3.924-1.455,3.924-3.28l-153.328-.752A3.308,3.308,0,0,0,1468.875,1249.166Z" transform="translate(-1465.429 -1220.138)" fill="#fff4da"/>
            </g>
          </g>
          <g id="Grupo_133714" data-name="Grupo 133714" transform="translate(0 35.986)">
            <path id="Trazado_196976" data-name="Trazado 196976" d="M1610.655,1363.1l-145.969-.3a3.575,3.575,0,0,0-3.751,3.3l-.279,22.463a3.379,3.379,0,0,0,3.522,3.229l146.47,1.28c2.107.018,3.881-1.449,3.881-3.278v-23.386C1614.528,1364.584,1612.756,1363.1,1610.655,1363.1Z" transform="translate(-1460.646 -1362.797)" fill="#ffe4a9"/>
            <g id="Grupo_133713" data-name="Grupo 133713">
              <path id="Trazado_196977" data-name="Trazado 196977" d="M1613.391,1363.1l-146.073-.3a3.427,3.427,0,0,0-3.6,3.177l153.476.431A3.589,3.589,0,0,0,1613.391,1363.1Z" transform="translate(-1463.449 -1362.795)" fill="#fff4da"/>
              <path id="Trazado_196978" data-name="Trazado 196978" d="M1464.084,1664.629l146.406,1.28a3.554,3.554,0,0,0,3.816-3.278l-153.749-1.231A3.383,3.383,0,0,0,1464.084,1664.629Z" transform="translate(-1460.557 -1635.636)" fill="#fff4da"/>
            </g>
          </g>
          <g id="Grupo_133716" data-name="Grupo 133716" transform="translate(0.42 72.657)">
            <path id="Trazado_196979" data-name="Trazado 196979" d="M1615.117,1787.831H1469.285a3.652,3.652,0,0,0-3.815,3.45v23.259a3.443,3.443,0,0,0,3.674,3.227h145.973c2.031,0,3.811-1.4,3.811-3.227v-23.386A3.647,3.647,0,0,0,1615.117,1787.831Z" transform="translate(-1465.467 -1787.831)" fill="#ffe4a9"/>
            <g id="Grupo_133715" data-name="Grupo 133715">
              <path id="Trazado_196980" data-name="Trazado 196980" d="M1615.08,1787.831H1469.106a3.478,3.478,0,0,0-3.678,3.2h153.328A3.477,3.477,0,0,0,1615.08,1787.831Z" transform="translate(-1465.429 -1787.831)" fill="#fff4da"/>
              <path id="Trazado_196981" data-name="Trazado 196981" d="M1469.106,2100.944H1615.08a3.477,3.477,0,0,0,3.677-3.2H1465.429A3.478,3.478,0,0,0,1469.106,2100.944Z" transform="translate(-1465.429 -2071.008)" fill="#fff4da"/>
            </g>
          </g>
          <g id="Grupo_133718" data-name="Grupo 133718" transform="translate(0.42 109.043)">
            <path id="Trazado_196982" data-name="Trazado 196982" d="M1615.271,2210.127l-145.914-.571a3.664,3.664,0,0,0-3.887,3.418v23.259a3.544,3.544,0,0,0,3.742,3.3l145.98.056a3.453,3.453,0,0,0,3.621-3.242l.065-22.964A3.451,3.451,0,0,0,1615.271,2210.127Z" transform="translate(-1465.467 -2209.555)" fill="#ffe4a9"/>
            <g id="Grupo_133717" data-name="Grupo 133717">
              <path id="Trazado_196983" data-name="Trazado 196983" d="M1615.234,2210.123l-146.06-.572a3.531,3.531,0,0,0-3.746,3.292l153.411.541A3.449,3.449,0,0,0,1615.234,2210.123Z" transform="translate(-1465.429 -2209.55)" fill="#fff4da"/>
              <path id="Trazado_196984" data-name="Trazado 196984" d="M1469.173,2522.06l145.981.056a3.453,3.453,0,0,0,3.622-3.242l-153.347-.119A3.545,3.545,0,0,0,1469.173,2522.06Z" transform="translate(-1465.429 -2492.078)" fill="#fff4da"/>
            </g>
          </g>
        </g>
        <g id="Grupo_133730" data-name="Grupo 133730" transform="translate(123.779 7.529)">
          <g id="Grupo_133724" data-name="Grupo 133724" transform="translate(37.354 0)">
            <g id="Grupo_133720" data-name="Grupo 133720" opacity="0.3">
              <path id="Trazado_196985" data-name="Trazado 196985" d="M2326.767,581.178a.985.985,0,0,1-.814-1.036c.074-1.11.2-2.233.367-3.339a.984.984,0,0,1,1.123-.824l.019,0a.984.984,0,0,1,.8,1.12c-.16,1.05-.278,2.117-.349,3.171a.984.984,0,0,1-1.048.917A.907.907,0,0,1,2326.767,581.178Zm1.524-8.443a.986.986,0,0,1-.778-1.251c.319-1.071.686-2.139,1.093-3.174a.984.984,0,1,1,1.833.719c-.385.984-.735,2-1.037,3.016A.984.984,0,0,1,2328.291,572.735Zm3.345-7.9a.985.985,0,0,1-.69-1.454c.547-.971,1.144-1.931,1.773-2.852a.985.985,0,1,1,1.626,1.111c-.6.875-1.164,1.786-1.684,2.708A.985.985,0,0,1,2331.635,564.837Zm5.029-6.953a.985.985,0,0,1-.559-1.634c.752-.825,1.547-1.627,2.366-2.384a.985.985,0,1,1,1.337,1.446c-.777.719-1.533,1.481-2.248,2.265A.985.985,0,0,1,2336.664,557.884Zm6.452-5.657a.985.985,0,0,1-.395-1.779c.914-.636,1.867-1.241,2.834-1.8a.985.985,0,1,1,.985,1.706c-.919.531-1.826,1.106-2.694,1.71A.981.981,0,0,1,2343.116,552.227Zm7.543-4.088a.985.985,0,0,1-.2-1.883c1.033-.419,2.1-.8,3.162-1.128a.985.985,0,1,1,.582,1.882c-1.012.313-2.022.674-3,1.072A.981.981,0,0,1,2350.659,548.139Zm35.96,3.837a.973.973,0,0,1-.386-.157c-.875-.6-1.787-1.161-2.712-1.68a.985.985,0,0,1,.964-1.717c.974.547,1.935,1.142,2.855,1.769a.985.985,0,0,1-.722,1.785Zm-27.7-6.151a.985.985,0,0,1,.009-1.943c1.1-.179,2.222-.312,3.334-.4a.985.985,0,0,1,.148,1.964c-1.056.079-2.12.205-3.166.375A.98.98,0,0,1,2358.914,545.826Zm20.113,2.153a.981.981,0,0,1-.19-.053c-.987-.385-2-.732-3.02-1.032a.985.985,0,0,1,.558-1.889c1.07.316,2.139.682,3.177,1.086a.985.985,0,0,1-.525,1.888Zm-11.548-2.565a.985.985,0,0,1,.233-1.953c1.111.072,2.235.193,3.338.361l.021,0a.985.985,0,0,1-.315,1.944c-1.048-.159-2.115-.274-3.171-.342C2367.549,545.424,2367.514,545.42,2367.479,545.414Z" transform="translate(-2325.95 -543.459)" fill="#b9ddfc"/>
              <path id="Trazado_196986" data-name="Trazado 196986" d="M3070.268,660.914a.978.978,0,0,1-.523-.269c-.362-.357-.737-.712-1.114-1.056a.985.985,0,1,1,1.325-1.457c.4.361.792.735,1.173,1.11a.985.985,0,0,1-.861,1.671Z" transform="translate(-3004.259 -648.004)" fill="#b9ddfc"/>
            </g>
            <g id="Grupo_133721" data-name="Grupo 133721" transform="translate(10.119 37.141)" opacity="0.3">
              <path id="Trazado_196987" data-name="Trazado 196987" d="M3214.8,977.471a.985.985,0,0,1-.816-.982c.006-.508,0-1.024-.012-1.535a.985.985,0,1,1,1.968-.057c.016.537.021,1.081.013,1.616a.984.984,0,0,1-1,.972A1,1,0,0,1,3214.8,977.471Z" transform="translate(-3147.469 -973.941)" fill="#b9ddfc"/>
              <path id="Trazado_196988" data-name="Trazado 196988" d="M2519.307,1086.756q-.669-.116-1.34-.255a.985.985,0,1,1,.4-1.929c1.032.214,2.07.386,3.1.513a.985.985,0,0,1-.239,1.955C2520.589,1086.961,2519.944,1086.866,2519.307,1086.756Zm-6.346-1.658a1.024,1.024,0,0,1-.162-.043c-1.036-.367-2.068-.782-3.067-1.233a.985.985,0,1,1,.811-1.795c.949.429,1.929.823,2.913,1.172a.985.985,0,0,1-.5,1.9Zm13.44,2.215a.985.985,0,0,1,.154-1.955c1.041-.015,2.094-.076,3.133-.179a.985.985,0,1,1,.2,1.96c-1.093.109-2.2.173-3.3.189A1.006,1.006,0,0,1,2526.4,1087.313Zm-21.042-5.894a.985.985,0,0,1-.356-.138c-.928-.585-1.844-1.217-2.72-1.878a.985.985,0,0,1,1.187-1.572c.831.628,1.7,1.228,2.583,1.783a.985.985,0,0,1-.693,1.8Zm29.413,4.835a.985.985,0,0,1-.063-1.928c1.011-.244,2.026-.534,3.016-.864a.985.985,0,1,1,.622,1.869c-1.042.347-2.111.653-3.175.91A.984.984,0,0,1,2534.771,1086.253Zm7.937-2.87a.985.985,0,0,1-.268-1.854c.936-.46,1.863-.966,2.757-1.5a.985.985,0,1,1,1.013,1.689c-.94.564-1.916,1.1-2.9,1.58A.98.98,0,0,1,2542.708,1083.383Zm7.121-4.533a.985.985,0,0,1-.448-1.738c.814-.654,1.609-1.348,2.364-2.066a.985.985,0,0,1,1.358,1.428c-.795.755-1.632,1.486-2.489,2.174A.981.981,0,0,1,2549.829,1078.851Zm5.963-5.977a.985.985,0,0,1-.6-1.584c.65-.815,1.274-1.668,1.853-2.534a.985.985,0,1,1,1.637,1.094c-.609.912-1.267,1.81-1.952,2.668A.985.985,0,0,1,2555.792,1072.874Zm4.507-7.143a.987.987,0,0,1-.719-1.4c.454-.937.874-1.9,1.25-2.879a.985.985,0,1,1,1.838.707c-.395,1.025-.837,2.045-1.315,3.03A.985.985,0,0,1,2560.3,1065.73Zm2.826-7.953-.059-.013a.984.984,0,0,1-.732-1.185c.177-.747.332-1.508.462-2.264q.071-.41.132-.819a.985.985,0,0,1,1.121-.827.973.973,0,0,1,.827,1.12q-.064.431-.139.862c-.137.794-.3,1.6-.487,2.381A.985.985,0,0,1,2563.125,1057.777Z" transform="translate(-2496.83 -1045.867)" fill="#b9ddfc"/>
              <path id="Trazado_196989" data-name="Trazado 196989" d="M2445.144,1292.081a.984.984,0,0,1-.527-.273c-.378-.376-.755-.768-1.12-1.164a.985.985,0,0,1,1.447-1.337c.347.376.706.748,1.064,1.105a.985.985,0,0,1-.864,1.668Z" transform="translate(-2443.236 -1261.809)" fill="#b9ddfc"/>
            </g>
            <g id="Grupo_133723" data-name="Grupo 133723" transform="translate(9.997 9.631)">
              <path id="Trazado_196990" data-name="Trazado 196990" d="M2447.106,701.835a.462.462,0,0,0,.484.227l5.511-1.01a24.391,24.391,0,0,0,6.221,4.88l.335,5.588a.461.461,0,0,0,.336.416l6.472,1.806a.461.461,0,0,0,.5-.182l3.18-4.607A24.4,24.4,0,0,0,2478,708l4.191,3.717a.46.46,0,0,0,.531.057l5.854-3.3a.461.461,0,0,0,.227-.484l-1.009-5.51a24.4,24.4,0,0,0,4.879-6.221l5.589-.336a.46.46,0,0,0,.416-.336l1.806-6.473a.46.46,0,0,0-.181-.5l-4.607-3.181a24.417,24.417,0,0,0-.954-7.849l3.717-4.191a.46.46,0,0,0,.057-.531l-3.3-5.854a.46.46,0,0,0-.484-.227l-5.511,1.01a24.4,24.4,0,0,0-6.221-4.88l-.335-5.588a.461.461,0,0,0-.336-.416l-6.473-1.806a.46.46,0,0,0-.5.182l-3.181,4.607a24.4,24.4,0,0,0-7.848.954l-4.192-3.717a.461.461,0,0,0-.532-.057l-5.854,3.3a.461.461,0,0,0-.227.484l1.009,5.51a24.413,24.413,0,0,0-4.879,6.221l-5.588.335a.461.461,0,0,0-.416.336l-1.806,6.472a.461.461,0,0,0,.181.5l4.608,3.18a24.375,24.375,0,0,0,.954,7.849l-3.717,4.191a.459.459,0,0,0-.057.532Z" transform="translate(-2441.82 -655.083)" fill="#b9ddfc"/>
              <g id="Grupo_133722" data-name="Grupo 133722" transform="translate(22.584 22.584)">
                <path id="Trazado_196991" data-name="Trazado 196991" d="M2709.176,930.25a6.759,6.759,0,1,1,.987.1A6.765,6.765,0,0,1,2709.176,930.25Zm2.049-11.758a5.278,5.278,0,0,0-.765-.075,5.161,5.161,0,1,0,.765.075Z" transform="translate(-2703.576 -916.84)" fill="#6ec1ff"/>
              </g>
              <path id="Trazado_196992" data-name="Trazado 196992" d="M2604.524,834.663a16.957,16.957,0,0,1-1.665-.375h0c-.174-.049-.347-.1-.519-.154a16.745,16.745,0,0,1-2.467-1l-.032-.016-.092-.047-.177-.092a.394.394,0,1,1,.366-.7,15.841,15.841,0,0,0,17.964-2.239,15.725,15.725,0,0,0,4.659-7.5,16.129,16.129,0,0,0,.358-1.588,15.822,15.822,0,1,0-30.859,1.511.389.389,0,0,1,.008.171.394.394,0,0,1-.768.037,16.61,16.61,0,1,1,32.4-1.587,16.9,16.9,0,0,1-.376,1.667,16.611,16.611,0,0,1-18.8,11.909Z" transform="translate(-2577.866 -789.033)" fill="#6ec1ff"/>
            </g>
          </g>
          <g id="Grupo_133729" data-name="Grupo 133729" transform="translate(0 27.766)">
            <g id="Grupo_133725" data-name="Grupo 133725" opacity="0.3">
              <path id="Trazado_196993" data-name="Trazado 196993" d="M1893.638,1181.856a.608.608,0,0,1-.5-.53c-.059-.513-.1-1.035-.131-1.551a.608.608,0,0,1,1.215-.066c.027.492.069.989.125,1.479a.609.609,0,0,1-.535.674A.621.621,0,0,1,1893.638,1181.856Z" transform="translate(-1893.006 -1152.054)" fill="#b9ddfc"/>
              <path id="Trazado_196994" data-name="Trazado 196994" d="M1893.785,890.4a.608.608,0,0,1-.5-.641,26.52,26.52,0,0,1,.321-2.657q.048-.276.1-.554a.63.63,0,0,1,.714-.481.609.609,0,0,1,.481.713q-.052.265-.1.529a25.231,25.231,0,0,0-.307,2.534.608.608,0,0,1-.649.565Zm1.207-6.2a.627.627,0,0,1-.085-.021.609.609,0,0,1-.39-.767,26.319,26.319,0,0,1,1.187-3.012.608.608,0,1,1,1.1.515,25.229,25.229,0,0,0-1.133,2.873A.608.608,0,0,1,1894.992,884.2Zm2.675-5.721a.618.618,0,0,1-.22-.084.609.609,0,0,1-.191-.839,26.225,26.225,0,0,1,1.892-2.63.608.608,0,0,1,.942.77,24.957,24.957,0,0,0-1.8,2.508A.609.609,0,0,1,1897.667,878.477Zm4-4.889a.608.608,0,0,1-.316-1.039,26.37,26.37,0,0,1,2.477-2.086.608.608,0,1,1,.724.978,25.064,25.064,0,0,0-2.362,1.989A.607.607,0,0,1,1901.667,873.588Zm5.072-3.764a.608.608,0,0,1-.2-1.129,26.581,26.581,0,0,1,2.908-1.421.608.608,0,0,1,.467,1.124,25.279,25.279,0,0,0-2.774,1.356A.606.606,0,0,1,1906.738,869.824Zm5.831-2.418a.608.608,0,0,1-.059-1.186,26.208,26.208,0,0,1,3.167-.669.608.608,0,1,1,.177,1.2,24.912,24.912,0,0,0-3.019.637A.607.607,0,0,1,1912.569,867.406Zm6.244-.919a.608.608,0,0,1,.09-1.207,26.322,26.322,0,0,1,3.236.129.609.609,0,0,1-.123,1.211,25.006,25.006,0,0,0-3.085-.124A.611.611,0,0,1,1918.813,866.487Zm9.319,1.533a.6.6,0,0,1-.1-.028,25.233,25.233,0,0,0-2.572-.776c-.132-.033-.262-.064-.392-.093a.609.609,0,0,1,.269-1.187c.138.032.277.064.415.1a26.536,26.536,0,0,1,2.693.813.608.608,0,0,1-.31,1.171Z" transform="translate(-1893.257 -865.273)" fill="#b9ddfc"/>
            </g>
            <g id="Grupo_133726" data-name="Grupo 133726" transform="translate(6.79 40.921)" opacity="0.3">
              <path id="Trazado_196995" data-name="Trazado 196995" d="M2023.637,1350.869a.608.608,0,0,1,.2-1.2,25.159,25.159,0,0,0,3.022.3.608.608,0,1,1-.045,1.216,26.626,26.626,0,0,1-3.168-.311Zm-3.038-.674a.574.574,0,0,1-.064-.015,26.538,26.538,0,0,1-3.005-1.057A.608.608,0,0,1,2018,1348a25.465,25.465,0,0,0,2.867,1.009.608.608,0,0,1-.27,1.184Zm9.245.9a.608.608,0,0,1,.052-1.205,25.193,25.193,0,0,0,3.006-.444.608.608,0,0,1,.25,1.191,26.339,26.339,0,0,1-3.151.465A.613.613,0,0,1,2029.844,1351.1Zm-14.971-3.317a.6.6,0,0,1-.2-.072,26.065,26.065,0,0,1-2.662-1.752.608.608,0,1,1,.729-.974,24.957,24.957,0,0,0,2.538,1.67.608.608,0,0,1-.406,1.127Zm21.048,2.039a.608.608,0,0,1-.094-1.175,25,25,0,0,0,2.81-1.153.608.608,0,0,1,.529,1.1,26.429,26.429,0,0,1-2.946,1.209A.608.608,0,0,1,2035.921,1349.82Zm5.593-2.7a.608.608,0,0,1-.225-1.111,25.5,25.5,0,0,0,2.455-1.792.608.608,0,1,1,.775.937,26.63,26.63,0,0,1-2.572,1.878A.608.608,0,0,1,2041.515,1347.121Zm4.787-3.961a.608.608,0,0,1-.338-1.018,24.907,24.907,0,0,0,1.953-2.328.608.608,0,1,1,.978.723,26.38,26.38,0,0,1-2.047,2.442A.608.608,0,0,1,2046.3,1343.16Z" transform="translate(-2008.312 -1339.567)" fill="#b9ddfc"/>
              <path id="Trazado_196996" data-name="Trazado 196996" d="M1973.273,1367.083a.6.6,0,0,1-.318-.161c-.375-.361-.741-.735-1.089-1.11a.609.609,0,0,1,.894-.826c.331.359.681.715,1.039,1.06a.608.608,0,0,1-.526,1.037Z" transform="translate(-1971.705 -1362.615)" fill="#b9ddfc"/>
            </g>
            <g id="Grupo_133728" data-name="Grupo 133728" transform="translate(6.658 6.448)">
              <path id="Trazado_196997" data-name="Trazado 196997" d="M1973.707,971.295a.307.307,0,0,0,.323.152l3.688-.676a16.332,16.332,0,0,0,4.163,3.266l.225,3.739a.308.308,0,0,0,.224.278l4.331,1.209a.308.308,0,0,0,.336-.121l2.128-3.083a16.321,16.321,0,0,0,5.252-.638l2.8,2.487a.308.308,0,0,0,.356.038l3.917-2.208a.308.308,0,0,0,.152-.324l-.675-3.687a16.331,16.331,0,0,0,3.265-4.163l3.74-.224a.308.308,0,0,0,.278-.224l1.208-4.331a.309.309,0,0,0-.122-.336l-3.083-2.128a16.326,16.326,0,0,0-.638-5.252l2.487-2.8a.308.308,0,0,0,.038-.355l-2.208-3.917a.308.308,0,0,0-.323-.152l-3.687.676a16.327,16.327,0,0,0-4.163-3.265l-.225-3.74a.308.308,0,0,0-.224-.278l-4.331-1.209a.307.307,0,0,0-.336.122l-2.129,3.083a16.32,16.32,0,0,0-5.252.638l-2.8-2.487a.308.308,0,0,0-.356-.038l-3.917,2.208a.308.308,0,0,0-.152.324l.675,3.687a16.334,16.334,0,0,0-3.265,4.163l-3.74.224a.308.308,0,0,0-.278.224l-1.208,4.331a.308.308,0,0,0,.122.336l3.083,2.128a16.343,16.343,0,0,0,.638,5.252l-2.487,2.8a.309.309,0,0,0-.038.356Z" transform="translate(-1970.17 -940.01)" fill="#b9ddfc"/>
              <g id="Grupo_133727" data-name="Grupo 133727" transform="translate(15.031 15.031)">
                <path id="Trazado_196998" data-name="Trazado 196998" d="M2148.194,1123.357a4.612,4.612,0,1,1,.678.067A4.714,4.714,0,0,1,2148.194,1123.357Zm1.372-7.868a3.461,3.461,0,0,0-.494-.049,3.385,3.385,0,1,0-.168,6.767h0a3.385,3.385,0,0,0,.662-6.719Z" transform="translate(-2144.387 -1114.223)" fill="#6ec1ff"/>
              </g>
              <path id="Trazado_196999" data-name="Trazado 196999" d="M2075.324,1056.811a11.563,11.563,0,0,1-3.311-1.107l-.093-.049a.608.608,0,1,1,.566-1.076,10.288,10.288,0,0,0,2.027.8h0l.115.031a10.14,10.14,0,0,0,5.015.071,10.307,10.307,0,0,0,2.57-1l.021-.011.061-.034a10.175,10.175,0,0,0,4.836-6.169,10.539,10.539,0,0,0,.231-1.028,10.243,10.243,0,1,0-19.977.978.6.6,0,0,1,.012.264.608.608,0,0,1-1.185.057,11.459,11.459,0,1,1,22.349-1.094q-.1.577-.259,1.15A11.476,11.476,0,0,1,2075.324,1056.811Z" transform="translate(-2057.555 -1025.94)" fill="#6ec1ff"/>
            </g>
          </g>
        </g>
        <g id="Grupo_133734" data-name="Grupo 133734" transform="translate(0.246 95.632)">
          <path id="Trazado_197000" data-name="Trazado 197000" d="M602.04,1675.982a3.285,3.285,0,0,0,3.277,3.274H782.529a3.285,3.285,0,0,0,3.277-3.274l1.475-101.839a5.707,5.707,0,0,0-6.01-5.052L608.08,1564.61a8.259,8.259,0,0,0-8.474,8.446Z" transform="translate(-587.664 -1564.607)" fill="#084a93"/>
          <path id="Trazado_197001" data-name="Trazado 197001" d="M639.175,1713.967a3.11,3.11,0,0,0,3.1,3.1h169.88a3.109,3.109,0,0,0,3.1-3.1l1.392-92.45a7.63,7.63,0,0,0-8-7.445l-165.988-4.453a5.8,5.8,0,0,0-5.955,5.939Z" transform="translate(-621.564 -1605.734)" fill="#e7f3fe"/>
          <g id="Grupo_133731" data-name="Grupo 133731" transform="translate(132.038 8.679)">
            <path id="Trazado_197002" data-name="Trazado 197002" d="M2680.094,2221h-.007a.454.454,0,0,1-.448-.461l.11-7.5a.454.454,0,0,1,.454-.448h0a.455.455,0,0,1,.45.461l-.111,7.5A.454.454,0,0,1,2680.094,2221Z" transform="translate(-2620.276 -2165.364)" fill="#94b0c9"/>
            <path id="Trazado_197003" data-name="Trazado 197003" d="M2051.671,1702.459h-.007a.454.454,0,0,1-.448-.461l.421-28.716a5.393,5.393,0,0,0-1.539-4.039,7.587,7.587,0,0,0-5.021-1.714l-53.053-1.423a.453.453,0,0,1-.442-.466.434.434,0,0,1,.466-.442l53.022,1.423a8.342,8.342,0,0,1,5.658,1.965,6.273,6.273,0,0,1,1.818,4.7l-.422,28.725A.454.454,0,0,1,2051.671,1702.459Z" transform="translate(-1991.582 -1665.198)" fill="#94b0c9"/>
          </g>
          <rect id="Rectángulo_294689" data-name="Rectángulo 294689" width="208.926" height="8.948" rx="4.474" transform="translate(208.926 123.103) rotate(180)" fill="#084a93"/>
          <g id="Grupo_133732" data-name="Grupo 133732" transform="translate(31.394 10.671)">
            <rect id="Rectángulo_294690" data-name="Rectángulo 294690" width="3.758" height="54.857" transform="translate(0.26 28.871) rotate(-89.998)" fill="#94b0c9"/>
            <rect id="Rectángulo_294691" data-name="Rectángulo 294691" width="3.758" height="54.857" transform="translate(0.002 3.758) rotate(-89.998)" fill="#94b0c9"/>
            <rect id="Rectángulo_294692" data-name="Rectángulo 294692" width="3.757" height="39.556" transform="translate(15.468 10.187) rotate(-89.998)" fill="#94b0c9"/>
            <rect id="Rectángulo_294693" data-name="Rectángulo 294693" width="3.757" height="5.693" transform="translate(7.095 9.887) rotate(-89.998)" fill="#94b0c9"/>
            <rect id="Rectángulo_294694" data-name="Rectángulo 294694" width="3.757" height="39.556" transform="translate(15.428 16.468) rotate(-89.998)" fill="#94b0c9"/>
            <rect id="Rectángulo_294695" data-name="Rectángulo 294695" width="3.757" height="5.693" transform="translate(7.067 16.168) rotate(-89.998)" fill="#94b0c9"/>
            <rect id="Rectángulo_294696" data-name="Rectángulo 294696" width="3.757" height="39.556" transform="translate(15.283 22.738) rotate(-89.998)" fill="#94b0c9"/>
            <rect id="Rectángulo_294697" data-name="Rectángulo 294697" width="3.757" height="5.693" transform="translate(6.728 22.438) rotate(-89.998)" fill="#94b0c9"/>
            <rect id="Rectángulo_294698" data-name="Rectángulo 294698" width="3.758" height="54.857" transform="translate(0 55.018) rotate(-89.998)" fill="#94b0c9"/>
            <rect id="Rectángulo_294699" data-name="Rectángulo 294699" width="3.757" height="39.556" transform="translate(15.208 36.334) rotate(-89.998)" fill="#94b0c9"/>
            <rect id="Rectángulo_294700" data-name="Rectángulo 294700" width="3.757" height="5.693" transform="translate(6.835 36.034) rotate(-89.998)" fill="#94b0c9"/>
            <rect id="Rectángulo_294701" data-name="Rectángulo 294701" width="3.757" height="39.556" transform="translate(15.168 42.615) rotate(-89.998)" fill="#94b0c9"/>
            <rect id="Rectángulo_294702" data-name="Rectángulo 294702" width="3.757" height="5.693" transform="translate(6.807 42.315) rotate(-89.998)" fill="#94b0c9"/>
            <rect id="Rectángulo_294703" data-name="Rectángulo 294703" width="3.757" height="39.556" transform="translate(15.023 48.886) rotate(-89.998)" fill="#94b0c9"/>
            <rect id="Rectángulo_294704" data-name="Rectángulo 294704" width="3.757" height="5.693" transform="translate(6.468 48.586) rotate(-89.998)" fill="#94b0c9"/>
            <rect id="Rectángulo_294705" data-name="Rectángulo 294705" width="3.758" height="54.857" transform="translate(0 81.132) rotate(-89.998)" fill="#94b0c9"/>
            <rect id="Rectángulo_294706" data-name="Rectángulo 294706" width="3.757" height="39.556" transform="translate(15.208 62.448) rotate(-89.998)" fill="#94b0c9"/>
            <rect id="Rectángulo_294707" data-name="Rectángulo 294707" width="3.757" height="5.693" transform="translate(6.835 62.148) rotate(-89.998)" fill="#94b0c9"/>
            <rect id="Rectángulo_294708" data-name="Rectángulo 294708" width="3.757" height="39.556" transform="translate(15.168 68.729) rotate(-89.998)" fill="#94b0c9"/>
            <rect id="Rectángulo_294709" data-name="Rectángulo 294709" width="3.757" height="5.693" transform="translate(6.807 68.429) rotate(-89.998)" fill="#94b0c9"/>
            <rect id="Rectángulo_294710" data-name="Rectángulo 294710" width="3.757" height="39.556" transform="translate(15.023 74.999) rotate(-89.998)" fill="#94b0c9"/>
            <rect id="Rectángulo_294711" data-name="Rectángulo 294711" width="3.757" height="5.693" transform="translate(6.468 74.699) rotate(-89.998)" fill="#94b0c9"/>
            <rect id="Rectángulo_294712" data-name="Rectángulo 294712" width="3.757" height="39.556" transform="translate(15.468 87.944) rotate(-89.998)" fill="#94b0c9"/>
            <rect id="Rectángulo_294713" data-name="Rectángulo 294713" width="3.757" height="5.693" transform="translate(7.095 87.644) rotate(-89.998)" fill="#94b0c9"/>
            <rect id="Rectángulo_294714" data-name="Rectángulo 294714" width="3.757" height="39.556" transform="translate(15.155 94.225) rotate(-89.998)" fill="#94b0c9"/>
            <rect id="Rectángulo_294715" data-name="Rectángulo 294715" width="3.757" height="5.693" transform="translate(6.793 93.925) rotate(-89.998)" fill="#94b0c9"/>
          </g>
          <g id="Grupo_133733" data-name="Grupo 133733" transform="translate(96.708 12.552)">
            <rect id="Rectángulo_294716" data-name="Rectángulo 294716" width="3.809" height="39.486" transform="translate(31.491 73.813) rotate(-89.997)" fill="#94b0c9"/>
            <rect id="Rectángulo_294717" data-name="Rectángulo 294717" width="3.809" height="64.065" transform="translate(15.428 67.449) rotate(-89.997)" fill="#94b0c9"/>
            <rect id="Rectángulo_294718" data-name="Rectángulo 294718" width="3.809" height="51.353" transform="translate(35.916 61.09) rotate(-89.997)" fill="#94b0c9"/>
            <rect id="Rectángulo_294719" data-name="Rectángulo 294719" width="3.809" height="29.283" transform="translate(35.916 54.729) rotate(-89.997)" fill="#94b0c9"/>
            <rect id="Rectángulo_294720" data-name="Rectángulo 294720" width="3.809" height="51.29" transform="translate(36.597 48.357) rotate(-89.997)" fill="#94b0c9"/>
            <rect id="Rectángulo_294721" data-name="Rectángulo 294721" width="3.809" height="43.341" transform="translate(32.006 42) rotate(-89.998)" fill="#94b0c9"/>
            <rect id="Rectángulo_294722" data-name="Rectángulo 294722" width="3.809" height="46.275" transform="translate(15.429 35.626) rotate(-89.997)" fill="#94b0c9"/>
            <rect id="Rectángulo_294723" data-name="Rectángulo 294723" width="3.809" height="52.795" transform="translate(36.085 29.265) rotate(-89.997)" fill="#94b0c9"/>
            <rect id="Rectángulo_294724" data-name="Rectángulo 294724" width="3.809" height="53.45" transform="translate(36.086 22.901) rotate(-89.997)" fill="#94b0c9"/>
            <rect id="Rectángulo_294725" data-name="Rectángulo 294725" width="3.809" height="52.655" transform="translate(36.597 16.537) rotate(-89.997)" fill="#94b0c9"/>
            <rect id="Rectángulo_294726" data-name="Rectángulo 294726" width="3.809" height="43.136" transform="translate(27.065 10.173) rotate(-89.997)" fill="#94b0c9"/>
            <rect id="Rectángulo_294727" data-name="Rectángulo 294727" width="3.809" height="11.185" transform="translate(0 29.106) rotate(-89.997)" fill="#94b0c9"/>
            <rect id="Rectángulo_294728" data-name="Rectángulo 294728" width="3.809" height="11.185" transform="translate(0 35.652) rotate(-89.997)" fill="#94b0c9"/>
            <rect id="Rectángulo_294729" data-name="Rectángulo 294729" width="3.809" height="11.185" transform="translate(0 41.93) rotate(-89.997)" fill="#94b0c9"/>
            <rect id="Rectángulo_294730" data-name="Rectángulo 294730" width="3.809" height="11.185" transform="translate(0 48.317) rotate(-89.997)" fill="#94b0c9"/>
            <rect id="Rectángulo_294731" data-name="Rectángulo 294731" width="3.809" height="11.185" transform="translate(0 54.863) rotate(-89.997)" fill="#94b0c9"/>
            <rect id="Rectángulo_294732" data-name="Rectángulo 294732" width="3.809" height="11.185" transform="translate(0 61.141) rotate(-89.997)" fill="#94b0c9"/>
            <rect id="Rectángulo_294733" data-name="Rectángulo 294733" width="3.809" height="11.185" transform="translate(0.567 67.4) rotate(-89.997)" fill="#94b0c9"/>
            <rect id="Rectángulo_294734" data-name="Rectángulo 294734" width="3.809" height="11.185" transform="translate(0.567 73.946) rotate(-89.997)" fill="#94b0c9"/>
            <rect id="Rectángulo_294735" data-name="Rectángulo 294735" width="3.809" height="11.185" transform="translate(0.567 80.224) rotate(-89.997)" fill="#94b0c9"/>
            <rect id="Rectángulo_294736" data-name="Rectángulo 294736" width="3.809" height="11.185" transform="translate(0.567 86.629) rotate(-89.997)" fill="#94b0c9"/>
            <rect id="Rectángulo_294737" data-name="Rectángulo 294737" width="3.809" height="11.185" transform="translate(0.567 93.175) rotate(-89.997)" fill="#94b0c9"/>
            <rect id="Rectángulo_294738" data-name="Rectángulo 294738" width="3.809" height="11.185" transform="translate(0 22.9) rotate(-89.997)" fill="#94b0c9"/>
            <rect id="Rectángulo_294739" data-name="Rectángulo 294739" width="3.809" height="11.185" transform="translate(0 16.541) rotate(-89.997)" fill="#94b0c9"/>
            <rect id="Rectángulo_294740" data-name="Rectángulo 294740" width="3.809" height="11.185" transform="translate(0 10.173) rotate(-89.997)" fill="#94b0c9"/>
            <rect id="Rectángulo_294741" data-name="Rectángulo 294741" width="3.809" height="11.185" transform="translate(0 3.809) rotate(-89.997)" fill="#94b0c9"/>
            <path id="Trazado_197004" data-name="Trazado 197004" d="M1760.945,1710.091v3.809l53.64,0a3.835,3.835,0,0,0-3.86-3.809Z" transform="translate(-1745.513 -1710.091)" fill="#94b0c9"/>
            <rect id="Rectángulo_294742" data-name="Rectángulo 294742" width="3.809" height="54.092" transform="translate(36.427 93.424) rotate(-89.997)" fill="#94b0c9"/>
            <rect id="Rectángulo_294743" data-name="Rectángulo 294743" width="3.809" height="53.109" transform="translate(36.427 86.867) rotate(-89.997)" fill="#94b0c9"/>
            <path id="Trazado_197005" data-name="Trazado 197005" d="M2004.3,2600.2v3.809h33.775c0-2.1-1.088-3.809-2.431-3.809Z" transform="translate(-1967.87 -2523.401)" fill="#94b0c9"/>
          </g>
          <rect id="Rectángulo_294744" data-name="Rectángulo 294744" width="1.093" height="98.593" rx="0.547" transform="translate(91.062 9.942)" fill="#94b0c9"/>
        </g>
        <g id="Grupo_133736" data-name="Grupo 133736" transform="translate(79.661 59.199)">
          <path id="Trazado_197006" data-name="Trazado 197006" d="M2371.729,2275.033l67.191,71.691a7.07,7.07,0,0,1-.738,10.353l-.528.424a6.572,6.572,0,0,1-9.264-1.056l-61.247-77.5Z" transform="translate(-2282.117 -2177.306)" fill="#00defc"/>
          <ellipse id="Elipse_5215" data-name="Elipse 5215" cx="44.757" cy="45.579" rx="44.757" ry="45.579" transform="translate(0 79.858) rotate(-63.142)" fill="#fff" opacity="0.5"/>
          <path id="Trazado_197007" data-name="Trazado 197007" d="M1506.8,1291.355c-12.426,24.539-2.241,54.689,22.748,67.343s55.32,3.02,67.745-21.519,2.241-54.688-22.748-67.343S1519.223,1266.816,1506.8,1291.355Zm6.646,3.366c10.6-20.934,36.476-29.153,57.794-18.358s30.007,36.517,19.407,57.45-36.476,29.153-57.794,18.358S1502.843,1315.654,1513.444,1294.72Z" transform="translate(-1491.161 -1253.746)" fill="#00defc"/>
          <g id="Grupo_133735" data-name="Grupo 133735" transform="translate(55.803 13.828)">
            <path id="Trazado_197008" data-name="Trazado 197008" d="M2072.62,1375.777a.13.13,0,0,1-.035-.18c.66-.974,1.291-1.987,1.875-3.012a.13.13,0,1,1,.226.129c-.587,1.031-1.222,2.05-1.885,3.03a.13.13,0,0,1-.125.056A.127.127,0,0,1,2072.62,1375.777Zm6.016-12.564a.13.13,0,0,1-.087-.162,45.339,45.339,0,0,0,1.771-9.491,46.387,46.387,0,0,0-5.807-26.265,47.858,47.858,0,0,0-45.932-24.234.13.13,0,1,1-.024-.258,48.117,48.117,0,0,1,46.183,24.366,46.65,46.65,0,0,1,5.839,26.412,45.642,45.642,0,0,1-1.781,9.546.129.129,0,0,1-.141.091Z" transform="translate(-2028.439 -1302.607)" fill="#6f8497"/>
          </g>
          <path id="Trazado_197009" data-name="Trazado 197009" d="M3087.713,3037.006c2.893.375,4.9-.393,5.958-2.28a5.281,5.281,0,0,0-.778-6.1l-7.938-8.865a.13.13,0,0,0-.193.174l7.937,8.864a5.024,5.024,0,0,1,.745,5.8c-1.015,1.805-2.951,2.527-5.787,2.138h0a.13.13,0,0,0-.034.258Z" transform="translate(-2937.791 -2857.745)" fill="#6f8497"/>
          <path id="Trazado_197010" data-name="Trazado 197010" d="M3045.6,2976.152a.127.127,0,0,0,.1-.032.129.129,0,0,0,.01-.184l-1.028-1.149a.13.13,0,0,0-.194.174l1.029,1.149A.132.132,0,0,0,3045.6,2976.152Z" transform="translate(-2900.996 -2816.648)" fill="#6f8497"/>
        </g>
        <g id="Grupo_133737" data-name="Grupo 133737" transform="translate(3.947 23.069)">
          <path id="Trazado_197011" data-name="Trazado 197011" d="M586.5,750.49a.662.662,0,0,1-.642-.653c-.066-3.658-1.193-21.821-16.992-25.616C551.273,720,543.224,738.1,543.224,738.1s-21.763-8.451-25.937,14.186c-13.646,3.316-17.191,21.358-8.316,30.174a7.582,7.582,0,0,0,5.276,2.211l85.458.779a5.635,5.635,0,0,0,5.445-4.074C607.82,772.259,611.319,751.079,586.5,750.49Z" transform="translate(-504.104 -723.582)" fill="#b9ddfc"/>
          <path id="Trazado_197012" data-name="Trazado 197012" d="M610.995,773.833a.662.662,0,0,1-.642-.652c-.07-3.508-1.186-20.35-16.066-23.88-16.632-3.946-24.243,12.965-24.243,12.965s-20.578-7.892-24.525,13.247c-12.779,3.066-16.19,19.623-8.1,27.939a7.587,7.587,0,0,0,5.37,2.3l80.447.725a5.635,5.635,0,0,0,5.449-4.089C631.192,793.73,634.17,774.395,610.995,773.833Z" transform="translate(-530.555 -746.536)" fill="#f5faff"/>
        </g>
        <g id="Grupo_133747" data-name="Grupo 133747" transform="translate(0 125.929)">
          <g id="Grupo_133738" data-name="Grupo 133738" transform="translate(0 72.686)">
            <path id="Trazado_197013" data-name="Trazado 197013" d="M465.976,2820.552c-.73,1.08-3.631,25.534-4.085,34.566a1.068,1.068,0,0,0,1.069,1.12h0a1.071,1.071,0,0,0,1.058-.906l5.306-34Z" transform="translate(-461.585 -2815.174)" fill="#94b0c9"/>
            <path id="Trazado_197014" data-name="Trazado 197014" d="M744.131,2820.552c.73,1.08,3.631,25.534,4.085,34.566a1.068,1.068,0,0,1-1.069,1.12h0a1.071,1.071,0,0,1-1.057-.906l-5.306-34Z" transform="translate(-716.416 -2815.174)" fill="#94b0c9"/>
            <path id="Trazado_197015" data-name="Trazado 197015" d="M458.362,2761.694l0,.266a3.635,3.635,0,0,0,3.7,3.528l24.526.417a3.667,3.667,0,0,0,3.839-3.329l.013-.243a3.622,3.622,0,0,0-3.7-3.668l-24.537-.44A3.653,3.653,0,0,0,458.362,2761.694Z" transform="translate(-458.359 -2758.224)" fill="#94b0c9"/>
          </g>
          <g id="Grupo_133742" data-name="Grupo 133742" transform="translate(3.332 0)">
            <g id="Grupo_133739" data-name="Grupo 133739" transform="translate(37.188 107.287)">
              <path id="Trazado_197016" data-name="Trazado 197016" d="M935.672,3203.322c-4.36,0-6.289-.374-7.151-.714a1.654,1.654,0,0,0,1.611,1.281h15.424a.75.75,0,0,0,.723-.947C944.521,3203.083,940.787,3203.322,935.672,3203.322Z" transform="translate(-928.477 -3198.868)" fill="#e7f3fe"/>
              <path id="Trazado_197017" data-name="Trazado 197017" d="M945.812,3163.334a.731.731,0,0,0-.126-.262c-1.175-1.5-3.535-3.855-6.746-3.81-4.7.065-6.343.576-10,.028l-.862,2.858a1.64,1.64,0,0,0-.026.853c.862.341,2.791.715,7.151.715C940.32,3163.716,944.054,3163.476,945.812,3163.334Z" transform="translate(-928.01 -3159.261)" fill="#084a93"/>
            </g>
            <path id="Trazado_197018" data-name="Trazado 197018" d="M939.876,3123.9l-1.058,3.6a6.226,6.226,0,0,0,4.407.21l.4-3.119Z" transform="translate(-900.697 -3019.668)" fill="#fff4da"/>
            <g id="Grupo_133740" data-name="Grupo 133740" transform="translate(63.506 102.083)">
              <path id="Trazado_197019" data-name="Trazado 197019" d="M1257.844,3111.132c-3.4,2.73-5.136,3.649-6.021,3.925a1.652,1.652,0,0,0,2.055-.015l12.023-9.661a.748.748,0,0,0-.027-1.188C1264.593,3105.4,1261.831,3107.928,1257.844,3111.132Z" transform="translate(-1250.203 -3103.74)" fill="#e7f3fe"/>
              <path id="Trazado_197020" data-name="Trazado 197020" d="M1248.713,3099.4a.724.724,0,0,0-.262-.124c-1.851-.428-5.159-.777-7.634,1.268-3.625,3-4.585,4.421-7.776,6.285l1.11,2.758a1.624,1.624,0,0,0,.511.677c.885-.276,2.622-1.194,6.021-3.925C1244.669,3103.14,1247.43,3100.616,1248.713,3099.4Z" transform="translate(-1233.041 -3098.953)" fill="#084a93"/>
            </g>
            <path id="Trazado_197021" data-name="Trazado 197021" d="M635.449,2648.568s26.1,2.131,31.457,4.652-4.37,37.85-4.37,37.85-1.458.7-4.7-.307c0,0,3.326-26.072.851-31.726l-28.263-4.623Z" transform="translate(-618.911 -2585.343)" fill="#084a93"/>
            <path id="Trazado_197022" data-name="Trazado 197022" d="M1202.981,3116.465c.242.221,2.594,4.962,2.594,4.962s2.618-.566,3.151-2.223l-2.355-4.28Z" transform="translate(-1142.068 -3011.462)" fill="#fff4da"/>
            <path id="Trazado_197023" data-name="Trazado 197023" d="M497.8,2646.038a13.22,13.22,0,0,0-.816,4.767,7.157,7.157,0,0,0,6.829,7l30.858,1.407a1.48,1.48,0,0,1,1.366,1.112c.725,2.805,4.27,11.418,21.595,28.6a1.4,1.4,0,0,0,1.728.189l2.466-1.558a.568.568,0,0,0,.187-.767l-17.967-30.681a6.951,6.951,0,0,0-4.225-3.133l-26.3-6.723Z" transform="translate(-496.982 -2583.031)" fill="#084a93"/>
            <path id="Trazado_197024" data-name="Trazado 197024" d="M788.214,2090.55s-3.306,5.845-6.676,8.676l6.966,3.887s1.57-6.187,5.156-8Z" transform="translate(-756.987 -2075.469)" fill="#edc9ae"/>
            <path id="Trazado_197025" data-name="Trazado 197025" d="M499.954,2220.205s8.331,2.03,16.282,0c0,0,11.126-14.957,15.431-19.028,0,0,6.866,10.835,22.149,12.371l.852-1.905s-12.167-5.609-15.912-14.227-5.25-12.293-8.658-14.541c-2.122-1.4-3.393-2.357-4.049-2.879a1.091,1.091,0,0,0-1.248-.08C521.184,2182.12,504.168,2193.774,499.954,2220.205Z" transform="translate(-499.698 -2156.98)" fill="#ffe4a9"/>
            <path id="Trazado_197026" data-name="Trazado 197026" d="M814.562,2334.8a33.032,33.032,0,0,0,4.117,7.3Z" transform="translate(-787.162 -2298.646)" fill="url(#linear-gradient)"/>
            <path id="Trazado_197027" data-name="Trazado 197027" d="M1113.581,2519.471l1.721-.458,5.223-1.209a2.418,2.418,0,0,1,1.836.31l4.491,2.825-12.4-.021Z" transform="translate(-1060.381 -2465.803)" fill="#edc9ae"/>
            <g id="Grupo_133741" data-name="Grupo 133741" transform="translate(22.632)">
              <path id="Trazado_197028" data-name="Trazado 197028" d="M820.691,1988.97s3.213,5.341,3.77,8.292,1.452,4.8-1.907,5.848a7.372,7.372,0,0,1-8.44-3.034s-3.06-4.24-2.755-6.182S820.691,1988.97,820.691,1988.97Z" transform="translate(-806.848 -1982.654)" fill="#edc9ae"/>
              <path id="Trazado_197029" data-name="Trazado 197029" d="M767.459,1930.9l.435-.057s-2.275-3.437-.786-4.29,7.554-2.945,8.607-5.334a4.148,4.148,0,0,0-2.335-5.448.234.234,0,0,0-.28.147l-.108.29a.235.235,0,0,1-.437.012h0a.235.235,0,0,0-.427-.009c-.325.716-1.3,1.938-4.214,2.884-4.139,1.342-6.717,3.428-6.4,6.369a.236.236,0,0,1-.336.239c-.338-.15-.851-.173-1.447.479-1.036,1.133-.224,3.61,2.6,5.364a.234.234,0,0,1,.038.376c-.423.362-1.018,1.17.9,1.89a4.808,4.808,0,0,0,3.421.329.235.235,0,0,0,.145-.265l-.5-2.578a.236.236,0,0,1,.2-.278Z" transform="translate(-759.299 -1915.765)" fill="#084a93"/>
              <path id="Trazado_197030" data-name="Trazado 197030" d="M820.738,2070.577s-1.418-3.494-2.906-2.266,1.376,3.943,2.7,3.907Z" transform="translate(-812.399 -2054.91)" fill="#edc9ae"/>
            </g>
          </g>
          <g id="Grupo_133745" data-name="Grupo 133745" transform="translate(50.614 30.988)">
            <g id="Grupo_133743" data-name="Grupo 133743" transform="translate(0 24.187)">
              <path id="Trazado_197031" data-name="Trazado 197031" d="M1046.118,2557.659h.061l26.494-.026a1.184,1.184,0,1,0,0-2.367l-26.494.026a1.184,1.184,0,0,0-.058,2.366Z" transform="translate(-1044.992 -2555.266)" fill="#084a93"/>
            </g>
            <g id="Grupo_133744" data-name="Grupo 133744" transform="translate(26.657)">
              <path id="Trazado_197032" data-name="Trazado 197032" d="M1365.24,2275.565c-.009.018-.018.036-.027.055l-11.147,24.034a1.184,1.184,0,1,0,2.148,1l11.147-24.035a1.184,1.184,0,0,0-2.121-1.05Z" transform="translate(-1353.954 -2274.932)" fill="#084a93"/>
            </g>
          </g>
          <g id="Grupo_133746" data-name="Grupo 133746" transform="translate(44.592 56.875)">
            <path id="Trazado_197033" data-name="Trazado 197033" d="M1046.1,2606.076c-.115.48-11.171,41.941-13.973,52.452a1.9,1.9,0,0,0,1.819,2.4h0a1.887,1.887,0,0,0,1.827-1.444l12.272-49.756Z" transform="translate(-1027.15 -2603.392)" fill="#6f8497"/>
            <path id="Trazado_197034" data-name="Trazado 197034" d="M1244.351,2606.076c.116.48,11.171,41.941,13.973,52.452a1.9,1.9,0,0,1-1.819,2.4h0a1.887,1.887,0,0,1-1.827-1.444l-12.272-49.756Z" transform="translate(-1219.352 -2603.392)" fill="#6f8497"/>
            <path id="Trazado_197035" data-name="Trazado 197035" d="M1197.367,2590.364h-6.885v5.529a1.43,1.43,0,0,0,1.422,1.439h.944v12.419a1.083,1.083,0,0,0,1.077,1.089h0a1.083,1.083,0,0,0,1.076-1.089v-12.419h.479a1.9,1.9,0,0,0,1.887-1.91Z" transform="translate(-1171.907 -2589.036)" fill="#6f8497"/>
            <path id="Trazado_197036" data-name="Trazado 197036" d="M976.84,2574.969h38.444a1.18,1.18,0,0,1,1.141.894l.537,2.1a1.19,1.19,0,0,1-1.148,1.491l-39.448-.23a1.189,1.189,0,0,1-1.136-1.483l.467-1.876A1.181,1.181,0,0,1,976.84,2574.969Z" transform="translate(-975.195 -2574.969)" fill="#6f8497"/>
          </g>
        </g>
      </g>
    </g>
  </g>
</svg>
