<svg xmlns="http://www.w3.org/2000/svg" xmlns:xlink="http://www.w3.org/1999/xlink" width="400" height="224" viewBox="0 0 400 224">
  <defs>
    <clipPath id="clip-path">
      <rect id="Rectángulo_294869" data-name="Rectángulo 294869" width="400" height="224" transform="translate(180 7786)" fill="#fff" stroke="#707070" stroke-width="1"/>
    </clipPath>
  </defs>
  <g id="Grupo_146549" data-name="Grupo 146549" transform="translate(-180 -7786)">
    <g id="Enmascarar_grupo_131" data-name="Enmascarar grupo 131" clip-path="url(#clip-path)">
      <g id="Secure_Server-rafiki_1_" data-name="Secure Server-rafiki (1)" transform="translate(78.161 7769.343)">
        <g id="freepik--background-complete--inject-62" transform="translate(0 0)">
          <rect id="Rectángulo_294801" data-name="Rectángulo 294801" width="557.839" height="0.279" transform="translate(0 365.273)" fill="#ebebeb"/>
          <rect id="Rectángulo_294802" data-name="Rectángulo 294802" width="21.075" height="0.279" transform="translate(71.772 383.224)" fill="#ebebeb"/>
          <rect id="Rectángulo_294803" data-name="Rectángulo 294803" width="32.879" height="0.279" transform="translate(198.011 381.283)" fill="#ebebeb"/>
          <rect id="Rectángulo_294804" data-name="Rectángulo 294804" width="52.56" height="0.279" transform="translate(93.962 372.871)" fill="#ebebeb"/>
          <rect id="Rectángulo_294805" data-name="Rectángulo 294805" width="12.239" height="0.279" transform="translate(487.072 374.745)" fill="#ebebeb"/>
          <rect id="Rectángulo_294806" data-name="Rectángulo 294806" width="43.021" height="0.279" transform="translate(434.122 374.745)" fill="#ebebeb"/>
          <rect id="Rectángulo_294807" data-name="Rectángulo 294807" width="60.414" height="0.279" transform="translate(306.644 379.453)" fill="#ebebeb"/>
          <path id="Trazado_197778" data-name="Trazado 197778" d="M44.581,370.514H260.007a6.371,6.371,0,0,0,6.359-6.371V61.315A6.371,6.371,0,0,0,260.007,55H44.581a6.371,6.371,0,0,0-6.371,6.371V364.143A6.371,6.371,0,0,0,44.581,370.514ZM260.007,55.223a6.092,6.092,0,0,1,6.08,6.092V364.143a6.092,6.092,0,0,1-6.08,6.092H44.581a6.1,6.1,0,0,1-6.092-6.092V61.315a6.1,6.1,0,0,1,6.092-6.092Z" transform="translate(248.843 -55)" fill="#ebebeb"/>
          <path id="Trazado_197779" data-name="Trazado 197779" d="M260.848,370.514H476.286a6.382,6.382,0,0,0,6.371-6.371V61.315A6.382,6.382,0,0,0,476.286,55H260.848a6.371,6.371,0,0,0-6.348,6.315V364.143A6.371,6.371,0,0,0,260.848,370.514ZM476.286,55.223a6.1,6.1,0,0,1,6.092,6.092V364.143a6.1,6.1,0,0,1-6.092,6.092H260.848a6.1,6.1,0,0,1-6.092-6.092V61.315a6.1,6.1,0,0,1,6.092-6.092Z" transform="translate(-208.757 -55)" fill="#ebebeb"/>
          <rect id="Rectángulo_294808" data-name="Rectángulo 294808" width="83.218" height="207.962" transform="translate(404.556 28.171)" fill="#e6e6e6"/>
          <rect id="Rectángulo_294809" data-name="Rectángulo 294809" width="93.137" height="207.962" transform="translate(406.687 28.171)" fill="#f5f5f5"/>
          <rect id="Rectángulo_294810" data-name="Rectángulo 294810" width="188.75" height="73.925" transform="translate(490.218 37.766) rotate(90)" fill="#fff"/>
          <rect id="Rectángulo_294811" data-name="Rectángulo 294811" width="83.218" height="207.962" transform="translate(302.427 28.171)" fill="#e6e6e6"/>
          <rect id="Rectángulo_294812" data-name="Rectángulo 294812" width="93.137" height="207.962" transform="translate(304.558 28.171)" fill="#f5f5f5"/>
          <rect id="Rectángulo_294813" data-name="Rectángulo 294813" width="188.75" height="73.925" transform="translate(388.089 37.766) rotate(90)" fill="#fff"/>
          <rect id="Rectángulo_294814" data-name="Rectángulo 294814" width="68.213" height="81.735" transform="translate(245.36 283.539)" fill="#e0e0e0"/>
          <path id="Trazado_197780" data-name="Trazado 197780" d="M205.18,310.761h68.213l15.352-15.631H220.532Z" transform="translate(40.18 -27.222)" fill="#e0e0e0"/>
          <path id="Trazado_197781" data-name="Trazado 197781" d="M110.48,295.13h68.2l12.886,15.631H123.355Z" transform="translate(243.012 -27.222)" fill="#f5f5f5"/>
          <rect id="Rectángulo_294815" data-name="Rectángulo 294815" width="121.006" height="81.735" transform="translate(313.561 283.539)" fill="#f5f5f5"/>
          <rect id="Rectángulo_294816" data-name="Rectángulo 294816" width="8.769" height="38.078" transform="translate(313.561 305.361)" fill="#f0f0f0"/>
          <rect id="Rectángulo_294817" data-name="Rectángulo 294817" width="33.124" height="33.124" transform="translate(360.297 330.698) rotate(-90)" fill="#f0f0f0"/>
          <rect id="Rectángulo_294818" data-name="Rectángulo 294818" width="33.124" height="33.124" transform="translate(401.309 330.698) rotate(-90)" fill="#f0f0f0"/>
          <rect id="Rectángulo_294819" data-name="Rectángulo 294819" width="2.7" height="33.124" transform="translate(360.297 335.451) rotate(-90)" fill="#f0f0f0"/>
          <rect id="Rectángulo_294820" data-name="Rectángulo 294820" width="2.7" height="33.124" transform="translate(401.309 335.451) rotate(-90)" fill="#f0f0f0"/>
          <rect id="Rectángulo_294821" data-name="Rectángulo 294821" width="2.7" height="33.124" transform="translate(360.308 343.361) rotate(-90)" fill="#f0f0f0"/>
          <rect id="Rectángulo_294822" data-name="Rectángulo 294822" width="2.7" height="33.124" transform="translate(401.309 343.361) rotate(-90)" fill="#f0f0f0"/>
          <rect id="Rectángulo_294823" data-name="Rectángulo 294823" width="2.7" height="33.124" transform="translate(360.297 351.26) rotate(-90)" fill="#f0f0f0"/>
          <rect id="Rectángulo_294824" data-name="Rectángulo 294824" width="2.7" height="33.124" transform="translate(401.309 351.271) rotate(-90)" fill="#f0f0f0"/>
          <rect id="Rectángulo_294825" data-name="Rectángulo 294825" width="19.647" height="38.078" transform="translate(293.925 305.372)" fill="#e6e6e6"/>
          <rect id="Rectángulo_294826" data-name="Rectángulo 294826" width="32.756" height="183.786" transform="translate(186.776 181.487)" fill="#e6e6e6"/>
          <path id="Trazado_197782" data-name="Trazado 197782" d="M312.391,385.693h8.747V353.93H303.22Z" transform="translate(-101.595 -20.42)" fill="#f5f5f5"/>
          <rect id="Rectángulo_294827" data-name="Rectángulo 294827" width="32.756" height="183.786" transform="translate(92.858 181.487)" fill="#e6e6e6"/>
          <rect id="Rectángulo_294828" data-name="Rectángulo 294828" width="101.571" height="172.852" transform="translate(117.972 181.487)" fill="#f5f5f5"/>
          <path id="Trazado_197783" data-name="Trazado 197783" d="M386.947,385.693H378.2V353.93h17.918Z" transform="translate(-260.228 -20.42)" fill="#f5f5f5"/>
          <rect id="Rectángulo_294829" data-name="Rectángulo 294829" width="87.994" height="75.476" transform="translate(124.755 271.69)" fill="#f0f0f0"/>
          <rect id="Rectángulo_294830" data-name="Rectángulo 294830" width="60.068" height="75.476" transform="translate(124.766 271.69)" fill="#e6e6e6"/>
          <rect id="Rectángulo_294831" data-name="Rectángulo 294831" width="87.994" height="75.476" transform="translate(124.755 189.498)" fill="#f0f0f0"/>
          <rect id="Rectángulo_294832" data-name="Rectángulo 294832" width="60.068" height="75.476" transform="translate(124.766 189.498)" fill="#e6e6e6"/>
          <path id="Trazado_197784" data-name="Trazado 197784" d="M320.06,276.62c0,9.74,8.289,17.717,18.42,17.717h9.137c10.13,0,18.409-7.977,18.409-17.717Z" transform="translate(-165.271 -29.363)" fill="#fff"/>
          <path id="Trazado_197785" data-name="Trazado 197785" d="M320.06,265.51c0,9.74,8.289,17.717,18.42,17.717h9.137c10.13,0,18.409-7.977,18.409-17.717Z" transform="translate(-165.271 -30.648)" fill="#fff"/>
          <path id="Trazado_197786" data-name="Trazado 197786" d="M380.324,320.33H353.235s4.708,11.413,4.708,18.119-20.607,33.024,8.836,33.024,8.847-26.308,8.847-33.024S380.324,320.33,380.324,320.33Z" transform="translate(-216.319 -24.307)" fill="#f5f5f5"/>
          <path id="Trazado_197787" data-name="Trazado 197787" d="M320.06,254.39c0,9.751,8.289,17.728,18.42,17.728h9.137c10.13,0,18.409-7.977,18.409-17.728Z" transform="translate(-165.271 -31.935)" fill="#fff"/>
          <path id="Trazado_197788" data-name="Trazado 197788" d="M356.722,216.077c1.026-29.075,2.131-82.382-.123-96.952l-3.671-2.845s.8,26.7,1.227,71.225.948,21.957.491,28.573Z" transform="translate(-193.833 -47.911)" fill="#e6e6e6"/>
          <path id="Trazado_197789" data-name="Trazado 197789" d="M316.011,137.549c8.513-6.147,26.442-10.521,45.006-10.5,7.3,0-21.7,7.152-33.47,15.028-9.126,6.125-19.178,16.423-22.459,22.135C306.7,152.186,307.487,143.729,316.011,137.549Z" transform="translate(-144.721 -46.665)" fill="#e6e6e6"/>
          <path id="Trazado_197790" data-name="Trazado 197790" d="M399.657,152.041c-7.81-6.393-25.248-11.324-43.779-11.871-7.285-.223,20.874,7.81,31.73,16.043,8.423,6.393,17.338,16.981,19.971,22.782C407.333,166.947,407.489,158.445,399.657,152.041Z" transform="translate(-245.459 -45.148)" fill="#e6e6e6"/>
          <path id="Trazado_197791" data-name="Trazado 197791" d="M356.792,220.008h0a13.511,13.511,0,0,0,13.488-12.741l1.194-9.807H342.11l1.194,9.807a13.511,13.511,0,0,0,13.489,12.741Z" transform="translate(-195.32 -38.52)" fill="#f0f0f0"/>
          <path id="Trazado_197792" data-name="Trazado 197792" d="M340.519,202.562h33.158l.948-8.6H339.56Z" transform="translate(-195.626 -38.925)" fill="#f0f0f0"/>
        </g>
        <g id="freepik--Shadow--inject-62" transform="translate(62.601 390.398)">
          <ellipse id="freepik--path--inject-62" cx="216.319" cy="12.629" rx="216.319" ry="12.629" transform="translate(0)" fill="#f5f5f5"/>
        </g>
        <g id="freepik--Character--inject-62" transform="translate(158.326 51.656)">
          <path id="Trazado_197793" data-name="Trazado 197793" d="M342.24,399.772l8.022,1.7,5.433-18.253-8.022-1.7Z" transform="translate(-338.012 -68.885)" fill="#7f3e3b"/>
          <path id="Trazado_197794" data-name="Trazado 197794" d="M346.3,398.812l-8.758-1.841a.736.736,0,0,0-.8.4l-3.079,6.794a1.194,1.194,0,0,0,.848,1.674c3.18.614,7.81,1.383,11.748,2.231,4.641.982,5.288,1.975,10.811,2.678,3.347.424,4.686-2.834,3.347-3.347-6.192-2.231-7.587-3.09-12.272-7.575a3.76,3.76,0,0,0-1.841-1.015Z" transform="translate(-333.55 -67.099)" fill="#263238"/>
          <path id="Trazado_197795" data-name="Trazado 197795" d="M353.062,383.215l-2.8,9.416-8.022-1.7,2.8-9.405Z" transform="translate(-335.379 -68.883)" opacity="0.2"/>
          <path id="Trazado_197796" data-name="Trazado 197796" d="M266.71,164.254c1.64,5.433,3.436,10.722,5.389,16.032s4.05,10.543,6.527,15.843l.971,2,1.06,2.042c.357.681.781,1.316,1.171,1.986s.781,1.305,1.227,1.93a60.746,60.746,0,0,0,5.578,7.14,62.314,62.314,0,0,0,6.415,6.2c1.116.959,2.3,1.863,3.514,2.722s2.388,1.662,3.816,2.488l3.95-5.255c-.77-.893-1.707-1.93-2.533-2.934s-1.64-2.075-2.454-3.113c-1.6-2.1-3.1-4.251-4.463-6.426a72.7,72.7,0,0,1-3.8-6.694c-.58-1.116-1.116-2.231-1.607-3.425l-.736-1.729-.714-1.819c-1.885-4.942-3.648-10.153-5.378-15.363l-5.221-15.619Z" transform="translate(-204.377 -94.48)" fill="#803e3c"/>
          <path id="Trazado_197797" data-name="Trazado 197797" d="M281.784,156.53c-2.823,7.509,12.183,34.218,12.183,34.218l16.869-13.009a129.638,129.638,0,0,0-10.476-20.35C294.424,148.542,284.885,148.3,281.784,156.53Z" transform="translate(-225.308 -95.603)" fill="#ffb30b"/>
          <path id="Trazado_197798" data-name="Trazado 197798" d="M294.01,162.59c5.333,2.231,12.574,10.844,14.839,22.2l-5.958,4.6s-8.925-15.8-11.681-26.508A2.577,2.577,0,0,1,294.01,162.59Z" transform="translate(-234.233 -94.243)" opacity="0.2"/>
          <path id="Trazado_197799" data-name="Trazado 197799" d="M341.456,151.04s9.9,18.721.491,65.892H297.086c-.3-6.895,4.028-33.883-2.622-66.327a117.689,117.689,0,0,1,15.017-1.9,164.588,164.588,0,0,1,19.067,0,83.416,83.416,0,0,1,12.908,2.332Z" transform="translate(-275.018 -95.848)" fill="#ffb30b"/>
          <path id="Trazado_197800" data-name="Trazado 197800" d="M265.134,217.184l-4.563,4.128-6.761-1.8,4.585-8.156Z" transform="translate(-148.792 -88.568)" fill="#7f3e3b"/>
          <path id="Trazado_197801" data-name="Trazado 197801" d="M262.595,211.829l9.9-.469-4.585,8.156s-7.352.781-8.055-4.652Z" transform="translate(-162.887 -88.568)" fill="#7f3e3b"/>
          <path id="Trazado_197802" data-name="Trazado 197802" d="M311.065,129.43c1.194,6.136,2.4,17.382-1.9,21.477,0,0,1.93,4.117,13.332,4.117,10.42,0,5.735-4.117,5.735-4.117-6.839-1.629-6.694-6.694-5.467-11.48Z" transform="translate(-274.705 -98.046)" fill="#7f3e3b"/>
          <path id="Trazado_197803" data-name="Trazado 197803" d="M315.755,133.09,322.683,139a20.082,20.082,0,0,0-.58,3.347c-1.673,2.6-6.237-1.216-7.073-5.21A9.293,9.293,0,0,1,315.755,133.09Z" transform="translate(-274.631 -97.623)" opacity="0.2"/>
          <path id="Trazado_197804" data-name="Trazado 197804" d="M310.663,117.516c2.287,3.849-2.745,14.5-8.568,13.533S306.312,110.231,310.663,117.516Z" transform="translate(-246.78 -99.61)" fill="#263238"/>
          <path id="Trazado_197805" data-name="Trazado 197805" d="M303.695,121.81c-1.216,8.234-2.343,12.987.881,18.029,4.842,7.575,15.619,5.969,19.324-1.729,3.291-6.94,4.73-19.234-2.544-24.154a11.358,11.358,0,0,0-17.661,7.854Z" transform="translate(-264.546 -100.065)" fill="#7f3e3b"/>
          <path id="Trazado_197806" data-name="Trazado 197806" d="M322.254,111.06l7.107,5.177c-4.284,5.1.58,16.244-6.17,13.712C320.1,128.844,312.123,116.683,322.254,111.06Z" transform="translate(-283.83 -100.171)" fill="#263238"/>
          <path id="Trazado_197807" data-name="Trazado 197807" d="M308.88,105.841c10.789,2.611,11.748-.5,11.023-4.541,8.066,1.328,14.1,7.687,9.416,15.374-5.2,8.535-21.064,1.607-23.864,1.551l-4.028-.982C292.279,114.577,295.4,102.594,308.88,105.841Z" transform="translate(-261.922 -101.3)" fill="#263238"/>
          <path id="Trazado_197808" data-name="Trazado 197808" d="M317.088,124.687h8.423a.179.179,0,0,0,.179-.179.167.167,0,0,0-.179-.179h-8.423a.179.179,0,1,0,0,.357Z" transform="translate(-279.747 -98.636)" fill="#fff"/>
          <path id="Trazado_197809" data-name="Trazado 197809" d="M321.127,128.636a7.944,7.944,0,0,0,4.095,4.463c2.533,1.116,4.217-1.015,3.86-3.626-.312-2.343-2.008-5.768-4.719-5.813a3.548,3.548,0,0,0-3.235,4.976Z" transform="translate(-287.557 -98.713)" fill="#7f3e3b"/>
          <path id="Trazado_197810" data-name="Trazado 197810" d="M306.19,409.109h8.189l.279-18.989h-8.2Z" transform="translate(-256.755 -67.89)" fill="#7f3e3b"/>
          <path id="Trazado_197811" data-name="Trazado 197811" d="M299.642,406.29h-8.925a.692.692,0,0,0-.692.558l-1.618,7.285a1.183,1.183,0,0,0,1.171,1.45c3.235-.056,7.9-.246,11.96-.246,4.742,0,8.836.268,14.4.268,3.347,0,4.3-3.4,2.89-3.715-6.415-1.406-11.648-1.551-17.181-4.965A3.738,3.738,0,0,0,299.642,406.29Z" transform="translate(-241.683 -66.019)" fill="#263238"/>
          <path id="Trazado_197812" data-name="Trazado 197812" d="M314.535,390.13l-.145,9.784h-8.2l.145-9.784Z" transform="translate(-256.632 -67.889)" opacity="0.2"/>
          <path id="Trazado_197813" data-name="Trazado 197813" d="M303.346,407.609a2.533,2.533,0,0,0,1.662-.167,1.216,1.216,0,0,0,.569-.971.636.636,0,0,0-.257-.614c-.826-.614-3.771.6-4.106.747a.2.2,0,0,0-.112.19.19.19,0,0,0,.123.178A10.18,10.18,0,0,0,303.346,407.609Zm1.495-1.517a.458.458,0,0,1,.245.089.212.212,0,0,1,.089.245.759.759,0,0,1-.379.669,4.017,4.017,0,0,1-2.957-.312,8.01,8.01,0,0,1,3-.692Z" transform="translate(-242.006 -66.089)" fill="#084a93"/>
          <path id="Trazado_197814" data-name="Trazado 197814" d="M302.54,407.212h.089c.937-.324,2.878-1.886,2.845-2.834a.636.636,0,0,0-.536-.614,1.116,1.116,0,0,0-.881.123c-1.116.636-1.662,2.99-1.685,3.09a.223.223,0,0,0,.067.2A.211.211,0,0,0,302.54,407.212Zm2.231-3.09h.089c.245.078.257.2.257.245,0,.569-1.261,1.774-2.231,2.231a4.73,4.73,0,0,1,1.383-2.432A.647.647,0,0,1,304.772,404.121Z" transform="translate(-243.309 -66.316)" fill="#084a93"/>
          <path id="Trazado_197815" data-name="Trazado 197815" d="M321.117,209.83s6.025,76.881,7.151,102.453c1.183,26.587-13.656,106.135-13.656,106.135H301.28s4.4-73.78,2.1-99.809c-2.5-28.383-11.748-108.779-11.748-108.779Z" transform="translate(-254.188 -88.745)" fill="#263238"/>
          <path id="Trazado_197816" data-name="Trazado 197816" d="M323.19,267.741a166.788,166.788,0,0,1-6.025,30.6c-2.053-20.183-5.065-47.3-7.252-66.684C315.045,235.018,325.22,244.736,323.19,267.741Z" transform="translate(-269.704 -86.22)" opacity="0.2"/>
          <path id="Trazado_197817" data-name="Trazado 197817" d="M358.468,209.83s-3.425,76.625-8.658,100.634c-5.712,26.3-22.782,100.7-22.782,100.7L312,408s10.13-70.544,13.388-96.573c3.537-28.26,4.128-101.594,4.128-101.594Z" transform="translate(-307.047 -88.745)" fill="#263238"/>
          <path id="Trazado_197818" data-name="Trazado 197818" d="M337.65,388.253l16.189,3.4,2.7-5.813-17.817-4.273Z" transform="translate(-333.734 -68.879)" fill="#084a93"/>
          <path id="Trazado_197819" data-name="Trazado 197819" d="M302.339,397.738h16.546l1.45-6.248-18.275.324Z" transform="translate(-257.824 -67.731)" fill="#084a93"/>
          <path id="Trazado_197820" data-name="Trazado 197820" d="M311.459,125.168c-.145.658.089,1.272.524,1.361s.9-.368,1.038-1.026-.1-1.272-.524-1.361S311.593,124.509,311.459,125.168Z" transform="translate(-260.986 -98.659)" fill="#263238"/>
          <path id="Trazado_197821" data-name="Trazado 197821" d="M304.74,126.589c-.134.658.1,1.272.536,1.361s.893-.368,1.038-1.026-.1-1.283-.536-1.372S304.907,125.93,304.74,126.589Z" transform="translate(-246.792 -98.496)" fill="#263238"/>
          <path id="Trazado_197822" data-name="Trazado 197822" d="M307.458,126.42a23.93,23.93,0,0,0,1.964,6.326,3.894,3.894,0,0,1-3.291-.078Z" transform="translate(-251.451 -98.394)" fill="#630f0f"/>
          <path id="Trazado_197823" data-name="Trazado 197823" d="M314.53,134.713a.2.2,0,1,0,.067-.39,5.366,5.366,0,0,1-3.961-2.789.2.2,0,1,0-.357.156,5.645,5.645,0,0,0,4.251,3.023Z" transform="translate(-261.435 -97.817)" fill="#263238"/>
          <path id="Trazado_197824" data-name="Trazado 197824" d="M312.976,120.006a.391.391,0,0,0,.346-.067,3.169,3.169,0,0,1,2.823-.513.4.4,0,0,0,.29-.748,3.961,3.961,0,0,0-3.581.625.39.39,0,0,0-.089.547.48.48,0,0,0,.212.156Z" transform="translate(-266.018 -99.311)" fill="#263238"/>
          <path id="Trazado_197825" data-name="Trazado 197825" d="M304.941,122.257a.335.335,0,0,0,.167-.056.4.4,0,0,0,.112-.547,3.9,3.9,0,0,0-3.1-1.874.4.4,0,0,0,0,.792h0a3.146,3.146,0,0,1,2.443,1.506A.379.379,0,0,0,304.941,122.257Z" transform="translate(-242.464 -99.162)" fill="#263238"/>
          <path id="Trazado_197826" data-name="Trazado 197826" d="M329.627,149.02l2.12-.19a.435.435,0,0,1,.446.346c5.891,31.641,2.588,65.245,2.588,65.245h-2.343a301.39,301.39,0,0,0-3.18-64.933.4.4,0,0,1,.368-.469Z" transform="translate(-303.532 -95.802)" fill="#263238"/>
          <path id="Trazado_197827" data-name="Trazado 197827" d="M329.68,207.719a.759.759,0,0,1,.748-.759h1.618a.77.77,0,0,1,.759.759.736.736,0,0,1-.58.714v2.008a.993.993,0,0,1-1.975,0v-2.008A.736.736,0,0,1,329.68,207.719Z" transform="translate(-301.108 -89.077)" fill="#fff"/>
          <path id="Trazado_197828" data-name="Trazado 197828" d="M299.489,149.4l2.1.39a.413.413,0,0,1,.335.357c4.463,31.663-.424,64.23-.424,64.23h-2.332c3.481-34.463.39-60.425-.156-64.52a.413.413,0,0,1,.48-.457Z" transform="translate(-237.881 -95.736)" fill="#263238"/>
          <path id="Trazado_197829" data-name="Trazado 197829" d="M300.669,207.719a.814.814,0,0,1,.792-.759h1.618a.714.714,0,0,1,.714.759.77.77,0,0,1-.6.714l-.1,2.008a1.038,1.038,0,0,1-1.026.982.937.937,0,0,1-.948-.982l.1-2.008A.7.7,0,0,1,300.669,207.719Z" transform="translate(-239.731 -89.077)" fill="#fff"/>
          <path id="Trazado_197830" data-name="Trazado 197830" d="M343.747,400.526a2.622,2.622,0,0,0,1.662.178,1.194,1.194,0,0,0,.759-.837.647.647,0,0,0-.112-.647c-.692-.77-3.816-.19-4.173-.112a.178.178,0,0,0-.156.156.19.19,0,0,0,.078.2A10.831,10.831,0,0,0,343.747,400.526Zm1.785-1.171a.48.48,0,0,1,.223.134.251.251,0,0,1,0,.257.77.77,0,0,1-.5.58,4.061,4.061,0,0,1-2.845-.915A7.81,7.81,0,0,1,345.532,399.355Z" transform="translate(-327.949 -66.883)" fill="#084a93"/>
          <path id="Trazado_197831" data-name="Trazado 197831" d="M342.7,399.739h.1c.971-.134,3.2-1.25,3.347-2.231a.658.658,0,0,0-.413-.714,1.116,1.116,0,0,0-.881-.067c-1.194.4-2.231,2.588-2.287,2.678a.212.212,0,0,0,0,.212Zm2.789-2.577h.089c.223.123.2.245.2.29-.1.558-1.6,1.473-2.633,1.785.335-.636,1.116-1.852,1.863-2.109a.7.7,0,0,1,.48.033Z" transform="translate(-328.794 -67.133)" fill="#084a93"/>
          <path id="Trazado_197832" data-name="Trazado 197832" d="M312.06,131.182c2.644.558,5.366-1.674,6.058-4.965.614-2.934-.747-4.9-3.838-5.578s-5.132.6-5.757,3.526C307.832,127.489,309.416,130.624,312.06,131.182Zm2.142-10.119c2.019.424,4.284,1.662,3.548,5.121-.647,3.1-3.18,5.21-5.578,4.686s-3.916-3.459-3.258-6.56C309.617,120.806,312.183,120.583,314.2,121.062Z" transform="translate(-262.781 -99.084)" fill="#fff"/>
          <path id="Trazado_197833" data-name="Trazado 197833" d="M302.274,133.223c2.231.469,4.6-1.83,5.288-5.121.837-3.961-1.562-5.076-3.068-5.4s-4.15-.257-4.987,3.693C298.815,129.742,300.054,132.755,302.274,133.223Zm2.142-10.175c1.685.357,3.526,1.506,2.8,4.965-.658,3.1-2.845,5.277-4.864,4.842s-3.146-3.347-2.488-6.393C300.589,123.048,302.743,122.7,304.416,123.048Z" transform="translate(-242.162 -98.838)" fill="#fff"/>
          <path id="Trazado_197834" data-name="Trazado 197834" d="M305.8,123.832h.089a2.9,2.9,0,0,1,2.923.614.167.167,0,0,0,.245,0,.178.178,0,0,0,0-.257,3.235,3.235,0,0,0-3.258-.681.178.178,0,0,0-.123.212A.2.2,0,0,0,305.8,123.832Z" transform="translate(-250.629 -98.752)" fill="#fff"/>
          <path id="Trazado_197835" data-name="Trazado 197835" d="M320.991,152.483l-1.629-1.183-3.492,3.347Z" transform="translate(-273.887 -95.516)" fill="#263238"/>
          <path id="Trazado_197836" data-name="Trazado 197836" d="M331.577,151.8s-2.878,4.028-3.436,6.94c-3.447-1.428-9.941-5-10.811-10.041a15.038,15.038,0,0,0,3.559-1.674S324.359,149.965,331.577,151.8Z" transform="translate(-286.102 -96.011)" fill="#fff"/>
          <path id="Trazado_197837" data-name="Trazado 197837" d="M311.22,152.5l.681-1.372,4.507,3.537Z" transform="translate(-264.116 -95.536)" fill="#263238"/>
          <path id="Trazado_197838" data-name="Trazado 197838" d="M308.53,151.566a11.157,11.157,0,0,1,3.347,6.415c3.436-1.428,4.786-6.08,3.894-9.182a20.6,20.6,0,0,0-4.083-1.339A3.972,3.972,0,0,1,308.53,151.566Z" transform="translate(-260.746 -95.96)" fill="#fff"/>
          <path id="Trazado_197839" data-name="Trazado 197839" d="M322.061,214.795l-5.835,6.147L310.38,218.2l4.942-9.238Z" transform="translate(-268.832 -88.846)" fill="#7f3e3b"/>
          <path id="Trazado_197840" data-name="Trazado 197840" d="M319.165,209.429l9.9-.469-4.942,9.238s-7-.3-7.7-5.723Z" transform="translate(-282.571 -88.846)" fill="#7f3e3b"/>
          <path id="Trazado_197841" data-name="Trazado 197841" d="M330,160.73c-1.462,6.058-2.756,12.116-3.916,18.241q-.87,4.585-1.629,9.215c-.524,3.09-.982,6.192-1.361,9.427a14.581,14.581,0,0,0-.145,1.841,11.222,11.222,0,0,0,.134,2.12,13.277,13.277,0,0,0,1.194,3.849,17.85,17.85,0,0,0,4.083,5.311,34.966,34.966,0,0,0,9.149,5.768,74.181,74.181,0,0,0,18.81,5.4l1.64-6.359c-2.678-1.116-5.489-2.343-8.133-3.671a77.365,77.365,0,0,1-7.609-4.206,27.893,27.893,0,0,1-6-4.82,6.315,6.315,0,0,1-1.339-2.164,1.518,1.518,0,0,1-.067-.58.48.48,0,0,1,0-.19,1.673,1.673,0,0,0,.112-.469c1.183-5.779,2.644-11.815,3.994-17.773s2.733-12,3.983-18.007Z" transform="translate(-318.74 -94.425)" fill="#803e3c"/>
          <path id="Trazado_197842" data-name="Trazado 197842" d="M350.238,150.406c-11.157,2-16.088,29.911-16.088,29.911l17.94,11s5.7-16.467,5.4-26.832C357.177,154.6,358.706,148.866,350.238,150.406Z" transform="translate(-330.792 -95.648)" fill="#ffb30b"/>
        </g>
        <g id="freepik--Server--inject-62" transform="translate(221.507 47.346)">
          <rect id="Rectángulo_294833" data-name="Rectángulo 294833" width="114.881" height="216.285" transform="translate(31.897 139.385)" fill="#084a93"/>
          <rect id="Rectángulo_294834" data-name="Rectángulo 294834" width="125.637" height="2.644" transform="translate(10.577 136.752)" fill="#084a93"/>
          <rect id="Rectángulo_294835" data-name="Rectángulo 294835" width="125.637" height="2.644" transform="translate(10.577 136.752)" opacity="0.3"/>
          <rect id="Rectángulo_294836" data-name="Rectángulo 294836" width="31.886" height="216.285" transform="translate(0 139.396)" fill="#084a93"/>
          <rect id="Rectángulo_294837" data-name="Rectángulo 294837" width="31.886" height="216.285" transform="translate(0 139.396)" opacity="0.2"/>
          <rect id="Rectángulo_294838" data-name="Rectángulo 294838" width="8.501" height="8.546" rx="0.93" transform="translate(40.131 149.705)" opacity="0.1"/>
          <rect id="Rectángulo_294839" data-name="Rectángulo 294839" width="8.501" height="8.546" rx="0.93" transform="translate(57.669 149.705)" opacity="0.3"/>
          <rect id="Rectángulo_294840" data-name="Rectángulo 294840" width="8.501" height="8.546" rx="0.93" transform="translate(75.197 149.705)" opacity="0.3"/>
          <rect id="Rectángulo_294841" data-name="Rectángulo 294841" width="8.501" height="8.546" rx="0.93" transform="translate(92.735 149.705)" opacity="0.1"/>
          <rect id="Rectángulo_294842" data-name="Rectángulo 294842" width="8.501" height="8.546" rx="0.93" transform="translate(110.263 149.705)" opacity="0.3"/>
          <rect id="Rectángulo_294843" data-name="Rectángulo 294843" width="8.501" height="8.546" rx="0.93" transform="translate(127.801 149.705)" opacity="0.3"/>
          <g id="Grupo_133816" data-name="Grupo 133816" transform="translate(35.646 163.149)" opacity="0.1">
            <rect id="Rectángulo_294844" data-name="Rectángulo 294844" width="107.384" height="33.861" transform="translate(0 0)"/>
          </g>
          <rect id="Rectángulo_294845" data-name="Rectángulo 294845" width="5.924" height="24.188" rx="1.3" transform="translate(40.276 167.991)" fill="#084a93"/>
          <rect id="Rectángulo_294846" data-name="Rectángulo 294846" width="5.924" height="24.188" rx="1.3" transform="translate(52.493 167.991)" opacity="0.1"/>
          <rect id="Rectángulo_294847" data-name="Rectángulo 294847" width="5.924" height="24.188" rx="1.3" transform="translate(64.721 167.991)" fill="#084a93"/>
          <rect id="Rectángulo_294848" data-name="Rectángulo 294848" width="5.924" height="24.188" rx="1.3" transform="translate(76.948 167.991)" fill="#084a93"/>
          <path id="Trazado_197843" data-name="Trazado 197843" d="M208.64,254.4a3.9,3.9,0,1,0-3.9,3.9A3.9,3.9,0,0,0,208.64,254.4Z" transform="translate(-96.369 -79.731)" fill="#fff" opacity="0.3"/>
          <path id="Trazado_197844" data-name="Trazado 197844" d="M210.84,264.1a3.9,3.9,0,1,0,1.14-2.768,3.9,3.9,0,0,0-1.14,2.768Z" transform="translate(-117.547 -78.611)" opacity="0.1"/>
          <path id="Trazado_197845" data-name="Trazado 197845" d="M218.65,254.4a3.9,3.9,0,1,0-3.9,3.9A3.9,3.9,0,0,0,218.65,254.4Z" transform="translate(-117.547 -79.731)" opacity="0.1"/>
          <path id="Trazado_197846" data-name="Trazado 197846" d="M200.83,264.1a3.9,3.9,0,1,0,1.14-2.768,3.9,3.9,0,0,0-1.14,2.768Z" transform="translate(-96.369 -78.611)" opacity="0.1"/>
          <circle id="Elipse_5222" data-name="Elipse 5222" cx="8.468" cy="8.468" r="8.468" transform="translate(127.834 192.061) rotate(-135)" fill="#fff" opacity="0.3"/>
          <g id="Grupo_133817" data-name="Grupo 133817" transform="translate(35.646 201.651)" opacity="0.1">
            <rect id="Rectángulo_294849" data-name="Rectángulo 294849" width="107.384" height="33.861" transform="translate(0)"/>
          </g>
          <rect id="Rectángulo_294850" data-name="Rectángulo 294850" width="5.924" height="24.188" rx="1.3" transform="translate(40.276 206.493)" fill="#084a93"/>
          <rect id="Rectángulo_294851" data-name="Rectángulo 294851" width="5.924" height="24.188" rx="1.3" transform="translate(52.493 206.493)" opacity="0.1"/>
          <rect id="Rectángulo_294852" data-name="Rectángulo 294852" width="5.924" height="24.188" rx="1.3" transform="translate(64.721 206.493)" fill="#084a93"/>
          <rect id="Rectángulo_294853" data-name="Rectángulo 294853" width="5.924" height="24.188" rx="1.3" transform="translate(76.948 206.493)" fill="#084a93"/>
          <path id="Trazado_197847" data-name="Trazado 197847" d="M208.64,288.925a3.9,3.9,0,1,0-3.9,3.9,3.9,3.9,0,0,0,3.9-3.9Z" transform="translate(-96.369 -75.738)" fill="#fff" opacity="0.3"/>
          <ellipse id="Elipse_5223" data-name="Elipse 5223" cx="3.905" cy="3.905" rx="3.905" ry="3.905" transform="translate(93.293 220.082)" fill="#fff" opacity="0.3"/>
          <path id="Trazado_197848" data-name="Trazado 197848" d="M218.65,288.925a3.9,3.9,0,1,0-3.9,3.9,3.9,3.9,0,0,0,3.9-3.9Z" transform="translate(-117.547 -75.738)" opacity="0.1"/>
          <ellipse id="Elipse_5224" data-name="Elipse 5224" cx="3.905" cy="3.905" rx="3.905" ry="3.905" transform="translate(104.461 220.082)" opacity="0.1"/>
          <ellipse id="Elipse_5225" data-name="Elipse 5225" cx="8.468" cy="8.468" rx="8.468" ry="8.468" transform="translate(119.366 210.119)" fill="#fff" opacity="0.3"/>
          <g id="Grupo_133818" data-name="Grupo 133818" transform="translate(35.646 240.164)" opacity="0.1">
            <rect id="Rectángulo_294854" data-name="Rectángulo 294854" width="107.384" height="33.861" transform="translate(0)"/>
          </g>
          <rect id="Rectángulo_294855" data-name="Rectángulo 294855" width="5.924" height="24.188" rx="1.3" transform="translate(40.276 244.995)" fill="#084a93"/>
          <rect id="Rectángulo_294856" data-name="Rectángulo 294856" width="5.924" height="24.188" rx="1.3" transform="translate(52.493 244.995)" opacity="0.1"/>
          <rect id="Rectángulo_294857" data-name="Rectángulo 294857" width="5.924" height="24.188" rx="1.3" transform="translate(64.721 244.995)" fill="#084a93"/>
          <rect id="Rectángulo_294858" data-name="Rectángulo 294858" width="5.924" height="24.188" rx="1.3" transform="translate(76.948 244.995)" fill="#084a93"/>
          <path id="Trazado_197849" data-name="Trazado 197849" d="M208.64,323.4a3.9,3.9,0,1,0-1.14,2.768,3.9,3.9,0,0,0,1.14-2.768Z" transform="translate(-96.369 -71.748)" fill="#fff" opacity="0.3"/>
          <ellipse id="Elipse_5226" data-name="Elipse 5226" cx="3.905" cy="3.905" rx="3.905" ry="3.905" transform="translate(93.293 258.584)" fill="#fff" opacity="0.3"/>
          <path id="Trazado_197850" data-name="Trazado 197850" d="M218.65,323.4a3.9,3.9,0,1,0-1.14,2.768,3.9,3.9,0,0,0,1.14-2.768Z" transform="translate(-117.547 -71.748)" opacity="0.1"/>
          <ellipse id="Elipse_5227" data-name="Elipse 5227" cx="3.905" cy="3.905" rx="3.905" ry="3.905" transform="translate(104.461 258.584)" opacity="0.1"/>
          <ellipse id="Elipse_5228" data-name="Elipse 5228" cx="8.468" cy="8.468" rx="8.468" ry="8.468" transform="translate(119.366 248.621)" opacity="0.1"/>
          <g id="Grupo_133819" data-name="Grupo 133819" transform="translate(35.646 278.666)" opacity="0.1">
            <rect id="Rectángulo_294859" data-name="Rectángulo 294859" width="107.384" height="33.861" transform="translate(0)"/>
          </g>
          <rect id="Rectángulo_294860" data-name="Rectángulo 294860" width="5.924" height="24.188" rx="1.3" transform="translate(40.276 283.508)" fill="#084a93"/>
          <rect id="Rectángulo_294861" data-name="Rectángulo 294861" width="5.924" height="24.188" rx="1.3" transform="translate(52.493 283.508)" opacity="0.1"/>
          <rect id="Rectángulo_294862" data-name="Rectángulo 294862" width="5.924" height="24.188" rx="1.3" transform="translate(64.721 283.508)" fill="#084a93"/>
          <rect id="Rectángulo_294863" data-name="Rectángulo 294863" width="5.924" height="24.188" rx="1.3" transform="translate(76.948 283.508)" fill="#084a93"/>
          <ellipse id="Elipse_5229" data-name="Elipse 5229" cx="3.905" cy="3.905" rx="3.905" ry="3.905" transform="translate(104.461 286.298)" fill="#fff" opacity="0.3"/>
          <ellipse id="Elipse_5230" data-name="Elipse 5230" cx="3.905" cy="3.905" rx="3.905" ry="3.905" transform="translate(93.293 297.097)" fill="#fff" opacity="0.3"/>
          <ellipse id="Elipse_5231" data-name="Elipse 5231" cx="3.905" cy="3.905" rx="3.905" ry="3.905" transform="translate(93.293 286.298)" fill="#fff" opacity="0.3"/>
          <ellipse id="Elipse_5232" data-name="Elipse 5232" cx="3.905" cy="3.905" rx="3.905" ry="3.905" transform="translate(104.461 297.097)" opacity="0.1"/>
          <ellipse id="Elipse_5233" data-name="Elipse 5233" cx="8.468" cy="8.468" rx="8.468" ry="8.468" transform="translate(119.366 287.134)" fill="#fff" opacity="0.3"/>
          <g id="Grupo_133820" data-name="Grupo 133820" transform="translate(35.646 317.168)" opacity="0.1">
            <rect id="Rectángulo_294864" data-name="Rectángulo 294864" width="107.384" height="33.861" transform="translate(0)"/>
          </g>
          <rect id="Rectángulo_294865" data-name="Rectángulo 294865" width="5.924" height="24.188" rx="1.3" transform="translate(40.276 322.011)" fill="#084a93"/>
          <rect id="Rectángulo_294866" data-name="Rectángulo 294866" width="5.924" height="24.188" rx="1.3" transform="translate(52.493 322.011)" opacity="0.1"/>
          <rect id="Rectángulo_294867" data-name="Rectángulo 294867" width="5.924" height="24.188" rx="1.3" transform="translate(64.721 322.011)" fill="#084a93"/>
          <rect id="Rectángulo_294868" data-name="Rectángulo 294868" width="5.924" height="24.188" rx="1.3" transform="translate(76.948 322.011)" fill="#084a93"/>
          <ellipse id="Elipse_5234" data-name="Elipse 5234" cx="3.905" cy="3.905" rx="3.905" ry="3.905" transform="translate(104.461 324.8)" fill="#fff" opacity="0.3"/>
          <ellipse id="Elipse_5235" data-name="Elipse 5235" cx="3.905" cy="3.905" rx="3.905" ry="3.905" transform="translate(93.293 335.599)" fill="#fff" opacity="0.3"/>
          <ellipse id="Elipse_5236" data-name="Elipse 5236" cx="3.905" cy="3.905" rx="3.905" ry="3.905" transform="translate(93.293 324.8)" fill="#fff" opacity="0.3"/>
          <ellipse id="Elipse_5237" data-name="Elipse 5237" cx="3.905" cy="3.905" rx="3.905" ry="3.905" transform="translate(104.461 335.599)" opacity="0.1"/>
          <ellipse id="Elipse_5238" data-name="Elipse 5238" cx="8.468" cy="8.468" rx="8.468" ry="8.468" transform="translate(119.366 325.636)" fill="#fff" opacity="0.3"/>
          <path id="Trazado_197851" data-name="Trazado 197851" d="M267.314,175.09H184.419L172.76,222.573h82.895Z" transform="translate(-123.726 -88.454)" fill="#084a93"/>
          <path id="Trazado_197852" data-name="Trazado 197852" d="M293.1,217.65l-.324,2.622H204.21l.324-2.622Z" transform="translate(-184.596 -83.531)" fill="#084a93"/>
          <path id="Trazado_197853" data-name="Trazado 197853" d="M184.754,175.09l-11.659,47.483h-.011l-.324,2.622h80.429l.324-2.622,11.659-47.483Z" transform="translate(-121.584 -88.454)" fill="#084a93"/>
          <path id="Trazado_197854" data-name="Trazado 197854" d="M184.754,175.09l-11.659,47.483h-.011l-.324,2.622h80.429l.324-2.622,11.659-47.483Z" transform="translate(-121.584 -88.454)" fill="#fff" opacity="0.6"/>
          <path id="Trazado_197855" data-name="Trazado 197855" d="M222.217,166.243l.657-.336c.839-.434,20.465-10.883,23.249-24.606a120.914,120.914,0,0,0,2.042-26.69V113.38l-1.231-.084c-.154,0-14.786-1.161-24.228-4.2l-.434-.14-.42.14c-9.442,3.008-24.074,4.2-24.228,4.2l-1.231.084v1.231a120.916,120.916,0,0,0,1.9,26.69c2.8,13.723,22.382,24.172,23.249,24.606Zm23.193-50.232a120.061,120.061,0,0,1-2.042,24.76c-2.238,11.107-17.751,20.423-21.151,22.382-3.385-1.9-18.9-11.191-21.137-22.382a119.041,119.041,0,0,1-2.042-24.76,128.916,128.916,0,0,0,23.179-4.043A129.241,129.241,0,0,0,245.409,116.01Z" transform="translate(-125.654 -108.96)" fill="#ffb30b" opacity="0.3"/>
          <path id="Trazado_197856" data-name="Trazado 197856" d="M220.37,156.431c5.861-3.581,15.737-10.995,17.248-18.507a111.684,111.684,0,0,0,1.986-20.367,126.932,126.932,0,0,1-19.234-3.5,126.475,126.475,0,0,1-19.22,3.5,112.617,112.617,0,0,0,1.986,20.367C204.647,145.436,214.523,152.85,220.37,156.431Z" transform="translate(-123.808 -106.926)" fill="#084a93"/>
          <path id="Trazado_197857" data-name="Trazado 197857" d="M222.216,446.44h2.231V185.728a24.244,24.244,0,0,0-24.21-24.21H150.478a6.359,6.359,0,0,1-6.337-6.348H141.91a8.58,8.58,0,0,0,8.568,8.58h49.759a22,22,0,0,1,21.979,21.979Z" transform="translate(-46.441 -90.758)" fill="#084a93" opacity="0.3"/>
        </g>
      </g>
    </g>
  </g>
</svg>
