<svg xmlns="http://www.w3.org/2000/svg" xmlns:xlink="http://www.w3.org/1999/xlink" width="533" height="320" viewBox="0 0 533 320">
  <defs>
    <clipPath id="clip-path">
      <path id="Trazado_194582" data-name="Trazado 194582" d="M833.25,467.338a35.669,35.669,0,0,1-.809,3.967c-.012.048-.026.1-.04.147a35.762,35.762,0,0,1-5.358,11.446q-.766,1.085-1.605,2.107c-.143.175-.289.347-.435.519a35.9,35.9,0,0,1-3.112,3.218,37.134,37.134,0,0,1-18.335,9.1,36.738,36.738,0,0,1-13.737-.074c-.691-.135-1.389-.289-2.08-.467a36.623,36.623,0,0,1-14.669-7.522l-.006,0a36.4,36.4,0,0,1-9.868-13.316,35.414,35.414,0,0,1-1.737-23.235q.41-1.563.949-3.058a35.6,35.6,0,0,1,1.935-4.416,36.392,36.392,0,0,1,13.486-14.317,37.3,37.3,0,0,1,11.162-4.478c.12-.028.244-.053.364-.079.082-.019.164-.036.246-.053a36.955,36.955,0,0,1,7.743-.751q.676,0,1.358.04a37.4,37.4,0,0,1,7.462,1.108,36.954,36.954,0,0,1,10.542,4.5,36.391,36.391,0,0,1,13.753,15.789q.516,1.137.949,2.3s0,0,0,.006a35.231,35.231,0,0,1,2.13,14.9C833.476,465.592,833.382,466.465,833.25,467.338Z" transform="translate(-760.266 -426.076)" fill="none"/>
    </clipPath>
  </defs>
  <g id="Grupo_146555" data-name="Grupo 146555" transform="translate(-534 -10626)">
    <g id="Grupo_133347" data-name="Grupo 133347" transform="translate(-761 895)">
      <g id="Grupo_133346" data-name="Grupo 133346" transform="translate(1295 9731)">
        <g id="Grupo_133186" data-name="Grupo 133186">
          <path id="Trazado_194611" data-name="Trazado 194611" d="M0,0H533V320H0Z" fill="#00defc"/>
        </g>
        <g id="Grupo_133187" data-name="Grupo 133187" transform="translate(125.223 106.561)">
          <rect id="Rectángulo_294058" data-name="Rectángulo 294058" width="282.577" height="160.746" fill="#fff"/>
        </g>
        <g id="Grupo_133188" data-name="Grupo 133188" transform="translate(125.223 106.561)">
          <rect id="Rectángulo_294059" data-name="Rectángulo 294059" width="282.577" height="15.891" fill="#063b76"/>
        </g>
        <g id="Grupo_133189" data-name="Grupo 133189" transform="translate(137.734 108.945)">
          <rect id="Rectángulo_294060" data-name="Rectángulo 294060" width="217.566" height="11.124" rx="5.562" fill="#b3bfe0"/>
        </g>
        <g id="Grupo_133195" data-name="Grupo 133195" transform="translate(345.007 111.86)">
          <g id="Grupo_133190" data-name="Grupo 133190" transform="translate(23.242)">
            <circle id="Elipse_5156" data-name="Elipse 5156" cx="2.647" cy="2.647" r="2.647" fill="#fff"/>
          </g>
          <g id="Grupo_133191" data-name="Grupo 133191" transform="translate(15.495)">
            <circle id="Elipse_5157" data-name="Elipse 5157" cx="2.647" cy="2.647" r="2.647" fill="#fff"/>
          </g>
          <g id="Grupo_133192" data-name="Grupo 133192" transform="translate(31.062)">
            <circle id="Elipse_5158" data-name="Elipse 5158" cx="2.647" cy="2.647" r="2.647" fill="#fff"/>
          </g>
          <g id="Grupo_133193" data-name="Grupo 133193" transform="translate(7.747)">
            <circle id="Elipse_5159" data-name="Elipse 5159" cx="2.647" cy="2.647" r="2.647" fill="#fff"/>
          </g>
          <g id="Grupo_133194" data-name="Grupo 133194">
            <circle id="Elipse_5160" data-name="Elipse 5160" cx="2.647" cy="2.647" r="2.647" fill="#fff"/>
          </g>
        </g>
        <g id="Grupo_133196" data-name="Grupo 133196" transform="translate(427.667 228.25)">
          <path id="Trazado_194517" data-name="Trazado 194517" d="M2331.282,1053.23a.331.331,0,0,1,0-.662c3.527-.032,6.174-1.667,7.455-4.6a10.629,10.629,0,0,0-1.719-10.808c-2.066-2.267-5.009-2.92-8.284-1.839a7.756,7.756,0,0,0-5.1,9.246,6.226,6.226,0,0,0,7.138,5.079,6.374,6.374,0,0,0,5.016-3.161,4.878,4.878,0,0,0-.234-4.725,5.588,5.588,0,0,0-6.869-2.292c-1.885.8-2.573,2.517-1.885,4.705a4.172,4.172,0,0,0,4.183,2.9,2.79,2.79,0,0,0,2.616-2.615,2.164,2.164,0,0,0-1.2-2.461,2.109,2.109,0,0,0-2.357.269c-.482.542-.381,1.433.284,2.507a.331.331,0,0,1-.563.348c-1.123-1.814-.617-2.843-.216-3.295a2.754,2.754,0,0,1,3.132-.429,2.835,2.835,0,0,1,1.579,3.158,3.449,3.449,0,0,1-3.219,3.179,4.849,4.849,0,0,1-4.867-3.363c-.79-2.514.054-4.575,2.258-5.513a6.275,6.275,0,0,1,7.71,2.583,5.584,5.584,0,0,1,.242,5.345,7.031,7.031,0,0,1-5.523,3.516,6.857,6.857,0,0,1-7.866-5.591,8.409,8.409,0,0,1,5.543-10.021c3.539-1.168,6.728-.449,8.981,2.022a11.172,11.172,0,0,1,1.836,11.519c-1.392,3.19-4.252,4.966-8.056,5Z" transform="translate(-2322.764 -1034.142)" fill="#fff"/>
        </g>
        <g id="Grupo_133197" data-name="Grupo 133197" transform="translate(90.09 71.524)">
          <path id="Trazado_194518" data-name="Trazado 194518" d="M953.914,520.17H600.92V354.3a30.28,30.28,0,0,1,30.246-30.246h292.5A30.28,30.28,0,0,1,953.914,354.3Zm-352.332-.662h351.67V354.3a29.617,29.617,0,0,0-29.584-29.584h-292.5A29.617,29.617,0,0,0,601.582,354.3Z" transform="translate(-600.92 -324.056)"/>
        </g>
        <g id="Grupo_133198" data-name="Grupo 133198" transform="translate(108.986 93.203)">
          <path id="Trazado_194519" data-name="Trazado 194519" d="M1001.413,596.711H686.364V422.28h315.049Zm-314.387-.662h313.725V422.942H687.026Z" transform="translate(-686.364 -422.28)"/>
        </g>
        <g id="Grupo_133202" data-name="Grupo 133202" transform="translate(52.616 266.975)">
          <g id="Grupo_133199" data-name="Grupo 133199" transform="translate(178.481 0.327)">
            <path id="Rectángulo_294061" data-name="Rectángulo 294061" d="M0,0H70.948a0,0,0,0,1,0,0V0a8.39,8.39,0,0,1-8.39,8.39H8.39A8.39,8.39,0,0,1,0,0V0A0,0,0,0,1,0,0Z" fill="#e6edff"/>
          </g>
          <g id="Grupo_133200" data-name="Grupo 133200" transform="translate(13.299 18.182)">
            <path id="Trazado_194520" data-name="Trazado 194520" d="M887.54,1299.026H498.512a7.053,7.053,0,0,1-7.052-7.052H894.593A7.053,7.053,0,0,1,887.54,1299.026Z" transform="translate(-491.459 -1291.974)" fill="#e6edff"/>
          </g>
          <g id="Grupo_133201" data-name="Grupo 133201">
            <path id="Trazado_194521" data-name="Trazado 194521" d="M845.331,1240.3H444.992a13.8,13.8,0,0,1-13.786-13.786V1209.6H859.117v16.917A13.8,13.8,0,0,1,845.331,1240.3Zm-413.463-30.041v16.255a13.139,13.139,0,0,0,13.124,13.124H845.331a13.139,13.139,0,0,0,13.124-13.124v-16.255Z" transform="translate(-431.206 -1209.597)"/>
          </g>
        </g>
        <g id="Grupo_133211" data-name="Grupo 133211" transform="translate(106.455 26.359)">
          <g id="Grupo_133203" data-name="Grupo 133203" transform="translate(9.989)">
            <path id="Trazado_194522" data-name="Trazado 194522" d="M610.354,125.837l-.467-5.572a.914.914,0,1,0-1.822.153l.471,5.623a5.22,5.22,0,0,1,1.484-.215C610.133,125.826,610.244,125.831,610.354,125.837Z" transform="translate(-608.062 -119.428)" fill="#fff"/>
          </g>
          <g id="Grupo_133204" data-name="Grupo 133204" transform="translate(11.318 16.705)">
            <path id="Trazado_194523" data-name="Trazado 194523" d="M614.084,195.213l.5,5.992a.914.914,0,0,0,.91.838c.026,0,.052,0,.077,0a.914.914,0,0,0,.835-.987l-.5-5.939a5.157,5.157,0,0,1-1.826.1Z" transform="translate(-614.084 -195.113)" fill="#fff"/>
          </g>
          <g id="Grupo_133205" data-name="Grupo 133205" transform="translate(3.84 14.978)">
            <path id="Trazado_194524" data-name="Trazado 194524" d="M584.31,187.291l-3.892,4.6a.914.914,0,1,0,1.4,1.18l3.9-4.611A5.246,5.246,0,0,1,584.31,187.291Z" transform="translate(-580.202 -187.291)" fill="#fff"/>
          </g>
          <g id="Grupo_133206" data-name="Grupo 133206" transform="translate(14.592 2.547)">
            <path id="Trazado_194525" data-name="Trazado 194525" d="M630.309,136.726l3.6-4.254a.914.914,0,1,0-1.4-1.18l-3.59,4.247A5.249,5.249,0,0,1,630.309,136.726Z" transform="translate(-628.919 -130.968)" fill="#fff"/>
          </g>
          <g id="Grupo_133207" data-name="Grupo 133207" transform="translate(0 11.326)">
            <path id="Trazado_194526" data-name="Trazado 194526" d="M569.539,170.742l-5.9.494a.914.914,0,0,0,.076,1.825c.026,0,.051,0,.077,0l5.96-.5a5.221,5.221,0,0,1-.226-1.521C569.53,170.938,569.533,170.84,569.539,170.742Z" transform="translate(-562.805 -170.742)" fill="#fff"/>
          </g>
          <g id="Grupo_133208" data-name="Grupo 133208" transform="translate(17.04 9.989)">
            <path id="Trazado_194527" data-name="Trazado 194527" d="M646.6,165.522a.914.914,0,0,0-.987-.835l-5.6.47a5.166,5.166,0,0,1,.087,1.827l5.67-.475A.914.914,0,0,0,646.6,165.522Z" transform="translate(-640.008 -164.684)" fill="#fff"/>
          </g>
          <g id="Grupo_133209" data-name="Grupo 133209" transform="translate(15.097 14.444)">
            <path id="Trazado_194528" data-name="Trazado 194528" d="M631.208,186.213,635.693,190a.914.914,0,0,0,1.18-1.4l-4.422-3.738A5.251,5.251,0,0,1,631.208,186.213Z" transform="translate(-631.208 -184.87)" fill="#fff"/>
          </g>
          <g id="Grupo_133210" data-name="Grupo 133210" transform="translate(2.547 3.84)">
            <path id="Trazado_194529" data-name="Trazado 194529" d="M580.23,140.744l-4.381-3.7a.914.914,0,0,0-1.18,1.4l4.445,3.757A5.243,5.243,0,0,1,580.23,140.744Z" transform="translate(-574.345 -136.825)" fill="#fff"/>
          </g>
        </g>
        <g id="Grupo_133216" data-name="Grupo 133216" transform="translate(62.387 95.133)">
          <g id="Grupo_133212" data-name="Grupo 133212" transform="translate(3.587 0.013)">
            <path id="Trazado_194530" data-name="Trazado 194530" d="M299.241,453.923l-.042,0a.331.331,0,0,1-.287-.37c.937-7.4,2.1-14.869,3.466-22.2a.331.331,0,1,1,.651.121c-1.361,7.318-2.525,14.774-3.46,22.162A.331.331,0,0,1,299.241,453.923Z" transform="translate(-298.909 -431.081)" fill="#fff"/>
          </g>
          <g id="Grupo_133213" data-name="Grupo 133213" transform="translate(7.364)">
            <path id="Trazado_194531" data-name="Trazado 194531" d="M316.354,453.747a.326.326,0,0,1-.055,0,.331.331,0,0,1-.272-.381L319.7,431.3a.331.331,0,1,1,.653.109l-3.677,22.062A.331.331,0,0,1,316.354,453.747Z" transform="translate(-316.022 -431.023)" fill="#fff"/>
          </g>
          <g id="Grupo_133214" data-name="Grupo 133214" transform="translate(0 6.789)">
            <path id="Trazado_194532" data-name="Trazado 194532" d="M282.989,463.476a.331.331,0,0,1-.213-.584c1.115-.938,2.608-1.033,4.168-1.053,4.97-.062,10.008-.074,14.974-.036a.331.331,0,0,1,0,.662h0c-4.962-.039-10-.026-14.961.036a5.831,5.831,0,0,0-3.75.9A.331.331,0,0,1,282.989,463.476Z" transform="translate(-282.658 -461.781)" fill="#fff"/>
          </g>
          <g id="Grupo_133215" data-name="Grupo 133215" transform="translate(0.927 12.169)">
            <path id="Trazado_194533" data-name="Trazado 194533" d="M287.191,487.013a.331.331,0,0,1-.005-.662l12.486-.2h.005a.331.331,0,0,1,.005.662l-12.486.2Z" transform="translate(-286.86 -486.156)" fill="#fff"/>
          </g>
        </g>
        <g id="Grupo_133235" data-name="Grupo 133235" transform="translate(139.564 105.369)">
          <g id="Grupo_133217" data-name="Grupo 133217">
            <rect id="Rectángulo_294062" data-name="Rectángulo 294062" width="75.468" height="24.791" fill="#063b76"/>
          </g>
          <g id="Grupo_133218" data-name="Grupo 133218" transform="translate(8.935 4.675)">
            <path id="Trazado_194534" data-name="Trazado 194534" d="M866.073,515.782H799.451a7.249,7.249,0,0,1-7.25-7.248v-2.7a7.251,7.251,0,0,1,7.25-7.25h62.634a41.857,41.857,0,0,1,1.856,5.452c.119.452.234.9.338,1.364.132.435.254.874.373,1.313A44.073,44.073,0,0,1,866.027,515Q866.053,515.392,866.073,515.782Z" transform="translate(-792.2 -498.58)" fill="#b3bfe0"/>
          </g>
          <g id="Grupo_133227" data-name="Grupo 133227" transform="translate(31.404 8.199)">
            <g id="Grupo_133219" data-name="Grupo 133219">
              <path id="Trazado_194535" data-name="Trazado 194535" d="M896.5,519.069a2.653,2.653,0,0,1,.883-.838,2.262,2.262,0,0,1,1.149-.3,2.386,2.386,0,0,1,1.95.864,4.188,4.188,0,0,1,.709,2.681v4.594h-2.5v-4.609a2.1,2.1,0,0,0-.277-1.263,1.016,1.016,0,0,0-.846-.347,1.677,1.677,0,0,0-.628.107,1.2,1.2,0,0,0-.443.3v5.813H894V514.548h2.5Z" transform="translate(-894.004 -514.548)" fill="#fff"/>
            </g>
            <g id="Grupo_133220" data-name="Grupo 133220" transform="translate(7.919 1.545)">
              <path id="Trazado_194536" data-name="Trazado 194536" d="M933.5,521.547v1.987h1.352v1.728h-1.352v3.664a.9.9,0,0,0,.174.617.607.607,0,0,0,.469.188,3.629,3.629,0,0,0,.373-.015c.091-.009.208-.029.351-.059l.177,1.847a7.166,7.166,0,0,1-.746.136,6.539,6.539,0,0,1-.783.041,2.482,2.482,0,0,1-1.869-.657,2.913,2.913,0,0,1-.635-2.083v-3.678h-1.123v-1.728h1.123v-1.987Z" transform="translate(-929.883 -521.547)" fill="#fff"/>
            </g>
            <g id="Grupo_133221" data-name="Grupo 133221" transform="translate(13.4 1.545)">
              <path id="Trazado_194537" data-name="Trazado 194537" d="M958.327,521.549v1.987h1.352v1.728h-1.352v3.664a.9.9,0,0,0,.173.617.607.607,0,0,0,.469.188,3.634,3.634,0,0,0,.373-.015q.137-.015.351-.059l.177,1.847a7.252,7.252,0,0,1-.746.137,6.592,6.592,0,0,1-.783.04,2.481,2.481,0,0,1-1.869-.658,2.912,2.912,0,0,1-.635-2.083v-3.678h-1.123v-1.728h1.123v-1.987Z" transform="translate(-954.715 -521.549)" fill="#fff"/>
            </g>
            <g id="Grupo_133222" data-name="Grupo 133222" transform="translate(19.537 3.385)">
              <path id="Trazado_194538" data-name="Trazado 194538" d="M989.923,534.2a4.722,4.722,0,0,1-.813,2.892,2.689,2.689,0,0,1-2.29,1.089,2.18,2.18,0,0,1-1.8-.864V541.1h-2.5V530.033h2.334l.089.879a2.485,2.485,0,0,1,.8-.761,2.079,2.079,0,0,1,1.064-.266,2.661,2.661,0,0,1,2.3,1.145,5.083,5.083,0,0,1,.816,3.014Zm-2.49-.155a3.776,3.776,0,0,0-.3-1.625.986.986,0,0,0-.945-.613,1.5,1.5,0,0,0-.713.155,1.144,1.144,0,0,0-.462.45v3.339a1.068,1.068,0,0,0,.469.384,1.82,1.82,0,0,0,.72.126.982.982,0,0,0,.942-.543,3.32,3.32,0,0,0,.284-1.518Z" transform="translate(-982.521 -529.886)" fill="#fff"/>
            </g>
            <g id="Grupo_133223" data-name="Grupo 133223" transform="translate(27.631 3.386)">
              <path id="Trazado_194539" data-name="Trazado 194539" d="M1023.768,535.783a.651.651,0,0,0-.336-.528,3.621,3.621,0,0,0-1.223-.418,4.8,4.8,0,0,1-2.105-.85,1.919,1.919,0,0,1-.709-1.573,2.248,2.248,0,0,1,.887-1.791,3.644,3.644,0,0,1,2.4-.735,4.123,4.123,0,0,1,2.541.713,2.1,2.1,0,0,1,.9,1.843l-.015.044h-2.423a.981.981,0,0,0-.24-.716,1.047,1.047,0,0,0-.772-.244,1.016,1.016,0,0,0-.658.214.673.673,0,0,0-.266.547.65.65,0,0,0,.307.539,3.468,3.468,0,0,0,1.237.4,4.989,4.989,0,0,1,2.168.861,1.968,1.968,0,0,1,.705,1.621,2.117,2.117,0,0,1-.957,1.776,4.2,4.2,0,0,1-2.53.7,3.793,3.793,0,0,1-2.581-.827,2.278,2.278,0,0,1-.9-1.847l.015-.044h2.26a1,1,0,0,0,.343.82,1.512,1.512,0,0,0,.934.251,1.249,1.249,0,0,0,.761-.2A.658.658,0,0,0,1023.768,535.783Z" transform="translate(-1019.194 -529.889)" fill="#fff"/>
            </g>
            <g id="Grupo_133224" data-name="Grupo 133224" transform="translate(36.076 3.534)">
              <path id="Trazado_194540" data-name="Trazado 194540" d="M1059.943,538.552h-2.489v-2.1h2.489Zm0-5.894h-2.489v-2.1h2.489Z" transform="translate(-1057.454 -530.56)" fill="#fff"/>
            </g>
            <g id="Grupo_133225" data-name="Grupo 133225" transform="translate(39.385 0.772)">
              <path id="Trazado_194541" data-name="Trazado 194541" d="M1074.211,529.724h-1.765l3.672-11.678h1.773Z" transform="translate(-1072.446 -518.046)" fill="#fff"/>
            </g>
            <g id="Grupo_133226" data-name="Grupo 133226" transform="translate(42.864 0.772)">
              <path id="Trazado_194542" data-name="Trazado 194542" d="M1089.974,529.726h-1.766l3.672-11.678h1.773Z" transform="translate(-1088.208 -518.048)" fill="#fff"/>
            </g>
          </g>
          <g id="Grupo_133234" data-name="Grupo 133234" transform="translate(17.689 6.832)">
            <g id="Grupo_133233" data-name="Grupo 133233">
              <g id="Grupo_133228" data-name="Grupo 133228" transform="translate(0 4.939)">
                <rect id="Rectángulo_294063" data-name="Rectángulo 294063" width="9.992" height="7.952" rx="3.976" fill="#fff"/>
              </g>
              <g id="Grupo_133230" data-name="Grupo 133230" transform="translate(1.605)">
                <g id="Grupo_133229" data-name="Grupo 133229">
                  <path id="Trazado_194543" data-name="Trazado 194543" d="M845.92,513.291h-1.181V511.94a2.213,2.213,0,1,0-4.419,0v1.351h-1.181V511.94a3.4,3.4,0,1,1,6.781,0Z" transform="translate(-839.139 -508.352)" fill="#fff"/>
                </g>
              </g>
              <g id="Grupo_133232" data-name="Grupo 133232" transform="translate(3.939 6.695)">
                <g id="Grupo_133231" data-name="Grupo 133231">
                  <path id="Trazado_194544" data-name="Trazado 194544" d="M851.826,539.741a1.057,1.057,0,1,0-1.842.707.333.333,0,0,1,.084.272l-.32,2.166a.208.208,0,0,0,.205.238h1.632a.208.208,0,0,0,.206-.238l-.32-2.166a.334.334,0,0,1,.084-.272A1.053,1.053,0,0,0,851.826,539.741Z" transform="translate(-849.712 -538.684)" fill="#d3d9fc"/>
                </g>
              </g>
            </g>
          </g>
        </g>
        <g id="Grupo_133241" data-name="Grupo 133241" transform="translate(456.388 259.834)">
          <g id="Grupo_133236" data-name="Grupo 133236" transform="translate(5.639)">
            <path id="Trazado_194545" data-name="Trazado 194545" d="M2503.273,1189.344a9.63,9.63,0,0,0-6.75.79c.843-6.739-4.1-14.04-10.472-12.743-5.7,1.159-8.908,10.1-7.111,20.307s7.282,13.233,13.62,16.656a5.671,5.671,0,0,0,2.01.117c2.848-.6,11.176-2.865,13.026-9.652S2510.1,1191.913,2503.273,1189.344Z" transform="translate(-2478.441 -1177.24)" fill="#ffb30b"/>
          </g>
          <g id="Grupo_133237" data-name="Grupo 133237" transform="translate(17.981 0.546)">
            <path id="Trazado_194546" data-name="Trazado 194546" d="M2536.487,1213.416h-.02c-.54-.017-.938-.648-1.289-2.047a29.9,29.9,0,0,1-.551-11.074h0a46.773,46.773,0,0,1,5.668-16.42c.938-1.73,2.456-4.043,4.8-4.156,2.44-.124,4.286,2.391,4.408,4.716.12,2.265-.891,4.373-2.029,6.512-.517.972-1.041,1.941-1.566,2.912a92.043,92.043,0,0,0-7.055,15.182l-.109.34C2538.066,1211.507,2537.382,1213.416,2536.487,1213.416Zm-1.354-13.057a29.392,29.392,0,0,0,.54,10.885c.395,1.57.744,1.659.811,1.661h.006c.6,0,1.448-2.672,1.77-3.68l.109-.342a92.424,92.424,0,0,1,7.092-15.267q.787-1.454,1.565-2.909c1.1-2.074,2.083-4.111,1.97-6.246-.108-2.039-1.658-4.237-3.733-4.237-.047,0-.095,0-.142,0-2.086.1-3.5,2.268-4.376,3.89a46.27,46.27,0,0,0-5.611,16.241Z" transform="translate(-2534.355 -1179.714)"/>
          </g>
          <g id="Grupo_133238" data-name="Grupo 133238" transform="translate(19.82 5.709)">
            <path id="Trazado_194547" data-name="Trazado 194547" d="M2542.945,1226.109a.255.255,0,0,1-.241-.339,20.358,20.358,0,0,0,.376-2.136c.743-4.927,2.484-16.465,8.293-20.484a.255.255,0,0,1,.29.419c-5.628,3.894-7.346,15.279-8.079,20.141a18.766,18.766,0,0,1-.4,2.227A.255.255,0,0,1,2542.945,1226.109Z" transform="translate(-2542.69 -1203.105)"/>
          </g>
          <g id="Grupo_133239" data-name="Grupo 133239" transform="translate(19.367 27.33)">
            <path id="Trazado_194548" data-name="Trazado 194548" d="M2546.129,1311.5a9.339,9.339,0,0,1-5.39-1.524.255.255,0,0,1,0-.406,43.416,43.416,0,0,1,11.421-6.624,27.235,27.235,0,0,1,13.06-1.682c1.216.163,4.094.788,4.548,3.062a.255.255,0,0,1-.118.268c-4.281,2.593-9.4,3.945-13.913,5.138-1.383.366-2.8.677-4.164.978a25.593,25.593,0,0,1-5.4.789Zm-4.807-1.739a9.118,9.118,0,0,0,4.807,1.23h.033a25.223,25.223,0,0,0,5.3-.777c1.362-.3,2.771-.609,4.144-.972,4.425-1.17,9.434-2.493,13.62-4.986-.5-1.813-3-2.34-4.075-2.484a26.719,26.719,0,0,0-12.813,1.655A42.572,42.572,0,0,0,2541.321,1309.764Z" transform="translate(-2540.636 -1301.065)"/>
          </g>
          <g id="Grupo_133240" data-name="Grupo 133240" transform="translate(0 24.059)">
            <path id="Trazado_194549" data-name="Trazado 194549" d="M2471.811,1299.381a15.8,15.8,0,0,1-7.822-2.357c-4.34-2.413-9.05-5.526-11.079-10.317a.255.255,0,0,1,.177-.348c1.74-.405,3.488.344,5.129,1.148,5.326,2.606,11.264,5.857,14.31,11.487a.255.255,0,0,1-.214.376Q2472.061,1299.381,2471.811,1299.381Zm-18.3-12.582c2.035,4.486,6.555,7.458,10.73,9.78a15.32,15.32,0,0,0,7.577,2.292h.06c-3.033-5.274-8.744-8.392-13.882-10.905A8.033,8.033,0,0,0,2453.507,1286.8Z" transform="translate(-2452.89 -1286.247)"/>
          </g>
        </g>
        <g id="Grupo_133245" data-name="Grupo 133245" transform="translate(284.702 32.684)">
          <g id="Grupo_133242" data-name="Grupo 133242" transform="translate(6.059 2.302)">
            <circle id="Elipse_5161" data-name="Elipse 5161" cx="4.186" cy="4.186" r="4.186" transform="translate(0 6.803) rotate(-54.344)" fill="#fff"/>
          </g>
          <g id="Grupo_133243" data-name="Grupo 133243" transform="translate(2.768 11.778)">
            <path id="Trazado_194550" data-name="Trazado 194550" d="M1517.182,206.834a9.83,9.83,0,0,0,14.444,2.926,7.389,7.389,0,0,0-14.444-2.926Z" transform="translate(-1517.182 -201.442)" fill="#fff"/>
          </g>
          <g id="Grupo_133244" data-name="Grupo 133244">
            <path id="Trazado_194551" data-name="Trazado 194551" d="M1515.861,170.471a11.343,11.343,0,0,1-1.919-.164,11.206,11.206,0,0,1-9.136-12.927h0a11.191,11.191,0,1,1,11.056,13.091Zm-10.4-12.979h0a10.531,10.531,0,1,0,12.162-8.6A10.543,10.543,0,0,0,1505.458,157.492Z" transform="translate(-1504.643 -148.081)" fill="#fff"/>
          </g>
        </g>
        <g id="Grupo_133251" data-name="Grupo 133251" transform="translate(461.691 131.56)">
          <g id="Grupo_133246" data-name="Grupo 133246" transform="translate(0 13.621)">
            <path id="Trazado_194552" data-name="Trazado 194552" d="M2501.585,680.371h-21.116a3.555,3.555,0,0,1-3.551-3.551v-15.49a3.555,3.555,0,0,1,3.551-3.551h21.116a3.555,3.555,0,0,1,3.551,3.551v15.49A3.555,3.555,0,0,1,2501.585,680.371Zm-21.116-21.929a2.892,2.892,0,0,0-2.889,2.888v15.49a2.892,2.892,0,0,0,2.889,2.889h21.116a2.892,2.892,0,0,0,2.888-2.889v-15.49a2.892,2.892,0,0,0-2.888-2.888Z" transform="translate(-2476.918 -657.78)" fill="#fff"/>
          </g>
          <g id="Grupo_133248" data-name="Grupo 133248" transform="translate(4.428)">
            <g id="Grupo_133247" data-name="Grupo 133247">
              <path id="Trazado_194553" data-name="Trazado 194553" d="M2516.01,610.349h-3.256a.331.331,0,0,1-.331-.331v-3.725a5.773,5.773,0,1,0-11.525,0v3.725a.331.331,0,0,1-.331.331h-3.256a.331.331,0,0,1-.331-.331v-3.725a9.7,9.7,0,1,1,19.362,0v3.725A.331.331,0,0,1,2516.01,610.349Zm-2.925-.662h2.594v-3.394a9.034,9.034,0,1,0-18.038,0v3.394h2.594v-3.394a6.434,6.434,0,1,1,12.849,0Z" transform="translate(-2496.979 -596.065)" fill="#fff"/>
            </g>
          </g>
          <g id="Grupo_133250" data-name="Grupo 133250" transform="translate(10.863 18.463)">
            <g id="Grupo_133249" data-name="Grupo 133249">
              <path id="Trazado_194554" data-name="Trazado 194554" d="M2531.631,692.624h-4.5a.9.9,0,0,1-.895-1.036l.883-5.974a.589.589,0,0,0-.149-.481,3.228,3.228,0,0,1-.832-2.3,3.269,3.269,0,0,1,3.058-3.108,3.245,3.245,0,0,1,2.6,5.411.59.59,0,0,0-.15.481l.883,5.973a.9.9,0,0,1-.895,1.036Zm-2.249-12.245c-.05,0-.1,0-.15,0a2.6,2.6,0,0,0-2.433,2.473,2.57,2.57,0,0,0,.661,1.834,1.249,1.249,0,0,1,.313,1.021l-.883,5.974a.242.242,0,0,0,.24.277h4.5a.243.243,0,0,0,.24-.277l-.883-5.974a1.25,1.25,0,0,1,.313-1.021,2.583,2.583,0,0,0-1.919-4.311Z" transform="translate(-2526.135 -679.716)" fill="#fff"/>
            </g>
          </g>
        </g>
        <g id="Grupo_133296" data-name="Grupo 133296" transform="translate(77.999 83.866)">
          <g id="Grupo_133257" data-name="Grupo 133257" transform="translate(29.963 62.593)">
            <g id="Grupo_133252" data-name="Grupo 133252" transform="translate(1.02 5.569)">
              <path id="Trazado_194555" data-name="Trazado 194555" d="M593.731,707.78s-3.912,4.385-7.4,2.613c-4.746-2.411-13.278-17.531-13.278-17.531-.937-2.115,6.721-5.508,7.659-3.394Z" transform="translate(-572.975 -688.8)" fill="#ff9365"/>
            </g>
            <g id="Grupo_133253" data-name="Grupo 133253">
              <path id="Trazado_194556" data-name="Trazado 194556" d="M568.878,668.521c-1.795,4.263,1.392,9.5,4.053,13.252.519.732,11.175-4.213,9.836-7.13-.361-.786-4.342-6.731-4.614-7.677C577.78,665.675,572.809,659.182,568.878,668.521Z" transform="translate(-568.355 -663.567)" fill="#ffb30b"/>
            </g>
            <g id="Grupo_133256" data-name="Grupo 133256" transform="translate(13.897 16.715)">
              <g id="Grupo_133254" data-name="Grupo 133254" transform="translate(0 2.139)">
                <path id="Trazado_194557" data-name="Trazado 194557" d="M632.649,757.616c-1.674-.277-1.845-6.884-.08-7.565,5.112-1.973,19.171-.577,19.171-.577l1.012,4.885S636.838,758.309,632.649,757.616Z" transform="translate(-631.317 -748.994)" fill="#ff9365"/>
              </g>
              <g id="Grupo_133255" data-name="Grupo 133255" transform="translate(18.154)">
                <path id="Trazado_194558" data-name="Trazado 194558" d="M720.971,739.311c.865-.228-.616,3.376.042,3.553.6.161,3.34-.4,3.952-.355,1.459.114,3.052,1.194,1.841,2.343-4.634,4.393-8.315,1.56-10.22,2.016-1.34.321-5.145-5.349-1.439-5.012C715.836,741.919,718.913,739.855,720.971,739.311Z" transform="translate(-713.568 -739.301)" fill="#ff9365"/>
              </g>
            </g>
          </g>
          <g id="Grupo_133278" data-name="Grupo 133278" transform="translate(2.842 36.18)">
            <g id="Grupo_133258" data-name="Grupo 133258" transform="translate(0 141.526)">
              <path id="Trazado_194559" data-name="Trazado 194559" d="M445.631,1187.886c.927,2.193,6.577,3.575,8.693,4.388,1.362.524,9.91,1.843,8.761-2.672-.291-1.144-3.772-.64-4.853-.8a30.914,30.914,0,0,1-5.626-1.213c-.776-.27-6.385-3.635-6.588-2.049C445.949,1186.085,445.143,1186.73,445.631,1187.886Z" transform="translate(-445.475 -1185.115)" fill="#fff"/>
            </g>
            <g id="Grupo_133259" data-name="Grupo 133259" transform="translate(2.813 133.158)">
              <path id="Trazado_194560" data-name="Trazado 194560" d="M463.127,1147.6l-2.615-.377a.514.514,0,0,0-.293.014.661.661,0,0,0-.266.355,21.561,21.561,0,0,0-1.713,6.515,1.45,1.45,0,0,0,.159,1.028,1.02,1.02,0,0,0,.644.311l3.731.758a.618.618,0,0,0,.433-.017.742.742,0,0,0,.234-.268,17.654,17.654,0,0,0,1.941-4.665,4.2,4.2,0,0,0,.194-1.754C465.374,1148.251,464.038,1147.727,463.127,1147.6Z" transform="translate(-458.218 -1147.204)" fill="#ff9365"/>
            </g>
            <g id="Grupo_133260" data-name="Grupo 133260" transform="translate(0.437 138.99)">
              <path id="Trazado_194561" data-name="Trazado 194561" d="M464.305,1180.207c1.578,1.489-2.3,2.279-3.5,2.372a12.7,12.7,0,0,1-5.111-.8,48.31,48.31,0,0,1-7.322-3.433c-1.121-.719-1.211-1.217-.287-2.874.187-.336,1.25-2.431,2.063-1.693a6.336,6.336,0,0,0,2.921,1.6c1.858.144,2.365-.484,2.907-.041C459.464,1178.189,463.133,1179.1,464.305,1180.207Z" transform="translate(-447.456 -1173.628)" fill="#161233"/>
            </g>
            <g id="Grupo_133261" data-name="Grupo 133261" transform="translate(36.165 142.272)">
              <path id="Trazado_194562" data-name="Trazado 194562" d="M628.346,1191.914c-.866,1.8-10.987,1.082-12.973,1.116-1.185.021-7.442.868-5.755-2.78.569-1.23,4.857-.433,6.124-.456,2-.035,3.929-.241,5.917-.408,1.708-.143,6.1-1.818,6.9-.171A4.232,4.232,0,0,1,628.346,1191.914Z" transform="translate(-609.331 -1188.496)" fill="#fff"/>
            </g>
            <g id="Grupo_133262" data-name="Grupo 133262" transform="translate(14.589)">
              <path id="Trazado_194563" data-name="Trazado 194563" d="M530,548.237c-.351,1.175,1.464,1.957,2.086,3.2a6.068,6.068,0,0,1-2.454,8.393,11.592,11.592,0,0,0-2-6.767c-.3-.431-.565-.817-.791-1.163a4.362,4.362,0,0,1-3.538,1.288c-11.807-1.875-1.143,16.184-6.8,10.811-2.85-2.709-5.5-3.468-4.719-7.161,1.008-4.776-.776-2.319-.027-5.968.7-3.435,1.869-3.325,3.836-3.654,1.32-.221.256-2.724,3.026-3.235,2.176-.4,2.978.781,3.974.454C524.089,543.948,531.061,544.7,530,548.237Z" transform="translate(-511.573 -543.9)" fill="#161233"/>
            </g>
            <g id="Grupo_133263" data-name="Grupo 133263" transform="translate(37.713 136.58)">
              <path id="Trazado_194564" data-name="Trazado 194564" d="M616.442,1165.833c-.388,3.524.283,3.579,3.871,3.742,2.952.135,2.817-.758,2.584-3.869-.221-2.954-.334-2.447-3.273-2.9C617.349,1162.454,616.754,1162.993,616.442,1165.833Z" transform="translate(-616.345 -1162.71)" fill="#ff9365"/>
            </g>
            <g id="Grupo_133264" data-name="Grupo 133264" transform="translate(16.216 58.334)">
              <path id="Trazado_194565" data-name="Trazado 194565" d="M541.273,821.37c2.086,6.087,6.209,24.86,6.678,29.68.57,5.863,1.531,25.7,1.028,34.251-.166,2.821-9.777,2.8-9.926.224-.4-6.924-2.97-23.2-2.458-30.411-1.735-3.247-7.945-20.416-11.305-25.933-3-4.923-6.415-3.113-6.343-8.86.048-3.873,12.744-14.623,18.069-11.6C539.349,810.05,539.694,816.764,541.273,821.37Z" transform="translate(-518.946 -808.195)" fill="#212d58"/>
            </g>
            <g id="Grupo_133265" data-name="Grupo 133265" transform="translate(3.101 50.395)">
              <path id="Trazado_194566" data-name="Trazado 194566" d="M467.1,792.833c-.94,4.923-1.478,27.726-.923,30.9-3.016,4.129-6.126,25.677-6.643,31.7-.308,3.584,8.991,6.814,9.666.7,1.035-9.373,6.513-17.223,8.6-26.416,1.081-4.769,6.24-29.367,8.172-33.316,2.486-5.082,5.015-14.75,2.168-20.638-2.6-5.368-10.69-4-14.136.04C469.857,780.645,468.578,785.088,467.1,792.833Z" transform="translate(-459.525 -772.227)" fill="#212d58"/>
            </g>
            <g id="Grupo_133266" data-name="Grupo 133266" transform="translate(36.449 139.799)">
              <path id="Trazado_194567" data-name="Trazado 194567" d="M628.9,1179.761c2.065,1.041-1.016,3.242-4.342,3.239-2.385,0-10.656.338-12.576-.213-1.366-.392-1.607-.875-1.152-2.863.092-.4.559-2.884,1.614-2.378a6.947,6.947,0,0,0,3.477.739c.729-.141,2.284-1.229,2.973-.942C623.323,1179.186,627.364,1178.987,628.9,1179.761Z" transform="translate(-610.618 -1177.295)" fill="#161233"/>
            </g>
            <g id="Grupo_133267" data-name="Grupo 133267" transform="translate(10.279 24.307)">
              <path id="Trazado_194568" data-name="Trazado 194568" d="M517.655,659.893c.929,13.3.623,28.868,3.113,41.134-2.448,1.567-27.216,2.19-28.722-.225,4.2-19.888,0-27.286.472-37.421.231-4.952,4.282-7.663,11.02-9.119C507.7,653.364,517.315,655.023,517.655,659.893Z" transform="translate(-492.047 -654.029)" fill="#ffb30b"/>
            </g>
            <g id="Grupo_133268" data-name="Grupo 133268" transform="translate(9.98 36.218)">
              <path id="Trazado_194569" data-name="Trazado 194569" d="M504.214,744.8a63.256,63.256,0,0,1-11.429-.761c-1.167-.263-1.832-.581-2.092-1l.6-.373c.053.085.328.385,1.65.683,5.813,1.312,23.548.745,26.376-.462-1.676-8.419-2.063-18.376-2.438-28.01-.088-2.262-.179-4.6-.285-6.855l.7-.033c.106,2.257.2,4.6.285,6.86.377,9.7.767,19.74,2.476,28.157l.048.237-.2.13C518.5,744.273,511.14,744.8,504.214,744.8Z" transform="translate(-490.693 -707.992)"/>
            </g>
            <g id="Grupo_133269" data-name="Grupo 133269" transform="translate(21.646 19.016)">
              <path id="Trazado_194570" data-name="Trazado 194570" d="M543.547,638c-.1,1.858,7.454,2.624,7.4.33-.059-2.558-.148-4.1-.024-6.554.064-1.246-6.821-2.712-6.988-.788C543.774,632.852,543.672,635.581,543.547,638Z" transform="translate(-543.546 -630.057)" fill="#ff9365"/>
            </g>
            <g id="Grupo_133270" data-name="Grupo 133270" transform="translate(35.74 130.862)">
              <path id="Trazado_194571" data-name="Trazado 194571" d="M618.823,1142.437a2.472,2.472,0,0,1-1.541,1.36c-.666.232-6.124.756-8.135.278a2.439,2.439,0,0,1-1.467-.786c-.294-.4-.184-3.584-.278-4.735a11.7,11.7,0,0,0,2.265.657,6.734,6.734,0,0,0,2.559.14,13.629,13.629,0,0,0,5.031-2.306,1.465,1.465,0,0,1,.567-.238,1.029,1.029,0,0,1,1.026.789A23.645,23.645,0,0,1,618.823,1142.437Z" transform="translate(-607.402 -1136.803)" fill="#4d5779"/>
            </g>
            <g id="Grupo_133271" data-name="Grupo 133271" transform="translate(2.089 132.605)">
              <path id="Trazado_194572" data-name="Trazado 194572" d="M464.4,1152.106c-.676.261-7.425.039-9.146-1.9-.659-.743-.082-4.31.013-5.508a12.552,12.552,0,0,0,2.21,1.121,7.012,7.012,0,0,0,2.585.641,12.912,12.912,0,0,0,4.743-.689,6.691,6.691,0,0,1,1.045-.218C467.051,1145.47,466.08,1151.457,464.4,1152.106Z" transform="translate(-454.941 -1144.697)" fill="#4d5779"/>
            </g>
            <g id="Grupo_133272" data-name="Grupo 133272" transform="translate(23.226 22.051)">
              <path id="Trazado_194573" data-name="Trazado 194573" d="M550.7,643.879c0,.044.01.088.017.131.171,1.092,1.823,2.112,3.606,2.433a2,2,0,0,0,2.252-1.918c.025-.946.026-.154-.073-.481a29.331,29.331,0,0,0-5.7-.174A.874.874,0,0,0,550.7,643.879Z" transform="translate(-550.704 -643.808)"/>
            </g>
            <g id="Grupo_133273" data-name="Grupo 133273" transform="translate(19.689 5.684)">
              <path id="Trazado_194574" data-name="Trazado 194574" d="M534.708,579.211c.422,5.885,3.267,7.474,6.848,8.293,4.006.916,6.459-3.358,6.04-9.217-.415-5.786-2.368-8.772-5.562-8.629C538.772,569.8,534.278,573.2,534.708,579.211Z" transform="translate(-534.68 -569.653)" fill="#ff9365"/>
            </g>
            <g id="Grupo_133274" data-name="Grupo 133274" transform="translate(15.038 0.027)">
              <path id="Trazado_194575" data-name="Trazado 194575" d="M532.038,548.359a17.116,17.116,0,0,1-3.049,4.487,4.137,4.137,0,0,1-3.538,1.288c-11.807-1.875-.967,15.979-6.62,10.605-2.85-2.709-5.789-4.082-5.009-7.776,1.008-4.776-.776-2.319-.027-5.968.7-3.435,1.869-3.325,3.836-3.654,1.32-.221.256-2.724,3.026-3.235,2.176-.4,2.978.781,3.974.454C526.123,544.07,533.095,544.82,532.038,548.359Z" transform="translate(-513.607 -544.022)" fill="#161233"/>
            </g>
            <g id="Grupo_133275" data-name="Grupo 133275" transform="translate(18.762 12.677)">
              <ellipse id="Elipse_5162" data-name="Elipse 5162" cx="1.544" cy="3.021" rx="1.544" ry="3.021" transform="matrix(0.951, -0.31, 0.31, 0.951, 0, 0.958)" fill="#ff9365"/>
            </g>
            <g id="Grupo_133276" data-name="Grupo 133276" transform="translate(25.648 18.898)">
              <path id="Trazado_194576" data-name="Trazado 194576" d="M561.678,629.522c1.365,3.267,4.544,1.419,4.077.062C565.139,629.608,562.4,630.023,561.678,629.522Z" transform="translate(-561.678 -629.522)" fill="#fff"/>
            </g>
            <g id="Grupo_133277" data-name="Grupo 133277" transform="translate(25.803 80.504)">
              <rect id="Rectángulo_294064" data-name="Rectángulo 294064" width="6.508" height="0.704" transform="translate(0 6.046) rotate(-68.27)"/>
            </g>
          </g>
          <g id="Grupo_133288" data-name="Grupo 133288">
            <g id="Grupo_133279" data-name="Grupo 133279" transform="translate(61.201)">
              <path id="Trazado_194577" data-name="Trazado 194577" d="M727.943,449.7a0,0,0,0,0,0,0,36.13,36.13,0,0,1-4.854-6.351q-.414-.691-.8-1.391-.76-1.393-1.382-2.836a35.19,35.19,0,0,1-1.627-23.53q.436-1.587,1-3.106A36.575,36.575,0,0,1,722.313,408a37.977,37.977,0,0,1,14.02-14.6,39.471,39.471,0,0,1,6.849-3.242,39.023,39.023,0,0,1,4.7-1.372c.208-.046.42-.094.63-.138a38.845,38.845,0,0,1,8-.815q.7,0,1.4.031a38.75,38.75,0,0,1,12.482,2.569,36.671,36.671,0,0,1,13.409,8.933,36.344,36.344,0,0,1,6.723,9.956,34.962,34.962,0,0,1,3.055,17.408,36.2,36.2,0,0,1-1.18,6.682,36.584,36.584,0,0,1-5.654,11.783q-1,1.389-2.124,2.676A39.065,39.065,0,0,1,762.4,460.5a38.6,38.6,0,0,1-14.173.024c-.714-.135-1.433-.286-2.143-.46a37.821,37.821,0,0,1-12.115-5.3A36.216,36.216,0,0,1,727.943,449.7Zm73.838-27.035a41.79,41.79,0,0,0-.748-6.943c-.086-.463-.184-.919-.287-1.376a41.842,41.842,0,0,0-1.653-5.517,43.425,43.425,0,0,0-3.492-7.221,43.89,43.89,0,0,0-4.765-6.487,44.6,44.6,0,0,0-19.452-12.746q-1.816-.6-3.7-1.062a47.217,47.217,0,0,0-29.357,2.314,46.744,46.744,0,0,0-4.932,2.395,45.566,45.566,0,0,0-21.942,27.661,42.768,42.768,0,0,0,2.02,28.662c.029.07.055.13.086.2.063.141.126.283.194.427q.557,1.23,1.2,2.432c.353.667.73,1.328,1.124,1.981.069.117.142.233.215.348a43.837,43.837,0,0,0,7.8,9.433c.192.179.4.357.594.532l.03.028q1.078.951,2.218,1.827,1.562,1.2,3.236,2.269h0l.006,0,.006,0A45.91,45.91,0,0,0,744,467.678c.116.028.234.059.355.084a46.941,46.941,0,0,0,10.683,1.257A47.6,47.6,0,0,0,785.4,458.1a45.511,45.511,0,0,0,11.789-14.823q.949-1.906,1.711-3.923.752-1.977,1.32-4.042a43.657,43.657,0,0,0,1.014-4.671,42.666,42.666,0,0,0,.491-4.5c.009-.115.013-.227.019-.342Q801.818,424.231,801.781,422.667Z" transform="translate(-709.885 -379.976)" fill="#052542"/>
            </g>
            <g id="Grupo_133280" data-name="Grupo 133280" transform="translate(0 60.263)">
              <path id="Trazado_194578" data-name="Trazado 194578" d="M433.624,700.093c2.611,5.746,9.4,7.443,15.16,4.833a12.065,12.065,0,0,0,2.09-1.228l21.564-12.411,37.793-21.751,2.369-1.362c2.471-1.832-1.282-6.587-3.114-9.054-1.038-1.394-2.585-3.947-4.186-5.265a2.431,2.431,0,0,0-2.55-.691l-3.119,1.586-60.311,30.638A10.955,10.955,0,0,0,433.624,700.093Z" transform="translate(-432.599 -653.014)" fill="#052542"/>
            </g>
            <g id="Grupo_133281" data-name="Grupo 133281" transform="translate(64.592 2.32)">
              <path id="Trazado_194579" data-name="Trazado 194579" d="M814.415,434.361q-.005-.391-.017-.782a44.08,44.08,0,0,0-1.067-8.337c-.1-.443-.208-.887-.324-1.326a44.079,44.079,0,0,0-2.421-6.91,45.329,45.329,0,0,0-2.345-4.557,44.852,44.852,0,0,0-6.477-8.5,44.22,44.22,0,0,0-18.646-11.429c-.7-.216-1.407-.417-2.118-.6a44.586,44.586,0,0,0-54.047,55.336q.408,1.423.911,2.826c.14.387.283.77.432,1.153a0,0,0,0,1,0,0c.179.461.37.921.565,1.377a0,0,0,0,1,0,0c.026.07.055.132.083.2.1.238.208.474.316.71.01.023.02.045.031.065v0q.693,1.517,1.506,2.987c.056.1.112.2.17.3.147.271.3.537.458.8l.21.35a44.906,44.906,0,0,0,5.648,7.5c.644.691,1.306,1.356,1.991,2,.2.193.406.379.611.566q1.1,1,2.255,1.917h0l.006,0,.006,0a44.391,44.391,0,0,0,16.509,8.187c.114.031.23.059.346.088a44.715,44.715,0,0,0,45.273-14.968,43.827,43.827,0,0,0,2.847-3.866c.091-.138.182-.278.269-.418q1.115-1.741,2.07-3.6.324-.624.625-1.262.905-1.9,1.634-3.917c.473-1.314.894-2.659,1.247-4.038.054-.2.106-.409.155-.613.234-.963.438-1.934.607-2.9.069-.382.13-.766.188-1.15l.018-.125q.19-1.289.3-2.575c.064-.713.108-1.43.137-2.142Q814.431,435.538,814.415,434.361ZM738.2,453.688a37.357,37.357,0,0,1-2.146-4.249,36.375,36.375,0,0,1-1.756-23.572c.273-1.057.588-2.094.948-3.1a36.51,36.51,0,0,1,15.424-18.993,37.132,37.132,0,0,1,11.171-4.536l.365-.079c.082-.019.165-.036.245-.053a36.574,36.574,0,0,1,7.751-.755c.451,0,.905.016,1.359.041a37.136,37.136,0,0,1,7.472,1.129c.239.062.473.126.709.192.206.056.411.117.614.177.081.023.162.048.242.073.131.04.262.08.393.123s.253.08.38.125.255.082.382.129.255.087.382.131l.477.17.035.015c.264.1.527.2.786.3.143.059.285.115.424.173l.011,0c.215.09.431.179.646.273l.015.007c.206.089.411.179.613.272.037.017.076.034.115.053.159.072.317.146.473.225.057.024.111.051.169.079.241.117.484.237.724.36.132.067.262.136.392.2l.158.085c.143.076.288.154.431.235.084.045.169.092.253.14.171.095.342.194.513.293s.361.212.54.322q.34.2.68.421h0c.117.075.231.15.345.223.183.122.366.243.55.367.123.082.248.168.37.257.172.119.345.24.512.361.142.1.284.207.423.314.277.2.552.416.823.629.109.088.219.176.33.264l.311.257q.794.659,1.551,1.363l.064.062c.12.108.235.219.35.329.474.455.933.923,1.384,1.4.066.071.134.144.2.217.106.114.212.231.318.347.148.165.292.331.439.5s.286.333.425.5c.311.372.615.752.912,1.136.111.148.223.293.333.441.132.179.265.361.4.543s.242.338.361.51c.1.15.208.3.308.453.088.129.172.258.253.387a1.166,1.166,0,0,1,.084.127c.081.122.159.244.238.369s.169.271.252.407c.115.187.231.379.343.571l.137.237a37.9,37.9,0,0,1,1.767,3.454q.514,1.149.948,2.326s0,0,0,.007v0a36.207,36.207,0,0,1,2.165,10.26c.027.449.048.9.06,1.347q.044,1.751-.081,3.509c0,.013,0,.024,0,.037-.01.152-.022.306-.035.46-.026.279-.052.561-.082.843-.047.438-.1.877-.168,1.314-.033.235-.068.47-.108.7-.026.16-.051.318-.079.476a.492.492,0,0,0-.009.057.517.517,0,0,0-.011.055c-.039.208-.075.415-.116.621s-.084.414-.129.62q-.044.214-.1.427c-.008.039-.018.079-.026.116-.027.123-.055.243-.086.363-.047.195-.1.392-.145.587-.013.048-.028.1-.041.149-.044.171-.09.339-.138.509-.023.087-.048.175-.073.26-.059.21-.119.417-.185.625q-.083.278-.173.557a.081.081,0,0,0-.008.024c-.06.181-.119.36-.181.541-.07.209-.141.412-.215.617q-.067.193-.14.379c-.159.427-.325.847-.5,1.265-.075.182-.155.365-.232.546-.118.265-.236.532-.358.8-.055.122-.111.243-.17.362s-.117.241-.175.36c-.048.1-.1.2-.15.3-.014.03-.031.061-.045.093-.055.106-.107.212-.164.316-.062.119-.121.236-.185.353-.045.089-.095.175-.142.264-.076.145-.156.286-.235.426-.116.205-.232.409-.352.61-.08.143-.165.283-.25.421-.024.041-.047.078-.071.119-.014.022-.028.043-.04.062-.071.117-.141.229-.214.343-.214.341-.432.68-.658,1.011-.1.149-.2.3-.3.444-.126.183-.254.362-.384.54a.189.189,0,0,1-.018.024c-.1.138-.2.273-.3.409-.051.069-.1.138-.156.206-.079.107-.16.211-.241.316-.051.066-.1.133-.153.2-.118.15-.236.3-.354.446-.143.176-.289.352-.435.525a36.29,36.29,0,0,1-3.113,3.262c-.188.172-.375.344-.565.511l-.171.151c-.146.132-.3.261-.449.388-.027.023-.053.049-.082.07-.185.159-.374.315-.565.469l-.05.042c-.132.105-.264.211-.4.314-.066.053-.132.105-.2.158-.086.068-.175.137-.264.2-.123.1-.248.192-.37.28-.05.038-.1.074-.148.107-.136.1-.275.2-.413.3-.107.078-.213.151-.318.222q-.592.416-1.2.806c-.16.1-.321.2-.481.3-.366.229-.739.45-1.116.665-.187.106-.375.211-.564.315-.174.1-.349.19-.525.283-.205.107-.414.217-.624.322-.333.167-.666.329-1,.484-.018.008-.032.017-.047.023l-.265.123c-.288.133-.577.257-.869.381l-.323.136c-.294.122-.592.239-.888.354-.15.056-.3.113-.448.167s-.3.11-.448.162c-.394.142-.792.273-1.194.4-.159.049-.315.1-.474.146l-.152.045-.549.158c-.207.056-.415.113-.625.167,0,0,0,0-.009,0-.16.043-.323.083-.484.121l-.321.077c-.152.038-.3.073-.454.1a.069.069,0,0,1-.022,0c-.163.038-.33.074-.494.107-.1.021-.2.042-.294.058-.16.036-.32.066-.481.095-.3.057-.607.11-.911.156-.167.029-.331.054-.5.077-.211.032-.422.062-.633.087q-.17.023-.339.04c-.149.019-.3.036-.446.052h0c-.35.038-.7.071-1.057.1-.153.012-.308.022-.463.032-.345.025-.693.038-1.04.05-.144.006-.285.012-.429.013-.057,0-.115,0-.172,0-.1.005-.2.006-.305.006l-.314,0q-.683,0-1.371-.024c-.172-.006-.346-.015-.518-.024-.522-.026-1.044-.065-1.564-.113-.176-.017-.352-.035-.524-.055-.308-.031-.616-.069-.924-.109s-.615-.087-.922-.138c-.441-.069-.885-.15-1.325-.237-.691-.138-1.389-.294-2.083-.475-.23-.061-.459-.123-.687-.186a.325.325,0,0,1-.05-.015c-.23-.064-.459-.13-.686-.2s-.463-.141-.692-.216a.273.273,0,0,1-.039-.013c-.22-.072-.443-.147-.663-.223h0c-.146-.047-.29-.1-.432-.151s-.285-.1-.427-.157c-.429-.157-.852-.325-1.273-.5l-.274-.116c-.191-.08-.383-.162-.572-.246-.132-.062-.265-.12-.4-.183-.193-.087-.386-.178-.575-.269-.358-.172-.714-.349-1.065-.534-.16-.083-.318-.166-.477-.252-.13-.071-.26-.142-.39-.215-.517-.284-1.027-.586-1.53-.9-.13-.08-.259-.162-.388-.244-.022-.016-.043-.028-.065-.044-.162-.1-.322-.206-.481-.314s-.319-.213-.476-.322a.7.7,0,0,1-.064-.044l-.489-.343c-.017-.014-.034-.026-.052-.037q-.478-.342-.942-.7c-.028-.023-.058-.044-.086-.067-.127-.1-.251-.195-.375-.294a1.427,1.427,0,0,1-.114-.091c-.146-.118-.292-.236-.437-.356s-.317-.263-.473-.4c-.006,0-.009-.007-.015-.011s0,0,0,0A36.8,36.8,0,0,1,738.2,453.688Z" transform="translate(-725.249 -390.488)" fill="#013863"/>
            </g>
            <g id="Grupo_133282" data-name="Grupo 133282" transform="translate(0.656 62.948)">
              <path id="Trazado_194580" data-name="Trazado 194580" d="M436.6,712.359c2.616,5.764,9.416,7.47,15.176,4.854a12.054,12.054,0,0,0,2.092-1.231l21.578-12.436,37.816-21.8,2.37-1.364c2.473-1.836-1.287-6.607-3.122-9.082-1.04-1.4-2.589-3.96-4.193-5.283a2.432,2.432,0,0,0-2.553-.695l-3.122,1.589-60.351,30.7A10.986,10.986,0,0,0,436.6,712.359Z" transform="translate(-435.57 -665.178)" fill="#013863"/>
            </g>
            <g id="Grupo_133285" data-name="Grupo 133285" transform="translate(72.321 10.175)">
              <g id="Grupo_133284" data-name="Grupo 133284" clip-path="url(#clip-path)">
                <g id="Grupo_133283" data-name="Grupo 133283" transform="translate(-0.066 0.015)" opacity="0.21">
                  <path id="Trazado_194581" data-name="Trazado 194581" d="M834.1,468.645a37.139,37.139,0,0,1-.819,4.083c-.012.05-.026.1-.04.151a36.964,36.964,0,0,1-5.434,11.778q-.778,1.116-1.629,2.167c-.145.18-.293.357-.441.534a36.688,36.688,0,0,1-3.159,3.31,37.469,37.469,0,0,1-18.617,9.357,36.835,36.835,0,0,1-13.954-.087c-.7-.14-1.411-.3-2.113-.482a37.092,37.092,0,0,1-14.906-7.754l-.006,0a37.342,37.342,0,0,1-7.856-9.4,37.78,37.78,0,0,1-2.178-4.311,36.917,36.917,0,0,1-1.782-23.917q.415-1.608.962-3.146a37.082,37.082,0,0,1,15.65-19.27,37.523,37.523,0,0,1,11.335-4.6c.122-.028.248-.054.37-.081.083-.019.167-.037.25-.054a37.05,37.05,0,0,1,7.864-.767c.458,0,.918.017,1.379.042a37.449,37.449,0,0,1,18.292,5.791,37.08,37.08,0,0,1,12.05,12.518,37.685,37.685,0,0,1,1.931,3.745q.525,1.17.966,2.365s0,0,0,.006a36.733,36.733,0,0,1,2.174,15.335C834.332,466.847,834.236,467.746,834.1,468.645Z" transform="translate(-759.966 -426.144)" fill="#9fa7d5"/>
                </g>
              </g>
            </g>
            <g id="Grupo_133286" data-name="Grupo 133286" transform="translate(95.867 10.179)" opacity="0.38" style="mix-blend-mode: multiply;isolation: isolate">
              <path id="Trazado_194583" data-name="Trazado 194583" d="M866.949,428.614a36.531,36.531,0,0,1,6.908-.592q.678,0,1.36.042a36.9,36.9,0,0,1,18.028,5.706,36.553,36.553,0,0,1,11.876,12.338,37.025,37.025,0,0,1,1.9,3.691q.517,1.154.952,2.333s0,0,0,.005a36.252,36.252,0,0,1,2.143,15.114q-.094,1.33-.288,2.659a36.787,36.787,0,0,1-.807,4.023c-.012.05-.025.1-.041.149a36.406,36.406,0,0,1-5.355,11.608q-.767,1.1-1.606,2.137-.213.263-.435.527a36.071,36.071,0,0,1-3.113,3.261,36.95,36.95,0,0,1-11.658,7.31c.027,0,.052-.008.079-.014a36.931,36.931,0,0,0,18.348-9.223,36.131,36.131,0,0,0,3.113-3.261c.147-.175.293-.351.435-.526q.84-1.037,1.606-2.138a36.4,36.4,0,0,0,5.355-11.608c.015-.048.029-.1.041-.149a36.73,36.73,0,0,0,.807-4.023q.195-1.329.288-2.659a36.264,36.264,0,0,0-2.143-15.114s0,0,0-.005q-.436-1.179-.952-2.333a36.981,36.981,0,0,0-1.9-3.691,36.481,36.481,0,0,0-22.433-16.915,37.069,37.069,0,0,0-7.472-1.129q-.682-.038-1.36-.042a36.517,36.517,0,0,0-7.751.756c-.081.017-.164.034-.245.053-.12.026-.245.051-.365.08a36.813,36.813,0,0,0-4.549,1.337C867.459,428.417,867.2,428.513,866.949,428.614Z" transform="translate(-866.949 -426.094)" fill="#262d56"/>
            </g>
            <g id="Grupo_133287" data-name="Grupo 133287" transform="translate(79.934 51.992)" style="mix-blend-mode: screen;isolation: isolate">
              <path id="Trazado_194584" data-name="Trazado 194584" d="M804.28,632.121c7.68,5.141,16.57,7.013,16.645.947.029-2.342-4.58-1.17-10.811-4.75-11.845-6.805-13.168-15.224-14.677-12.114C793.308,620.594,796.178,626.7,804.28,632.121Z" transform="translate(-794.76 -615.538)" fill="#e6e6e6"/>
            </g>
          </g>
          <g id="Grupo_133295" data-name="Grupo 133295" transform="translate(15.919 65.201)">
            <g id="Grupo_133289" data-name="Grupo 133289" transform="translate(0.839 5.503)">
              <path id="Trazado_194585" data-name="Trazado 194585" d="M525.345,722.183s-4.8,3.4-7.8.887c-4.084-3.414-9.008-20.062-9.008-20.062-.439-2.271,7.785-3.861,8.224-1.59Z" transform="translate(-508.523 -700.316)" fill="#ff9365"/>
            </g>
            <g id="Grupo_133290" data-name="Grupo 133290">
              <path id="Trazado_194586" data-name="Trazado 194586" d="M506.066,678.893c-2.7,3.752-.774,9.568.978,13.823.341.829,11.836-1.6,11.184-4.743C516.823,681.2,512.838,669.5,506.066,678.893Z" transform="translate(-504.722 -675.384)" fill="#ffb30b"/>
            </g>
            <g id="Grupo_133291" data-name="Grupo 133291" transform="translate(1.996 3.63)">
              <path id="Trazado_194587" data-name="Trazado 194587" d="M514.875,706.041c-.578,0-1-.1-1.109-.373l.651-.268a.2.2,0,0,0-.081-.1c.654.321,7.155-.84,9.763-2.922.663-.53.944-1.036.833-1.506a36.8,36.8,0,0,0-1.9-5.176c-.5-1.2-1.023-2.443-1.447-3.625l.663-.238c.418,1.165.934,2.4,1.434,3.591a37.174,37.174,0,0,1,1.934,5.287c.481,2.046-3.118,3.53-5.307,4.233A25.781,25.781,0,0,1,514.875,706.041Z" transform="translate(-513.766 -691.832)"/>
            </g>
            <g id="Grupo_133294" data-name="Grupo 133294" transform="translate(9.926 21.274)">
              <g id="Grupo_133292" data-name="Grupo 133292">
                <path id="Trazado_194588" data-name="Trazado 194588" d="M550.392,779.252c-1.569-.645-.254-7.123,1.618-7.39,5.424-.776,18.812,3.737,18.812,3.737l-.109,4.987S554.319,780.867,550.392,779.252Z" transform="translate(-549.695 -771.771)" fill="#ff9365"/>
              </g>
              <g id="Grupo_133293" data-name="Grupo 133293" transform="translate(18.64 2.436)">
                <path id="Trazado_194589" data-name="Trazado 194589" d="M642.224,782.808c.894-.029-1.357,3.152-.756,3.473.546.291,3.951.325,4.537.509,1.4.438,1.1,2-.335,2.845-5.5,3.242-7.456-.461-9.415-.445-1.378.012-3.814-6.366-.278-5.207C636.635,784.2,640.1,782.877,642.224,782.808Z" transform="translate(-634.147 -782.808)" fill="#ff9365"/>
              </g>
            </g>
          </g>
        </g>
        <g id="Grupo_133320" data-name="Grupo 133320" transform="translate(191.15 149.335)">
          <g id="Grupo_133297" data-name="Grupo 133297" transform="translate(0 21.382)">
            <rect id="Rectángulo_294065" data-name="Rectángulo 294065" width="129.616" height="42.408" fill="#084a93"/>
          </g>
          <g id="Grupo_133298" data-name="Grupo 133298" transform="translate(3.169 24.059)">
            <path id="Trazado_194590" data-name="Trazado 194590" d="M1192.812,822.659H1090.66V785.6h102.152ZM1091.322,822H1192.15v-35.73H1091.322Z" transform="translate(-1090.66 -785.605)" fill="#fff"/>
          </g>
          <g id="Grupo_133312" data-name="Grupo 133312" transform="translate(108.966)">
            <g id="Grupo_133300" data-name="Grupo 133300" transform="translate(5.457 6.409)">
              <g id="Grupo_133299" data-name="Grupo 133299">
                <path id="Trazado_194591" data-name="Trazado 194591" d="M1657.716,713.615l-.29,43.266c0,.491-.024.981-.066,1.468-1.083,13.218-15.327,24.629-24.295,30.556-3.929,2.6-6.847,4.144-7.2,4.327l-.029.015-.007,0s-1.953-1.017-4.88-2.855c-8.78-5.518-26.328-18.436-26.226-33.5l.29-43.264c3.41,0,26.834-6.685,30.825-7.83.334-.1.532-.152.57-.164,0,0,0,0,0,0h0a.007.007,0,0,1,0,0,.232.232,0,0,0,.04.011l.194.055c.071.022.155.046.254.075.121.033.265.075.429.121l.281.082.29.082,1.081.309c.2.055.406.115.623.177l1.169.331.488.139c.093.024.184.051.279.077l.51.146.347.1.482.135,1.213.34c.1.026.2.055.3.084l.617.172c.188.051.376.1.563.157.022.007.044.013.066.018l.568.159.075.02.57.157c.756.21,1.532.424,2.318.639.226.062.451.124.678.183.336.093.678.186,1.021.279l.343.093c.387.1.778.21,1.169.314l.347.093c.294.079.588.159.882.236s.563.15.844.223c.115.031.228.062.343.091l.683.179c.225.06.451.119.676.177l.336.086c.272.073.541.141.811.21q.328.086.65.166.584.152,1.152.292c.316.077.628.157.933.232q.613.152,1.2.292c.194.046.385.093.575.137.586.141,1.145.27,1.671.387l.442.1c.906.2,1.7.356,2.345.464l.309.049A8.2,8.2,0,0,0,1657.716,713.615Z" transform="translate(-1594.727 -705.637)" fill="#084a93"/>
              </g>
            </g>
            <g id="Grupo_133302" data-name="Grupo 133302" transform="translate(36.564 6.409)" opacity="0.4">
              <g id="Grupo_133301" data-name="Grupo 133301">
                <path id="Trazado_194592" data-name="Trazado 194592" d="M1767.545,713.615l-.345,44.128c0,.2,0,.4-.011.606-1.083,13.218-15.327,24.629-24.295,30.556-3.929,2.6-6.847,4.144-7.2,4.327l-.029.015-.007,0,.579-87.61v0h0a.008.008,0,0,0,.007,0,.232.232,0,0,0,.04.011c.042.013.106.031.194.055.071.022.155.046.254.075l.429.121.281.082.29.082,1.081.309.623.177,1.169.331.488.139c.093.024.184.051.279.077l.51.146.347.1.482.135,1.213.34.3.084.617.172c.186.053.373.1.563.157.022.007.044.013.066.018l.568.159.075.02c.188.053.378.106.57.157.756.21,1.532.424,2.318.639.226.062.451.124.678.183.336.093.678.186,1.021.279l.343.093c.387.1.778.21,1.169.314l.347.093c.294.079.588.159.882.236s.563.15.844.223c.115.031.228.062.343.091l.683.179c.225.06.451.119.676.177.113.029.225.06.336.086.272.073.541.141.811.21q.328.086.65.166.584.152,1.152.292l.933.232q.613.152,1.2.292c.194.049.387.093.575.137.586.141,1.145.27,1.671.387l.442.1c.906.2,1.7.356,2.345.464l.309.049A8.2,8.2,0,0,0,1767.545,713.615Z" transform="translate(-1735.663 -705.637)" fill="#6d7ee0"/>
              </g>
            </g>
            <g id="Grupo_133304" data-name="Grupo 133304">
              <g id="Grupo_133303" data-name="Grupo 133303">
                <path id="Trazado_194593" data-name="Trazado 194593" d="M1606.547,777.03a3.777,3.777,0,0,1-1.744-.429c-.089-.047-2.214-1.162-5.407-3.181-11.028-6.973-29.51-21.276-29.394-38.725l.3-45.277a3.744,3.744,0,0,1,2.668-3.573c2.8-.85,11.963-3.327,20.047-5.512l.131-.036c5.482-1.482,10.661-2.881,12.366-3.374l.6-.175a3.762,3.762,0,0,1,2.022-.02c1.195.321,29.3,7.869,33.163,9.118a3.746,3.746,0,0,1,2.605,3.6l-.3,45.278c-.05,7.4-3.464,14.976-10.149,22.51a91.011,91.011,0,0,1-17.208,14.556c-4.508,3-7.828,4.738-7.967,4.811A3.775,3.775,0,0,1,1606.547,777.03Zm.622-99.767a3.1,3.1,0,0,0-.862.122l-.605.175c-1.711.494-6.892,1.894-12.377,3.377l-.131.036c-8.08,2.184-17.238,4.659-20.028,5.506a3.084,3.084,0,0,0-2.2,2.944l-.3,45.277c-.115,17.129,18.174,31.261,29.085,38.161,3.17,2,5.272,3.108,5.359,3.154a3.152,3.152,0,0,0,2.869,0c.138-.072,3.428-1.8,7.907-4.775a90.326,90.326,0,0,0,17.08-14.443c6.575-7.411,9.934-14.838,9.982-22.075l.3-45.278a3.086,3.086,0,0,0-2.146-2.969c-3.852-1.243-31.938-8.788-33.131-9.109A3.1,3.1,0,0,0,1607.169,677.262Zm-.617,92.468-.165-.095c-1.08-.622-2.2-1.3-3.326-2.012-7.911-5-26.3-18.219-26.2-32.883l.288-42.966.24-.068c4.018-1.132,11.191-3.07,17.519-4.78l.139-.038c5.415-1.464,10.091-2.728,12.065-3.289l.088-.025.089.024c5.178,1.393,22.61,6.091,29.51,8.062l.242.069-.288,42.951c-.089,13.321-15.261,25.392-24.3,31.4-2.4,1.6-4.445,2.813-5.737,3.552Zm-28.745-77.453-.284,42.468c-.1,14.332,18.076,27.376,25.893,32.319,1.063.672,2.117,1.311,3.138,1.9,1.29-.742,3.25-1.915,5.535-3.435,8.927-5.937,23.915-17.84,24-30.854l.284-42.448c-7.012-2-23.947-6.561-29.17-7.967-2.026.574-6.647,1.823-11.985,3.266l-.139.038C1588.876,689.243,1581.862,691.138,1577.806,692.277Z" transform="translate(-1570.002 -676.6)"/>
              </g>
            </g>
            <g id="Grupo_133311" data-name="Grupo 133311" transform="translate(20.65 25.313)">
              <g id="Grupo_133310" data-name="Grupo 133310">
                <g id="Grupo_133305" data-name="Grupo 133305" transform="translate(0 15.733)">
                  <path id="Rectángulo_294066" data-name="Rectángulo 294066" d="M12.664,0h6.5A12.664,12.664,0,0,1,31.827,12.664v0A12.665,12.665,0,0,1,19.163,25.329h-6.5A12.664,12.664,0,0,1,0,12.665v0A12.664,12.664,0,0,1,12.664,0Z" fill="#fff"/>
                </g>
                <g id="Grupo_133307" data-name="Grupo 133307" transform="translate(5.114)">
                  <g id="Grupo_133306" data-name="Grupo 133306">
                    <path id="Trazado_194594" data-name="Trazado 194594" d="M1708.332,807.021h-3.761v-4.3a7.05,7.05,0,1,0-14.077,0v4.3h-3.761v-4.3c0-6.3,4.845-11.43,10.8-11.43s10.8,5.127,10.8,11.43Z" transform="translate(-1686.733 -791.288)" fill="#fff"/>
                  </g>
                </g>
                <g id="Grupo_133309" data-name="Grupo 133309" transform="translate(12.547 21.326)">
                  <g id="Grupo_133308" data-name="Grupo 133308">
                    <path id="Trazado_194595" data-name="Trazado 194595" d="M1727.143,891.275a3.367,3.367,0,1,0-5.868,2.252,1.063,1.063,0,0,1,.267.867l-1.02,6.9a.662.662,0,0,0,.655.759h5.2a.662.662,0,0,0,.655-.759l-1.02-6.9a1.063,1.063,0,0,1,.267-.867A3.352,3.352,0,0,0,1727.143,891.275Z" transform="translate(-1720.41 -887.909)" fill="#084a93"/>
                  </g>
                </g>
              </g>
            </g>
          </g>
          <g id="Grupo_133315" data-name="Grupo 133315" transform="translate(13.492 29.281)">
            <g id="Grupo_133314" data-name="Grupo 133314">
              <g id="Grupo_133313" data-name="Grupo 133313">
                <path id="Trazado_194596" data-name="Trazado 194596" d="M1150.065,829.374s6.1-16.189,12.326-19.68c3-1.682,3.179,1.872.039,5.147-6.365,6.637-12.019,26.166-14.347,19.761-4.985-13.712-12.883-16.271-10.056-17.784C1143.1,814.1,1150.065,829.374,1150.065,829.374Z" transform="translate(-1137.432 -809.263)" fill="#fff"/>
              </g>
            </g>
          </g>
          <g id="Grupo_133319" data-name="Grupo 133319" transform="translate(45.91 33.145)">
            <g id="Grupo_133316" data-name="Grupo 133316">
              <path id="Trazado_194597" data-name="Trazado 194597" d="M1294.56,840.524a1.833,1.833,0,0,0-.643-1.5,8.192,8.192,0,0,0-2.306-1.122,17.772,17.772,0,0,1-5.155-2.351,4.249,4.249,0,0,1-1.676-3.624,4.383,4.383,0,0,1,2-3.731,8.527,8.527,0,0,1,5.073-1.424,7.713,7.713,0,0,1,5,1.569,4.786,4.786,0,0,1,1.884,4.04l-.025.076h-4.134a2.315,2.315,0,0,0-.743-1.783,2.912,2.912,0,0,0-2.054-.687,3.215,3.215,0,0,0-2.017.567,1.711,1.711,0,0,0-.731,1.4,1.481,1.481,0,0,0,.737,1.292,14.8,14.8,0,0,0,2.766,1.216,12.891,12.891,0,0,1,4.707,2.294,4.679,4.679,0,0,1,1.581,3.744,4.419,4.419,0,0,1-1.885,3.787,8.321,8.321,0,0,1-5,1.367,9.3,9.3,0,0,1-5.407-1.57,5.007,5.007,0,0,1-2.218-4.518l.025-.076h4.147a2.73,2.73,0,0,0,.857,2.269,4.131,4.131,0,0,0,2.6.681,3.079,3.079,0,0,0,1.973-.529A1.7,1.7,0,0,0,1294.56,840.524Z" transform="translate(-1284.311 -826.773)" fill="#fff"/>
            </g>
            <g id="Grupo_133317" data-name="Grupo 133317" transform="translate(16.297 0.002)">
              <path id="Trazado_194598" data-name="Trazado 194598" d="M1368.4,840.531a1.835,1.835,0,0,0-.643-1.5,8.214,8.214,0,0,0-2.307-1.122,17.772,17.772,0,0,1-5.155-2.351,4.25,4.25,0,0,1-1.676-3.624,4.383,4.383,0,0,1,2-3.731,8.528,8.528,0,0,1,5.073-1.424,7.714,7.714,0,0,1,5,1.569,4.785,4.785,0,0,1,1.884,4.04l-.025.076h-4.134a2.315,2.315,0,0,0-.744-1.784,2.912,2.912,0,0,0-2.054-.687,3.214,3.214,0,0,0-2.017.567,1.712,1.712,0,0,0-.731,1.4,1.483,1.483,0,0,0,.737,1.292,14.811,14.811,0,0,0,2.766,1.216,12.889,12.889,0,0,1,4.707,2.294,4.68,4.68,0,0,1,1.581,3.744,4.419,4.419,0,0,1-1.885,3.787,8.324,8.324,0,0,1-5,1.367,9.306,9.306,0,0,1-5.407-1.57,5.007,5.007,0,0,1-2.218-4.518l.025-.076h4.147a2.73,2.73,0,0,0,.857,2.269,4.131,4.131,0,0,0,2.6.681,3.081,3.081,0,0,0,1.973-.529A1.7,1.7,0,0,0,1368.4,840.531Z" transform="translate(-1358.147 -826.78)" fill="#fff"/>
            </g>
            <g id="Grupo_133318" data-name="Grupo 133318" transform="translate(33.099 0.267)">
              <path id="Trazado_194599" data-name="Trazado 194599" d="M1438.547,843.057h7.9v3.277h-12.175l0-18.351h4.273Z" transform="translate(-1434.274 -827.983)" fill="#fff"/>
            </g>
          </g>
        </g>
        <g id="Grupo_133335" data-name="Grupo 133335" transform="translate(373.14 43.716)">
          <g id="Grupo_133321" data-name="Grupo 133321">
            <path id="Trazado_194600" data-name="Trazado 194600" d="M2205.5,257.216h-129.78V198.065H2205.5Zm-128.677-1.1h127.573V199.169H2076.821Z" transform="translate(-2075.717 -198.065)" fill="#fff"/>
          </g>
          <g id="Grupo_133322" data-name="Grupo 133322" transform="translate(14.346 8.829)">
            <path id="Trazado_194601" data-name="Trazado 194601" d="M2231.431,255.722h-90.714V238.065h90.714Zm-89.61-1.1h88.507v-15.45h-88.507Z" transform="translate(-2140.717 -238.065)" fill="#fff"/>
          </g>
          <g id="Grupo_133323" data-name="Grupo 133323" transform="translate(14.346 36.859)">
            <path id="Trazado_194602" data-name="Trazado 194602" d="M2228.12,380.956h-87.4V365.065h87.4Zm-86.3-1.1h85.2V366.169h-85.2Z" transform="translate(-2140.717 -365.065)" fill="#fff"/>
          </g>
          <g id="Grupo_133324" data-name="Grupo 133324" transform="translate(23.506 42.046)">
            <circle id="Elipse_5163" data-name="Elipse 5163" cx="2.649" cy="2.649" r="2.649" fill="#fff"/>
          </g>
          <g id="Grupo_133325" data-name="Grupo 133325" transform="translate(32.114 42.046)">
            <circle id="Elipse_5164" data-name="Elipse 5164" cx="2.649" cy="2.649" r="2.649" fill="#fff"/>
          </g>
          <g id="Grupo_133326" data-name="Grupo 133326" transform="translate(40.722 42.046)">
            <circle id="Elipse_5165" data-name="Elipse 5165" cx="2.649" cy="2.649" r="2.649" fill="#fff"/>
          </g>
          <g id="Grupo_133327" data-name="Grupo 133327" transform="translate(49.33 42.046)">
            <circle id="Elipse_5166" data-name="Elipse 5166" cx="2.649" cy="2.649" r="2.649" fill="#fff"/>
          </g>
          <g id="Grupo_133328" data-name="Grupo 133328" transform="translate(57.937 42.046)">
            <circle id="Elipse_5167" data-name="Elipse 5167" cx="2.649" cy="2.649" r="2.649" fill="#fff"/>
          </g>
          <g id="Grupo_133329" data-name="Grupo 133329" transform="translate(66.545 42.046)">
            <circle id="Elipse_5168" data-name="Elipse 5168" cx="2.649" cy="2.649" r="2.649" fill="#fff"/>
          </g>
          <g id="Grupo_133334" data-name="Grupo 133334" transform="translate(24.38 13.7)">
            <g id="Grupo_133330" data-name="Grupo 133330">
              <path id="Trazado_194603" data-name="Trazado 194603" d="M2192.819,268.354h-1.643l-3.319-5.617-.034.006v5.611h-1.648v-8.219h1.648l3.319,5.611.034-.006v-5.605h1.643Z" transform="translate(-2186.175 -260.135)" fill="#fff"/>
            </g>
            <g id="Grupo_133331" data-name="Grupo 133331" transform="translate(7.485)">
              <path id="Trazado_194604" data-name="Trazado 194604" d="M2225.2,266.581h-2.884l-.559,1.773h-1.665l2.828-8.219h1.688l2.817,8.219h-1.665Zm-2.478-1.292h2.072l-1.016-3.229h-.034Z" transform="translate(-2220.087 -260.135)" fill="#fff"/>
            </g>
            <g id="Grupo_133332" data-name="Grupo 133332" transform="translate(15.585)">
              <path id="Trazado_194605" data-name="Trazado 194605" d="M2258.937,260.135l2.094,6.057h.034l2.111-6.057h2.156v8.219h-1.648V265.9l.158-3.63-.034-.006-2.2,6.085H2260.5l-2.19-6.062-.034.006.158,3.607v2.45h-1.648v-8.219Z" transform="translate(-2256.786 -260.135)" fill="#fff"/>
            </g>
            <g id="Grupo_133333" data-name="Grupo 133333" transform="translate(25.672)">
              <path id="Trazado_194606" data-name="Trazado 194606" d="M2307.539,264.741h-3.4v2.342h3.979v1.27h-5.627v-8.219h5.616v1.27h-3.968v2.066h3.4Z" transform="translate(-2302.487 -260.135)" fill="#fff"/>
            </g>
          </g>
        </g>
        <g id="Grupo_133336" data-name="Grupo 133336" transform="translate(184.97 203.139)">
          <path id="Trazado_194607" data-name="Trazado 194607" d="M990.276,965.033l-10.45-6.382,9.851-16.128-9.413-5.75,30.108-16.4-.848,34.277-9.4-5.74Zm-9.539-6.6,9.32,5.692L999.907,948l8.984,5.487.791-31.983-28.094,15.307,9,5.5Z" transform="translate(-979.826 -920.369)"/>
        </g>
        <g id="Grupo_133345" data-name="Grupo 133345" transform="translate(37.035 218.621)">
          <g id="Grupo_133337" data-name="Grupo 133337" transform="translate(9.188 10.691)">
            <rect id="Rectángulo_294067" data-name="Rectángulo 294067" width="10.612" height="0.662" transform="translate(0 10.421) rotate(-79.118)" fill="#fff"/>
          </g>
          <g id="Grupo_133338" data-name="Grupo 133338" transform="translate(3.154 4.398)">
            <path id="Trazado_194608" data-name="Trazado 194608" d="M191.818,1027.765H185V1024a3.821,3.821,0,0,0-1.068-2.686,6.749,6.749,0,0,1-1.841-4.553,6.319,6.319,0,1,1,12.174,2.383,6.21,6.21,0,0,1-1.349,2.144,3.864,3.864,0,0,0-1.094,2.689Zm-6.16-.662h5.5v-3.126a4.524,4.524,0,0,1,1.279-3.148,5.565,5.565,0,0,0,1.21-1.925,5.657,5.657,0,1,0-10.486-.027,5.574,5.574,0,0,0,1.244,1.976,4.478,4.478,0,0,1,1.256,3.148Z" transform="translate(-182.088 -1010.442)" fill="#fff"/>
          </g>
          <g id="Grupo_133339" data-name="Grupo 133339" transform="translate(9.474 4.398)">
            <path id="Trazado_194609" data-name="Trazado 194609" d="M217.039,1016.761h-.662a5.664,5.664,0,0,0-5.657-5.657v-.662A6.327,6.327,0,0,1,217.039,1016.761Z" transform="translate(-210.72 -1010.442)" fill="#fff"/>
          </g>
          <g id="Grupo_133340" data-name="Grupo 133340" transform="translate(6.063 21.988)">
            <path id="Trazado_194610" data-name="Trazado 194610" d="M198.8,1093.76h-.24a3.294,3.294,0,0,1-3.291-3.291v-.331h6.821v.331A3.3,3.3,0,0,1,198.8,1093.76Zm-2.848-2.96a2.633,2.633,0,0,0,2.608,2.3h.24a2.633,2.633,0,0,0,2.608-2.3Z" transform="translate(-195.267 -1090.138)" fill="#fff"/>
          </g>
          <g id="Grupo_133341" data-name="Grupo 133341" transform="translate(7.271 10.755)">
            <rect id="Rectángulo_294068" data-name="Rectángulo 294068" width="0.662" height="10.534" transform="translate(0 0.12) rotate(-10.474)" fill="#fff"/>
          </g>
          <g id="Grupo_133342" data-name="Grupo 133342" transform="translate(15.198 3.924)">
            <rect id="Rectángulo_294069" data-name="Rectángulo 294069" width="3.264" height="0.662" transform="matrix(0.809, -0.588, 0.588, 0.809, 0, 1.92)" fill="#fff"/>
          </g>
          <g id="Grupo_133343" data-name="Grupo 133343" transform="translate(0 3.924)">
            <rect id="Rectángulo_294070" data-name="Rectángulo 294070" width="0.662" height="3.264" transform="translate(0 0.535) rotate(-53.972)" fill="#fff"/>
          </g>
          <g id="Grupo_133344" data-name="Grupo 133344" transform="translate(9.143)">
            <rect id="Rectángulo_294071" data-name="Rectángulo 294071" width="0.662" height="3.264" fill="#fff"/>
          </g>
        </g>
      </g>
    </g>
  </g>
</svg>
