<svg xmlns="http://www.w3.org/2000/svg" width="295" height="249.266" viewBox="0 0 295 249.266">
  <g id="Grupo_146530" data-name="Grupo 146530" transform="translate(-180 -2376)">
    <g id="Grupo_133617" data-name="Grupo 133617" transform="translate(7.791 -104)">
      <g id="Grupo_133616" data-name="Grupo 133616" transform="translate(172.209 2480)">
        <path id="Trazado_196681" data-name="Trazado 196681" d="M373.029,275.065H634.892a4.687,4.687,0,0,0,.857.383c9.717,2.185,15.649,9.453,15.687,19.486.061,15.907.015,31.814.017,47.721a21.618,21.618,0,0,1-1.808,8.5c-.885,2.1-2.132,2.918-4.56,2.916-75.153-.077-195.9-.062-271.056-.062-4.058,0-8.118-.076-12.173.038a3.018,3.018,0,0,1-3.042-1.807c-1.106-1.914-1.374-4.117-2.348-6.06V291.626c1.005-3.137,1.885-6.3,3.96-9C363.657,278.422,368.073,276.325,373.029,275.065ZM418.8,318.823a18.7,18.7,0,1,0-37.4-.234c-.158,10.084,8.525,18.81,18.718,18.81A18.87,18.87,0,0,0,418.8,318.823Zm178.568-6.267a4.206,4.206,0,0,0-4.144-4.206,4.267,4.267,0,0,0-4.081,4.042,4.114,4.114,0,0,0,8.226.164Zm-8.291,12.453a4.214,4.214,0,0,0-3.938-4.152,4.164,4.164,0,0,0-4.294,4.022,4.232,4.232,0,0,0,4.163,4.2A4.312,4.312,0,0,0,589.075,325.008Zm-12.533-8.475a4.127,4.127,0,0,0,4.223-4.084,4.275,4.275,0,0,0-4.03-4.089,4.168,4.168,0,0,0-4.188,4.138A4.058,4.058,0,0,0,576.542,316.533Zm-20.722,8.415a4.21,4.21,0,0,0-4-4.1,4.082,4.082,0,0,0-4.191,4.091,4.138,4.138,0,0,0,3.942,4.124A4.266,4.266,0,0,0,555.82,324.949Zm66.458.072a4.1,4.1,0,0,0-4.122-4.171,4.22,4.22,0,0,0-4.088,4.019,4.291,4.291,0,0,0,4.176,4.2A4.173,4.173,0,0,0,622.278,325.02Zm-8.311-12.664a4.162,4.162,0,0,0-4.078-4,4.268,4.268,0,0,0-4.127,4.235,4.14,4.14,0,0,0,4.119,3.949A4.045,4.045,0,0,0,613.967,312.357Zm-45.735,16.711a4.291,4.291,0,0,0,4.214-3.909,4.214,4.214,0,0,0-4.025-4.309,4.112,4.112,0,0,0-4.167,3.877A4.168,4.168,0,0,0,568.232,329.068Zm-4.091-16.521a4.247,4.247,0,0,0-3.931-4.173,4.119,4.119,0,0,0-4.271,4.026,4,4,0,0,0,3.881,4.126A4.124,4.124,0,0,0,564.141,312.547Zm37.441,8.3a4.216,4.216,0,0,0-4.129,3.969,4.294,4.294,0,0,0,4.116,4.26,4.237,4.237,0,0,0,4.1-4.007A4.149,4.149,0,0,0,601.581,320.848Zm-54.1-8.334a4.175,4.175,0,0,0-4.171-4.147,4.1,4.1,0,0,0-3.979,4.063,3.974,3.974,0,0,0,3.895,4.1A4.067,4.067,0,0,0,547.48,312.514Z" transform="translate(-356.468 -275.065)" fill="#00b1c9"/>
        <path id="Trazado_196682" data-name="Trazado 196682" d="M356.468,508.31V453.27c.888-1.024.81-2.4,1.3-3.582,1.708-4.136,1.66-4.156,6.126-4.156H644.482a17.611,17.611,0,0,0,1.946-.012,2.166,2.166,0,0,1,2.329,1.3,19.191,19.191,0,0,1,2.684,9.735q.028,24.351,0,48.7a19.461,19.461,0,0,1-2.553,9.531,2.481,2.481,0,0,1-2.518,1.439c-3.651-.075-7.312-.161-10.955.027-2,.1-2.775-.642-3.447-2.44a41.441,41.441,0,0,0-77.421.021c-.679,1.822-1.5,2.42-3.459,2.415-28.654-.072-102.9-.049-131.558-.049-19.076,0-38.151-.035-57.227.053-1.938.009-3.072-.6-3.725-2.3C357.861,512.076,357.171,510.191,356.468,508.31Zm43.707-8.752a18.676,18.676,0,1,0-18.784-18.711A18.8,18.8,0,0,0,400.175,499.558Zm197.19-24.792a4.112,4.112,0,1,0-4.322,3.946A4.107,4.107,0,0,0,597.365,474.766Zm-20.647,3.963a4.071,4.071,0,1,0-.158-8.14,4.1,4.1,0,0,0-4.014,4.036A4.058,4.058,0,0,0,576.718,478.729Zm37.243-3.96a4.084,4.084,0,0,0-4.1-4.189,4.214,4.214,0,0,0-4.109,3.984,4.113,4.113,0,0,0,3.9,4.149A4.008,4.008,0,0,0,613.961,474.769Zm-70.567,3.95a4.057,4.057,0,0,0,4.081-3.938,4.1,4.1,0,0,0-4.094-4.188,4.03,4.03,0,0,0-4.046,4.2A3.97,3.97,0,0,0,543.394,478.719Zm16.626.006a4.124,4.124,0,0,0,4.12-3.942,4.187,4.187,0,0,0-4.129-4.194,4.057,4.057,0,0,0-4.068,3.963A4,4,0,0,0,560.02,478.725Z" transform="translate(-356.468 -358.288)" fill="#00b1c9"/>
        <path id="Trazado_196683" data-name="Trazado 196683" d="M356.468,662.066V608c.617-1.749,1.222-3.5,1.852-5.248.761-2.11,2.047-2.979,4.512-2.973,41.14.094,127.878.064,169.018.081,1.021,0,2.1-.293,3.014.283v78.565c-.51.056-.831.122-1.152.122-37.327.006-120.25.015-157.577,0a19.478,19.478,0,0,1-12.6-4.358C359.523,671.235,357.615,666.887,356.468,662.066Zm43.708-8.214a18.651,18.651,0,1,0-18.78-18.694A18.762,18.762,0,0,0,400.176,653.852Z" transform="translate(-356.468 -433.622)" fill="#00b1c9"/>
        <path id="Trazado_196685" data-name="Trazado 196685" d="M472.582,342.606A18.87,18.87,0,0,1,453.9,361.181c-10.193,0-18.876-8.726-18.718-18.81a18.7,18.7,0,1,1,37.4.234Z" transform="translate(-410.252 -298.848)" fill="#00defc"/>
        <path id="Trazado_196686" data-name="Trazado 196686" d="M760.288,344.318a4.114,4.114,0,0,1-8.226-.164,4.267,4.267,0,0,1,4.081-4.042A4.206,4.206,0,0,1,760.288,344.318Z" transform="translate(-519.39 -306.827)" fill="#fff"/>
        <path id="Trazado_196687" data-name="Trazado 196687" d="M744.08,368.7a4.313,4.313,0,0,1-4.068,4.067,4.232,4.232,0,0,1-4.163-4.2,4.164,4.164,0,0,1,4.294-4.022A4.214,4.214,0,0,1,744.08,368.7Z" transform="translate(-511.473 -318.758)" fill="#fff"/>
        <path id="Trazado_196688" data-name="Trazado 196688" d="M723.631,348.3a4.058,4.058,0,0,1-3.995-4.035,4.168,4.168,0,0,1,4.188-4.138,4.275,4.275,0,0,1,4.03,4.089A4.127,4.127,0,0,1,723.631,348.3Z" transform="translate(-503.556 -306.836)" fill="#fff"/>
        <path id="Trazado_196689" data-name="Trazado 196689" d="M679.132,368.638a4.266,4.266,0,0,1-4.247,4.116,4.138,4.138,0,0,1-3.942-4.124,4.082,4.082,0,0,1,4.191-4.091A4.21,4.21,0,0,1,679.132,368.638Z" transform="translate(-479.78 -318.754)" fill="#fff"/>
        <path id="Trazado_196690" data-name="Trazado 196690" d="M808.987,368.71a4.173,4.173,0,0,1-4.033,4.05,4.291,4.291,0,0,1-4.176-4.2,4.22,4.22,0,0,1,4.088-4.019A4.1,4.1,0,0,1,808.987,368.71Z" transform="translate(-543.178 -318.755)" fill="#fff"/>
        <path id="Trazado_196691" data-name="Trazado 196691" d="M792.748,344.124a4.045,4.045,0,0,1-4.085,4.182,4.14,4.14,0,0,1-4.119-3.949,4.268,4.268,0,0,1,4.127-4.235A4.162,4.162,0,0,1,792.748,344.124Z" transform="translate(-535.25 -306.832)" fill="#fff"/>
        <path id="Trazado_196692" data-name="Trazado 196692" d="M707.4,372.758a4.168,4.168,0,0,1-3.978-4.341,4.111,4.111,0,0,1,4.167-3.877,4.214,4.214,0,0,1,4.024,4.309A4.29,4.29,0,0,1,707.4,372.758Z" transform="translate(-495.638 -318.755)" fill="#fff"/>
        <path id="Trazado_196693" data-name="Trazado 196693" d="M695.379,344.326a4.124,4.124,0,0,1-4.321,3.978,4,4,0,0,1-3.881-4.126,4.119,4.119,0,0,1,4.271-4.026A4.247,4.247,0,0,1,695.379,344.326Z" transform="translate(-487.706 -306.844)" fill="#fff"/>
        <path id="Trazado_196694" data-name="Trazado 196694" d="M772.434,364.537a4.149,4.149,0,0,1,4.084,4.223,4.237,4.237,0,0,1-4.1,4.007,4.294,4.294,0,0,1-4.116-4.26A4.216,4.216,0,0,1,772.434,364.537Z" transform="translate(-527.321 -318.754)" fill="#fff"/>
        <path id="Trazado_196695" data-name="Trazado 196695" d="M662.87,344.292a4.066,4.066,0,0,1-4.256,4.014,3.974,3.974,0,0,1-3.895-4.1,4.1,4.1,0,0,1,3.979-4.063A4.175,4.175,0,0,1,662.87,344.292Z" transform="translate(-471.858 -306.843)" fill="#fff"/>
        <path id="Trazado_196696" data-name="Trazado 196696" d="M453.959,515.5a18.676,18.676,0,1,1,18.622-18.607A18.871,18.871,0,0,1,453.959,515.5Z" transform="translate(-410.251 -374.231)" fill="#00defc"/>
        <path id="Trazado_196697" data-name="Trazado 196697" d="M760.29,498.718a4.112,4.112,0,0,1-8.22-.2,4.112,4.112,0,0,1,8.22.2Z" transform="translate(-519.393 -382.24)" fill="#fff"/>
        <path id="Trazado_196698" data-name="Trazado 196698" d="M723.805,502.671a4.058,4.058,0,0,1-4.172-4.1,4.1,4.1,0,0,1,4.014-4.036,4.071,4.071,0,1,1,.158,8.14Z" transform="translate(-503.555 -382.23)" fill="#fff"/>
        <path id="Trazado_196699" data-name="Trazado 196699" d="M792.739,498.7a4.008,4.008,0,0,1-4.3,3.944,4.113,4.113,0,0,1-3.9-4.149,4.214,4.214,0,0,1,4.109-3.984A4.084,4.084,0,0,1,792.739,498.7Z" transform="translate(-535.246 -382.222)" fill="#fff"/>
        <path id="Trazado_196700" data-name="Trazado 196700" d="M658.789,502.666a3.97,3.97,0,0,1-4.058-3.925,4.03,4.03,0,0,1,4.046-4.2,4.1,4.1,0,0,1,4.093,4.188A4.057,4.057,0,0,1,658.789,502.666Z" transform="translate(-471.862 -382.235)" fill="#fff"/>
        <path id="Trazado_196701" data-name="Trazado 196701" d="M691.262,502.667a4,4,0,0,1-4.078-4.174,4.057,4.057,0,0,1,4.068-3.963,4.187,4.187,0,0,1,4.13,4.194A4.124,4.124,0,0,1,691.262,502.667Z" transform="translate(-487.71 -382.23)" fill="#fff"/>
        <path id="Trazado_196702" data-name="Trazado 196702" d="M453.963,669.857a18.651,18.651,0,1,1,18.62-18.592A18.825,18.825,0,0,1,453.963,669.857Z" transform="translate(-410.255 -449.628)" fill="#00defc"/>
        <path id="Trazado_196703" data-name="Trazado 196703" d="M671.216,584.45h16.466c-.707-10.907,2.518-20.065,11.032-26.9a27.779,27.779,0,0,1,18.992-6.26,28.389,28.389,0,0,1,21.221,10.352c5.5,6.454,7.4,14.086,6.75,22.753h16.562v74.8H671.216Zm8.32,8.455v57.973h74.334V592.906Zm16.534-8.6h41.24c.829-8.918-1.734-16.324-9.247-21.225-7.293-4.759-15.075-4.828-22.459-.156C697.9,567.795,695.339,575.262,696.071,584.3Z" transform="translate(-479.913 -409.934)" fill="#ffb30b"/>
        <path id="Trazado_196704" data-name="Trazado 196704" d="M687.476,632.641h74.335v57.973H687.476Zm41.447,45.176c9.851-4.759,13.911-11.553,11.9-19.908a16.584,16.584,0,0,0-32.375.2c-1.348,6.575.663,15.6,11.943,19.69a40.242,40.242,0,0,0,.32,5.542,3.526,3.526,0,0,0,4.035,3.1C730.389,685.728,728.24,681.048,728.923,677.817Z" transform="translate(-487.853 -449.669)" fill="#fff"/>
        <path id="Trazado_196705" data-name="Trazado 196705" d="M719.675,592.122c-.732-9.04,1.832-16.507,9.534-21.381,7.384-4.672,15.166-4.6,22.459.156,7.512,4.9,10.076,12.307,9.247,21.225Z" transform="translate(-503.517 -417.754)" fill="#fff"/>
        <path id="Trazado_196706" data-name="Trazado 196706" d="M748.581,689.635c-.683,3.231,1.467,7.911-4.18,8.623a3.526,3.526,0,0,1-4.035-3.1,40.218,40.218,0,0,1-.32-5.542c-11.281-4.088-13.292-13.114-11.944-19.69a16.584,16.584,0,0,1,32.375-.2C762.493,678.082,758.433,684.876,748.581,689.635Zm-4.309-7.916a8.263,8.263,0,0,0,8.317-8.343,8.273,8.273,0,1,0-16.546.174A8.221,8.221,0,0,0,744.272,681.719Z" transform="translate(-507.512 -461.487)" fill="#084a93"/>
        <path id="Trazado_196707" data-name="Trazado 196707" d="M752.2,689.64a8.221,8.221,0,0,1-8.229-8.168,8.273,8.273,0,1,1,8.229,8.168Z" transform="translate(-515.439 -469.409)" fill="#fff"/>
      </g>
    </g>
  </g>
</svg>
