<svg xmlns="http://www.w3.org/2000/svg" xmlns:xlink="http://www.w3.org/1999/xlink" width="1030" height="482" viewBox="0 0 1030 482">
  <defs>
    <linearGradient id="linear-gradient" x1="0.099" y1="0.5" x2="0.901" y2="0.5" gradientUnits="objectBoundingBox">
      <stop offset="0" stop-color="#fdb32b"/>
      <stop offset="1" stop-color="#00defc"/>
    </linearGradient>
  </defs>
  <g id="Grupo_146543" data-name="Grupo 146543" transform="translate(-285 -4905)">
    <g id="Grupo_133138" data-name="Grupo 133138" transform="translate(285 5054.236)">
      <path id="Trazado_194454" data-name="Trazado 194454" d="M885.451,397.615c-49.676,0-74.237-43.64-95.909-82.142-20.367-36.186-39.6-70.366-75.769-70.366s-55.4,34.18-75.764,70.366c-21.67,38.5-46.231,82.142-95.9,82.142s-74.23-43.64-95.9-82.142c-20.367-36.186-39.6-70.366-75.764-70.366s-55.393,34.18-75.757,70.366c-21.668,38.5-46.228,82.142-95.9,82.142s-74.23-43.64-95.9-82.142c-20.364-36.186-39.6-70.366-75.762-70.366V222c49.671,0,74.23,43.638,95.9,82.142,20.364,36.186,39.6,70.366,75.762,70.366s55.395-34.18,75.759-70.366C296.214,265.638,320.773,222,370.442,222s74.232,43.638,95.9,82.142c20.364,36.186,39.6,70.366,75.762,70.366s55.4-34.18,75.766-70.368c21.67-38.5,46.231-82.139,95.9-82.139s74.234,43.638,95.907,82.139c20.369,36.188,39.606,70.368,75.771,70.368s55.4-34.18,75.768-70.366c21.67-38.5,46.233-82.142,95.907-82.142v23.107c-36.163,0-55.4,34.18-75.769,70.366C959.687,353.975,935.124,397.615,885.451,397.615Z" transform="translate(-27.126 -222)" fill="url(#linear-gradient)"/>
    </g>
    <g id="Grupo_146538" data-name="Grupo 146538">
      <path id="Trazado_194460" data-name="Trazado 194460" d="M154.244,238.483a2.5,2.5,0,0,1-2.058-1.078l-31.4-45.394L88.269,237.438a2.5,2.5,0,0,1-4.066-2.91l36.65-51.205L156.3,234.561a2.5,2.5,0,0,1-2.054,3.922Z" transform="translate(335.352 4787.235)" fill="#ffb30b"/>
      <path id="Trazado_194461" data-name="Trazado 194461" d="M138.165,229.316a1,1,0,0,1-.823-.431l-22.531-32.57L91.489,228.9a1,1,0,0,1-1.626-1.164l24.976-34.894,24.147,34.908a1,1,0,0,1-.822,1.569Z" transform="translate(341.17 4796.292)" fill="#ffb30b"/>
    </g>
    <g id="Grupo_146539" data-name="Grupo 146539">
      <path id="Trazado_194460-2" data-name="Trazado 194460" d="M154.244,238.483a2.5,2.5,0,0,1-2.058-1.078l-31.4-45.394L88.269,237.438a2.5,2.5,0,0,1-4.066-2.91l36.65-51.205L156.3,234.561a2.5,2.5,0,0,1-2.054,3.922Z" transform="translate(679.761 4787.235)" fill="#ffb30b"/>
      <path id="Trazado_194461-2" data-name="Trazado 194461" d="M138.165,229.316a1,1,0,0,1-.823-.431l-22.531-32.57L91.489,228.9a1,1,0,0,1-1.626-1.164l24.976-34.894,24.147,34.908a1,1,0,0,1-.822,1.569Z" transform="translate(685.58 4796.292)" fill="#ffb30b"/>
    </g>
    <g id="Grupo_146540" data-name="Grupo 146540">
      <path id="Trazado_194460-3" data-name="Trazado 194460" d="M154.244,238.483a2.5,2.5,0,0,1-2.058-1.078l-31.4-45.394L88.269,237.438a2.5,2.5,0,0,1-4.066-2.91l36.65-51.205L156.3,234.561a2.5,2.5,0,0,1-2.054,3.922Z" transform="translate(1024.264 4787.235)" fill="#ffb30b"/>
      <path id="Trazado_194461-3" data-name="Trazado 194461" d="M138.165,229.316a1,1,0,0,1-.823-.431l-22.531-32.57L91.489,228.9a1,1,0,0,1-1.626-1.164l24.976-34.894,24.147,34.908a1,1,0,0,1-.822,1.569Z" transform="translate(1029.324 4796.292)" fill="#ffb30b"/>
    </g>
    <g id="Grupo_146534" data-name="Grupo 146534">
      <g id="Grupo_133140" data-name="Grupo 133140" transform="translate(730.133 5028.791)">
        <path id="Trazado_194456" data-name="Trazado 194456" d="M289.631,350.724A69.868,69.868,0,1,1,359.5,280.855,69.949,69.949,0,0,1,289.631,350.724Zm0-132.8a62.936,62.936,0,1,0,62.935,62.935A63.006,63.006,0,0,0,289.631,217.92Z" transform="translate(-219.764 -210.988)" fill="#b9ddfc"/>
      </g>
      <g id="Grupo_133144" data-name="Grupo 133144" transform="translate(760.533 5058.856)">
        <path id="Trazado_194470" data-name="Trazado 194470" d="M385.446,78.617q0,17.593,0,35.186c0,1.511-.378,1.889-1.889,1.889q-35.022,0-70.044,0a6.584,6.584,0,0,1-7-6.99q0-32.473,0-64.947a6.581,6.581,0,0,1,6.994-6.995q32.473,0,64.947,0a6.582,6.582,0,0,1,6.991,7Q385.449,61.188,385.446,78.617ZM309.144,49.9v.511q0,29.306,0,58.611a3.922,3.922,0,0,0,4.064,4.032q17.468.013,34.937,0c.155,0,.335.06.461-.138,0-3.9,0-7.814,0-11.733a6.614,6.614,0,0,1,4.532-6.628c2.384-.946,4.754-1.933,7.155-2.833a2.225,2.225,0,0,0,1.355-1.317c.2-.5.367-1.144-.174-1.573a9.428,9.428,0,0,1-3.55-5.966c-2.543-.39-4-1.8-4.053-3.889-.056-2.176,1.32-3.64,3.947-4.159,0-1.331-.025-2.671.005-4.01a5.205,5.205,0,0,1,5.1-5.1c3.945-.042,7.892-.018,11.837-.009a1.322,1.322,0,0,1,1.469,1.478c.015.986-.028,1.974.011,2.959a4.626,4.626,0,0,1-1,3.423c.747,1.158.747,1.158,1.983,1.485a3.905,3.905,0,0,1,2.641,5.3,3.99,3.99,0,0,1-3.713,2.486,9.651,9.651,0,0,1-3.222,5.7,1.775,1.775,0,0,0,.549,3.051c3.078,1.309,6.265,2.355,9.289,3.863V49.9Zm73.67-2.686c0-1.184,0-2.3,0-3.423,0-2.828-1.589-4.4-4.441-4.4H349.605q-18.124,0-36.247,0a3.826,3.826,0,0,0-4.112,3.238,36.663,36.663,0,0,0-.038,4.585ZM356.551,99.924v13.089H377.5V99.924ZM367.11,74.911c-1.726,0-3.451-.01-5.177,0a1.318,1.318,0,0,0-1.478,1.466c-.014,1.753-.028,3.507,0,5.259a6.587,6.587,0,0,0,5.991,6.4A6.513,6.513,0,0,0,373.46,82.7a41.212,41.212,0,0,0,.137-6.232c.022-1.068-.483-1.545-1.557-1.551C370.4,74.9,368.754,74.911,367.11,74.911Zm6.5-6.575H363a2.434,2.434,0,0,0-1.312.415c-1.111.7-1.518,2.062-1.106,3.715a6.018,6.018,0,0,1,1.948-.188q4.684,0,9.367,0c1.278,0,1.707-.441,1.712-1.735C373.607,69.836,373.605,69.128,373.605,68.336Zm-19.733,44.706c0-4.346,0-8.615,0-12.884a2.658,2.658,0,0,1,2.849-2.882c.955-.006,1.911,0,2.911,0l-.473-2.283c-1.766.71-3.455,1.383-5.139,2.067a3.955,3.955,0,0,0-2.779,4.092q-.007,5.628,0,11.255c0,.207-.083.437.1.636Zm28.942,0c0-4.031,0-8,0-11.963a3.97,3.97,0,0,0-2.7-3.992c-1.6-.64-3.189-1.286-4.787-1.917-.128-.051-.282-.2-.487.018l-.418,2.09c.964,0,1.891,0,2.818,0a2.675,2.675,0,0,1,2.938,2.958q.006,6,.006,11.994a1.413,1.413,0,0,0,.082.812ZM364.4,90.329l2.627,4.391,2.625-4.4A9.727,9.727,0,0,1,364.4,90.329Zm4.356,6.61c.963.655,1.984.179,2.9.342.588-1.513.741-2.9-.683-4.019Zm-6.383.3c2.244.141,2.375.123,2.859-.4l-2.146-3.562C361.639,94.387,361.828,95.767,362.377,97.239Zm-4.625-17.066V77.517c-.784.2-1.254.6-1.232,1.364A1.284,1.284,0,0,0,357.752,80.172Zm18.543-2.639v2.648c.788-.165,1.246-.578,1.24-1.332S377.078,77.684,376.294,77.534Z" transform="translate(-306.512 -36.759)" fill="#084a93"/>
        <path id="Trazado_194471" data-name="Trazado 194471" d="M373.956,149.625c0,2.849-.053,5.7.018,8.547a5.7,5.7,0,0,1-2.25,4.78,14.435,14.435,0,0,1-5.875,2.786,29.967,29.967,0,0,1-17.531-.7,11.687,11.687,0,0,1-3.886-2.238,5.7,5.7,0,0,1-2.067-4.534q.07-8.67,0-17.341a5.636,5.636,0,0,1,2.062-4.535,14.856,14.856,0,0,1,6.937-3.162,29.24,29.24,0,0,1,17.488,1.257,9.706,9.706,0,0,1,3.908,2.78,5.056,5.056,0,0,1,1.2,3.321C373.945,143.6,373.956,146.611,373.956,149.625Zm-15.2-14.506a27.59,27.59,0,0,0-8.009,1,12.017,12.017,0,0,0-4.531,2.219q-2.384,2.02-.027,4.055a7.719,7.719,0,0,0,2.078,1.3,26.071,26.071,0,0,0,18.531.537,9.325,9.325,0,0,0,3.484-1.949q2.066-1.885.025-3.788a8.886,8.886,0,0,0-2.565-1.6A23.75,23.75,0,0,0,358.754,135.118Zm12.567,10.024a28.622,28.622,0,0,1-26.307,0,26.632,26.632,0,0,1-.024,3.249c-.239,1.983.785,3.141,2.345,4.019a12.14,12.14,0,0,0,1.612.8,26.592,26.592,0,0,0,15.727.878,12.968,12.968,0,0,0,5.346-2.37,2.79,2.79,0,0,0,1.293-2.093C371.343,148.094,371.321,146.565,371.321,145.142Zm-.007,9.214a28.616,28.616,0,0,1-26.3-.013,26.474,26.474,0,0,1-.025,3.279c-.24,1.952.773,3.093,2.292,3.971a12.13,12.13,0,0,0,1.687.828,26.473,26.473,0,0,0,14.93,1.052,13.846,13.846,0,0,0,6.139-2.564,2.716,2.716,0,0,0,1.26-1.938C371.357,157.395,371.314,155.815,371.314,154.356Z" transform="translate(-334.488 -111.438)" fill="#084a93"/>
        <path id="Trazado_194472" data-name="Trazado 194472" d="M345.175,63.459h-2.553V60.892h2.553Z" transform="translate(-334.689 -55.59)" fill="#084a93"/>
        <path id="Trazado_194473" data-name="Trazado 194473" d="M369.124,63.451h-2.557V60.884h2.557Z" transform="translate(-353.374 -55.584)" fill="#084a93"/>
        <path id="Trazado_194474" data-name="Trazado 194474" d="M390.561,60.8H393.1v2.567h-2.539Z" transform="translate(-372.097 -55.519)" fill="#084a93"/>
        <path id="Trazado_194475" data-name="Trazado 194475" d="M571.92,340.128a3.943,3.943,0,1,1-3.9-3.943A3.958,3.958,0,0,1,571.92,340.128Zm-2.633-.032a1.312,1.312,0,1,0-1.26,1.345A1.322,1.322,0,0,0,569.286,340.1Z" transform="translate(-507.46 -270.405)" fill="#084a93"/>
        <path id="Trazado_194476" data-name="Trazado 194476" d="M567.139,246.191l1.289-2.23a4.088,4.088,0,0,0,3.944.01l1.276,2.193A6.111,6.111,0,0,1,567.139,246.191Z" transform="translate(-509.883 -198.442)" fill="#084a93"/>
        <path id="Trazado_194477" data-name="Trazado 194477" d="M394.247,162.668v2.565h-15.72v-2.565Z" transform="translate(-362.706 -135.008)" fill="#084a93"/>
        <path id="Trazado_194478" data-name="Trazado 194478" d="M363.221,204.7v2.514h-2.543V204.7Z" transform="translate(-348.779 -167.807)" fill="#084a93"/>
        <path id="Trazado_194479" data-name="Trazado 194479" d="M387.112,213.2h-2.539v-2.567h2.539Z" transform="translate(-367.424 -172.435)" fill="#084a93"/>
        <path id="Trazado_194480" data-name="Trazado 194480" d="M363.179,246.555V249.1h-2.567v-2.542Z" transform="translate(-348.727 -200.466)" fill="#084a93"/>
        <path id="Trazado_194481" data-name="Trazado 194481" d="M387.159,252.582v2.525H384.6v-2.525Z" transform="translate(-367.448 -205.169)" fill="#084a93"/>
      </g>
    </g>
    <g id="Grupo_146536" data-name="Grupo 146536">
      <g id="Grupo_133143" data-name="Grupo 133143" transform="translate(558.218 5116.613)">
        <path id="Trazado_194459" data-name="Trazado 194459" d="M215.232,388.807A69.868,69.868,0,1,1,285.1,318.94,69.947,69.947,0,0,1,215.232,388.807Zm0-132.8a62.936,62.936,0,1,0,62.935,62.937A63.007,63.007,0,0,0,215.232,256Z" transform="translate(-145.365 -249.071)" fill="#b9ddfc"/>
      </g>
      <g id="Grupo_133145" data-name="Grupo 133145" transform="translate(588.223 5143.566)">
        <path id="Trazado_194482" data-name="Trazado 194482" d="M724.365,611.512a3.58,3.58,0,0,0,1.594.3,5.446,5.446,0,0,1,5.045,5.64c0,.391,0,.782,0,1.294,1.251,0,2.452-.007,3.652,0a14.772,14.772,0,0,1,2.869.1,5.327,5.327,0,0,1,4.288,5.165c.048,2.874.018,5.749.018,8.624q0,15.261,0,30.523c0,1.631-.584,2.454-1.756,2.478-1.19.024-1.839-.854-1.839-2.49q0-19.193,0-38.387c0-1.849-.57-2.418-2.423-2.417q-2.283,0-4.566.009a.653.653,0,0,0-.168.054,1.832,1.832,0,0,0-.069.9q-.008,18.052,0,36.1c0,.31.008.621-.016.93a1.8,1.8,0,0,1-1.769,1.7,1.819,1.819,0,0,1-1.8-1.68c-.026-.28-.011-.563-.011-.845q0-20.927,0-41.853c0-1.487-.555-2.071-2.017-2.273-7.294-1.009-13.709,1.091-19.6,5.323a4.083,4.083,0,0,0-1.9,3.8c.075,14.965.042,29.931.045,44.9,0,.477.032.955.059,1.432a1.906,1.906,0,0,1-1.94,2.067q-17-.014-34-.042a5.41,5.41,0,0,1-5.613-5.673q-.008-21.392,0-42.783a5.423,5.423,0,0,1,5.622-5.658c1.712-.017,3.423,0,5.145,0,.145-.882-.018-1.7.157-2.506a5.5,5.5,0,0,1,4.825-4.412,2.916,2.916,0,0,0,1.5-.313h5.075c.339.352.786.157,1.176.21a31.854,31.854,0,0,1,15.159,6.475c1.042.79,1.051.781,2.088-.006a32.164,32.164,0,0,1,12.92-6.075,26.372,26.372,0,0,0,3.337-.605h1.015a5.259,5.259,0,0,0,2.876,0Zm-24.056,55.765c.018-.255.033-.362.033-.469q0-22.019.013-44.039a1.137,1.137,0,0,0-.5-.98c-6.157-4.992-13.06-7.513-21.073-6.4a1.929,1.929,0,0,0-1.91,2.127c-.017,1.379,0,2.758,0,4.137q0,18.681,0,37.361c0,1.878.749,2.53,2.622,2.341a28.429,28.429,0,0,1,12.469,1.5A34.266,34.266,0,0,1,700.309,667.277Zm-27.034-44.94h-4.821c-1.763,0-2.41.633-2.41,2.369q0,21.1,0,42.2c0,1.726.606,2.326,2.348,2.326q13.7,0,27.4,0c.235,0,.47-.022.887-.043a27.468,27.468,0,0,0-5.228-2.7,26.625,26.625,0,0,0-12.031-1.546c-3.77.31-6.148-2.041-6.148-5.813q0-17.885,0-35.77Z" transform="translate(-662.446 -611.512)" fill="#084a93"/>
        <path id="Trazado_194483" data-name="Trazado 194483" d="M843.3,764.324A6.978,6.978,0,0,1,842,765.7q-5.007,4.147-10,8.315a1.8,1.8,0,0,1-2.248.3,1.748,1.748,0,0,1-.843-1.876,2.283,2.283,0,0,1,1.012-1.4q4.121-3.43,8.24-6.863c.148-.124.291-.254.5-.436l-6.046-5.043c-.994-.829-2-1.648-2.979-2.493a1.8,1.8,0,1,1,2.281-2.782q5.3,4.388,10.572,8.813a8.557,8.557,0,0,1,.813.9Z" transform="translate(-756.68 -691.596)" fill="#084a93"/>
        <path id="Trazado_194485" data-name="Trazado 194485" d="M799.095,611.512a5.259,5.259,0,0,1-2.876,0Z" transform="translate(-738.191 -611.512)" fill="#084a93"/>
        <path id="Trazado_194486" data-name="Trazado 194486" d="M758.582,763.768l6.658,5.551c.757.631,1.518,1.256,2.27,1.893a1.84,1.84,0,0,1,.439,2.73,1.819,1.819,0,0,1-2.7.074q-5.268-4.363-10.516-8.751a1.778,1.778,0,0,1-.034-2.964q5.3-4.458,10.636-8.871a1.8,1.8,0,0,1,2.632.182,1.783,1.783,0,0,1-.36,2.61c-2.843,2.393-5.7,4.762-8.56,7.142C758.922,763.47,758.8,763.582,758.582,763.768Z" transform="translate(-714.243 -691.595)" fill="#084a93"/>
        <path id="Trazado_194487" data-name="Trazado 194487" d="M806.367,746.6c-.031.129-.092.431-.176.726q-3.486,12.242-6.977,24.483c-.324,1.135-1,1.705-1.933,1.659a1.821,1.821,0,0,1-1.688-1.513,2.423,2.423,0,0,1,.149-1.16q3.507-12.281,7.029-24.558c.358-1.248,1.156-1.81,2.193-1.572A1.792,1.792,0,0,1,806.367,746.6Z" transform="translate(-737.822 -686.878)" fill="#084a93"/>
      </g>
    </g>
    <g id="Grupo_146533" data-name="Grupo 146533">
      <g id="Grupo_133139" data-name="Grupo 133139" transform="translate(386.302 5028.791)">
        <path id="Trazado_194455" data-name="Trazado 194455" d="M140.835,350.724A69.868,69.868,0,1,1,210.7,280.855,69.949,69.949,0,0,1,140.835,350.724Zm0-132.8a62.936,62.936,0,1,0,62.933,62.935A63.008,63.008,0,0,0,140.835,217.92Z" transform="translate(-70.966 -210.988)" fill="#b9ddfc"/>
      </g>
      <g id="Grupo_133146" data-name="Grupo 133146" transform="translate(413.724 5054.237)">
        <path id="Trazado_194488" data-name="Trazado 194488" d="M422.3,447.651v77.94c-.124.038-.139.144-.177.249a4.226,4.226,0,0,1-4.391,3.055q-37.8,0-75.609,0a4.241,4.241,0,0,1-4.544-4.543q0-37.8,0-75.609a5.863,5.863,0,0,1,.09-1.149,4.435,4.435,0,0,1,3.378-3.419h77.775c.122.256.386.144.578.211A4.635,4.635,0,0,1,422.3,447.651Zm-2.82,22.01H340.4v54.23c0,1.827.359,2.191,2.155,2.191h74.783c1.769,0,2.15-.375,2.15-2.114q0-26.72,0-53.44Zm0-2.918V466q0-8.561,0-17.12c0-1.421-.463-1.886-1.878-1.886H342.259c-1.4,0-1.862.47-1.862,1.9q0,8.519,0,17.037c0,.262-.092.546.108.809Z" transform="translate(-337.412 -444.176)" fill="#084a93"/>
        <path id="Trazado_194489" data-name="Trazado 194489" d="M340.888,444.176a4.435,4.435,0,0,0-3.378,3.419,5.866,5.866,0,0,0-.09,1.149q-.005,37.8,0,75.609a4.241,4.241,0,0,0,4.544,4.543q37.8,0,75.609,0a4.226,4.226,0,0,0,4.391-3.055c.038-.1.053-.211.177-.249v3.475H337.248V444.176Z" transform="translate(-337.248 -444.176)" fill="#f0f1f1"/>
        <path id="Trazado_194490" data-name="Trazado 194490" d="M500.942,447.651a4.635,4.635,0,0,0-2.9-3.264c-.192-.068-.456.045-.578-.211h3.475Z" transform="translate(-416.051 -444.176)" fill="#f0f1f1"/>
        <path id="Trazado_194491" data-name="Trazado 194491" d="M421.29,501.263c-.084.263-.178.578-.287.888q-8.292,23.52-16.586,47.039c-.055.156-.1.314-.171.465a1.39,1.39,0,0,1-1.816.841,1.352,1.352,0,0,1-.819-1.812c.936-2.729,1.9-5.45,2.858-8.171q6.929-19.63,13.866-39.258a4.127,4.127,0,0,1,.347-.834,1.32,1.32,0,0,1,1.585-.58A1.445,1.445,0,0,1,421.29,501.263Z" transform="translate(-368.857 -471.521)" fill="#084a93"/>
        <path id="Trazado_194492" data-name="Trazado 194492" d="M365.86,535.539c.672.632,1.226,1.127,1.751,1.65q6.759,6.749,13.509,13.507a5.246,5.246,0,0,1,.566.6,1.384,1.384,0,0,1-.132,1.813,1.422,1.422,0,0,1-1.817.15,4.282,4.282,0,0,1-.544-.5q-7.924-7.923-15.846-15.847c-1.065-1.065-1.071-1.656-.016-2.712q7.746-7.75,15.5-15.5a2.979,2.979,0,0,1,.484-.448,1.357,1.357,0,0,1,1.75.084,1.343,1.343,0,0,1,.251,1.793,4.342,4.342,0,0,1-.6.678q-7.014,7.019-14.035,14.033C366.463,535.054,366.218,535.236,365.86,535.539Z" transform="translate(-349.689 -480.473)" fill="#084a93"/>
        <path id="Trazado_194493" data-name="Trazado 194493" d="M457.117,535.532,442.359,520.79a5.942,5.942,0,0,1-.461-.474,1.4,1.4,0,0,1,1.974-1.979c.276.227.521.492.774.746q7.49,7.486,14.977,14.975c1.251,1.251,1.246,1.742-.023,3.011q-7.78,7.781-15.562,15.56a6.717,6.717,0,0,1-.6.573,1.43,1.43,0,0,1-1.884-.1,1.368,1.368,0,0,1-.087-1.875,6.262,6.262,0,0,1,.516-.536l14.566-14.569C456.726,535.954,456.89,535.772,457.117,535.532Z" transform="translate(-388.348 -480.483)" fill="#084a93"/>
        <path id="Trazado_194494" data-name="Trazado 194494" d="M351.508,463.679a5.639,5.639,0,0,1,11.278.117,5.639,5.639,0,1,1-11.278-.117Zm5.728-2.747a2.762,2.762,0,0,0-2.9,2.728,2.812,2.812,0,0,0,2.747,2.908,2.866,2.866,0,0,0,2.887-2.793A2.816,2.816,0,0,0,357.236,460.932Z" transform="translate(-344.261 -451.029)" fill="#084a93"/>
        <path id="Trazado_194495" data-name="Trazado 194495" d="M384.983,458.11a5.64,5.64,0,0,1-.154,11.278,5.64,5.64,0,1,1,.154-11.278Zm2.732,5.6a2.771,2.771,0,0,0-2.855-2.783,2.8,2.8,0,0,0-2.781,2.789,2.856,2.856,0,0,0,2.829,2.848A2.822,2.822,0,0,0,387.715,463.715Z" transform="translate(-357.911 -451.029)" fill="#084a93"/>
        <path id="Trazado_194496" data-name="Trazado 194496" d="M412.687,469.387a5.642,5.642,0,1,1,5.65-5.613A5.692,5.692,0,0,1,412.687,469.387Zm-.019-8.459a2.821,2.821,0,0,0-2.814,2.845,2.828,2.828,0,0,0,5.656-.032A2.812,2.812,0,0,0,412.668,460.929Z" transform="translate(-371.569 -451.026)" fill="#084a93"/>
        <path id="Trazado_194497" data-name="Trazado 194497" d="M359.968,463.664a2.816,2.816,0,0,1,2.73,2.843,2.866,2.866,0,0,1-2.887,2.793,2.812,2.812,0,0,1-2.747-2.908A2.762,2.762,0,0,1,359.968,463.664Z" transform="translate(-346.994 -453.761)" fill="#fff"/>
        <path id="Trazado_194498" data-name="Trazado 194498" d="M390.443,466.446a2.822,2.822,0,0,1-2.806,2.854,2.856,2.856,0,0,1-2.829-2.848,2.8,2.8,0,0,1,2.781-2.789A2.771,2.771,0,0,1,390.443,466.446Z" transform="translate(-360.64 -453.76)" fill="#fff"/>
        <path id="Trazado_194499" data-name="Trazado 194499" d="M415.4,463.663a2.812,2.812,0,0,1,2.842,2.813,2.828,2.828,0,0,1-5.656.032A2.821,2.821,0,0,1,415.4,463.663Z" transform="translate(-374.303 -453.761)" fill="#fff"/>
      </g>
    </g>
    <g id="Grupo_146535" data-name="Grupo 146535">
      <g id="Grupo_133142" data-name="Grupo 133142" transform="translate(902 5116.613)">
        <path id="Trazado_194458" data-name="Trazado 194458" d="M363.871,388.807A69.868,69.868,0,1,1,433.74,318.94,69.945,69.945,0,0,1,363.871,388.807Zm0-132.8a62.936,62.936,0,1,0,62.937,62.937A63.006,63.006,0,0,0,363.871,256Z" transform="translate(-294.004 -249.071)" fill="#b9ddfc"/>
      </g>
      <g id="Grupo_133147" data-name="Grupo 133147" transform="translate(918.764 5160.893)">
        <path id="Trazado_194500" data-name="Trazado 194500" d="M923.429,195.436a5.468,5.468,0,0,1-2.138-2.291c-.157-.333-.3-.547-.733-.543-2.35.023-4.7.011-7.147.011,0,3.956-.1,7.831.036,11.7a6.014,6.014,0,0,1-3.115,5.667,26.238,26.238,0,0,1-9.606,3.4,69.28,69.28,0,0,1-27.877-.452,22.673,22.673,0,0,1-7.691-3.035,6.072,6.072,0,0,1-2.967-5.521q.141-13.645.005-27.292a5.914,5.914,0,0,1,2.784-5.27,20.436,20.436,0,0,1,7.106-2.96,67.057,67.057,0,0,1,32.414.251,18.568,18.568,0,0,1,6.31,2.816,5.742,5.742,0,0,1,2.629,5.122c-.1,3.918-.028,7.839-.028,11.914h7.38c.43,0,.414-.4.543-.637a5.282,5.282,0,0,1,2.1-2.183,6.038,6.038,0,0,1,5.368-.11,5,5,0,0,1,2.872,4.711,5.182,5.182,0,0,1-2.869,4.835A5.448,5.448,0,0,1,923.429,195.436Zm-13.675-13.961a63.41,63.41,0,0,1-43.868-.007c0,2.7.052,5.593-.026,8.481a2.445,2.445,0,0,0,1.283,2.333,17.625,17.625,0,0,0,5.249,2.135,64.638,64.638,0,0,0,29.5.35,19.593,19.593,0,0,0,6.572-2.473,2.2,2.2,0,0,0,1.31-1.967C909.722,187.324,909.754,184.318,909.754,181.475Zm0,14.337c-7.018,3.394-14.447,4.081-21.96,4.082s-14.934-.708-21.905-4.085c0,2.977.051,5.866-.026,8.752a2.446,2.446,0,0,0,1.275,2.336,17.493,17.493,0,0,0,5.248,2.138,64.485,64.485,0,0,0,30.164.2,17.621,17.621,0,0,0,6-2.377c.558-.373,1.194-.76,1.2-1.557C909.759,202.161,909.751,199.02,909.751,195.812ZM887.8,181.666c5.928-.109,11.793-.545,17.439-2.5a16.673,16.673,0,0,0,2.408-1.016c.856-.458,2.021-.878,2.031-1.959.01-1.148-1.194-1.563-2.08-2.041a17.025,17.025,0,0,0-2.3-.975,41.892,41.892,0,0,0-10.467-2.153,64.16,64.16,0,0,0-22.651,1.553,17.475,17.475,0,0,0-4.439,1.741c-.773.457-1.824.839-1.8,1.871.027,1.009,1.058,1.4,1.849,1.837a14.747,14.747,0,0,0,1.961.9C875.586,181.084,881.675,181.551,887.8,181.666Zm36.58,9.029a1.823,1.823,0,1,0,1.88-1.736A1.842,1.842,0,0,0,924.383,190.695Z" transform="translate(-862.191 -165.184)" fill="#084a93"/>
        <path id="Trazado_194501" data-name="Trazado 194501" d="M1124.76,187.224a3.363,3.363,0,0,0-1.128-3.606,6.7,6.7,0,0,1-2.3-4.71,45.71,45.71,0,0,1,.076-10.358,8.974,8.974,0,0,1,9.731-7.421,9.092,9.092,0,0,1,8.3,8.908,61.808,61.808,0,0,1-.162,9.117,8.511,8.511,0,0,1-2.88,5.169,1.905,1.905,0,0,0,.631,3.279c2.7.9,5.391,1.829,8.1,2.7a2.105,2.105,0,0,1,1.657,2.257c-.021,5.823-.005,11.646-.012,17.469,0,1.623-.648,2.25-2.307,2.251q-14.16.006-28.321,0c-1.632,0-2.269-.644-2.27-2.286-.006-5.785.012-11.57-.014-17.355a2.145,2.145,0,0,1,1.692-2.34C1118.632,189.321,1121.674,188.26,1124.76,187.224Zm7.465,10.972V208.56h10.9c0-4.88,0-9.7,0-14.523,0-.33-.039-.584-.415-.7-1.042-.324-2.077-.673-3.243-1.053,0,1.785.015,3.444,0,5.1a1.844,1.844,0,0,1-2.547,1.967C1135.377,198.981,1133.836,198.593,1132.225,198.2Zm-11.032-5.906c-1.027.342-1.939.713-2.886.939-.678.161-.785.5-.781,1.122.026,3.953.013,7.907.013,11.861v2.352h10.924V198.194c-1.6.394-3.145.778-4.689,1.149-1.628.392-2.564-.344-2.578-2.039C1121.182,195.675,1121.193,194.047,1121.193,192.289Zm14.612-18.594a12.378,12.378,0,0,0-10.934-.048c0,1.416-.093,2.942.02,4.453a5.47,5.47,0,0,0,10.9-.2C1135.862,176.463,1135.805,175.017,1135.805,173.7Zm-.133-3.891a5.363,5.363,0,0,0-5.533-5.041,5.269,5.269,0,0,0-5.1,5.054A12.463,12.463,0,0,1,1135.672,169.8Zm-7.106,16.708c-.378,2.075,1.071,3.388,1.771,5.01.683-1.661,2.21-2.977,1.741-5.012A8.8,8.8,0,0,1,1128.566,186.512Zm-2.771,4.34-.466-.067c-1.028,1.335-.2,2.948-.554,4.542l2.9-.734Zm10.02,4.446c0-1.248-.037-2.385.014-3.518.031-.693-.234-.966-.954-.939L1133,194.6Z" transform="translate(-1043.147 -161.094)" fill="#084a93"/>
        <path id="Trazado_194502" data-name="Trazado 194502" d="M941.636,239.212v3.526h-7.222v-3.526Z" transform="translate(-912.376 -215.375)" fill="#084a93"/>
        <path id="Trazado_194503" data-name="Trazado 194503" d="M934.306,290.662v-3.511h7.207v3.511Z" transform="translate(-912.301 -248.685)" fill="#084a93"/>
        <path id="Trazado_194504" data-name="Trazado 194504" d="M934.479,191.229h7.181V194.8h-7.181Z" transform="translate(-912.421 -182.033)" fill="#084a93"/>
      </g>
    </g>
    <g id="Grupo_146537" data-name="Grupo 146537">
      <g id="Grupo_133141" data-name="Grupo 133141" transform="translate(1074 5029.015)">
        <path id="Trazado_194457" data-name="Trazado 194457" d="M438.429,350.724A69.868,69.868,0,1,1,508.3,280.855,69.947,69.947,0,0,1,438.429,350.724Zm0-132.8a62.936,62.936,0,1,0,62.935,62.935A63,63,0,0,0,438.429,217.92Z" transform="translate(-368.562 -210.988)" fill="#b9ddfc"/>
      </g>
      <g id="Grupo_133148" data-name="Grupo 133148" transform="translate(1093.598 5048.267)">
        <path id="Trazado_194505" data-name="Trazado 194505" d="M247.969,742.08a3.585,3.585,0,0,1-1.948-.651c-1.453-.957-2.929-1.88-4.372-2.85a.88.88,0,0,0-1.1-.034,41.287,41.287,0,0,1-11.9,4.913.91.91,0,0,0-.744.841q-.529,2.609-1.12,5.2a2.876,2.876,0,0,1-3.186,2.521q-5.44.01-10.88,0a2.862,2.862,0,0,1-3.154-2.558c-.374-1.663-.725-3.332-1.065-5a1.129,1.129,0,0,0-.935-1.035,40.763,40.763,0,0,1-11.7-4.849.95.95,0,0,0-1.2.042c-1.446.968-2.909,1.91-4.378,2.844a2.941,2.941,0,0,1-4.137-.462q-3.821-3.8-7.619-7.621a2.928,2.928,0,0,1-.438-4.137c.917-1.438,1.834-2.877,2.794-4.286a1.1,1.1,0,0,0,.024-1.384,40.457,40.457,0,0,1-4.8-11.611,1.051,1.051,0,0,0-.945-.9c-1.741-.339-3.474-.72-5.205-1.106a2.833,2.833,0,0,1-2.439-3.039q-.021-5.545,0-11.09a2.848,2.848,0,0,1,2.529-3.073q2.5-.552,5-1.057a1.189,1.189,0,0,0,1.081-1.019,40.007,40.007,0,0,1,4.708-11.426,1.218,1.218,0,0,0-.006-1.562c-.978-1.4-1.885-2.843-2.8-4.285a2.886,2.886,0,0,1,.406-3.976q3.863-3.9,7.765-7.769a2.9,2.9,0,0,1,4.057-.409q2.2,1.4,4.379,2.841a.947.947,0,0,0,1.194.063,40.363,40.363,0,0,1,11.8-4.879.975.975,0,0,0,.819-.895q.53-2.609,1.116-5.205a2.847,2.847,0,0,1,3.114-2.478q5.492-.013,10.984,0a2.849,2.849,0,0,1,3.1,2.493c.383,1.7.753,3.4,1.081,5.106a1.121,1.121,0,0,0,.975,1,40.484,40.484,0,0,1,11.512,4.768,1.156,1.156,0,0,0,1.474-.026c1.4-.975,2.841-1.887,4.281-2.8a2.909,2.909,0,0,1,4.056.436q3.826,3.793,7.622,7.616a2.967,2.967,0,0,1,.465,4.221c-.935,1.468-1.875,2.933-2.843,4.379a.884.884,0,0,0-.034,1.105,41.471,41.471,0,0,1,4.922,11.9.814.814,0,0,0,.74.706c1.776.344,3.543.737,5.306,1.146a2.865,2.865,0,0,1,2.5,3.1q.019,5.493,0,10.986a2.863,2.863,0,0,1-2.475,3.126c-1.693.4-3.4.748-5.1,1.087a1.123,1.123,0,0,0-1.021.942,40.914,40.914,0,0,1-4.806,11.613,1.026,1.026,0,0,0,.011,1.292c.98,1.437,1.919,2.9,2.85,4.374a2.926,2.926,0,0,1-.425,4.061c-2.578,2.6-5.178,5.178-7.763,7.771A3.072,3.072,0,0,1,247.969,742.08ZM265.875,695.6c-2.187-.466-4.287-.949-6.4-1.35a2,2,0,0,1-1.782-1.734,36.985,36.985,0,0,0-5.007-12.3,2.718,2.718,0,0,1,.029-3.566c1.192-1.608,2.2-3.35,3.212-4.907l-8.154-8.135c-1.748,1.133-3.6,2.3-5.41,3.524a1.992,1.992,0,0,1-2.485.032,38.56,38.56,0,0,0-12.836-5.325,2.054,2.054,0,0,1-1.776-1.865c-.4-2.111-.89-4.205-1.343-6.3H212.416c-.465,2.184-.939,4.288-1.353,6.4a1.953,1.953,0,0,1-1.652,1.745,38.922,38.922,0,0,0-12.936,5.349,1.981,1.981,0,0,1-2.483-.047c-1.8-1.239-3.665-2.384-5.4-3.5l-8.165,8.133c1.123,1.738,2.253,3.574,3.477,5.344a2.107,2.107,0,0,1,.013,2.663,38.609,38.609,0,0,0-5.264,12.755,2.008,2.008,0,0,1-1.781,1.738c-2.142.418-4.271.905-6.4,1.364v11.487c2.18.465,4.313.947,6.457,1.368a1.948,1.948,0,0,1,1.716,1.679,38.818,38.818,0,0,0,5.3,12.851,2.045,2.045,0,0,1-.02,2.573c-1.238,1.8-2.384,3.662-3.45,5.315l8.141,8.194c1.694-1.1,3.5-2.208,5.24-3.42a2.172,2.172,0,0,1,2.756-.034,38.6,38.6,0,0,0,12.753,5.257,1.953,1.953,0,0,1,1.692,1.7c.377,1.911.849,3.8,1.192,5.721.121.672.37.833,1.011.828,3.347-.03,6.694-.014,10.041-.017a.721.721,0,0,0,.643-.183c.434-2.009.927-4.07,1.309-6.153a2.105,2.105,0,0,1,1.837-1.927,37.626,37.626,0,0,0,12.558-5.184,2.3,2.3,0,0,1,2.938.047c1.729,1.214,3.535,2.318,5.086,3.324l8.23-8.108c-1.136-1.758-2.268-3.595-3.493-5.368A2.04,2.04,0,0,1,252.4,723a38.7,38.7,0,0,0,5.277-12.75,2.052,2.052,0,0,1,1.846-1.793c2.112-.4,4.208-.887,6.352-1.347Z" transform="translate(-167.504 -650.69)" fill="#084a93"/>
        <path id="Trazado_194506" data-name="Trazado 194506" d="M244.414,725.577c9.366,2.986,10.392,3.582,17.785,10.345a28.1,28.1,0,0,0,3.672-15.206,27.622,27.622,0,0,0-2.285-10.014,5.215,5.215,0,0,1-.268-.678,1.444,1.444,0,0,1,2.677-1.079,29.068,29.068,0,0,1,2.083,6.218,31.247,31.247,0,1,1-39.7-23.121,1.758,1.758,0,0,1,1.951.206c.834.811.434,2.083-.834,2.48a29.574,29.574,0,0,0-10.6,5.884,28.428,28.428,0,0,0-6.127,35.025,3.722,3.722,0,0,0,.219.3,33.268,33.268,0,0,1,17.765-10.3c-6.365-5.448-4.942-13.3-.96-17.071a11.231,11.231,0,1,1,14.617,17.011Zm16.048,12.982c-11.959-14.7-34.833-13.848-45.765.035A28.273,28.273,0,0,0,260.463,738.559Zm-22.871-13.693a8.235,8.235,0,0,0,8.279-8.184,8.3,8.3,0,1,0-16.607-.055A8.237,8.237,0,0,0,237.592,724.865Z" transform="translate(-186.902 -671.252)" fill="#084a93"/>
        <path id="Trazado_194507" data-name="Trazado 194507" d="M304.541,705.678a2.065,2.065,0,0,1-1.179-.529q-1.437-1.2-2.908-2.352c-.859-.676-1.076-1.517-.54-2.225a1.493,1.493,0,0,1,2.21-.142,25.723,25.723,0,0,1,3.3,2.686,1.376,1.376,0,0,1,.364,1.7A1.558,1.558,0,0,1,304.541,705.678Z" transform="translate(-233.508 -675.334)" fill="#084a93"/>
        <path id="Trazado_194508" data-name="Trazado 194508" d="M279.8,692.14a1.362,1.362,0,0,1-1.629,1.435c-1.473-.218-2.937-.507-4.4-.813a1.291,1.291,0,0,1-1.081-1.54,1.324,1.324,0,0,1,1.517-1.248,20.581,20.581,0,0,1,4.594.849A1.349,1.349,0,0,1,279.8,692.14Z" transform="translate(-220.048 -670.314)" fill="#084a93"/>
      </g>
    </g>
    <g id="Grupo_146541" data-name="Grupo 146541">
      <path id="Trazado_194460-4" data-name="Trazado 194460" d="M154.244,238.483a2.5,2.5,0,0,1-2.058-1.078l-31.4-45.394L88.269,237.438a2.5,2.5,0,0,1-4.066-2.91l36.65-51.205L156.3,234.561a2.5,2.5,0,0,1-2.054,3.922Z" transform="translate(748.324 5499.395) rotate(180)" fill="#ffb30b"/>
      <path id="Trazado_194461-4" data-name="Trazado 194461" d="M138.165,229.316a1,1,0,0,1-.823-.431l-22.531-32.57L91.489,228.9a1,1,0,0,1-1.626-1.164l24.976-34.894,24.147,34.908a1,1,0,0,1-.822,1.569Z" transform="translate(742.505 5490.338) rotate(180)" fill="#ffb30b"/>
    </g>
    <g id="Grupo_146542" data-name="Grupo 146542">
      <path id="Trazado_194460-5" data-name="Trazado 194460" d="M154.244,238.483a2.5,2.5,0,0,1-2.058-1.078l-31.4-45.394L88.269,237.438a2.5,2.5,0,0,1-4.066-2.91l36.65-51.205L156.3,234.561a2.5,2.5,0,0,1-2.054,3.922Z" transform="translate(1091.742 5499.395) rotate(180)" fill="#ffb30b"/>
      <path id="Trazado_194461-5" data-name="Trazado 194461" d="M138.165,229.316a1,1,0,0,1-.823-.431l-22.531-32.57L91.489,228.9a1,1,0,0,1-1.626-1.164l24.976-34.894,24.147,34.908a1,1,0,0,1-.822,1.569Z" transform="translate(1086.164 5490.338) rotate(180)" fill="#ffb30b"/>
    </g>
    <g id="Rectángulo_294785" data-name="Rectángulo 294785" transform="translate(370 4905)" fill="#e7f3fe" stroke="#b9ddfc" stroke-width="2">
      <rect width="172" height="46" rx="10" stroke="none"/>
      <rect x="1" y="1" width="170" height="44" rx="9" fill="none"/>
    </g>
    <g id="Rectángulo_294790" data-name="Rectángulo 294790" transform="translate(542 5341)" fill="#e7f3fe" stroke="#b9ddfc" stroke-width="2">
      <rect width="172" height="46" rx="10" stroke="none"/>
      <rect x="1" y="1" width="170" height="44" rx="9" fill="none"/>
    </g>
    <g id="Rectángulo_294786" data-name="Rectángulo 294786" transform="translate(714 4905)" fill="#e7f3fe" stroke="#b9ddfc" stroke-width="2">
      <rect width="172" height="46" rx="10" stroke="none"/>
      <rect x="1" y="1" width="170" height="44" rx="9" fill="none"/>
    </g>
    <g id="Rectángulo_294789" data-name="Rectángulo 294789" transform="translate(885 5341)" fill="#e7f3fe" stroke="#b9ddfc" stroke-width="2">
      <rect width="172" height="46" rx="10" stroke="none"/>
      <rect x="1" y="1" width="170" height="44" rx="9" fill="none"/>
    </g>
    <g id="Rectángulo_294787" data-name="Rectángulo 294787" transform="translate(1058 4905)" fill="#e7f3fe" stroke="#b9ddfc" stroke-width="2">
      <rect width="172" height="46" rx="10" stroke="none"/>
      <rect x="1" y="1" width="170" height="44" rx="9" fill="none"/>
    </g>
    <text id="Read" transform="translate(457 4916)" fill="#12263f" font-size="20" font-family="Roboto-BlackItalic, Roboto" font-weight="800" font-style="italic"><tspan x="-22.407" y="21">Read</tspan></text>
    <text id="readWrite" transform="translate(629 5352)" fill="#12263f" font-size="20" font-family="Roboto-BlackItalic, Roboto" font-weight="800" font-style="italic"><tspan x="-43.286" y="21">readWrite</tspan></text>
    <text id="dbAdmin" transform="translate(801 4916)" fill="#12263f" font-size="20" font-family="Roboto-BlackItalic, Roboto" font-weight="800" font-style="italic"><tspan x="-39.805" y="21">dbAdmin</tspan></text>
    <text id="dbOwner" transform="translate(972 5352)" fill="#12263f" font-size="20" font-family="Roboto-BlackItalic, Roboto" font-weight="800" font-style="italic"><tspan x="-39.424" y="21">dbOwner</tspan></text>
    <text id="userAdmin" transform="translate(1145 4916)" fill="#12263f" font-size="20" font-family="Roboto-BlackItalic, Roboto" font-weight="800" font-style="italic"><tspan x="-48.389" y="21">userAdmin</tspan></text>
  </g>
</svg>
