<svg xmlns="http://www.w3.org/2000/svg" width="85.333" height="101.173" viewBox="0 0 85.333 101.173">
  <g id="Grupo_146551" data-name="Grupo 146551" transform="translate(-180 -8675)">
    <g id="Grupo_133679" data-name="Grupo 133679" transform="translate(180 8675)">
      <g id="Grupo_133678" data-name="Grupo 133678">
        <path id="Trazado_196945" data-name="Trazado 196945" d="M211.49,478.8c2.391,1.282,4.938,2.217,7.423,3.288q16.449,7.088,32.935,14.09a2.4,2.4,0,0,1,1.692,2.531c-.035,10.636.168,21.277-.06,31.908-.442,20.6-9.959,35.656-28.3,45.069a44.6,44.6,0,0,1-13.887,4.237,10.728,10.728,0,0,1-4.169-.637q-29.881-7.622-37.645-37.488a43.886,43.886,0,0,1-1.206-11.062c-.008-10.7.009-21.4-.02-32.106a2.274,2.274,0,0,1,1.585-2.394q19.883-8.472,39.735-17.016c.256-.11.58-.116.728-.418ZM250.321,518.3c0-6.749-.02-12.511.023-18.273a1.308,1.308,0,0,0-.96-1.433q-18.88-8.055-37.736-16.166a1.705,1.705,0,0,0-1.482-.022q-18.9,8.126-37.818,16.2a1.247,1.247,0,0,0-.916,1.354c.03,10.24.013,20.481.025,30.721a42.831,42.831,0,0,0,1.3,11.242c4.939,18.172,16.6,29.533,34.809,34.2a9.016,9.016,0,0,0,3.577.57,46.036,46.036,0,0,0,39.07-43.29C250.519,528.053,250.262,522.68,250.321,518.3Z" transform="translate(-168.256 -478.795)" fill="#040404"/>
        <path id="Trazado_196946" data-name="Trazado 196946" d="M259.175,527.927c-.06,4.38.2,9.752-.106,15.112A46.036,46.036,0,0,1,220,586.328a9.011,9.011,0,0,1-3.577-.57c-18.2-4.671-29.87-16.031-34.809-34.2a42.831,42.831,0,0,1-1.3-11.242c-.012-10.24.006-20.481-.025-30.721a1.247,1.247,0,0,1,.916-1.354q18.921-8.075,37.818-16.2a1.706,1.706,0,0,1,1.482.022q18.86,8.1,37.736,16.166a1.309,1.309,0,0,1,.96,1.433C259.155,515.416,259.175,521.178,259.175,527.927Zm-5.458,1.9c0-5.866-.024-10.839.017-15.811a2.3,2.3,0,0,0-1.547-2.435q-15.663-6.666-31.3-13.4a2.639,2.639,0,0,0-2.258.024q-15.6,6.714-31.229,13.366a2.338,2.338,0,0,0-1.611,2.48c.035,8.727.016,17.453.021,26.18a35.736,35.736,0,0,0,.592,7.272q5.215,25.055,29.727,32.5a9.25,9.25,0,0,0,4.541.662,40.189,40.189,0,0,0,23.152-13.484,39.727,39.727,0,0,0,9.757-23.831C253.9,538.548,253.622,533.737,253.717,529.823Z" transform="translate(-177.109 -488.421)" fill="#a8c0d9"/>
        <path id="Trazado_196947" data-name="Trazado 196947" d="M269.068,546.726c-.1,3.913.181,8.724-.136,13.527a39.727,39.727,0,0,1-9.757,23.831,40.19,40.19,0,0,1-23.152,13.484,9.248,9.248,0,0,1-4.541-.662q-24.512-7.4-29.727-32.5a35.737,35.737,0,0,1-.592-7.272c-.005-8.727.014-17.453-.021-26.18a2.339,2.339,0,0,1,1.611-2.48q15.633-6.638,31.229-13.366a2.639,2.639,0,0,1,2.258-.024q15.638,6.724,31.3,13.4a2.3,2.3,0,0,1,1.547,2.435C269.044,535.888,269.068,540.861,269.068,546.726ZM235.1,518.185a3,3,0,0,0-.465.117q-14.81,6.34-29.624,12.669c-.634.27-.683.645-.682,1.208.012,8.363,0,16.727.013,25.09a35.582,35.582,0,0,0,.594,6.876,37.7,37.7,0,0,0,16.387,24.734,33.728,33.728,0,0,0,13.778,5.545,2.943,2.943,0,0,0,.488-.02,37.621,37.621,0,0,0,30.185-35.655c.28-8.816.066-17.646.117-26.47a1.313,1.313,0,0,0-.959-1.438c-7.711-3.275-15.4-6.6-23.111-9.875C239.589,520.018,237.414,518.931,235.1,518.185Z" transform="translate(-192.461 -505.324)" fill="#040404"/>
        <path id="Trazado_196948" data-name="Trazado 196948" d="M329.764,527.511c2.314.746,4.489,1.833,6.72,2.781,7.71,3.277,15.4,6.6,23.111,9.875a1.314,1.314,0,0,1,.959,1.438c-.05,8.824.163,17.654-.117,26.47a37.62,37.62,0,0,1-30.185,35.655,2.909,2.909,0,0,1-.488.02q0-7.085,0-14.17c.822-.011,1.644-.026,2.466-.031,1.407-.008,1.857-.21,2.236-1.576a4.611,4.611,0,0,1,3.069-3.24c1.832-.776,3.335-.962,5.006.111a1.689,1.689,0,0,0,2.3-.42c1.17-1.2,2.369-2.377,3.555-3.565,1.1-1.107,1.262-1.489.509-2.849a4.684,4.684,0,0,1-.09-4.36,4.888,4.888,0,0,1,3.688-3.5,1.606,1.606,0,0,0,1.243-1.78c-.022-1.744,0-3.488-.006-5.231,0-1.538-.118-1.849-1.614-2.291a4.576,4.576,0,0,1-3.154-3.02c-.779-1.853-1.02-3.376.108-5.08a1.637,1.637,0,0,0-.4-2.217c-1.2-1.174-2.375-2.371-3.563-3.557-1.158-1.157-1.5-1.283-2.937-.527a4.485,4.485,0,0,1-4.185.122c-1.934-.775-3.214-1.746-3.664-3.794a1.614,1.614,0,0,0-1.8-1.225c-.92,0-1.841-.025-2.761-.038Q329.764,534.51,329.764,527.511Z" transform="translate(-287.125 -514.65)" fill="#00defc"/>
        <path id="Trazado_196949" data-name="Trazado 196949" d="M243.979,527.511q0,7,0,14c-.789.013-1.578.033-2.367.038-1.5.01-1.937.2-2.331,1.6a4.658,4.658,0,0,1-3.067,3.236c-1.84.794-3.325.924-5-.106a1.711,1.711,0,0,0-2.3.414c-1.164,1.209-2.368,2.379-3.555,3.567-1.119,1.12-1.272,1.474-.515,2.845a4.626,4.626,0,0,1,.088,4.358c-.736,1.9-1.7,3.083-3.683,3.507A1.589,1.589,0,0,0,220,562.738c.022,1.744,0,3.489.006,5.233,0,1.53.147,1.886,1.608,2.306a4.549,4.549,0,0,1,3.161,3c.792,1.858,1.013,3.377-.1,5.08a1.636,1.636,0,0,0,.4,2.218c1.2,1.172,2.376,2.372,3.564,3.558s1.478,1.326,2.927.539a4.642,4.642,0,0,1,4.281-.1,4.986,4.986,0,0,1,3.58,3.757,1.6,1.6,0,0,0,1.794,1.219c.92-.012,1.841.016,2.762.027q0,7.085,0,14.17A33.728,33.728,0,0,1,230.2,598.2a37.7,37.7,0,0,1-16.387-24.734,35.571,35.571,0,0,1-.594-6.876c-.011-8.364,0-16.727-.013-25.09,0-.563.049-.938.682-1.208q14.824-6.306,29.624-12.669A2.949,2.949,0,0,1,243.979,527.511Z" transform="translate(-201.34 -514.65)" fill="#a6f4fe"/>
        <path id="Trazado_196950" data-name="Trazado 196950" d="M262.923,628.6c-.921-.011-1.842-.039-2.762-.027a1.6,1.6,0,0,1-1.794-1.219,4.987,4.987,0,0,0-3.58-3.757,4.643,4.643,0,0,0-4.281.1c-1.449.787-1.74.647-2.927-.539s-2.363-2.385-3.564-3.558a1.636,1.636,0,0,1-.4-2.218c1.117-1.7.9-3.222.1-5.08a4.55,4.55,0,0,0-3.161-3c-1.46-.42-1.605-.776-1.608-2.306,0-1.744.016-3.489-.006-5.233a1.59,1.59,0,0,1,1.247-1.774c1.981-.424,2.947-1.6,3.683-3.507a4.626,4.626,0,0,0-.088-4.358c-.757-1.37-.6-1.725.515-2.844,1.186-1.187,2.391-2.358,3.555-3.567a1.711,1.711,0,0,1,2.3-.414c1.671,1.029,3.156.9,5,.106a4.657,4.657,0,0,0,3.067-3.236c.394-1.394.834-1.586,2.331-1.6.789-.005,1.578-.025,2.367-.038.92.013,1.84.034,2.761.038a1.614,1.614,0,0,1,1.8,1.224c.45,2.048,1.73,3.02,3.664,3.794a4.485,4.485,0,0,0,4.185-.122c1.44-.756,1.778-.63,2.937.528,1.188,1.186,2.363,2.383,3.563,3.557a1.637,1.637,0,0,1,.4,2.217c-1.128,1.7-.888,3.227-.108,5.079a4.576,4.576,0,0,0,3.154,3.02c1.5.442,1.611.753,1.614,2.291,0,1.744-.016,3.488.006,5.231a1.606,1.606,0,0,1-1.243,1.78,4.889,4.889,0,0,0-3.688,3.5,4.684,4.684,0,0,0,.09,4.36c.753,1.36.6,1.742-.508,2.849-1.185,1.188-2.384,2.363-3.555,3.565a1.689,1.689,0,0,1-2.3.42c-1.671-1.073-3.175-.887-5.006-.111a4.612,4.612,0,0,0-3.069,3.24c-.379,1.367-.828,1.568-2.236,1.576C264.567,628.577,263.745,628.592,262.923,628.6Zm13.448-40.154c-.941.414-1.73.744-2.5,1.106a1.858,1.858,0,0,1-1.874-.089,17.723,17.723,0,0,0-4.9-2.019,1.8,1.8,0,0,1-1.215-1.063c-.416-.871-.378-2.181-1.234-2.553s-2.006-.094-3.026-.1c-.2,0-.392.017-.624.028a19.142,19.142,0,0,0-.788,2.016,2.459,2.459,0,0,1-2.058,1.859,11.008,11.008,0,0,0-3.633,1.482,2.9,2.9,0,0,1-3.214.143c-1.691-.852-1.722-.79-3.077.565-1.4,1.4-1.449,1.423-.558,3.247a2.708,2.708,0,0,1-.129,2.952,10.618,10.618,0,0,0-1.515,3.62,2.817,2.817,0,0,1-2.113,2.3c-1.816.6-1.795.664-1.795,2.578,0,2.01-.013,2.046,1.88,2.7a2.706,2.706,0,0,1,2,2.178,10.507,10.507,0,0,0,1.495,3.628,2.837,2.837,0,0,1,.147,3.129c-.87,1.731-.81,1.761.518,3.088,1.434,1.434,1.446,1.458,3.318.587a2.42,2.42,0,0,1,2.514-.089,15.966,15.966,0,0,0,4.623,1.915,1.937,1.937,0,0,1,1.45,1.333c.281.8.613,1.589.92,2.375h3.894c.274-.7.587-1.353.792-2.042a2.334,2.334,0,0,1,1.9-1.761,11.407,11.407,0,0,0,3.817-1.554,2.914,2.914,0,0,1,3.225-.112c1.644.824,1.669.775,2.985-.542,1.433-1.434,1.473-1.453.575-3.328a2.649,2.649,0,0,1,.128-2.862,10.612,10.612,0,0,0,1.52-3.618,2.893,2.893,0,0,1,2.174-2.372c1.771-.579,1.748-.649,1.748-2.5,0-2.048.016-2.094-1.928-2.779a2.651,2.651,0,0,1-1.935-2.111,7.231,7.231,0,0,0-.966-2.566,4.4,4.4,0,0,1-.126-5.445.652.652,0,0,0-.124-.948C277.883,590.069,277.15,589.268,276.372,588.449Z" transform="translate(-220.285 -553.673)" fill="#040404"/>
        <path id="Trazado_196951" data-name="Trazado 196951" d="M285.2,597.1c.778.819,1.511,1.62,2.279,2.385a.652.652,0,0,1,.124.948,4.4,4.4,0,0,0,.126,5.445,7.231,7.231,0,0,1,.966,2.566,2.651,2.651,0,0,0,1.935,2.111c1.944.685,1.928.731,1.928,2.779,0,1.852.023,1.922-1.748,2.5a2.893,2.893,0,0,0-2.174,2.372,10.612,10.612,0,0,1-1.52,3.618,2.649,2.649,0,0,0-.128,2.861c.9,1.875.858,1.894-.575,3.328-1.316,1.317-1.34,1.366-2.985.542a2.914,2.914,0,0,0-3.225.112,11.41,11.41,0,0,1-3.817,1.554,2.333,2.333,0,0,0-1.9,1.761c-.205.689-.518,1.346-.792,2.042H269.8c-.307-.786-.639-1.572-.92-2.375a1.937,1.937,0,0,0-1.45-1.333,15.961,15.961,0,0,1-4.623-1.915,2.421,2.421,0,0,0-2.514.089c-1.872.871-1.884.846-3.318-.587-1.328-1.328-1.388-1.357-.518-3.088a2.837,2.837,0,0,0-.147-3.129,10.505,10.505,0,0,1-1.495-3.628,2.707,2.707,0,0,0-2-2.178c-1.893-.658-1.88-.694-1.88-2.7,0-1.913-.021-1.977,1.795-2.577a2.817,2.817,0,0,0,2.113-2.3,10.621,10.621,0,0,1,1.515-3.62,2.708,2.708,0,0,0,.129-2.952c-.892-1.824-.842-1.848.558-3.247,1.355-1.355,1.386-1.417,3.077-.566a2.9,2.9,0,0,0,3.214-.143,11,11,0,0,1,3.633-1.482,2.459,2.459,0,0,0,2.058-1.859,19.142,19.142,0,0,1,.788-2.016c.232-.011.427-.029.623-.028,1.02,0,2.166-.278,3.026.1s.819,1.682,1.234,2.554a1.8,1.8,0,0,0,1.215,1.063,17.725,17.725,0,0,1,4.9,2.019,1.859,1.859,0,0,0,1.874.089C283.469,597.842,284.257,597.512,285.2,597.1Zm-.382,16.189a13.062,13.062,0,1,0-13,13.036A13.1,13.1,0,0,0,284.816,613.288Z" transform="translate(-229.112 -562.323)" fill="#ffb30b"/>
        <path id="Trazado_196952" data-name="Trazado 196952" d="M306.429,635.174a13.062,13.062,0,1,1-12.977-13.153A13.1,13.1,0,0,1,306.429,635.174Zm-13.059-9.911a9.87,9.87,0,1,0-.009,19.74,7.906,7.906,0,0,0,2.624-.334A9.957,9.957,0,0,0,303.2,633.84,9.82,9.82,0,0,0,293.37,625.263Z" transform="translate(-250.725 -584.209)" fill="#040404"/>
        <path id="Trazado_196953" data-name="Trazado 196953" d="M329.766,634.29a9.82,9.82,0,0,1,9.833,8.576,9.957,9.957,0,0,1-7.218,10.829,7.9,7.9,0,0,1-2.624.334Q329.761,644.16,329.766,634.29Z" transform="translate(-287.121 -593.236)" fill="#00defc"/>
        <path id="Trazado_196954" data-name="Trazado 196954" d="M302.188,634.287q0,9.87-.009,19.74a9.87,9.87,0,1,1,.009-19.74Z" transform="translate(-259.543 -593.233)" fill="#a6f4fe"/>
      </g>
    </g>
  </g>
</svg>
