<svg xmlns="http://www.w3.org/2000/svg" width="57.901" height="48.462" viewBox="0 0 57.901 48.462">
  <g id="Grupo_146547" data-name="Grupo 146547" transform="translate(-323.599 -6866)">
    <g id="internet" transform="translate(323.599 6824.268)">
      <g id="Grupo_133802" data-name="Grupo 133802" transform="translate(0.848 51.23)">
        <g id="Grupo_133801" data-name="Grupo 133801" transform="translate(0 0)">
          <path id="Trazado_197761" data-name="Trazado 197761" d="M8.063,125.724,7.5,126.738v29.308a3.5,3.5,0,0,0,3.5,3.5H60.2a3.5,3.5,0,0,0,3.5-3.5V126.738l-.563-1.014H8.063Z" transform="translate(-7.5 -125.724)" fill="#d6ecff"/>
        </g>
      </g>
      <g id="Grupo_133804" data-name="Grupo 133804" transform="translate(0.848 51.23)">
        <g id="Grupo_133803" data-name="Grupo 133803" transform="translate(0 0)">
          <path id="Trazado_197762" data-name="Trazado 197762" d="M57.97,125.724v24.588a3.5,3.5,0,0,1-3.5,3.5H7.5v2.232a3.5,3.5,0,0,0,3.5,3.5H60.2a3.5,3.5,0,0,0,3.5-3.5V126.738l-.563-1.014H57.97Z" transform="translate(-7.5 -125.724)" fill="#b9ddfc"/>
        </g>
      </g>
      <g id="Grupo_133806" data-name="Grupo 133806" transform="translate(0.848 42.58)">
        <g id="Grupo_133805" data-name="Grupo 133805" transform="translate(0 0)">
          <path id="Trazado_197763" data-name="Trazado 197763" d="M60.2,49.232H11a3.5,3.5,0,0,0-3.5,3.5V58.9H63.7V52.734A3.5,3.5,0,0,0,60.2,49.232Z" transform="translate(-7.5 -49.232)" fill="#ffb30b"/>
        </g>
      </g>
      <g id="Grupo_133808" data-name="Grupo 133808" transform="translate(51.319 42.58)">
        <g id="Grupo_133807" data-name="Grupo 133807" transform="translate(0 0)">
          <path id="Trazado_197764" data-name="Trazado 197764" d="M456.027,49.232h-2.232V58.9h5.734V52.734A3.5,3.5,0,0,0,456.027,49.232Z" transform="translate(-453.795 -49.232)" fill="#d19309"/>
        </g>
      </g>
      <g id="Grupo_133813" data-name="Grupo 133813" transform="translate(16.411 73.261)">
        <g id="Grupo_133809" data-name="Grupo 133809" transform="translate(9.088 9.088)">
          <path id="Trazado_197765" data-name="Trazado 197765" d="M232.312,405.122l-4.231-4.23-2.6,2.6,4.23,4.23a.565.565,0,0,0,.8,0l1.8-1.8A.566.566,0,0,0,232.312,405.122Z" transform="translate(-225.479 -400.892)" fill="#f6f1f1"/>
        </g>
        <g id="Grupo_133810" data-name="Grupo 133810" transform="translate(9.088 10.513)">
          <path id="Trazado_197766" data-name="Trazado 197766" d="M231.535,415.524l-1.025,1.025a.565.565,0,0,1-.8,0l-3.054-3.054-1.177,1.177,4.231,4.23a.565.565,0,0,0,.8,0l1.8-1.8a.565.565,0,0,0,0-.8Z" transform="translate(-225.48 -413.496)" fill="#efe7e4"/>
        </g>
        <g id="Grupo_133811" data-name="Grupo 133811">
          <path id="Trazado_197767" data-name="Trazado 197767" d="M145.883,320.569l14.943,5.561a.452.452,0,0,1,.162.744l-9.527,9.527a.452.452,0,0,1-.744-.162L145.156,321.3A.565.565,0,0,1,145.883,320.569Z" transform="translate(-145.119 -320.532)" fill="#f6f1f1"/>
        </g>
        <g id="Grupo_133812" data-name="Grupo 133812" transform="translate(0)">
          <path id="Trazado_197768" data-name="Trazado 197768" d="M160.827,326.13l-1.947-.724-6.366,6.366a.452.452,0,0,1-.744-.162l-3.823-10.273-2.064-.768a.565.565,0,0,0-.727.727l5.561,14.943a.452.452,0,0,0,.744.162l9.527-9.527A.452.452,0,0,0,160.827,326.13Z" transform="translate(-145.12 -320.532)" fill="#efe7e4"/>
        </g>
      </g>
      <g id="Grupo_133814" data-name="Grupo 133814" transform="translate(0 41.732)">
        <path id="Trazado_197769" data-name="Trazado 197769" d="M42.062,246.358h-10.9l-1.141-1.141,2.863-2.863a1.3,1.3,0,0,0-.466-2.138l-14.943-5.561a1.414,1.414,0,0,0-1.818,1.818l3.679,9.886H4.35A2.657,2.657,0,0,1,1.7,243.7v-18.3a.848.848,0,1,0-1.7,0v18.3a4.355,4.355,0,0,0,4.35,4.35H19.963l1.251,3.361a1.3,1.3,0,0,0,2.138.466l2.863-2.863,2.914,2.914a1.416,1.416,0,0,0,2,0l1.8-1.8a1.415,1.415,0,0,0,0-2h0l-.077-.077h9.207a.848.848,0,0,0,0-1.7Zm-11.932,4.175-3.314-3.314a.849.849,0,0,0-1.2,0l-3.027,3.027L17.458,236.46l13.786,5.131-3.027,3.027a.848.848,0,0,0,0,1.2l3.314,3.314Z" transform="translate(0 -203.884)"/>
        <path id="Trazado_197770" data-name="Trazado 197770" d="M53.551,41.732H50.585a.848.848,0,0,0,0,1.7h2.965A2.657,2.657,0,0,1,56.2,46.082V51.4H1.7V46.082A2.657,2.657,0,0,1,4.35,43.428H46.663a.848.848,0,1,0,0-1.7H4.35A4.355,4.355,0,0,0,0,46.082V59.439a.848.848,0,0,0,1.7,0V53.093H56.2v28.46a2.657,2.657,0,0,1-2.654,2.654H46.126a.848.848,0,0,0,0,1.7h7.425a4.355,4.355,0,0,0,4.35-4.35V46.082A4.355,4.355,0,0,0,53.551,41.732Z" transform="translate(0 -41.732)"/>
        <path id="Trazado_197771" data-name="Trazado 197771" d="M49.7,79.64a1.571,1.571,0,1,0,1.571-1.571A1.571,1.571,0,0,0,49.7,79.64Z" transform="translate(-44.078 -73.96)"/>
        <path id="Trazado_197772" data-name="Trazado 197772" d="M92.434,79.64a1.571,1.571,0,1,0,1.571-1.571A1.571,1.571,0,0,0,92.434,79.64Z" transform="translate(-81.981 -73.96)"/>
        <path id="Trazado_197773" data-name="Trazado 197773" d="M135.17,79.64a1.571,1.571,0,1,0,1.571-1.571A1.571,1.571,0,0,0,135.17,79.64Z" transform="translate(-119.884 -73.96)"/>
        <path id="Trazado_197774" data-name="Trazado 197774" d="M63.321,229.891h0a.848.848,0,0,0,.8-.563l2.1-5.9,2.008,5.885a.848.848,0,0,0,.8.574h0a.848.848,0,0,0,.8-.568l2.848-8.125a.848.848,0,0,0-1.6-.561l-2.037,5.81-2-5.865a.854.854,0,0,0-1.6-.011l-2.1,5.9-2-5.824a.848.848,0,0,0-1.6.551l2.789,8.115a.848.848,0,0,0,.8.573Z" transform="translate(-52.938 -199.858)"/>
        <path id="Trazado_197775" data-name="Trazado 197775" d="M202.088,229.891h0a.848.848,0,0,0,.8-.563l2.1-5.9L207,229.317a.848.848,0,0,0,.8.574h0a.848.848,0,0,0,.8-.568l2.848-8.125a.848.848,0,1,0-1.6-.561l-2.037,5.81-2-5.865a.854.854,0,0,0-1.6-.011l-2.1,5.9-2-5.824a.848.848,0,1,0-1.6.551l2.789,8.115A.849.849,0,0,0,202.088,229.891Z" transform="translate(-176.013 -199.857)"/>
        <path id="Trazado_197776" data-name="Trazado 197776" d="M338.6,229.891h0a.848.848,0,0,0,.8-.563l2.1-5.9,2.008,5.885a.848.848,0,0,0,.8.574h0a.848.848,0,0,0,.8-.568l2.848-8.125a.848.848,0,0,0-1.6-.561l-2.037,5.81-2-5.865a.854.854,0,0,0-1.6-.011l-2.1,5.9-2-5.824a.848.848,0,0,0-1.6.551l2.789,8.115A.849.849,0,0,0,338.6,229.891Z" transform="translate(-297.089 -199.858)"/>
      </g>
    </g>
  </g>
</svg>
