<svg xmlns="http://www.w3.org/2000/svg" xmlns:xlink="http://www.w3.org/1999/xlink" width="399.964" height="562.982" viewBox="0 0 399.964 562.982">
  <defs>
    <clipPath id="clip-path">
      <rect id="Rectángulo_294870" data-name="Rectángulo 294870" width="399.964" height="562.983" fill="#00defc"/>
    </clipPath>
  </defs>
  <g id="Grupo_146552" data-name="Grupo 146552" transform="translate(-180 -8836)">
    <g id="Grupo_133171" data-name="Grupo 133171" transform="translate(0 320)">
      <g id="Grupo_133170" data-name="Grupo 133170" transform="translate(180 8516)">
        <rect id="Rectángulo_294048" data-name="Rectángulo 294048" width="399.964" height="562.983" transform="translate(0 0)" fill="#00defc"/>
        <g id="Enmascarar_grupo_132" data-name="Enmascarar grupo 132" clip-path="url(#clip-path)">
          <path id="Trazado_194509" data-name="Trazado 194509" d="M-2917.886,1266.05v289.681h-261.188l-161.4-201.411,151.828-151.835,42.746,42.747,99.091-99.095,25.953,26.092,4.58-4.58Z" transform="translate(3379.188 -983.53)" fill="#009db3" fill-rule="evenodd"/>
        </g>
        <path id="Trazado_194510" data-name="Trazado 194510" d="M-3086.459,1268.273h260.772a19.726,19.726,0,0,1,19.568,19.569v119.219a19.635,19.635,0,0,1-19.568,19.569h-181.527l-98.813,54.96V1287.843a19.636,19.636,0,0,1,19.569-19.569Z" transform="translate(3174.575 -1090.122)" fill="#d8d9d9" fill-rule="evenodd"/>
        <path id="Trazado_194511" data-name="Trazado 194511" d="M-3320.909,1104.7h260.771a19.665,19.665,0,0,1,19.569,19.708v119.081a19.665,19.665,0,0,1-19.569,19.708h-181.527l-98.813,54.96V1124.4a19.755,19.755,0,0,1,19.569-19.708Z" transform="translate(3379.188 -947.364)" fill="#ebebeb" fill-rule="evenodd"/>
        <path id="Trazado_194512" data-name="Trazado 194512" d="M-2434.34,1490.739h129.068a13.031,13.031,0,0,1,13.045,13.046v34.142a13.03,13.03,0,0,1-13.045,13.046H-2434.34a13.031,13.031,0,0,1-13.045-13.046v-34.142a13.031,13.031,0,0,1,13.045-13.046Z" transform="translate(2599.757 -1284.275)" fill="#fefefe" fill-rule="evenodd"/>
        <path id="Trazado_194513" data-name="Trazado 194513" d="M-3033.322,1375.145a26.063,26.063,0,0,1,18.18,7.495,25.569,25.569,0,0,1,7.5,18.32v26.092a25.249,25.249,0,0,1-7.5,18.182,25.6,25.6,0,0,1-18.18,7.633,25.361,25.361,0,0,1-18.18-7.633,25.363,25.363,0,0,1-7.634-18.182V1400.96a25.683,25.683,0,0,1,7.634-18.32,25.811,25.811,0,0,1,18.18-7.495Zm10.548,15.128a14.442,14.442,0,0,0-10.548-4.441,15,15,0,0,0-10.687,4.441,15,15,0,0,0-4.44,10.687v26.092a15,15,0,0,0,4.44,10.688,15,15,0,0,0,10.687,4.44,14.446,14.446,0,0,0,10.548-4.44,15,15,0,0,0,4.441-10.688V1400.96a15,15,0,0,0-4.441-10.687Z" transform="translate(3133.65 -1183.393)" fill="#40494c"/>
        <path id="Trazado_194514" data-name="Trazado 194514" d="M-3125.952,1666.314h57.6a6.457,6.457,0,0,1,6.384,6.384v39.971a6.338,6.338,0,0,1-6.384,6.245h-57.6a6.22,6.22,0,0,1-6.245-6.245V1672.7a6.34,6.34,0,0,1,6.245-6.384Z" transform="translate(3197.414 -1437.505)" fill="#cc8f09" fill-rule="evenodd"/>
        <rect id="Rectángulo_294049" data-name="Rectángulo 294049" width="55.929" height="52.601" transform="translate(72.294 228.809)" fill="#ffb30b"/>
        <path id="Trazado_194515" data-name="Trazado 194515" d="M-2908.732,1776.675a7.865,7.865,0,0,1,5.136,7.5,7.908,7.908,0,0,1-7.911,7.911,7.938,7.938,0,0,1-8.05-7.911,7.985,7.985,0,0,1,5.274-7.5v-9.437a2.783,2.783,0,0,1,2.776-2.776h0a2.783,2.783,0,0,1,2.775,2.776Z" transform="translate(3011.836 -1523.162)" fill="#40494c" fill-rule="evenodd"/>
        <path id="Trazado_194516" data-name="Trazado 194516" d="M-2313.552,1668.853l-4.441-3.331c1.387-1.526,2.914-3.053,4.3-4.441a7.494,7.494,0,0,0,1.111-1.111c-.417,0-1.8-.416-4.025-.971a23.21,23.21,0,0,1-3.192-.832l1.665-5a37.37,37.37,0,0,1,6.663,3.33,63.771,63.771,0,0,1-.7-7.633h5.135a62.683,62.683,0,0,1-.833,7.633,13.655,13.655,0,0,0,2.5-1.11c1.665-.694,3.33-1.388,4.718-1.943l1.527,5.135c-2.082.416-4.579.971-7.355,1.388l3.469,3.886c.694.833,1.111,1.527,1.527,1.943l-4.3,2.914-3.886-6.384c-1.11,2.082-2.5,4.3-3.886,6.523Zm25.4,0-4.3-3.331c1.388-1.526,2.915-3.053,4.3-4.441a7.461,7.461,0,0,0,1.111-1.111c-.416,0-1.8-.416-4.024-.971a23.238,23.238,0,0,1-3.193-.832l1.666-5a37.367,37.367,0,0,1,6.662,3.33,63.838,63.838,0,0,1-.694-7.633h5.134a62.8,62.8,0,0,1-.832,7.633,13.612,13.612,0,0,0,2.5-1.11c1.666-.694,3.33-1.388,4.719-1.943l1.527,5.135c-2.081.416-4.58.971-7.356,1.388l3.47,3.886a13.533,13.533,0,0,0,1.526,1.943l-4.3,2.914-3.886-6.384a69.447,69.447,0,0,1-4.025,6.523Zm25.537,0-4.3-3.331c1.387-1.526,2.914-3.053,4.3-4.441a7.411,7.411,0,0,0,1.11-1.111c-.416,0-1.8-.416-4.024-.971a23.162,23.162,0,0,1-3.191-.832l1.664-5a37.312,37.312,0,0,1,6.663,3.33,63.847,63.847,0,0,1-.694-7.633h5.134a62.684,62.684,0,0,1-.832,7.633,13.649,13.649,0,0,0,2.5-1.11c1.665-.694,3.192-1.388,4.719-1.943l1.527,5.135c-2.221.416-4.58.971-7.356,1.388l3.331,3.886c.694.833,1.25,1.527,1.666,1.943l-4.3,2.914-3.886-6.384a69.733,69.733,0,0,1-4.024,6.523Zm25.536,0-4.3-3.331c1.388-1.526,2.776-3.053,4.3-4.441a7.439,7.439,0,0,0,1.11-1.111c-.416,0-1.8-.416-4.025-.971a18.436,18.436,0,0,1-3.192-.832l1.666-5a37.343,37.343,0,0,1,6.661,3.33,64.026,64.026,0,0,1-.694-7.633h5.135a62.855,62.855,0,0,1-.832,7.633,13.65,13.65,0,0,0,2.5-1.11c1.666-.694,3.192-1.388,4.719-1.943l1.526,5.135c-2.22.416-4.579.971-7.355,1.388l3.331,3.886c.694.833,1.25,1.527,1.666,1.943l-4.3,2.914-3.885-6.384a69.8,69.8,0,0,1-4.025,6.523Zm25.536,0-4.3-3.331c1.388-1.526,2.776-3.053,4.3-4.441l1.11-1.111c-.416,0-1.8-.416-4.024-.971a18.438,18.438,0,0,1-3.193-.832l1.666-5a37.345,37.345,0,0,1,6.662,3.33,63.823,63.823,0,0,1-.7-7.633h5a54.543,54.543,0,0,1-.694,7.633,13.634,13.634,0,0,0,2.5-1.11c1.665-.694,3.192-1.388,4.718-1.943l1.527,5.135c-2.221.416-4.58.971-7.355,1.388l3.331,3.886c.694.833,1.25,1.527,1.666,1.943l-4.3,2.914-3.887-6.384a69.841,69.841,0,0,1-4.024,6.523Z" transform="translate(2488.407 -1422.278)" fill="#40494c" fill-rule="evenodd"/>
      </g>
    </g>
  </g>
</svg>
