<svg xmlns="http://www.w3.org/2000/svg" width="140" height="140" viewBox="0 0 140 140">
  <g id="Grupo_146531" data-name="Grupo 146531" transform="translate(-1085 -7297)">
    <circle id="Elipse_5265" data-name="Elipse 5265" cx="70" cy="70" r="70" transform="translate(1085 7297)" fill="#ffb30b"/>
    <circle id="Elipse_5266" data-name="Elipse 5266" cx="60" cy="60" r="60" transform="translate(1095 7307)" fill="#fff"/>
    <g id="Grupo_133765" data-name="Grupo 133765" transform="translate(441.511 -224.893)">
      <path id="Trazado_197139" data-name="Trazado 197139" d="M507.671,553.976a4.775,4.775,0,0,0-1.7-.406A20.121,20.121,0,0,1,490.6,539.686a.861.861,0,0,0-.993-.708q-12.813.028-25.626.014a5.751,5.751,0,0,1-1.57-.145,3.329,3.329,0,0,1-2.451-3.32q-.026-15.109-.005-30.218a.9.9,0,0,1,.052-.187c.683-.179,1.415.02,2.117-.112a1.558,1.558,0,0,0,.084-.825c.042-3.265-.087-6.531.082-9.794.195-3.748,2.364-8.75,4.77-11l1.646,1.45a17.2,17.2,0,0,0-3.579,6.589,13.49,13.49,0,0,0-.593,3.552c-.018,3.315-.006,6.629-.006,10.007h2.126c.157-.242.073-.524.077-.79.041-3.114-.1-6.231.073-9.342a14.691,14.691,0,0,1,29.039-1.773,28.912,28.912,0,0,1,.3,5.857c0,.125,0,.25,0,.423h2.165c1.315-11.344-5.824-18.78-14.329-20.1a16.675,16.675,0,0,0-13.72,4.013c-.239-.266-.484-.536-.726-.809s-.493-.56-.765-.87a18.673,18.673,0,0,1,9.41-4.5A19.156,19.156,0,0,1,500.2,491.855a13.338,13.338,0,0,1,.409,2.977c.014,2.256,0,4.512,0,6.805h-6.738c0-1.8-.009-3.574,0-5.352a12.47,12.47,0,0,0-15.494-12.311,12.547,12.547,0,0,0-9.27,10.364,6.528,6.528,0,0,0-.064.9c0,3.236,0,6.472,0,9.8h33.872V514.5c6.833-2.229,13.2-1.491,19.018,2.666a19.468,19.468,0,0,1,8.012,12.4,20.152,20.152,0,0,1-11.8,22.63l-.865-1.949c.851-.483,1.711-.928,2.527-1.443,1.634-1.029,1.791-1.407,1.43-3.318a3.176,3.176,0,0,0-1.944-2.242,32.364,32.364,0,0,0-4.875-1.437c-2.853,4.237-6.236,4.244-8.8.018a40.013,40.013,0,0,0-4.328,1.156,3.666,3.666,0,0,0-2.6,4.5.773.773,0,0,0,.377.523,18.11,18.11,0,0,0,16.114,2.943l.655,2.151a17.743,17.743,0,0,1-3.431.72c-.135.015-.311-.062-.371.147ZM489.85,536.723a3.55,3.55,0,0,0,0-.362,20.267,20.267,0,0,1,10.274-20.505.914.914,0,0,0,.544-.934c-.022-2.31-.008-4.621-.014-6.932,0-.215.081-.456-.1-.622H462.246c-.009.216-.023.388-.024.559q0,13.637,0,27.275c0,1.179.342,1.516,1.543,1.518,3.014.007,6.029,0,9.043,0Zm33.7,8.782a18.047,18.047,0,0,0-26.865-24.1c-7.006,7.666-5.578,18.521-.236,24.053.406-2.578,2.128-3.946,4.409-4.717,1.326-.448,2.708-.726,4.066-1.078.192-.05.408-.047.521-.25a2.253,2.253,0,0,0-.428-1.9,7.433,7.433,0,0,1-2.7-4.318,19.68,19.68,0,0,1-.08-6.52,7.812,7.812,0,0,1,7.259-6.6,7.95,7.95,0,0,1,8.142,5.819,20.551,20.551,0,0,1,.289,4.492,8.241,8.241,0,0,1-3.138,7.291c-.543.433-.211,1.084-.23,1.629-.014.4.444.315.709.392a35.432,35.432,0,0,1,4.618,1.319A5.609,5.609,0,0,1,523.555,545.505Zm-13.513-16.4c-1.105,0-2.21-.01-3.315,0a2.275,2.275,0,0,0-2.366,2.441,5.65,5.65,0,0,0,11.293-.006,2.275,2.275,0,0,0-2.372-2.434C512.2,529.1,511.122,529.107,510.042,529.107Zm5.522-1.947a5.58,5.58,0,0,0-5.848-4.829,5.5,5.5,0,0,0-5.233,4.827A41.584,41.584,0,0,1,515.564,527.161Zm-3.333,11.8a9.256,9.256,0,0,1-4.459.049c-.048,1.312-.183,2.554,1.073,3.319a2.107,2.107,0,0,0,2.348-.015C512.431,541.538,512.3,540.306,512.231,538.965Z" transform="translate(218.537 7076.057)" fill="#084a93"/>
      <path id="Trazado_197145" data-name="Trazado 197145" d="M523.6,671.6l4.643-4.629,3.069,3.189,4.813-4.932,4.784,4.839-9.426,9.421Zm4.755-1.445-1.555,1.5,4.683,4.669,6.241-6.239-1.547-1.635-4.79,4.8Z" transform="translate(167.7 6925.592)" fill="#084a93"/>
      <path id="Trazado_197146" data-name="Trazado 197146" d="M617.345,641.657V639.5a11.541,11.541,0,0,1,2.2-.022v2.175Z" transform="translate(92.831 6946.188)" fill="#084a93"/>
      <path id="Trazado_197147" data-name="Trazado 197147" d="M639.986,639.634h2.156v2.2h-2.156Z" transform="translate(74.748 6946.034)" fill="#084a93"/>
    </g>
  </g>
</svg>
