<svg xmlns="http://www.w3.org/2000/svg" width="140" height="140" viewBox="0 0 140 140">
  <g id="Grupo_146529" data-name="Grupo 146529" transform="translate(-381 -7297)">
    <circle id="Elipse_5261" data-name="Elipse 5261" cx="70" cy="70" r="70" transform="translate(381 7297)" fill="#ffb30b"/>
    <circle id="Elipse_5262" data-name="Elipse 5262" cx="60" cy="60" r="60" transform="translate(391 7307)" fill="#fff"/>
    <g id="Grupo_133766" data-name="Grupo 133766" transform="translate(-454.541 7311.336)">
      <path id="Trazado_197148" data-name="Trazado 197148" d="M936.2,16.426c0,1.25.01,2.5.011,3.75q0,36.811,0,73.622v.959H874.557V42.046h2.219V92.478h57.1V18.76H876.826V38.885H874.5V16.426Z" fill="#084a93"/>
      <path id="Trazado_197149" data-name="Trazado 197149" d="M947.4,76.035h2.236c.105.641.142,30.942.039,32.239H895.713V37.632h53.961V72.909h-2.23V39.926H898.009v66.05H947.4Z" transform="translate(-17.34 -17.337)" fill="#084a93"/>
      <path id="Trazado_197150" data-name="Trazado 197150" d="M949.213,210.754a21.08,21.08,0,1,1,21.062-21.067A21.153,21.153,0,0,1,949.213,210.754Zm.035-2.3a18.792,18.792,0,1,0-18.8-18.684A18.83,18.83,0,0,0,949.248,208.457Z" transform="translate(-43.857 -124.409)" fill="#084a93"/>
      <path id="Trazado_197151" data-name="Trazado 197151" d="M1004.635,62.412l4.128,4.6L996.739,79.5l-7.68-9.535,4.79-3.851,3.3,4.072Zm.953,4.58-1.047-1.167L997,73.66l-3.5-4.317-1.216.973,4.605,5.71Z" transform="translate(-93.656 -37.597)" fill="#084a93"/>
      <path id="Trazado_197152" data-name="Trazado 197152" d="M1160.672,121.758h-2.19v-14.8h2.19Z" transform="translate(-232.172 -74.018)" fill="#084a93"/>
      <path id="Trazado_197153" data-name="Trazado 197153" d="M1158.267,67.224v-2.21h2.227v2.192A14.474,14.474,0,0,1,1158.267,67.224Z" transform="translate(-231.996 -39.724)" fill="#084a93"/>
      <path id="Trazado_197154" data-name="Trazado 197154" d="M1158.334,88.124V85.913h2.227v2.211Z" transform="translate(-232.05 -56.81)" fill="#084a93"/>
      <path id="Trazado_197155" data-name="Trazado 197155" d="M973.373,236.881h-2.3c0-.821-.008-1.605,0-2.39.044-3.518-.139-7.04.093-10.554a13.169,13.169,0,0,1,26.278.722c.2,4.042.035,8.1.035,12.205h-2.206c-.147-.236-.062-.522-.062-.789-.007-3.6.017-7.192-.01-10.787a10.893,10.893,0,0,0-21.722-1.335c-.3,3.687-.06,7.392-.11,11.088C973.366,235.646,973.373,236.251,973.373,236.881Z" transform="translate(-78.933 -159.872)" fill="#084a93"/>
      <path id="Trazado_197156" data-name="Trazado 197156" d="M1011.248,251.079h-2.2a2.054,2.054,0,0,1-.078-.921c-.073-2.9.194-5.819-.138-8.713a6.905,6.905,0,0,0-5.516-5.726,7.078,7.078,0,0,0-7.311,3.333,7.741,7.741,0,0,0-.973,3.875c0,1.5,0,3,0,4.521h-2.208c-.171-.145-.09-.366-.083-.556.083-2.184-.248-4.389.287-6.551a9.241,9.241,0,0,1,18.1.749,5.938,5.938,0,0,1,.116.907C1011.252,245,1011.248,248.01,1011.248,251.079Z" transform="translate(-96.645 -177.308)" fill="#084a93"/>
      <path id="Trazado_197157" data-name="Trazado 197157" d="M1025.052,262.064c-.111.01-.208.027-.306.027-.611,0-1.223,0-1.862,0a6.839,6.839,0,0,1-.075-1.675,3.026,3.026,0,1,0-6.039.035c-.014,4,0,8.009,0,12.014v.787h-2.3v-.387c0-4.132-.018-8.264.006-12.4a5.306,5.306,0,0,1,10.569-.855C1025.1,260.4,1025.052,261.194,1025.052,262.064Z" transform="translate(-114.425 -194.997)" fill="#084a93"/>
      <path id="Trazado_197158" data-name="Trazado 197158" d="M952.258,209.018h-2.119c-.386-6.7,4.756-14.981,13.545-16.728.306.672.288,1.424.528,2.115C956.844,196.506,952.87,201.328,952.258,209.018Z" transform="translate(-61.82 -143.781)" fill="#084a93"/>
      <path id="Trazado_197159" data-name="Trazado 197159" d="M1039.824,301.111h-2.2V284.323h2.2Z" transform="translate(-133.362 -219.024)" fill="#084a93"/>
      <path id="Trazado_197160" data-name="Trazado 197160" d="M1116.247,242.816l1.992-1.017c2.326,4.13,1.878,8.6,1.9,13.043h-2.35c0-2.061.019-4.1-.005-6.133A14.214,14.214,0,0,0,1116.247,242.816Z" transform="translate(-197.641 -184.258)" fill="#084a93"/>
      <path id="Trazado_197161" data-name="Trazado 197161" d="M1060.414,320.515V308.68h2.2v11.835Z" transform="translate(-151.994 -238.938)" fill="#084a93"/>
      <path id="Trazado_197162" data-name="Trazado 197162" d="M1085.089,204.413l-1.858,1.315a15.243,15.243,0,0,0-5.972-4.937l.94-2.076A17.014,17.014,0,0,1,1085.089,204.413Z" transform="translate(-165.765 -149.035)" fill="#084a93"/>
      <path id="Trazado_197163" data-name="Trazado 197163" d="M995.308,332.788h-2.215V325.6h2.215Z" transform="translate(-96.955 -252.767)" fill="#084a93"/>
      <path id="Trazado_197164" data-name="Trazado 197164" d="M1084.271,345.534v3.537h-2.237v-3.537Z" transform="translate(-169.67 -269.068)" fill="#084a93"/>
      <path id="Trazado_197165" data-name="Trazado 197165" d="M949.923,298.627h2.22v2.661h-2.22Z" transform="translate(-61.66 -230.719)" fill="#084a93"/>
      <path id="Trazado_197166" data-name="Trazado 197166" d="M1040.995,192.433h-2.14c-.036-.745-.07-1.468-.108-2.277a13.719,13.719,0,0,1,2.429.073C1041.114,190.98,1041.055,191.7,1040.995,192.433Z" transform="translate(-134.28 -142.018)" fill="#084a93"/>
      <path id="Trazado_197167" data-name="Trazado 197167" d="M1059.246,191.807a11.287,11.287,0,0,1,2.361.66l-.719,2.106-2.045-.539C1058.975,193.308,1059.1,192.6,1059.246,191.807Z" transform="translate(-150.711 -143.386)" fill="#084a93"/>
    </g>
  </g>
</svg>
