<svg xmlns="http://www.w3.org/2000/svg" width="85" height="105" viewBox="0 0 85 105">
  <g id="Grupo_146536" data-name="Grupo 146536" transform="translate(-180 -8511)">
    <g id="Grupo_131739" data-name="Grupo 131739" transform="translate(0 7956)">
      <rect id="Rectángulo_293900" data-name="Rectángulo 293900" width="85" height="105" transform="translate(180 555)" fill="none"/>
      <g id="Grupo_129342" data-name="Grupo 129342" transform="translate(442.953 -370.622)">
        <g id="Grupo_129341" data-name="Grupo 129341" transform="translate(-251.954 925.622)">
          <path id="Trazado_189966" data-name="Trazado 189966" d="M-227.131,1028.258c-.182,1.766-1.191,2.389-2.918,2.364-4.5-.064-8.992,0-13.488-.031a6.314,6.314,0,0,1-6.224-4.137,6.09,6.09,0,0,1,1.7-7.241,2.152,2.152,0,0,0,.687-2.3c-1.461-8.928-2.856-17.867-4.325-26.792-.634-3.857-.29-4.426,3.527-4.37,1.4.02,1.643-.454,1.638-1.722q-.065-18.291-.02-36.581c.023-11.041,7.231-19.809,18.13-21.213a58.188,58.188,0,0,1,18.524.251c9.566,1.868,16.311,10.595,16.349,20.722q.069,18.29-.032,36.581c-.01,1.661.492,2.007,2.029,1.959,3.225-.1,3.788.71,3.258,3.941-1.5,9.128-2.946,18.265-4.463,27.389a2,2,0,0,0,.7,2.1,6.272,6.272,0,0,1,1.744,7.248,6.566,6.566,0,0,1-6.423,4.164c-4.427.026-8.856-.03-13.283.026-1.715.021-2.759-.562-2.857-2.382.437-1.414,1.461-1.77,2.841-1.754,4.219.048,8.437.026,12.656.013,2.131-.007,3.351-.883,3.4-2.4.056-1.622-1.142-2.506-3.459-2.507q-22.657-.007-45.315,0c-2.191,0-3.342.835-3.374,2.389-.033,1.586,1.231,2.511,3.489,2.516,4.219.01,8.438.043,12.656-.018A2.611,2.611,0,0,1-227.131,1028.258Zm7.013-38.44c-8.517,0-17.032.023-25.548-.023-1.362-.007-1.959.193-1.686,1.791q2.085,12.168,3.969,24.371c.191,1.236.672,1.54,1.836,1.538q21.459-.048,42.92.007c1.3,0,1.724-.394,1.922-1.678q1.87-12.1,3.937-24.169c.253-1.483-.112-1.876-1.6-1.865C-202.95,989.848-211.534,989.818-220.118,989.818Zm22.208-13.08c.138-.236.25-.338.25-.438.007-9.939.143-19.881-.04-29.817a16.516,16.516,0,0,0-14.066-16.151c-4.242-.726-8.559-.25-12.841-.266-10.641-.04-17.827,7.149-17.844,17.766q-.023,13.581,0,27.163V976.7A24.863,24.863,0,0,1-232,969.225a23.66,23.66,0,0,1-6.3-12.132c-.727-3.7-.446-7.461-.468-11.2-.023-3.793.5-4.216,4.317-3.841a24.894,24.894,0,0,0,12.947-1.968c2.2-.99,3.73-2.139,3.1-4.832a2.666,2.666,0,0,1,.018-1.017,1.917,1.917,0,0,1,2.063-1.832,1.85,1.85,0,0,1,1.982,1.893,11.09,11.09,0,0,1,.005,2.447c-.234,1.554.562,2.356,1.8,3.035a17.573,17.573,0,0,0,8.456,1.956c1.508.015,2.676.512,2.682,2.112.017,4.551.4,9.122-.5,13.641a23.915,23.915,0,0,1-6.1,11.7,29.7,29.7,0,0,1,5.66,3.082A30.791,30.791,0,0,1-197.91,976.738Zm-7.545-26.06a21.6,21.6,0,0,1,.018-2.656c.243-1.7-.305-2.386-2.137-2.489a15.034,15.034,0,0,1-7.779-2.746,1.971,1.971,0,0,0-2.52-.034,26.389,26.389,0,0,1-11.779,3.55c-1.643.14-3.893-.827-4.768.486-.79,1.185-.227,3.286-.222,4.983a20.026,20.026,0,0,0,4.82,13.717c5.748,6.517,13.906,6.493,19.627-.055C-206.393,961.081-205.247,955.88-205.455,950.677Zm-14.8,35.034c6.812,0,13.624.01,20.436-.017.588,0,1.74.443,1.23-1.017-1.97-5.641-5.368-9.9-11.337-11.621a6.119,6.119,0,0,0-4.342.227,14.564,14.564,0,0,1-11.9-.118,4.423,4.423,0,0,0-2.749-.346c-6.33,1.241-9.932,5.457-12.341,11.072-.693,1.615-.189,1.871,1.384,1.852C-233.336,985.668-226.8,985.712-220.257,985.712Z" transform="translate(251.954 -925.622)" fill="#050404" fill-rule="evenodd"/>
          <path id="Trazado_189967" data-name="Trazado 189967" d="M-224.984,1063.62a2.61,2.61,0,0,0-2.85-1.78c-4.218.061-8.437.028-12.656.018-2.258-.006-3.522-.931-3.489-2.516.031-1.553,1.182-2.388,3.374-2.389q22.657-.009,45.315,0c2.316,0,3.515.886,3.459,2.507-.052,1.515-1.272,2.392-3.4,2.4-4.218.012-8.437.035-12.656-.013-1.38-.015-2.4.341-2.841,1.755l-5.06-.05a2.113,2.113,0,0,0-2.1-1.742c-1.2-.006-1.751.744-2.117,1.737Z" transform="translate(249.806 -960.984)" fill="#94b0c9" fill-rule="evenodd"/>
          <path id="Trazado_189968" data-name="Trazado 189968" d="M-218.446,1013.463c8.584,0,17.168.03,25.752-.028,1.486-.011,1.851.381,1.6,1.865q-2.063,12.069-3.937,24.169c-.2,1.284-.62,1.682-1.922,1.678q-21.459-.066-42.92-.007c-1.164,0-1.646-.3-1.836-1.538q-1.891-12.2-3.969-24.371c-.273-1.6.324-1.8,1.686-1.791C-235.478,1013.485-226.963,1013.463-218.446,1013.463Zm-6.943,13.876a7.088,7.088,0,0,0,7.031,7.221,7.081,7.081,0,0,0,6.987-6.854,7.085,7.085,0,0,0-6.927-7.324A7.084,7.084,0,0,0-225.389,1027.338Z" transform="translate(250.282 -949.267)" fill="#94b0c9" fill-rule="evenodd"/>
          <path id="Trazado_189969" data-name="Trazado 189969" d="M-194.412,978.324a30.787,30.787,0,0,0-4.411-4.466,29.7,29.7,0,0,0-5.66-3.082,23.916,23.916,0,0,0,6.1-11.7c.9-4.52.516-9.09.5-13.641-.006-1.6-1.174-2.1-2.682-2.112a17.574,17.574,0,0,1-8.456-1.956c-1.242-.679-2.038-1.48-1.8-3.035a11.089,11.089,0,0,0-.005-2.446,1.85,1.85,0,0,0-1.982-1.893,1.917,1.917,0,0,0-2.063,1.832,2.666,2.666,0,0,0-.018,1.017c.628,2.693-.905,3.841-3.1,4.832a24.893,24.893,0,0,1-12.947,1.968c-3.817-.375-4.341.048-4.317,3.841.022,3.739-.259,7.5.468,11.2a23.659,23.659,0,0,0,6.3,12.132,24.865,24.865,0,0,0-10.46,7.476v-1.706q0-13.582,0-27.163c.018-10.617,7.2-17.806,17.844-17.766,4.282.016,8.6-.46,12.841.266A16.516,16.516,0,0,1-194.2,948.069c.183,9.936.047,19.877.04,29.817C-194.162,977.986-194.274,978.088-194.412,978.324Z" transform="translate(248.455 -927.209)" fill="#cc8f08" fill-rule="evenodd"/>
          <path id="Trazado_189970" data-name="Trazado 189970" d="M-199.15,956.828c.208,5.2-.938,10.4-4.741,14.756-5.721,6.548-13.879,6.572-19.627.055a20.026,20.026,0,0,1-4.82-13.717c-.005-1.7-.568-3.8.222-4.983.875-1.313,3.125-.346,4.768-.486a26.385,26.385,0,0,0,11.779-3.55,1.971,1.971,0,0,1,2.52.035,15.035,15.035,0,0,0,7.779,2.746c1.832.1,2.38.793,2.137,2.489A21.6,21.6,0,0,0-199.15,956.828Z" transform="translate(245.648 -931.773)" fill="#fcd7d2" fill-rule="evenodd"/>
          <path id="Trazado_189971" data-name="Trazado 189971" d="M-216.428,1003.073c-6.539,0-13.079-.045-19.617.032-1.573.019-2.077-.237-1.384-1.852,2.408-5.615,6.01-9.832,12.341-11.072a4.424,4.424,0,0,1,2.749.346,14.565,14.565,0,0,0,11.9.118,6.119,6.119,0,0,1,4.342-.227c5.969,1.717,9.367,5.98,11.337,11.621.51,1.461-.642,1.015-1.23,1.017C-202.8,1003.082-209.616,1003.072-216.428,1003.073Z" transform="translate(248.124 -942.983)" fill="#0ddcf1" fill-rule="evenodd"/>
          <path id="Trazado_189972" data-name="Trazado 189972" d="M-217.888,1029.9a7.085,7.085,0,0,1,7.09-6.957,7.086,7.086,0,0,1,6.927,7.324,7.08,7.08,0,0,1-6.987,6.854A7.088,7.088,0,0,1-217.888,1029.9Zm9.922.048a2.973,2.973,0,0,0-3.048-2.88,2.986,2.986,0,0,0-2.777,2.949,3,3,0,0,0,2.949,2.989A2.992,2.992,0,0,0-207.966,1029.946Z" transform="translate(242.781 -951.827)" fill="#030304" fill-rule="evenodd"/>
          <path id="Trazado_189973" data-name="Trazado 189973" d="M-206.457,1031.465a2.992,2.992,0,0,1-2.877,3.059,3,3,0,0,1-2.949-2.99,2.986,2.986,0,0,1,2.777-2.949A2.973,2.973,0,0,1-206.457,1031.465Z" transform="translate(241.271 -953.346)" fill="#ffb30c" fill-rule="evenodd"/>
        </g>
        <path id="Trazado_189974" data-name="Trazado 189974" d="M-227.885,1067.768h28.5v-4.083H-228.25Z" transform="translate(-6.383 -37.176)" fill="#050404" fill-rule="evenodd"/>
      </g>
    </g>
  </g>
</svg>
