<svg xmlns="http://www.w3.org/2000/svg" width="100" height="100" viewBox="0 0 100 100">
  <g id="Grupo_146525" data-name="Grupo 146525" transform="translate(-750 -3154)">
    <circle id="Elipse_5217" data-name="Elipse 5217" cx="50" cy="50" r="50" transform="translate(750 3154)" fill="none"/>
    <path id="Trazado_197043" data-name="Trazado 197043" d="M533.213,135.729a2.539,2.539,0,0,1-.936-2.385c.052-.542-.017-1.1.014-1.641a5.776,5.776,0,0,0-1.2-3.785c-2.055-2.882-4.072-5.791-6.1-8.692a15.045,15.045,0,0,1-2.03-14.1c1.013-3.03,2.058-6.049,3.029-9.093a7.231,7.231,0,0,1,5.975-5.255c-.229-1.583-.455-3.17-.69-4.755q-1.459-9.848-2.93-19.694a8.892,8.892,0,0,1,.148-4.618,6.684,6.684,0,0,1,6.668-4.311,6.587,6.587,0,0,1,6.019,5.358c.831,5.165,1.577,10.343,2.359,15.515.212,1.4.427,2.8.758,4.2q.712-3.829,1.424-7.658c.843-4.553,1.663-9.111,2.533-13.659A6.668,6.668,0,0,1,561.471,62.2a25.175,25.175,0,0,1-.818,5.155q-1.964,10.509-3.963,21.012a2.11,2.11,0,0,0,0,.308c2.6-1.614,5.228-1.8,7.753-.05s3.274,4.253,2.683,7.274c.619.122,1.24.094,1.837.247a6.685,6.685,0,0,1,4.44,9.256,1.3,1.3,0,0,1-.145.276c-1.422,1.785-1.48,3.762-1.271,5.977a20.609,20.609,0,0,1-4.6,14.992,1.93,1.93,0,0,1-.2.241,7.349,7.349,0,0,0-2.36,6.636,2.2,2.2,0,0,1-.956,2.21h-1.408a2.212,2.212,0,0,1-.963-2.21,6.922,6.922,0,0,0,0-1.172,9.047,9.047,0,0,1,2.531-6.9,17.669,17.669,0,0,0,3.661-6.121,17.38,17.38,0,0,0,1.042-5.757c-1.663,2.867-3.977,4.221-7.045,3.8s-4.894-2.412-5.682-5.347a7.134,7.134,0,0,1-3.934.027,6.69,6.69,0,0,1-3.964-9.578c.211-.4.6-.745.552-1.34a18.872,18.872,0,0,1-3.833,1.881,22.126,22.126,0,0,1-4.181.991c.271.246.456.416.644.584a32.3,32.3,0,0,1,9.137,13.671,1.746,1.746,0,0,1-.855,2.425,1.723,1.723,0,0,1-2.279-1.3A29.4,29.4,0,0,0,535,104.012a1.726,1.726,0,0,1-.962-2.083,1.766,1.766,0,0,1,1.914-1.164c.782-.009,1.564,0,2.346,0a15.6,15.6,0,0,0,10.922-4.276c.472-.436.9-.875.611-1.615s-.884-.768-1.541-.767q-7.546.013-15.092,0A3.764,3.764,0,0,0,529.181,97c-1.018,3.055-2,6.122-3.046,9.167a11.771,11.771,0,0,0,1.622,11.186c2.069,2.936,4.114,5.889,6.19,8.82a8.733,8.733,0,0,1,1.685,5.256c-.007.73-.034,1.461.008,2.189a2.128,2.128,0,0,1-1.019,2.109Zm19.216-43.038c.089-.28.13-.375.149-.475q1.957-10.349,3.909-20.7c.521-2.76,1.048-5.519,1.561-8.28a3.339,3.339,0,1,0-6.549-1.218q-2.242,12.043-4.484,24.085c-.283,1.523-.551,3.049-.84,4.649C548.474,90.772,550.824,90.386,552.429,92.691Zm-10.414-1.938c-.051-.385-.083-.665-.125-.945q-1.133-7.568-2.268-15.135c-.565-3.758-1.116-7.518-1.716-11.27a3.205,3.205,0,0,0-3.045-2.665,3.281,3.281,0,0,0-3.284,2.272,4.784,4.784,0,0,0-.017,2.242q.906,6.1,1.811,12.2.949,6.411,1.888,12.824c.051.353.195.482.554.48C537.843,90.747,539.872,90.753,542.016,90.753Zm12.19,18.227a3.063,3.063,0,0,0,2.546-1.5c2.3-3.916,4.581-7.838,6.82-11.786a3.282,3.282,0,0,0-1.3-4.514,3.323,3.323,0,0,0-4.484,1.239c-.477.774-.915,1.572-1.37,2.359-1.767,3.06-3.559,6.107-5.293,9.185A3.342,3.342,0,0,0,554.205,108.981Zm16.447-6.148a3.354,3.354,0,0,0-2.454-3.424,3.2,3.2,0,0,0-3.693,1.49c-1.58,2.682-3.133,5.381-4.683,8.081a3.331,3.331,0,1,0,5.762,3.33c1.535-2.625,3.04-5.267,4.564-7.9A3.289,3.289,0,0,0,570.652,102.833Z" transform="translate(251.94 3108.271)" fill="#030303"/>
  </g>
</svg>
