<svg xmlns="http://www.w3.org/2000/svg" width="140" height="140" viewBox="0 0 140 140">
  <g id="Grupo_146533" data-name="Grupo 146533" transform="translate(2845 4410)">
    <circle id="Elipse_5269" data-name="Elipse 5269" cx="70" cy="70" r="70" transform="translate(-2845 -4410)" fill="#ffb30b"/>
    <circle id="Elipse_5270" data-name="Elipse 5270" cx="60" cy="60" r="60" transform="translate(-2835 -4400)" fill="#fff"/>
    <g id="Grupo_146516" data-name="Grupo 146516" transform="translate(-2830.64 -4390.323)">
      <path id="Trazado_197184" data-name="Trazado 197184" d="M66.658,90.323h-22.5c-.85-.683-.918-1.01-.392-1.983q1.446-2.671,2.9-5.341c.4-.745.806-1.492,1.26-2.333h-.947c-7.631,0-15.262.035-22.893-.031a7.486,7.486,0,0,1-7.424-7.51q-.039-21.756,0-43.513A7.55,7.55,0,0,1,22.4,22.33a9.976,9.976,0,0,1,2.553-.267c1.525,0,3.05,0,4.625,0,0-2.181-.019-4.26.005-6.339a5.221,5.221,0,0,1,5.435-5.4q20.393-.013,40.786,0a5.221,5.221,0,0,1,5.421,5.409c.019,1.9,0,3.8.008,5.7,0,.2-.083.42.144.623,1.654,0,3.346-.024,5.037,0a7.635,7.635,0,0,1,7.754,7.856q.017,21.444.007,42.888a8.223,8.223,0,0,1-.236,2.087,7.637,7.637,0,0,1-7.75,5.762q-11.174.02-22.347,0h-.925c.168.329.288.58.42.824q1.855,3.426,3.713,6.849C67.573,89.308,67.5,89.65,66.658,90.323Zm14.57-60.775v.943c0,4.712-.086,9.426.029,14.136A5.5,5.5,0,0,1,75.5,50.383c-4.788-.113-9.581-.018-14.372-.043a.877.877,0,0,0-.964.638c-1.168,2.745-2.377,5.473-3.56,8.211-.237.547-.5,1.077-1.175,1.092-.726.015-.994-.545-1.24-1.114-1.163-2.691-2.346-5.373-3.491-8.072a1.031,1.031,0,0,0-1.127-.76c-4.738.036-9.477.021-14.216.018a7.208,7.208,0,0,1-1.632-.109,5.227,5.227,0,0,1-4.146-5.322c-.017-4.842,0-9.684-.01-14.527a1.439,1.439,0,0,0-.075-.821H24.1v39.78H86.679V29.548ZM55.349,56.309a1.119,1.119,0,0,0,.387-.628c.928-2.115,1.879-4.22,2.762-6.353a1.664,1.664,0,0,1,1.768-1.179c5.13.034,10.26.02,15.39.014a3.056,3.056,0,0,0,3.388-3.376q.008-14.448,0-28.9a3.085,3.085,0,0,0-3.4-3.375q-20.233,0-40.467,0a3.081,3.081,0,0,0-3.407,3.366c0,2.447.027,4.894.025,7.341q-.008,10.739-.026,21.477c0,2.283,1.178,3.462,3.456,3.464,4.713,0,9.426,0,14.14,0,2.664,0,2.313-.278,3.4,2.228C53.615,52.359,54.479,54.319,55.349,56.309ZM18.883,71.59c-.567,4.435,2.447,7.117,6.3,6.924,3.533-.177,7.081-.036,10.622-.038q12.771,0,25.542-.012c8.411,0,16.821.034,25.231-.009a5.507,5.507,0,0,0,5.294-6.865Zm73.1-2.228V57.028q0-13.55,0-27.1a5.372,5.372,0,0,0-4.176-5.5c-2.152-.426-4.34-.094-6.525-.195v3.09c1.737,0,3.424.006,5.112,0a2.485,2.485,0,0,1,1.723.6,2.835,2.835,0,0,1,.837,2.336q-.012,19.094,0,38.188a1.809,1.809,0,0,0,.076.913Zm-70.114,0V30.5c0-.26-.01-.521.006-.781a2.379,2.379,0,0,1,2.463-2.386c1.509-.023,3.019,0,4.529-.012.222,0,.469.086.654-.1V24.253c-1.617,0-3.177,0-4.737,0-3.679.007-5.948,2.262-5.948,5.92q0,19.206,0,38.413a1.441,1.441,0,0,0,.073.776ZM46.393,88.083H64.421c-1.316-2.421-2.592-4.76-3.854-7.106a.6.6,0,0,0-.636-.315q-4.525.009-9.051,0a.6.6,0,0,0-.635.316C48.984,83.325,47.708,85.664,46.393,88.083Z" fill="#084a93"/>
      <path id="Trazado_197185" data-name="Trazado 197185" d="M43.97,19.016c.938.26,2.051.528,3.134.884a2.077,2.077,0,0,0,1.578-.192A3.266,3.266,0,0,0,50.8,16.779a13.473,13.473,0,0,1,.424-1.739,1.165,1.165,0,0,1,1.235-.966c1.953.007,3.906.01,5.859,0a1.214,1.214,0,0,1,1.31,1.073c.247,1.035.535,2.061.767,3.1a.953.953,0,0,0,.627.8,1.376,1.376,0,0,1,.483.248,2.706,2.706,0,0,0,3.143.353c.6-.238,1.242-.376,1.866-.554a1.223,1.223,0,0,1,1.571.638q1.394,2.479,2.845,4.925A1.236,1.236,0,0,1,70.7,26.4c-.78.728-1.524,1.495-2.3,2.223a.922.922,0,0,0-.361.951.712.712,0,0,1,.012.311,3.06,3.06,0,0,0,1.461,3.3,13.073,13.073,0,0,1,1.3,1.241,1.124,1.124,0,0,1,.2,1.487q-1.48,2.565-2.962,5.128a1.147,1.147,0,0,1-1.515.579c-.49-.168-1-.275-1.5-.42-2.242-.654-2.238-.65-4.217.565a.9.9,0,0,0-.4.625c-.255,1.034-.543,2.06-.771,3.1a1.261,1.261,0,0,1-1.407,1.144c-1.9-.024-3.8-.021-5.7,0A1.2,1.2,0,0,1,51.2,45.59a10.012,10.012,0,0,1-.322-1.363,3.835,3.835,0,0,0-2.6-3.468,1.12,1.12,0,0,0-.808-.046c-1.023.295-2.057.553-3.07.876a1.261,1.261,0,0,1-1.688-.66c-.929-1.653-1.884-3.291-2.846-4.925a1.2,1.2,0,0,1,.23-1.671c.76-.711,1.488-1.457,2.254-2.162a1.7,1.7,0,0,0,.457-1.07c.361-1.811-.661-2.86-1.857-3.933-1.8-1.612-1.645-1.485-.5-3.481.765-1.328,1.538-2.651,2.3-3.981A1.229,1.229,0,0,1,43.97,19.016Zm24.68,16.6c-.848-.91-1.612-1.761-2.413-2.577a1.492,1.492,0,0,1-.468-1.406,6.964,6.964,0,0,0,.011-2.485,1.565,1.565,0,0,1,.512-1.536c.82-.786,1.593-1.621,2.4-2.45-.643-1.119-1.3-2.238-1.93-3.371a.524.524,0,0,0-.744-.291c-.912.3-1.847.521-2.767.794a1.537,1.537,0,0,1-1.533-.261,8.589,8.589,0,0,0-2.283-1.325,1.464,1.464,0,0,1-.952-1.127c-.255-1.106-.561-2.2-.843-3.289H53.174c-.28,1.089-.588,2.159-.822,3.245a1.561,1.561,0,0,1-1.058,1.226A7.979,7.979,0,0,0,49.144,22a1.6,1.6,0,0,1-1.6.282c-.917-.286-1.846-.528-2.767-.8-.268-.079-.475-.125-.651.192-.665,1.193-1.356,2.372-1.955,3.412.843.9,1.588,1.739,2.376,2.533a1.545,1.545,0,0,1,.5,1.47,6.823,6.823,0,0,0,0,2.484,1.606,1.606,0,0,1-.526,1.539c-.79.787-1.537,1.618-2.358,2.489.611,1.057,1.3,2.213,1.946,3.393.2.366.442.285.714.21.95-.264,1.9-.514,2.842-.818a1.392,1.392,0,0,1,1.384.246A9.818,9.818,0,0,0,51.4,40a1.473,1.473,0,0,1,.939,1.143c.21.937.5,1.855.7,2.793a.526.526,0,0,0,.627.5q1.718-.028,3.436,0c.4.007.593-.081.684-.522.2-.965.5-1.908.719-2.869a1.34,1.34,0,0,1,.858-1.021,10.024,10.024,0,0,0,2.423-1.4,1.38,1.38,0,0,1,1.383-.235c.939.3,1.9.534,2.843.816a.542.542,0,0,0,.751-.3C67.385,37.775,68.048,36.66,68.65,35.615Z" fill="#084a93"/>
      <path id="Trazado_197186" data-name="Trazado 197186" d="M55.317,76.118c-1.2,0-2.394.008-3.591,0-.77-.007-1.267-.431-1.286-1.061-.019-.658.5-1.119,1.309-1.122q3.667-.012,7.336,0A1.136,1.136,0,0,1,60.371,75c.02.659-.494,1.11-1.308,1.116C57.814,76.125,56.565,76.118,55.317,76.118Z" fill="#084a93"/>
      <path id="Trazado_197187" data-name="Trazado 197187" d="M63.894,30.31a8.488,8.488,0,1,1-8.5-8.448A8.5,8.5,0,0,1,63.894,30.31Zm-2.19.064a6.3,6.3,0,1,0-6.3,6.286A6.275,6.275,0,0,0,61.7,30.374Z" fill="#084a93"/>
    </g>
  </g>
</svg>
