<svg xmlns="http://www.w3.org/2000/svg" width="140" height="140" viewBox="0 0 140 140">
  <g id="Grupo_146532" data-name="Grupo 146532" transform="translate(3196 4410)">
    <circle id="Elipse_5267" data-name="Elipse 5267" cx="70" cy="70" r="70" transform="translate(-3196 -4410)" fill="#ffb30b"/>
    <circle id="Elipse_5268" data-name="Elipse 5268" cx="60" cy="60" r="60" transform="translate(-3186 -4400)" fill="#fff"/>
    <g id="Grupo_146515" data-name="Grupo 146515" transform="translate(-3592.439 -4402.144)">
      <path id="Trazado_197168" data-name="Trazado 197168" d="M460.727,38.049c0-3.622,0-7.163,0-10.7,0-2.735,1.474-4.2,4.221-4.2h36.318c2.684,0,4.166,1.486,4.167,4.179q0,9.507,0,19.015a3.763,3.763,0,0,1-4.139,4.129c-1.94,0-3.88.014-5.82-.01a1.017,1.017,0,0,0-.958.479c-.593.847-1.258,1.643-1.847,2.491a3.9,3.9,0,0,1-4.575,1.819v2.674h.773c3.414,0,6.829-.011,10.243,0a6.177,6.177,0,0,1,6.319,6.26q.027,14.862,0,29.726a6.167,6.167,0,0,1-6.266,6.234c-6.415.02-12.83.006-19.245.006-3.488,0-5.628-1.577-6.667-4.968H432.708c-2.807,0-4.269-1.449-4.269-4.232q0-24.332,0-48.664c0-2.79,1.457-4.237,4.263-4.237h28.024Zm24.816,12.463h-54.62v.729q0,19.867,0,39.734c0,1.355.377,1.723,1.765,1.723h40.422V85.246h-.791c-2.612,0-5.225.015-7.837-.005a3.7,3.7,0,0,1-3.75-3.731q-.032-3.725,0-7.45a3.7,3.7,0,0,1,3.074-3.658,5.989,5.989,0,0,1,1.082-.057c2.733,0,5.467,0,8.223,0V67.857c-2.872,0-5.712.011-8.551,0a3.708,3.708,0,0,1-3.83-3.81q-.022-3.648,0-7.3a3.7,3.7,0,0,1,3.769-3.79q6.168-.025,12.337,0a3.708,3.708,0,0,1,3.757,3.727c.008.4,0,.807,0,1.188h4.948Zm2.5-2.527c0,1.1.014,2.126,0,3.154-.014.73.012,1.435.839,1.729.88.311,1.325-.295,1.769-.893.862-1.163,1.746-2.309,2.592-3.482a1.1,1.1,0,0,1,1.017-.519c2.328.026,4.656.013,6.984.011,1.32,0,1.7-.386,1.7-1.707q0-9.469,0-18.938c0-1.327-.382-1.711-1.7-1.711H464.931c-1.355,0-1.72.376-1.72,1.766q0,9.392,0,18.782c0,1.469.344,1.807,1.836,1.807Zm14.884,27.369H475.673v7.363h27.258Zm-72-27.441H460.82c-.206-2.484-.02-4.909-.119-7.38H432.517c-.129,0-.259-.008-.388.005a1.169,1.169,0,0,0-1.19,1.189C430.906,43.79,430.927,45.853,430.927,47.913Zm44.707,19.9h27.311c0-1.282.023-2.521-.005-3.759a3.711,3.711,0,0,0-3.681-3.645c-.956-.019-1.914,0-2.871,0q-8.458,0-16.917,0a3.7,3.7,0,0,0-3.827,3.491C475.593,65.188,475.635,66.48,475.635,67.814Zm27.307,22.444H475.629c0,1.23-.01,2.416,0,3.6a3.721,3.721,0,0,0,3.839,3.8c1.293.011,2.587,0,3.88,0q7.876,0,15.752,0a3.7,3.7,0,0,0,3.829-3.49C502.985,92.885,502.942,91.593,502.942,90.258Zm-24.83-32.233V57.28c0-1.5-.336-1.841-1.8-1.841q-5.743,0-11.484,0c-1.208,0-1.615.413-1.616,1.637q0,3.375,0,6.752c0,1.109.439,1.542,1.552,1.545,1.94.005,3.88,0,5.82,0h2.522C473.384,60.859,474.586,59.1,478.112,58.025Zm-4.988,14.8c-2.934,0-5.82-.015-8.706.01-.774.007-1.2.545-1.2,1.41q-.014,3.525,0,7.051c0,1,.464,1.454,1.476,1.46,1.5.009,3,0,4.493,0h3.941Zm29.807-2.444H475.673v2.4h27.258Zm-27.285,17.3H502.9v-2.4H475.646Z" fill="#084a93"/>
      <path id="Trazado_197169" data-name="Trazado 197169" d="M448.21,62.579c2.017,0,4.035-.007,6.052,0a3.719,3.719,0,0,1,3.9,3.9q.015,3.57,0,7.14a3.715,3.715,0,0,1-3.862,3.86q-6.091.016-12.182,0a3.7,3.7,0,0,1-3.82-3.821q-.02-3.648,0-7.3a3.7,3.7,0,0,1,3.781-3.779C444.123,62.566,446.166,62.579,448.21,62.579Zm0,2.484c-1.99,0-3.979-.006-5.969,0-1,0-1.456.462-1.459,1.477q-.011,3.489,0,6.977c0,1.014.456,1.475,1.46,1.476q5.969.01,11.937,0c1.054,0,1.5-.452,1.5-1.517q.009-3.45,0-6.9c0-1.065-.445-1.511-1.5-1.515C452.187,65.058,450.2,65.062,448.208,65.062Z" transform="translate(-2.404 -9.625)" fill="#084a93"/>
      <path id="Trazado_197170" data-name="Trazado 197170" d="M448.2,100.487c-1.992,0-3.984.006-5.975,0a3.729,3.729,0,0,1-3.932-3.946q-.01-3.531,0-7.062a3.717,3.717,0,0,1,3.9-3.892q6.014-.012,12.028,0a3.722,3.722,0,0,1,3.933,3.944q.011,3.532,0,7.063a3.725,3.725,0,0,1-3.906,3.894C452.239,100.494,450.221,100.487,448.2,100.487Zm.04-2.484c1.964,0,3.928,0,5.891,0,1.106,0,1.541-.44,1.544-1.551q.008-3.412,0-6.823c0-1.119-.432-1.558-1.535-1.559q-5.93-.006-11.859,0c-1.059,0-1.5.448-1.5,1.511q-.009,3.449,0,6.9c0,1.1.443,1.519,1.572,1.522C444.317,98.006,446.281,98,448.244,98Z" transform="translate(-2.405 -15.241)" fill="#084a93"/>
      <path id="Trazado_197171" data-name="Trazado 197171" d="M437.489,108.652v2.387h-2.414v-2.387Z" transform="translate(-1.62 -20.873)" fill="#084a93"/>
      <path id="Trazado_197172" data-name="Trazado 197172" d="M441.62,111.049v-2.418h2.422v2.418Z" transform="translate(-3.217 -20.868)" fill="#084a93"/>
      <path id="Trazado_197173" data-name="Trazado 197173" d="M448.23,108.627h2.395v2.423H448.23Z" transform="translate(-4.831 -20.867)" fill="#084a93"/>
      <path id="Trazado_197174" data-name="Trazado 197174" d="M457.2,108.641v2.4h-2.423v-2.4Z" transform="translate(-6.429 -20.87)" fill="#084a93"/>
      <path id="Trazado_197175" data-name="Trazado 197175" d="M477.725,35.891c0-.494,0-.909,0-1.322a4.978,4.978,0,0,1,9.855-.9,4.524,4.524,0,0,1-1.181,4.012,18.319,18.319,0,0,1-1.7,1.7,1.894,1.894,0,0,0-.774,1.876,5.391,5.391,0,0,1,.006.825h-2.479c0-.907,0-1.853,0-2.8,0-.272.239-.386.394-.544.835-.848,1.688-1.678,2.52-2.529a2.262,2.262,0,0,0,.487-2.884,2.569,2.569,0,0,0-2.92-1.055,2.285,2.285,0,0,0-1.725,2.29c-.008.433,0,.866,0,1.332Z" transform="translate(-12.031 -1.6)" fill="#084a93"/>
      <path id="Trazado_197176" data-name="Trazado 197176" d="M500.453,42.1h-2.572c0-.921,0-1.866,0-2.81,0-.275.231-.391.386-.549.835-.847,1.688-1.678,2.521-2.528a2.259,2.259,0,0,0,.5-2.883,2.562,2.562,0,0,0-2.915-1.071,2.3,2.3,0,0,0-1.736,2.36c0,.409,0,.818,0,1.262h-2.409c-.4-2.894.792-5.114,3.176-5.922a5.061,5.061,0,0,1,5.938,1.97A4.746,4.746,0,0,1,502.519,38c-.127.129-.253.259-.384.385C501.084,39.4,499.806,40.289,500.453,42.1Z" transform="translate(-16.04 -1.593)" fill="#084a93"/>
      <path id="Trazado_197177" data-name="Trazado 197177" d="M516.9,42.1h-2.589V39.281c0-.274.235-.389.391-.547.8-.812,1.61-1.609,2.411-2.418a2.309,2.309,0,0,0,.6-2.994,2.565,2.565,0,0,0-2.918-1.063,2.313,2.313,0,0,0-1.731,2.442c0,.382,0,.764,0,1.215h-2.409c-.379-2.983.794-5.157,3.182-5.962a5.057,5.057,0,0,1,5.935,1.978,4.743,4.743,0,0,1-.83,6.075,8.969,8.969,0,0,1-.771.764C517.126,39.609,516.4,40.571,516.9,42.1Z" transform="translate(-20.053 -1.593)" fill="#084a93"/>
      <path id="Trazado_197178" data-name="Trazado 197178" d="M485.134,50.691a1.238,1.238,0,1,1-1.206-1.251A1.251,1.251,0,0,1,485.134,50.691Z" transform="translate(-13.235 -6.419)" fill="#084a93"/>
      <path id="Trazado_197179" data-name="Trazado 197179" d="M500.348,51.916a1.238,1.238,0,1,1,1.214-1.242A1.247,1.247,0,0,1,500.348,51.916Z" transform="translate(-17.245 -6.419)" fill="#084a93"/>
      <path id="Trazado_197180" data-name="Trazado 197180" d="M516.739,49.44a1.238,1.238,0,1,1-1.221,1.233A1.248,1.248,0,0,1,516.739,49.44Z" transform="translate(-21.256 -6.419)" fill="#084a93"/>
      <path id="Trazado_197181" data-name="Trazado 197181" d="M437.488,49.5v2.384h-2.411V49.5Z" transform="translate(-1.62 -6.434)" fill="#084a93"/>
      <path id="Trazado_197182" data-name="Trazado 197182" d="M444.039,51.911h-2.4V49.488h2.4Z" transform="translate(-3.221 -6.431)" fill="#084a93"/>
      <path id="Trazado_197183" data-name="Trazado 197183" d="M450.606,51.916h-2.392V49.5h2.392Z" transform="translate(-4.827 -6.432)" fill="#084a93"/>
    </g>
  </g>
</svg>
