<svg xmlns="http://www.w3.org/2000/svg" width="100" height="100" viewBox="0 0 100 100">
  <g id="Grupo_146525" data-name="Grupo 146525" transform="translate(-330 -3154)">
    <circle id="Elipse_5216" data-name="Elipse 5216" cx="50" cy="50" r="50" transform="translate(330 3154)" fill="none"/>
    <path id="Trazado_197037" data-name="Trazado 197037" d="M111.252,42.959c.455.139.92.256,1.365.422A6.681,6.681,0,0,1,117,49.934q.023,11.6.023,23.2c0,.285,0,.571,0,1.043a6.779,6.779,0,0,1,6.375-2.813,6.639,6.639,0,0,1,5.419,4.154c2.637-1.3,5.177-1.271,7.506.556a6.577,6.577,0,0,1,2.348,7.02,8.05,8.05,0,0,1,3.289.8,6.645,6.645,0,0,1,2.9,8.83,18.961,18.961,0,0,1-1.193,2.1,2.348,2.348,0,0,0-.339,1.774,21.368,21.368,0,0,1-5.12,18.058,6.384,6.384,0,0,0-1.821,4.955,11.645,11.645,0,0,1,0,1.64,1.677,1.677,0,0,1-1.674,1.7,1.631,1.631,0,0,1-1.643-1.638,20.4,20.4,0,0,1,.118-4.132,9.475,9.475,0,0,1,2.495-4.682,18.433,18.433,0,0,0,4.639-11.767c-1.639,2.757-3.872,4.193-6.959,3.805-3.112-.391-4.94-2.306-5.78-5.341a6.571,6.571,0,0,1-4.891-.339,6.659,6.659,0,0,1-3.357-3.6,12.368,12.368,0,0,1-2.378.863,32.759,32.759,0,0,1,4.245,7.223c.313.74.594,1.5.853,2.257a1.666,1.666,0,1,1-3.135,1.085,29.413,29.413,0,0,0-12.029-15.272c-.174-.113-.354-.219-.523-.34a1.673,1.673,0,0,1,.938-3.112,41.3,41.3,0,0,0,4.754-.15,15.446,15.446,0,0,0,8.953-4.352,1.224,1.224,0,0,0,.376-1.408,1.2,1.2,0,0,0-1.239-.771c-5.259,0-10.518-.023-15.777.016a3.367,3.367,0,0,0-3.349,2.265c-1.3,3.67-2.588,7.351-3.651,11.093a10.959,10.959,0,0,0,1.727,9.507c2.034,2.957,4.081,5.906,6.183,8.815a9.327,9.327,0,0,1,1.928,6.113c-.038.727.01,1.458-.013,2.187a1.65,1.65,0,1,1-3.3.018c-.025-.807-.029-1.615,0-2.422a5.909,5.909,0,0,0-1.169-3.716c-2.081-2.924-4.127-5.872-6.176-8.818a14.914,14.914,0,0,1-2.039-13.865c1.024-3.107,2.087-6.2,3.1-9.311a7.031,7.031,0,0,1,5.716-5.116,1.958,1.958,0,0,0,.283-.11c0-.259,0-.539,0-.819q.011-13.437.023-26.875c0-3.853,1.8-6.184,5.506-7.172.036-.01.057-.075.085-.115Zm2.428,35c0-.24,0-.37,0-.5q-.021-13.782-.044-27.564a6.887,6.887,0,0,0-.03-.7,3.33,3.33,0,0,0-6.614.77q-.026,13.626-.044,27.252c0,.228,0,.456,0,.713.258.012.463.029.667.03C109.616,77.96,111.616,77.959,113.681,77.959Zm21.845,3.6a3.347,3.347,0,0,0-2.383-3.452,3.281,3.281,0,0,0-3.861,1.606q-3.318,5.715-6.593,11.455a3.31,3.31,0,1,0,5.748,3.284c2.209-3.784,4.392-7.584,6.591-11.374A3.285,3.285,0,0,0,135.526,81.558Zm-1.344,19.712a3.092,3.092,0,0,0,2.093-.733,3.127,3.127,0,0,0,.762-.881c1.584-2.743,3.193-5.473,4.745-8.234a3.316,3.316,0,0,0-5.758-3.289c-1.617,2.747-3.223,5.5-4.773,8.286A3.282,3.282,0,0,0,134.182,101.269Zm-9.557-20.228c.349-.607.687-1.131.962-1.685a3.3,3.3,0,0,0-2.714-4.7c-1.924-.127-3.088.9-3.993,3.286C122.468,78.064,123.4,78.559,124.625,81.041Zm-4.3,7.466-.108-.16a20.1,20.1,0,0,1-7.178,2.726,3.251,3.251,0,0,0,5.528.406C119.235,90.55,119.741,89.5,120.321,88.507Z" transform="translate(260.354 3121.041)" fill="#030303"/>
  </g>
</svg>
