<svg xmlns="http://www.w3.org/2000/svg" width="100" height="100" viewBox="0 0 100 100">
  <g id="Grupo_146526" data-name="Grupo 146526" transform="translate(-1170 -3154)">
    <circle id="Elipse_5218" data-name="Elipse 5218" cx="50" cy="50" r="50" transform="translate(1170 3154)" fill="none"/>
    <path id="Trazado_197050" data-name="Trazado 197050" d="M974.09,135.294a2.279,2.279,0,0,1-.967-2.207c.075-1.062-.06-2.135.09-3.2a8.908,8.908,0,0,1,2.35-4.746,18.336,18.336,0,0,0,4.533-9.168,10.056,10.056,0,0,0,.218-2.769,6.989,6.989,0,0,1-3.7,3.378,6.648,6.648,0,0,1-8.314-9.194c.422-.832.884-1.648,1.383-2.438a57.518,57.518,0,0,0,5.441-11.5c2.813-7.891,5.783-15.726,8.683-23.586a3.242,3.242,0,0,0-1.944-4.427,3.283,3.283,0,0,0-4.3,2.128q-5.032,13.653-10.054,27.31a1.781,1.781,0,0,1-2.652,1.217c-1.3,2.785-3.773,4.263-6.323,5.625a17.776,17.776,0,0,1-6.106,1.849c.032.29.265.381.42.518a32.46,32.46,0,0,1,9.134,13.47c.052.146.107.292.154.44a1.711,1.711,0,0,1-.928,2.267,1.678,1.678,0,0,1-2.215-1.167,29.564,29.564,0,0,0-4.752-8.71,30.234,30.234,0,0,0-7.6-6.772,1.812,1.812,0,0,1-1.008-1.472,1.639,1.639,0,0,1,1.746-1.766c1.249-.042,2.5.011,3.747-.062a15.312,15.312,0,0,0,9.849-4.33,1.241,1.241,0,0,0-.9-2.267c-5.181.01-10.36,0-15.541.01a3.36,3.36,0,0,0-3.423,2.244c-1.314,3.715-2.629,7.44-3.7,11.229a10.854,10.854,0,0,0,1.75,9.354c2.027,2.959,4.075,5.906,6.181,8.81a9.483,9.483,0,0,1,1.945,6.186,14.343,14.343,0,0,0,0,1.639,2.109,2.109,0,0,1-1.017,2.106h-1.406a2.537,2.537,0,0,1-.936-2.382c.052-.542-.017-1.094.015-1.639a5.775,5.775,0,0,0-1.194-3.78c-2.053-2.879-4.067-5.785-6.094-8.682a15.028,15.028,0,0,1-2.03-14.082q1.443-4.318,2.884-8.637c1.21-3.648,2.777-5.036,6.594-5.755-.182-1.267-.357-2.542-.547-3.814q-1.377-9.3-2.758-18.592c-.18-1.209-.37-2.416-.51-3.63a6.578,6.578,0,0,1,5.748-7.2,6.485,6.485,0,0,1,7.253,5.188c.657,3.737,1.162,7.5,1.731,11.252.275,1.817.547,3.635.865,5.453.554-2.856.792-5.749,1.157-8.624.4-3.121.709-6.254,1.141-9.371a6.644,6.644,0,0,1,7.39-5.64,6.723,6.723,0,0,1,5.808,7.563c-.685,5.287-1.328,10.579-1.966,15.872-.035.289-.248.569-.1.909.343-.068.329-.366.409-.583,1.588-4.28,3.158-8.567,4.761-12.842a6.608,6.608,0,0,1,6.534-4.373,6.757,6.757,0,0,1,6.261,5.2,6.6,6.6,0,0,1-.338,3.9q-4.453,12-8.877,24.014c-.062.17-.12.341-.2.562.511,0,.991-.024,1.469,0a6.653,6.653,0,0,1,5.633,9.489,1.075,1.075,0,0,1-.11.206c-1.42,1.782-1.477,3.757-1.27,5.97a20.589,20.589,0,0,1-4.691,15.1,1.111,1.111,0,0,1-.1.12,7.337,7.337,0,0,0-2.357,6.627,2.2,2.2,0,0,1-.955,2.207Zm-9.764-42.6c.3-2.363.573-4.5.837-6.645q1.447-11.771,2.892-23.543a3.325,3.325,0,1,0-6.585-.921c-.352,2.682-.647,5.371-.971,8.057q-.9,7.514-1.813,15.028c-.226,1.875-.444,3.75-.677,5.713C960.41,90.3,962.793,90.135,964.326,92.7Zm-10.168-2.357c-.054-.419-.091-.754-.141-1.087q-1.213-8.091-2.429-16.181c-.5-3.313-.962-6.632-1.513-9.936a3.165,3.165,0,0,0-3.658-2.708,3.2,3.2,0,0,0-2.8,3.59c.074.93.244,1.854.382,2.778q1.45,9.789,2.906,19.577c.2,1.325.4,2.65.6,3.967Zm28.111,12.1a3.357,3.357,0,0,0-2.469-3.429,3.247,3.247,0,0,0-3.651,1.432q-2.4,4.1-4.75,8.222a3.324,3.324,0,1,0,5.778,3.284c1.549-2.641,3.061-5.3,4.6-7.953A3.285,3.285,0,0,0,982.27,102.44Z" transform="translate(259.269 3108.706)" fill="#030303"/>
  </g>
</svg>
