<svg xmlns="http://www.w3.org/2000/svg" xmlns:xlink="http://www.w3.org/1999/xlink" width="295" height="248.982" viewBox="0 0 295 248.982">
  <defs>
    <clipPath id="clip-path">
      <rect id="Rect치ngulo_293779" data-name="Rect치ngulo 293779" width="295" height="248.983" transform="translate(0 0)" fill="none"/>
    </clipPath>
  </defs>
  <g id="Grupo_146526" data-name="Grupo 146526" transform="translate(-180 -5836)">
    <g id="Grupo_130627" data-name="Grupo 130627" transform="translate(180 5862)">
      <g id="Grupo_130666" data-name="Grupo 130666" transform="translate(0 -26)" clip-path="url(#clip-path)">
        <g id="Grupo_130644" data-name="Grupo 130644" transform="translate(39.116 25.497)">
          <g id="Grupo_130636" data-name="Grupo 130636" transform="translate(46.673 0)">
            <path id="Trazado_190602" data-name="Trazado 190602" d="M-731.421,564.393h-39.718l10.836-23.484h18.046Z" transform="translate(815.742 -455.978)" fill="#ccf9ff"/>
            <path id="Trazado_190603" data-name="Trazado 190603" d="M-677.96,566.185c-131.239,0-125.91,1.146-125.91-2.577,0-88.224-1.1-85.153,2.576-85.153,131.239,0,125.91-1.147,125.91,2.576C-675.384,569.255-674.28,566.185-677.96,566.185Z" transform="translate(804.025 -478.288)" fill="#ccf9ff"/>
            <path id="Trazado_190604" data-name="Trazado 190604" d="M-681.581,548.6c-124.721,0-120.176,1.176-120.176-2.577,0-66.627-1.095-65.681,2.576-65.681,124.72,0,120.178-1.176,120.178,2.576C-679,549.549-677.91,548.6-681.581,548.6Z" transform="translate(804.779 -477.617)" fill="#fff1d1"/>
            <path id="Trazado_190605" data-name="Trazado 190605" d="M-755.745,541.5c-4.716,0-4.721-7.138,0-7.138S-751.024,541.5-755.745,541.5Z" transform="translate(819.965 -458.31)" fill="#72787a"/>
            <g id="Grupo_130635" data-name="Grupo 130635" transform="translate(16.71 7.038)">
              <g id="Grupo_130633" data-name="Grupo 130633">
                <g id="Grupo_130627-2" data-name="Grupo 130627">
                  <path id="Trazado_190606" data-name="Trazado 190606" d="M-700.416,542.389c-92.738,0-90.813,1.385-90.813-3.387,0-54.106-1.279-55.024,3.387-55.024,92.739,0,90.814-1.383,90.814,3.387C-697.028,541.471-695.75,542.389-700.416,542.389Z" transform="translate(791.817 -483.365)" fill="#fff"/>
                  <path id="Trazado_190607" data-name="Trazado 190607" d="M-769.148,543.116c-16.689,0-20.522-.294-21.829-1.606a2.687,2.687,0,0,1-.568-2.113v-.282c0-11.6-.058-20.682-.106-27.98-.13-20.34-.161-25.172,1.439-26.785a3.208,3.208,0,0,1,2.481-.686c20.949,0,36.763-.068,49.47-.125,33.463-.146,39.493-.172,41.2,1.545a2.7,2.7,0,0,1,.568,2.113l0,.282c0,11.6.058,20.682.106,27.98.13,20.34.161,25.172-1.439,26.785a3.211,3.211,0,0,1-2.48.686c-20.949,0-36.763.068-49.47.123C-757.651,543.089-764.009,543.116-769.148,543.116Zm49.911-58.783c-5.115,0-11.374.028-19.019.061-12.708.056-28.524.125-49.474.125-.872,0-1.473.031-1.874.434-1.351,1.359-1.313,7.114-1.191,26.177.047,7.3.1,16.382.1,27.985v.29c-.005.769.005,1.185.319,1.5,1.461,1.466,9.752,1.431,40.6,1.294,12.708-.056,28.524-.123,49.474-.123.872,0,1.473-.031,1.874-.435,1.351-1.359,1.313-7.112,1.191-26.177-.046-7.3-.1-16.384-.1-27.984v-.29c.007-.769-.005-1.185-.319-1.5C-698.759,484.585-703.721,484.333-719.237,484.333Z" transform="translate(791.705 -483.477)" fill="#eee4d9"/>
                </g>
                <g id="Grupo_130628" data-name="Grupo 130628" transform="translate(0.161 0.015)">
                  <path id="Trazado_190608" data-name="Trazado 190608" d="M-697.07,486.878h-94.2a2.9,2.9,0,0,1,2.9-2.9C-694.113,483.976-697.07,482.736-697.07,486.878Z" transform="translate(791.698 -483.376)" fill="#0ddcf1"/>
                  <path id="Trazado_190609" data-name="Trazado 190609" d="M-696.532,487.417h-95.054v-.427a3.334,3.334,0,0,1,3.33-3.33c21.877,0,38.808-.068,51.171-.118,32.72-.128,38.614-.153,40.1,1.36a2.155,2.155,0,0,1,.457,1.731c0,.115-.005.233-.005.357Zm-94.163-.853h93.315c.012-.544,0-.841-.214-1.062-1.233-1.259-9.335-1.223-39.488-1.105-9.982.042-25.829.118-51.175.118A2.479,2.479,0,0,0-790.7,486.564Z" transform="translate(791.586 -483.488)" fill="#0ddcf1"/>
                </g>
                <g id="Grupo_130632" data-name="Grupo 130632" transform="translate(90.326 1.283)">
                  <path id="Trazado_190610" data-name="Trazado 190610" d="M-724.736,485.988h1.236c.445,0,.584-1.565,0-1.565h-1.236c-.556,0-.321,1.656-.321,1.245A.32.32,0,0,0-724.736,485.988Z" transform="translate(725.106 -484.423)" fill="#bec0c2"/>
                  <g id="Grupo_130631" data-name="Grupo 130631" transform="translate(0.227 0.114)">
                    <g id="Grupo_130629" data-name="Grupo 130629">
                      <path id="Trazado_190611" data-name="Trazado 190611" d="M-724.725,485.846a.214.214,0,0,1-.164-.076.213.213,0,0,1,.027-.3l1.095-.913a.213.213,0,0,1,.3.029.212.212,0,0,1-.027.3l-1.1.913A.214.214,0,0,1-724.725,485.846Z" transform="translate(724.939 -484.507)" fill="#fff"/>
                    </g>
                    <g id="Grupo_130630" data-name="Grupo 130630">
                      <path id="Trazado_190612" data-name="Trazado 190612" d="M-723.63,485.846a.22.22,0,0,1-.137-.049l-1.095-.913a.212.212,0,0,1-.027-.3.212.212,0,0,1,.3-.029l1.1.913a.213.213,0,0,1,.027.3A.213.213,0,0,1-723.63,485.846Z" transform="translate(724.939 -484.507)" fill="#fff"/>
                    </g>
                  </g>
                </g>
              </g>
              <g id="Grupo_130634" data-name="Grupo 130634" transform="translate(13.297 13.011)">
                <path id="Trazado_190613" data-name="Trazado 190613" d="M-757.773,496.553c-24.848,0-24.11.269-24.11-.591,0-2.032-.176-2.814.593-2.814,24.847,0,24.11-.267,24.11.593C-757.18,495.77-757.005,496.553-757.773,496.553Z" transform="translate(781.901 -493.057)" fill="#ffb30c"/>
                <path id="Trazado_190614" data-name="Trazado 190614" d="M-739.2,518.685c-44.578,0-42.679.365-42.679-.787,0-1.566-.2-2.619.787-2.619,44.577,0,42.679-.365,42.679.787C-738.418,517.633-738.216,518.685-739.2,518.685Z" transform="translate(781.901 -485.178)" fill="#ffb30c"/>
                <path id="Trazado_190615" data-name="Trazado 190615" d="M-715.568,496.624c-47.271,0-45.747.476-45.747-1.036,0-1.089-.21-2.447,1.036-2.447,47.273,0,45.748-.476,45.748,1.038C-714.53,495.267-714.32,496.624-715.568,496.624Z" transform="translate(789.23 -493.071)" fill="#113356"/>
                <path id="Trazado_190616" data-name="Trazado 190616" d="M-757.773,502.14c-24.848,0-24.11.269-24.11-.593,0-2.03-.176-2.813.593-2.813,24.847,0,24.11-.269,24.11.593C-757.18,501.357-757.005,502.14-757.773,502.14Z" transform="translate(781.901 -491.067)" fill="#ffb30c"/>
                <path id="Trazado_190617" data-name="Trazado 190617" d="M-720.227,502.209c-42.5,0-41.087.434-41.087-.982,0-1.2-.213-2.5.983-2.5,42.5,0,41.086-.433,41.086.983C-719.245,500.9-719.033,502.209-720.227,502.209Z" transform="translate(789.23 -491.078)" fill="#113356"/>
                <path id="Trazado_190618" data-name="Trazado 190618" d="M-757.773,508.09c-24.848,0-24.11.267-24.11-.594,0-2.03-.176-2.813.593-2.813,24.847,0,24.11-.267,24.11.593C-757.18,507.306-757.005,508.09-757.773,508.09Z" transform="translate(781.901 -488.947)" fill="#ffb30c"/>
                <path id="Trazado_190619" data-name="Trazado 190619" d="M-728,508.157c-34.293,0-33.311.381-33.311-.887,0-1.348-.229-2.6.886-2.6,34.293,0,33.311-.382,33.311.887C-727.116,506.908-726.887,508.157-728,508.157Z" transform="translate(789.229 -488.956)" fill="#113356"/>
                <path id="Trazado_190620" data-name="Trazado 190620" d="M-728,514.3c-34.293,0-33.311.382-33.311-.886,0-1.347-.229-2.6.886-2.6,34.293,0,33.311-.382,33.311.886C-727.116,513.052-726.887,514.3-728,514.3Z" transform="translate(789.229 -486.767)" fill="#113356"/>
                <path id="Trazado_190621" data-name="Trazado 190621" d="M-757.773,514.039c-24.848,0-24.11.267-24.11-.593,0-2.032-.176-2.814.593-2.814,24.847,0,24.11-.267,24.11.594C-757.18,513.258-757.005,514.039-757.773,514.039Z" transform="translate(781.901 -486.828)" fill="#ffb30c"/>
                <path id="Trazado_190622" data-name="Trazado 190622" d="M-719.85,518.733c-29.672,0-28.855.353-28.855-.826,0-1.4-.241-2.658.826-2.658,29.67,0,28.853-.351,28.853.826C-719.026,517.471-718.783,518.733-719.85,518.733Z" transform="translate(793.719 -485.187)" fill="#113356"/>
              </g>
            </g>
          </g>
          <g id="Grupo_130643" data-name="Grupo 130643" transform="translate(0 108.458)">
            <path id="Trazado_190623" data-name="Trazado 190623" d="M-595.515,585.729c0-28.571.251-27.425-.551-27.425-254.129,0-241.224-.286-241.224.551v26.875C-837.29,586.356-595.515,586.789-595.515,585.729Z" transform="translate(838.808 -558.256)" fill="#cc8f08"/>
            <g id="Grupo_130639" data-name="Grupo 130639" transform="translate(135.491 4.928)">
              <g id="Grupo_130638" data-name="Grupo 130638">
                <path id="Trazado_190624" data-name="Trazado 190624" d="M-646.238,579.287c-95.9,0-92.232.893-92.232-2.062,0-13.21-.651-15.209,2.062-15.209,95.9,0,92.232-.892,92.232,2.062C-644.177,577.288-643.526,579.287-646.238,579.287Z" transform="translate(738.538 -561.89)" fill="#ffb30c"/>
                <g id="Grupo_130637" data-name="Grupo 130637" transform="translate(43.619 5.02)">
                  <path id="Trazado_190625" data-name="Trazado 190625" d="M-702.781,572.846c-4.792,0-4.8-7.255,0-7.255S-697.984,572.846-702.781,572.846Z" transform="translate(706.377 -565.591)" fill="#cc8f08"/>
                </g>
              </g>
            </g>
            <g id="Grupo_130642" data-name="Grupo 130642" transform="translate(33.254 4.928)">
              <g id="Grupo_130641" data-name="Grupo 130641">
                <path id="Trazado_190626" data-name="Trazado 190626" d="M-721.619,579.287c-95.9,0-92.232.893-92.232-2.062,0-13.21-.651-15.209,2.062-15.209,95.9,0,92.232-.892,92.232,2.062C-719.558,577.288-718.907,579.287-721.619,579.287Z" transform="translate(813.919 -561.89)" fill="#ffb30c"/>
                <g id="Grupo_130640" data-name="Grupo 130640" transform="translate(43.619 5.02)">
                  <path id="Trazado_190627" data-name="Trazado 190627" d="M-778.162,572.846c-4.792,0-4.8-7.255,0-7.255S-773.365,572.846-778.162,572.846Z" transform="translate(781.758 -565.591)" fill="#cc8f08"/>
                </g>
              </g>
            </g>
            <rect id="Rect치ngulo_293778" data-name="Rect치ngulo 293778" width="171.316" height="7.599" transform="translate(41.066 28.024)" fill="#ffb30c"/>
            <path id="Trazado_190628" data-name="Trazado 190628" d="M-674.415,580.5l20.047,110.312c.673,3.705-3.891,3.395-4.5,1.107-31.1-116.391-31.383-113.1-27.713-113.068C-676.029,578.937-674.788,578.451-674.415,580.5Z" transform="translate(891.972 -550.923)" fill="#cc8f08"/>
            <path id="Trazado_190629" data-name="Trazado 190629" d="M-818.38,580.514c-.085.464-20.126,110.446-20.058,110.913.568,3.844,4.108,2.02,4.516.491,31.183-116.7,31.3-113.094,27.692-113.064C-816.786,578.938-818.008,578.463-818.38,580.514Z" transform="translate(838.438 -550.924)" fill="#cc8f08"/>
            <path id="Trazado_190630" data-name="Trazado 190630" d="M-813.787,597.582c.144.449,34.116,106.956,34.4,107.335,2.307,3.127,4.573-.148,4.215-1.689-27.291-117.671-25.492-114.541-28.663-112.821C-813.12,595.442-814.422,595.6-813.787,597.582Z" transform="translate(847.172 -546.971)" fill="#cc8f08"/>
          </g>
        </g>
        <g id="Grupo_130645" data-name="Grupo 130645" transform="translate(75.477 112.575)">
          <path id="Trazado_190631" data-name="Trazado 190631" d="M-816.148,580.145l-.191-.626c11.195-3.407,10.159-9.323,8.849-16.813-1.224-6.989-2.746-15.686,5.865-24.538l.47.458c-8.377,8.61-6.949,16.769-5.689,23.967C-805.531,570.094-804.4,576.569-816.148,580.145Z" transform="translate(816.339 -538.168)" fill="#84534a"/>
        </g>
        <g id="Grupo_130665" data-name="Grupo 130665" transform="translate(13.604 27.126)">
          <g id="Grupo_130649" data-name="Grupo 130649" transform="translate(61.574 135.663)">
            <path id="Trazado_190632" data-name="Trazado 190632" d="M-740.816,652.152c2.246,1.656-8.764,12.88-18.262,14.393l-2.116-2.649c-1.176-9.716-3.142-5.951,8.851-14.88Z" transform="translate(829.577 -554.755)" fill="#ba3213"/>
            <path id="Trazado_190633" data-name="Trazado 190633" d="M-726.139,663.383c-9.673,5.411-17.621,17.614-22.686,15.429s-8.056-17.505-10.823-20.495l4.261-4.721c1.234-.175-.02,0,7.373-1.035a25.459,25.459,0,0,0,2.367,3.193c8.193,8.949,29.359-7.96,31.825-4.924C-710.962,654.381-722.159,661.153-726.139,663.383Z" transform="translate(830.446 -554.241)" fill="#fcbda9"/>
            <path id="Trazado_190634" data-name="Trazado 190634" d="M-717.576,657.19a60.188,60.188,0,0,1-8.562,5.641c-9.673,5.412-17.621,17.614-22.686,15.429s-8.056-17.505-10.823-20.495c.02-.022,5.193-4.835,5.215-4.857l6.419-.9a25.458,25.458,0,0,0,2.367,3.193c-.648,3.125-2.955,10.05-2.2,12.981,2.254,8.7,14.237-4.435,23.314-7.942C-722.393,659.409-719.524,658.1-717.576,657.19Z" transform="translate(830.446 -553.689)" fill="#d1778e" opacity="0.5"/>
            <g id="Grupo_130646" data-name="Grupo 130646" transform="translate(32.338 44.945)">
              <path id="Trazado_190635" data-name="Trazado 190635" d="M-731.706,664.967c-2.3-.115-13.355,2.993-20.378,11.744,0,0-24.292-20.147-35.575-51.233l21.07-12.434s17.845,30.624,23.37,38.8A68.007,68.007,0,0,0-731.706,664.967Z" transform="translate(788.13 -612.517)" fill="#0d1d3f"/>
              <path id="Trazado_190636" data-name="Trazado 190636" d="M-751.9,677.395l-.3-.25c-.244-.2-24.5-20.572-35.692-51.4l-.108-.3,21.677-12.792.194.334c.179.307,17.9,30.707,23.358,38.777a68.266,68.266,0,0,0,11.44,13.045l.892.738-1.157-.058c-1.838-.1-12.867,2.639-20.059,11.6Zm-35.161-51.61c10.489,28.62,32.264,48.1,35.057,50.517,6.305-7.634,15.8-11.025,19.475-11.519A71.238,71.238,0,0,1-743.413,652.2c-5.161-7.632-21.234-35.133-23.191-38.487Z" transform="translate(788.006 -612.655)" fill="#3b3348"/>
            </g>
            <path id="Trazado_190637" data-name="Trazado 190637" d="M-778.313,659.781c-1.008,4.128,20.551,11.614,27.171,6.446l-2.273-16-19.126.475Z" transform="translate(823.785 -554.325)" fill="#ba3213"/>
            <path id="Trazado_190638" data-name="Trazado 190638" d="M-740.292,687.325c-13.129-.046-9.977-3.975-22.97-4.922s-17.052-3.065-16.755-7.6,8.052-16.35,8.894-20.983c12.295,4.468,9.033,3.282,12.825,4.661-1.664,9.011-.852,13.378,9.064,17.7C-737.832,681.153-727.844,687.356-740.292,687.325Z" transform="translate(823.184 -553.043)" fill="#fcbda9"/>
            <path id="Trazado_190639" data-name="Trazado 190639" d="M-735.06,686.019c-.77.529-2.421.831-5.229.825-13.129-.046-9.977-3.975-22.97-4.922-27.274-1.988-14.547-9.983-8.388-26.746,12.251,2.074,9.6,1.463,13.352,2.828a32.321,32.321,0,0,0-.677,6.277c-14.823,1.006-20.3,11.9-2.733,14.861,6.446,1.095,15.483,5.992,19.108,6.392C-739.971,685.822-736.677,685.966-735.06,686.019Z" transform="translate(823.181 -552.561)" fill="#d1778e" opacity="0.5"/>
            <g id="Grupo_130647" data-name="Grupo 130647" transform="translate(0.361)">
              <path id="Trazado_190640" data-name="Trazado 190640" d="M-734.608,650.2c-4.146,11.167-5.641,32.582-4.836,41.1-2.567-3.853-11.485-10.1-27.17-6.445l9.666-62.167-33.962-4.147c-4.137-5.969-16.119-23.263-20.266-29.248,15.055-8.871,12.194-7.184,16-9.435,5.756,4.255,53.158,11.978,65.976,18.993C-716.7,605.692-730.467,639.032-734.608,650.2Z" transform="translate(811.728 -579.396)" fill="#113356"/>
              <path id="Trazado_190641" data-name="Trazado 190641" d="M-738.772,692.9l-.848-1.268c-2.5-3.75-11.306-9.89-26.763-6.285l-.555.129.087-.563,9.605-61.775-33.739-4.119-.1-.143-20.5-29.586,5.3-3.122c8.014-4.721,8.014-4.721,9.818-5.789l1.466-.864.2.149c2.585,1.91,14.352,4.675,26.812,7.6,15.071,3.541,32.152,7.552,39.12,11.365,11.9,6.521,1.008,35.309-4.226,49.143-.377.991-.716,1.891-1.009,2.679-4.016,10.814-5.662,31.954-4.813,40.929Zm-18.649-9.412c9.179,0,15.029,3.693,17.64,6.678-.6-9.647,1.089-29.56,4.959-39.979.292-.791.632-1.691,1.009-2.684,4.757-12.568,15.894-42,4.578-48.2-6.878-3.762-23.9-7.761-38.926-11.29-12.766-3-23.834-5.6-26.881-7.584l-1.035.613c-1.8,1.066-1.8,1.066-9.818,5.787l-4.583,2.7,19.93,28.766,34.185,4.175-9.639,62A39.89,39.89,0,0,1-757.42,683.487Z" transform="translate(811.583 -579.516)" fill="#113356"/>
            </g>
            <path id="Trazado_190642" data-name="Trazado 190642" d="M-752.191,684.036l-.433.148a36.162,36.162,0,0,0-13.751.787l9.666-62.167-22.666-2.767c-.826-.4-19.551-9.566-32.474-15.9l1.069-22.491,11.953-2.129c7.268,18.688,34.156,34.587,57.29,41.312C-750.538,653.893-757.219,671.769-752.191,684.036Z" transform="translate(811.849 -579.514)" fill="#3b3348" opacity="0.5"/>
            <g id="Grupo_130648" data-name="Grupo 130648" transform="translate(61.023 39.378)">
              <path id="Trazado_190643" data-name="Trazado 190643" d="M-766.3,612.221h-.227a.338.338,0,0,1-.332-.345.337.337,0,0,1,.338-.332,22.236,22.236,0,0,0,11.1-2.941.338.338,0,0,1,.467.1.34.34,0,0,1-.106.466A23.084,23.084,0,0,1-766.3,612.221Z" transform="translate(766.856 -608.55)" fill="#3b3348"/>
            </g>
            <path id="Trazado_190644" data-name="Trazado 190644" d="M-748.738,667.927s.054-.1.161-.258.248-.377.392-.6a6.329,6.329,0,0,0,.712-1.727c.171-.651.275-1.394.427-1.987a5.476,5.476,0,0,1,.323-1.009,3.911,3.911,0,0,1,.453.974,4.228,4.228,0,0,1,.107,2.361,3.5,3.5,0,0,1-.24.647,2.858,2.858,0,0,1-.362.571,2.553,2.553,0,0,1-.441.446,2.656,2.656,0,0,1-.464.3,2.233,2.233,0,0,1-.766.254C-748.624,667.923-748.738,667.927-748.738,667.927Z" transform="translate(834.333 -550.007)" fill="#d1868d"/>
            <path id="Trazado_190645" data-name="Trazado 190645" d="M-769.487,666.587s.022.073.046.2a1.665,1.665,0,0,1,.008.544,2.345,2.345,0,0,1-.216.745,3,3,0,0,1-.511.735,2.925,2.925,0,0,1-.73.525,2.234,2.234,0,0,1-.749.218,1.681,1.681,0,0,1-.542-.019c-.129-.03-.2-.052-.2-.052s.069-.035.183-.084a4.069,4.069,0,0,0,.445-.218,4.74,4.74,0,0,0,1.108-.844,5.333,5.333,0,0,0,.841-1.122,4.869,4.869,0,0,0,.228-.442C-769.523,666.653-769.487,666.587-769.487,666.587Z" transform="translate(825.911 -548.496)" fill="#d1868d"/>
          </g>
          <g id="Grupo_130655" data-name="Grupo 130655" transform="translate(42.81 63.198)">
            <path id="Trazado_190646" data-name="Trazado 190646" d="M-727.855,559.751c3.395-5.641,15.023-8.577,21.874-.057Z" transform="translate(860.537 -516.015)" fill="#9c9fa0"/>
            <path id="Trazado_190647" data-name="Trazado 190647" d="M-737.372,555.732c7.426-4.664,22.968-6.391,27.544-4.577s8.2,5.873,6.563,7.081-6.735-1.986-9.757-.777c-8.321,3.327-10.733,7.308-25.042,6.822Z" transform="translate(856.9 -517.407)" fill="#f99889"/>
            <g id="Grupo_130650" data-name="Grupo 130650">
              <path id="Trazado_190648" data-name="Trazado 190648" d="M-703.693,575.885c-7.68,1.9-36.678,9.014-45.44,10.009-8.709.986-27.633-16.285-33.961-22.45a39.758,39.758,0,0,1-5.067,10.709c-3.208,4.594-5.394,15.628-3.868,18.106,1.332,1.982,4.923,4.992,5.363,6.648.461,1.725-2.414,7.251-15.2,10.938-16.094-27.614-10.833-18.585-23.484-40.3,26.431-38.879,8.536-12.552,29.355-43.174,12.048.174,46.416,40.3,49.825,39.691,39.6-7.088,37.537-7.167,38.726-5.844a22.4,22.4,0,0,1,4.866,10.057C-701.986,572.778-701.349,575.3-703.693,575.885Z" transform="translate(825.803 -525.984)" fill="#154f8d"/>
              <path id="Trazado_190649" data-name="Trazado 190649" d="M-801.926,610.4l-23.758-40.767.137-.2c14.146-20.809,15.594-22.94,17.077-25.119l12.395-18.227.206,0c7.762.111,24.3,16.184,36.379,27.923,6.052,5.882,12.289,11.981,13.373,11.774,9.037-1.617,15.9-2.868,21.135-3.823,16.945-3.091,16.949-3.092,17.819-2.048l.126.149a22.668,22.668,0,0,1,4.885,9.929l.108.435c.576,2.471,1.231,5.269-1.438,5.931-8.47,2.1-36.785,9.031-45.489,10.019-9.177,1.044-28.9-17.371-33.835-22.133a38.834,38.834,0,0,1-4.921,10.228c-3.213,4.6-5.243,15.3-3.878,17.652a25.214,25.214,0,0,0,2.361,2.748c1.431,1.524,2.78,2.962,3.067,4.039.538,2.021-2.607,7.7-15.463,11.4Zm-22.85-40.734,23.212,39.831c12.314-3.62,15.051-8.869,14.645-10.385-.235-.89-1.642-2.39-2.883-3.712a28.646,28.646,0,0,1-2.3-2.646h-.183l-.005-.285c-1.556-2.863.784-13.915,3.937-18.433a39.211,39.211,0,0,0,5.017-10.609l.194-.581.438.426c11.1,10.809,26.563,23.142,33.65,22.344,8.658-.983,36.933-7.9,45.391-10,1.769-.439,1.542-2.125.911-4.853l-.077-.3a22.061,22.061,0,0,0-4.777-9.886c-.053-.06-.1-.117-.145-.171-.572-.685-.888-.643-17.09,2.312-5.232.953-12.1,2.207-21.137,3.823-1.381.251-5.539-3.714-14.044-11.98-11.877-11.542-28.1-27.31-35.649-27.7l-12.159,17.881C-809.312,546.918-810.757,549.043-824.777,569.664Z" transform="translate(825.684 -526.086)" fill="#2e5151"/>
            </g>
            <path id="Trazado_190650" data-name="Trazado 190650" d="M-704.1,573.808s-37.189,9.328-47.322,10.479c-7.169.811-21.185-10.755-28.78-17.6-.616-.768-7.575-7.36-8.753-6.92-2.759,1.035-7.427,12.257-8.806,18.3a13.092,13.092,0,0,0,3.444,12.579c1.332,1.983,4.923,4.992,5.363,6.65.46,1.725-2.414,7.251-15.2,10.937-15.43-26.474-12.821-21.387-15.368-28.442,1.458-8.592,4.958-29.207,6.392-37.649l17.614-11.743c5.35,3.281,13.987,20.206,18.824,27.287s18.993,21.759,25.041,22.1c5.349.305,39.06-8.976,46.786-11.127A32.225,32.225,0,0,1-704.1,573.808Z" transform="translate(827.879 -524.548)" fill="#154f8d"/>
            <g id="Grupo_130651" data-name="Grupo 130651" transform="translate(74.763 40.19)">
              <path id="Trazado_190651" data-name="Trazado 190651" d="M-770.221,560.625a.326.326,0,0,1-.147-.034.338.338,0,0,1-.159-.452,35.732,35.732,0,0,1,2.7-4.322.337.337,0,0,1,.476,0,.341.341,0,0,1,0,.477,37.758,37.758,0,0,0-2.567,4.139A.34.34,0,0,1-770.221,560.625Z" transform="translate(770.56 -555.719)" fill="#2e5151"/>
            </g>
            <g id="Grupo_130652" data-name="Grupo 130652" transform="translate(77.915 41.052)">
              <path id="Trazado_190652" data-name="Trazado 190652" d="M-766.689,560.226a.339.339,0,0,1-.323-.237,25.86,25.86,0,0,0-1.179-3.125.339.339,0,0,1,.122-.462.338.338,0,0,1,.462.121,25.713,25.713,0,0,1,1.24,3.263.34.34,0,0,1-.221.425A.335.335,0,0,1-766.689,560.226Z" transform="translate(768.236 -556.355)" fill="#2e5151"/>
            </g>
            <g id="Grupo_130653" data-name="Grupo 130653" transform="translate(37.418 31.425)">
              <path id="Trazado_190653" data-name="Trazado 190653" d="M-792.807,555.63a.328.328,0,0,1-.252-.114c-.473-.532-4.63-5.213-4.979-5.734a.337.337,0,0,1,.094-.469.34.34,0,0,1,.469.092c.244.366,3.076,3.587,4.922,5.664a.34.34,0,0,1-.029.477A.346.346,0,0,1-792.807,555.63Z" transform="translate(798.095 -549.256)" fill="#2e5151"/>
            </g>
            <g id="Grupo_130654" data-name="Grupo 130654" transform="translate(25.329 66.137)">
              <path id="Trazado_190654" data-name="Trazado 190654" d="M-797.229,577.944a.312.312,0,0,1-.138-.031c-3.258-1.459-9.293-2.382-9.353-2.39a.342.342,0,0,1-.285-.387.348.348,0,0,1,.385-.283c.251.038,6.186.945,9.529,2.443a.34.34,0,0,1,.17.448A.337.337,0,0,1-797.229,577.944Z" transform="translate(807.009 -574.85)" fill="#2e5151"/>
            </g>
          </g>
          <g id="Grupo_130658" data-name="Grupo 130658" transform="translate(5.738 0)">
            <path id="Trazado_190655" data-name="Trazado 190655" d="M-796.654,493.86c.953,11.828,10.371,12.579,1.726,15.63,0,0,1.382,10.621-7.339,13.3l-8.376-15.845,5.958-10.923Z" transform="translate(868.115 -474.369)" fill="#f99889"/>
            <path id="Trazado_190656" data-name="Trazado 190656" d="M-778.879,544.975c-1.386,10.133-11.281,12.433-14.218,24.756s5.926,13.582,4.945,25.155-12.141,15.084-12.141,15.084c-.1-.073-52.677-39.371-52.677-39.495.175,0-1.868-4.687,9.071-10.443,10.984-5.5-7.34-17.941,1.637-29.275,7.859-9.929,14.8,4.377,19.175-24.925s24.81-28.727,31.716-23.721c20.383.981,16.462,16.2,2.76,31.433C-796.323,522.12-777.5,534.844-778.879,544.975Z" transform="translate(853.018 -479.489)" fill="#4d3930"/>
            <path id="Trazado_190657" data-name="Trazado 190657" d="M-787.276,543.808c-1.386,10.133-11.281,12.433-14.218,24.756s5.925,13.582,4.945,25.155S-808.69,608.8-808.69,608.8s-.083-.056-.088-.061l-18.108-40.928c-9.806-19.14,11.1-24.987,19.461-39.029,5.756-9.672,2.3-18.885,4.261-24.525s9.9-.46,13.236-9.436c2.638-7.088-.392-10.809-1.785-12.06,12.57,5.3,3.848,19.449-5.3,29.613C-804.72,520.954-785.9,533.677-787.276,543.808Z" transform="translate(861.415 -478.322)" fill="#44322b"/>
            <path id="Trazado_190658" data-name="Trazado 190658" d="M-828.384,559.941l-16.754,5.924c-4.714-3.544-7.832-5.9-7.832-5.924.175,0-1.868-4.687,9.071-10.443.067-.034.134-.076.2-.115,7.225-1.137,11.351-4.194,8.861-10.511-6.136-15.613,17.035-14.686,16.119-29.815,0,0,4.146,11.687-7.6,18.072C-839.282,534.185-815.854,550.594-828.384,559.941Z" transform="translate(853.018 -468.955)" fill="#44322b"/>
            <path id="Trazado_190659" data-name="Trazado 190659" d="M-801.206,503.192c-1.541-6.406-10.807-3-3.51,8.346Z" transform="translate(869.24 -472.186)" fill="#f99889"/>
            <path id="Trazado_190660" data-name="Trazado 190660" d="M-803.751,506.934s-.022.207-.062.6a11.465,11.465,0,0,0-.1,1.694,18.029,18.029,0,0,0,.172,2.618c.144,1,.359,2.128.648,3.346s.652,2.523,1.05,3.906.831,2.841,1.165,4.39a22.407,22.407,0,0,1,.647,4.862,10.786,10.786,0,0,1-1.07,5,21.863,21.863,0,0,1-2.932,4.141c-1.082,1.261-2.2,2.441-3.265,3.593a45.629,45.629,0,0,0-5.409,6.582,16.681,16.681,0,0,0-1.518,3.022,10.081,10.081,0,0,0-.609,2.539,7.123,7.123,0,0,0-.06.97,4.818,4.818,0,0,0,.014.72c.028.392.045.6.045.6s-.031-.207-.087-.6a5.151,5.151,0,0,1-.064-.721,5.958,5.958,0,0,1,0-.983,10.3,10.3,0,0,1,.484-2.618,14.911,14.911,0,0,1,1.42-3.155,42.028,42.028,0,0,1,5.287-6.81c1.055-1.164,2.156-2.352,3.209-3.6a21.3,21.3,0,0,0,2.8-4.023,7.824,7.824,0,0,0,.8-2.265l.13-.586.053-.6a8.1,8.1,0,0,0,.06-1.2,21.626,21.626,0,0,0-.582-4.723c-.659-3.043-1.486-5.871-1.986-8.345a28.391,28.391,0,0,1-.509-3.408,18,18,0,0,1-.038-2.657,9.937,9.937,0,0,1,.206-1.69C-803.787,507.14-803.751,506.934-803.751,506.934Z" transform="translate(866.49 -469.711)" fill="#382823"/>
            <g id="Grupo_130656" data-name="Grupo 130656" transform="translate(16.417 28.318)">
              <path id="Trazado_190661" data-name="Trazado 190661" d="M-839.608,556.974a.383.383,0,0,1-.362-.259c-1.793-5.235.67-8.243,3.053-11.153,1.577-1.924,3.066-3.743,3.376-6.175.359-2.825-1.179-5.125-2.959-7.788-2.068-3.094-4.412-6.6-4.412-11.851,0-5.962,5.018-10.123,9.049-13.466,2.558-2.12,4.766-3.952,4.766-5.531a.385.385,0,0,1,.385-.384.384.384,0,0,1,.384.384c0,1.941-2.226,3.787-5.044,6.124-3.909,3.24-8.771,7.272-8.771,12.874,0,5.019,2.274,8.422,4.282,11.424,1.789,2.674,3.48,5.2,3.083,8.313-.338,2.649-1.968,4.64-3.544,6.566-2.353,2.871-4.575,5.585-2.921,10.415a.383.383,0,0,1-.239.488A.357.357,0,0,1-839.608,556.974Z" transform="translate(840.913 -500.368)" fill="#382823"/>
            </g>
            <g id="Grupo_130657" data-name="Grupo 130657" transform="translate(38.339 36.032)">
              <path id="Trazado_190662" data-name="Trazado 190662" d="M-815.892,580.047a.386.386,0,0,1-.254-.095.384.384,0,0,1-.035-.541c.031-.038,3.224-3.806,2.669-11.924-.18-2.634-2.42-5.218-4.789-7.955-4.895-5.65-10.986-12.681-1.335-23.755,13.355-15.326,11.7-20.764,9.415-28.289l-.283-.937a.384.384,0,0,1,.258-.479.383.383,0,0,1,.477.258l.284.934c2.36,7.763,4.063,13.37-9.571,29.016-9.212,10.572-3.609,17.041,1.336,22.749,2.456,2.836,4.777,5.516,4.975,8.4.579,8.469-2.718,12.324-2.858,12.484A.39.39,0,0,1-815.892,580.047Z" transform="translate(824.749 -506.056)" fill="#382823"/>
            </g>
          </g>
          <g id="Grupo_130664" data-name="Grupo 130664" transform="translate(0 82.876)">
            <g id="Grupo_130663" data-name="Grupo 130663">
              <g id="Grupo_130659" data-name="Grupo 130659" transform="translate(21.518 156.546)">
                <path id="Trazado_190663" data-name="Trazado 190663" d="M-829.985,679.764a5.7,5.7,0,0,1-5.7,5.7,5.7,5.7,0,0,1-5.7-5.7C-841.383,672.234-829.985,672.226-829.985,679.764Z" transform="translate(841.383 -649.572)" fill="#0ddcf1"/>
                <path id="Trazado_190664" data-name="Trazado 190664" d="M-797.041,685.561c-7.531,0-7.538-11.4,0-11.4S-789.5,685.561-797.041,685.561Z" transform="translate(855.167 -649.555)" fill="#0ddcf1"/>
                <path id="Trazado_190665" data-name="Trazado 190665" d="M-792.275,684.053h-3.383c0-6.357,1.037-13.621-5.879-13.621-10.413,0-9.261-11.356-9.261-14.413h3.383C-807.415,679.252-792.275,653.354-792.275,684.053Z" transform="translate(852.266 -656.019)" fill="#0ddcf1"/>
                <path id="Trazado_190666" data-name="Trazado 190666" d="M-819.145,685.561c7.53,0,7.538-11.4,0-11.4S-826.685,685.561-819.145,685.561Z" transform="translate(847.292 -649.555)" fill="#0ddcf1"/>
                <path id="Trazado_190667" data-name="Trazado 190667" d="M-818.622,684.053H-822c0-30.806,15.14-4.709,15.14-28.034h3.381c0,2.056,1.448,14.413-9.261,14.413a5.885,5.885,0,0,0-5.878,5.877Z" transform="translate(848.287 -656.019)" fill="#0ddcf1"/>
              </g>
              <g id="Grupo_130662" data-name="Grupo 130662">
                <g id="Grupo_130660" data-name="Grupo 130660">
                  <path id="Trazado_190668" data-name="Trazado 190668" d="M-734.413,635.99c-19.46,21.76-60.213,19.576-78.638,18.2s-24.4-6.1-30.972-21.07-14.848-52.041-12.548-71.84c2.749-23.674,26.952-22.553,36.918-17.275,18.939,9.994,19.7,30.12,33.313,63.094,11.077,26.824,31.457,27.847,45.671,28.644C-737,635.944-734.413,635.99-734.413,635.99Z" transform="translate(857.35 -540.497)" fill="#0ddcf1"/>
                  <path id="Trazado_190669" data-name="Trazado 190669" d="M-794.2,655.483c-7.884,0-14.576-.5-18.78-.816-18.03-1.351-24.464-5.729-31.3-21.3-6.667-15.21-14.886-52.162-12.577-72.038.977-8.411,4.84-14.619,11.175-17.95,8.34-4.385,19.774-3.079,26.3.38,13.738,7.249,17.961,19.656,24.354,38.438,2.486,7.3,5.3,15.57,9.133,24.85,10.934,26.478,30.706,27.588,45.142,28.4l.194.012c3.616.2,6.217.25,6.242.25l.84.014-.559.625C-748.449,652.473-774.889,655.483-794.2,655.483ZM-833.33,541.356a25.91,25.91,0,0,0-11.988,2.7c-6.186,3.254-9.81,9.094-10.769,17.357-2.295,19.758,5.882,56.508,12.517,71.642,6.684,15.232,12.985,19.517,30.649,20.84,14.276,1.071,57.449,4.3,77.756-17.448-1.054-.03-3.016-.1-5.425-.229l-.194-.011c-13.815-.776-34.692-1.946-45.809-28.872-3.841-9.3-6.662-17.587-9.151-24.9-6.335-18.607-10.519-30.9-23.987-38.005A30.2,30.2,0,0,0-833.33,541.356Z" transform="translate(857.248 -540.595)" fill="#0ddcf1"/>
                </g>
                <g id="Grupo_130661" data-name="Grupo 130661" transform="translate(0.386 0.374)" style="mix-blend-mode: multiply;isolation: isolate">
                  <path id="Trazado_190670" data-name="Trazado 190670" d="M-734.413,635.99c-19.46,21.76-60.213,19.576-78.638,18.2s-24.4-6.1-30.972-21.07-14.848-52.041-12.548-71.84c2.749-23.674,26.952-22.553,36.918-17.275-2.165.054-5.242.831-8.6,3.834-6.387,5.71,4.7,77.271,12.763,88.188s31.413,12.594,44.007,10.417c10.233-1.773,25.453-8.314,30.81-10.7C-737,635.944-734.413,635.99-734.413,635.99Z" transform="translate(856.963 -540.87)" fill="#0ddcf1"/>
                </g>
              </g>
            </g>
          </g>
        </g>
        <g id="Grupo_130667" data-name="Grupo 130667" transform="translate(242.173 89.8)">
          <g id="Grupo_130668" data-name="Grupo 130668" transform="translate(1.989 33.331)">
            <g id="Grupo_130667-2" data-name="Grupo 130667">
              <path id="Trazado_190671" data-name="Trazado 190671" d="M-692.627,537.755l2.477,16.279h14.392l3.34-16.044Z" transform="translate(692.627 -537.755)" fill="#0d8791"/>
            </g>
          </g>
          <g id="Grupo_130702" data-name="Grupo 130702" transform="translate(3.63 41.975)">
            <g id="Grupo_130671" data-name="Grupo 130671" transform="translate(0.084 1.705)">
              <g id="Grupo_130670" data-name="Grupo 130670">
                <g id="Grupo_130669" data-name="Grupo 130669">
                  <path id="Trazado_190672" data-name="Trazado 190672" d="M-674.232,549.374c0,.047-3.687.084-8.235.084s-8.237-.038-8.237-.084,3.687-.084,8.237-.084S-674.232,549.328-674.232,549.374Z" transform="translate(690.704 -549.29)" fill="#0d8791"/>
                </g>
              </g>
            </g>
            <g id="Grupo_130674" data-name="Grupo 130674" transform="translate(0.028 0.903)">
              <g id="Grupo_130673" data-name="Grupo 130673">
                <g id="Grupo_130672" data-name="Grupo 130672">
                  <path id="Trazado_190673" data-name="Trazado 190673" d="M-674.182,548.481c0,.048-3.713.085-8.292.085s-8.293-.038-8.293-.085,3.712-.084,8.293-.084S-674.182,548.436-674.182,548.481Z" transform="translate(690.767 -548.397)" fill="#0d8791"/>
                </g>
              </g>
            </g>
            <g id="Grupo_130677" data-name="Grupo 130677">
              <g id="Grupo_130676" data-name="Grupo 130676">
                <g id="Grupo_130675" data-name="Grupo 130675">
                  <path id="Trazado_190674" data-name="Trazado 190674" d="M-674.214,547.474c0,.047-3.712.084-8.292.084s-8.292-.038-8.292-.084,3.711-.084,8.292-.084S-674.214,547.429-674.214,547.474Z" transform="translate(690.798 -547.39)" fill="#0d8791"/>
                </g>
              </g>
            </g>
            <g id="Grupo_130680" data-name="Grupo 130680" transform="translate(1.764 2.578)">
              <g id="Grupo_130679" data-name="Grupo 130679">
                <g id="Grupo_130678" data-name="Grupo 130678">
                  <path id="Trazado_190675" data-name="Trazado 190675" d="M-688.106,554.392a13.157,13.157,0,0,1-.441-2.05,13.132,13.132,0,0,1-.274-2.078,13.036,13.036,0,0,1,.44,2.05A12.893,12.893,0,0,1-688.106,554.392Z" transform="translate(688.832 -550.264)" fill="#0d8791"/>
                </g>
              </g>
            </g>
            <g id="Grupo_130683" data-name="Grupo 130683" transform="translate(3.181 2.527)">
              <g id="Grupo_130682" data-name="Grupo 130682">
                <g id="Grupo_130681" data-name="Grupo 130681">
                  <path id="Trazado_190676" data-name="Trazado 190676" d="M-686.965,554.214a15.991,15.991,0,0,1-.178-2,15.886,15.886,0,0,1-.094-2.006,9.729,9.729,0,0,1,.263,2A9.65,9.65,0,0,1-686.965,554.214Z" transform="translate(687.253 -550.207)" fill="#0d8791"/>
                </g>
              </g>
            </g>
            <g id="Grupo_130686" data-name="Grupo 130686" transform="translate(4.747 2.4)">
              <g id="Grupo_130685" data-name="Grupo 130685">
                <g id="Grupo_130684" data-name="Grupo 130684">
                  <path id="Trazado_190677" data-name="Trazado 190677" d="M-685,554.2a10.082,10.082,0,0,1-.374-2.051,9.956,9.956,0,0,1-.109-2.082,18.267,18.267,0,0,1,.277,2.063A17.867,17.867,0,0,1-685,554.2Z" transform="translate(685.507 -550.065)" fill="#0d8791"/>
                </g>
              </g>
            </g>
            <g id="Grupo_130689" data-name="Grupo 130689" transform="translate(6.294 2.443)">
              <g id="Grupo_130688" data-name="Grupo 130688">
                <g id="Grupo_130687" data-name="Grupo 130687">
                  <path id="Trazado_190678" data-name="Trazado 190678" d="M-683.57,554.289a10.164,10.164,0,0,1-.2-2.085,10.307,10.307,0,0,1,.064-2.091,17.6,17.6,0,0,1,.1,2.087A18.021,18.021,0,0,1-683.57,554.289Z" transform="translate(683.783 -550.113)" fill="#0d8791"/>
                </g>
              </g>
            </g>
            <g id="Grupo_130692" data-name="Grupo 130692" transform="translate(8.548 2.573)">
              <g id="Grupo_130691" data-name="Grupo 130691">
                <g id="Grupo_130690" data-name="Grupo 130690">
                  <path id="Trazado_190679" data-name="Trazado 190679" d="M-681.1,554.219a11.658,11.658,0,0,1-.152-1.977,11.676,11.676,0,0,1,.018-1.984,11.708,11.708,0,0,1,.151,1.977A11.639,11.639,0,0,1-681.1,554.219Z" transform="translate(681.27 -550.258)" fill="#0d8791"/>
                </g>
              </g>
            </g>
            <g id="Grupo_130695" data-name="Grupo 130695" transform="translate(10.274 2.529)">
              <g id="Grupo_130694" data-name="Grupo 130694">
                <g id="Grupo_130693" data-name="Grupo 130693">
                  <path id="Trazado_190680" data-name="Trazado 190680" d="M-679.278,554.3a12.664,12.664,0,0,1-.067-2.047,12.412,12.412,0,0,1,.1-2.044,12.517,12.517,0,0,1,.067,2.046A12.306,12.306,0,0,1-679.278,554.3Z" transform="translate(679.347 -550.209)" fill="#0d8791"/>
                </g>
              </g>
            </g>
            <g id="Grupo_130698" data-name="Grupo 130698" transform="translate(11.845 2.141)">
              <g id="Grupo_130697" data-name="Grupo 130697">
                <g id="Grupo_130696" data-name="Grupo 130696">
                  <path id="Trazado_190681" data-name="Trazado 190681" d="M-677.579,554.037a13.636,13.636,0,0,1,.123-2.137,13.555,13.555,0,0,1,.291-2.123,13.655,13.655,0,0,1-.123,2.139A13.529,13.529,0,0,1-677.579,554.037Z" transform="translate(677.596 -549.777)" fill="#0d8791"/>
                </g>
              </g>
            </g>
            <g id="Grupo_130701" data-name="Grupo 130701" transform="translate(13.806 2.616)">
              <g id="Grupo_130700" data-name="Grupo 130700">
                <g id="Grupo_130699" data-name="Grupo 130699">
                  <path id="Trazado_190682" data-name="Trazado 190682" d="M-675.4,553.878a7.285,7.285,0,0,1,.243-1.818,7.193,7.193,0,0,1,.535-1.755,16.387,16.387,0,0,1-.37,1.791A15.878,15.878,0,0,1-675.4,553.878Z" transform="translate(675.409 -550.306)" fill="#0d8791"/>
                </g>
              </g>
            </g>
          </g>
          <g id="Grupo_130724" data-name="Grupo 130724" transform="translate(7.621)">
            <g id="Grupo_130705" data-name="Grupo 130705" transform="translate(4.653 1.208)">
              <g id="Grupo_130704" data-name="Grupo 130704">
                <g id="Grupo_130703" data-name="Grupo 130703">
                  <path id="Trazado_190683" data-name="Trazado 190683" d="M-677.373,501.949a.272.272,0,0,1-.018.081c-.018.061-.039.136-.067.23-.065.214-.158.508-.273.879s-.271.846-.423,1.393-.347,1.162-.518,1.856-.381,1.446-.561,2.266c-.2.815-.368,1.7-.555,2.622-.345,1.855-.659,3.907-.882,6.074s-.308,4.244-.336,6.13c0,.945-.008,1.842.026,2.682.015.839.059,1.619.1,2.333s.1,1.357.142,1.922.093,1.052.139,1.449.071.693.1.915c.008.1.014.176.021.239a.349.349,0,0,1,0,.082s-.01-.025-.019-.079-.022-.141-.037-.237c-.031-.222-.073-.527-.127-.912s-.117-.882-.168-1.448-.127-1.208-.167-1.923-.1-1.5-.123-2.338c-.04-.839-.037-1.739-.041-2.684.02-1.892.112-3.972.324-6.146s.543-4.229.9-6.087c.192-.928.365-1.809.571-2.625.187-.82.391-1.576.581-2.266s.38-1.308.545-1.852.318-1.009.45-1.386l.3-.869.083-.224A.316.316,0,0,1-677.373,501.949Z" transform="translate(681.163 -501.949)" fill="#0ddcf1"/>
                </g>
              </g>
            </g>
            <g id="Grupo_130707" data-name="Grupo 130707" transform="translate(5.586 8.17)">
              <g id="Grupo_130706" data-name="Grupo 130706">
                <path id="Trazado_190684" data-name="Trazado 190684" d="M-679.864,512.828A5.353,5.353,0,0,1-677.627,510a1.284,1.284,0,0,1,1.184-.216c.5.243.542.949.393,1.487a3.935,3.935,0,0,1-1.629,2.22,3.324,3.324,0,0,1-2.444.617" transform="translate(680.123 -509.709)" fill="#0ddcf1"/>
              </g>
            </g>
            <g id="Grupo_130709" data-name="Grupo 130709" transform="translate(4.823 13.478)">
              <g id="Grupo_130708" data-name="Grupo 130708">
                <path id="Trazado_190685" data-name="Trazado 190685" d="M-680.826,520.243a9,9,0,0,1,2.656-4.271,1.7,1.7,0,0,1,.6-.322.707.707,0,0,1,.647.139,1,1,0,0,1,.144.933,5.667,5.667,0,0,1-4.2,4.227" transform="translate(680.974 -515.626)" fill="#0ddcf1"/>
              </g>
            </g>
            <g id="Grupo_130711" data-name="Grupo 130711" transform="translate(4.729 20.371)">
              <g id="Grupo_130710" data-name="Grupo 130710">
                <path id="Trazado_190686" data-name="Trazado 190686" d="M-681.078,527.025a8.225,8.225,0,0,1,2.68-3.371,1.287,1.287,0,0,1,.936-.334c.509.092.739.713.694,1.228a3.969,3.969,0,0,1-1.738,2.569,10.785,10.785,0,0,1-2.479,1.274" transform="translate(681.078 -523.31)" fill="#0ddcf1"/>
              </g>
            </g>
            <g id="Grupo_130713" data-name="Grupo 130713" transform="translate(4.865 25.484)">
              <g id="Grupo_130712" data-name="Grupo 130712">
                <path id="Trazado_190687" data-name="Trazado 190687" d="M-680.927,531.917a7.927,7.927,0,0,1,2.281-2.6,1.642,1.642,0,0,1,.684-.3.7.7,0,0,1,.672.255c.229.336.011.79-.234,1.113a6.5,6.5,0,0,1-3.255,2.386" transform="translate(680.927 -529.008)" fill="#0ddcf1"/>
              </g>
            </g>
            <g id="Grupo_130715" data-name="Grupo 130715" transform="translate(0.542 23.057)">
              <g id="Grupo_130714" data-name="Grupo 130714">
                <path id="Trazado_190688" data-name="Trazado 190688" d="M-681.535,529.891a25.46,25.46,0,0,0-3.261-3.322c-.186-.157-.419-.321-.65-.247a.487.487,0,0,0-.3.44,1.217,1.217,0,0,0,.124.544,6.32,6.32,0,0,0,4.2,3.532" transform="translate(685.746 -526.303)" fill="#0ddcf1"/>
              </g>
            </g>
            <g id="Grupo_130717" data-name="Grupo 130717" transform="translate(0 16.967)">
              <g id="Grupo_130716" data-name="Grupo 130716">
                <path id="Trazado_190689" data-name="Trazado 190689" d="M-681.493,523.587l-2.562-3.124a3.1,3.1,0,0,0-.831-.789,1.054,1.054,0,0,0-1.093-.013,1.034,1.034,0,0,0-.351,1.031,2.721,2.721,0,0,0,.5,1.027,7.611,7.611,0,0,0,1.866,1.983,3.118,3.118,0,0,0,2.339.72" transform="translate(686.35 -519.515)" fill="#0ddcf1"/>
              </g>
            </g>
            <g id="Grupo_130719" data-name="Grupo 130719" transform="translate(0.7 10.453)">
              <g id="Grupo_130718" data-name="Grupo 130718">
                <path id="Trazado_190690" data-name="Trazado 190690" d="M-681.056,516.53a8.933,8.933,0,0,0-2.578-3.87,1.491,1.491,0,0,0-.672-.392,1.128,1.128,0,0,0-1.174.825,2.11,2.11,0,0,0,.234,1.7,4.469,4.469,0,0,0,1.2,1.273,10.318,10.318,0,0,0,2.849,1.539" transform="translate(685.569 -512.254)" fill="#0ddcf1"/>
              </g>
            </g>
            <g id="Grupo_130721" data-name="Grupo 130721" transform="translate(2.384 3.735)">
              <g id="Grupo_130720" data-name="Grupo 130720">
                <path id="Trazado_190691" data-name="Trazado 190691" d="M-679.84,510.133a10.461,10.461,0,0,0-2.283-4.782c-.23-.309-.551-.636-.931-.579a.739.739,0,0,0-.536.459,1.732,1.732,0,0,0-.1.724,5.593,5.593,0,0,0,3.629,5" transform="translate(683.693 -504.766)" fill="#0ddcf1"/>
              </g>
            </g>
            <g id="Grupo_130723" data-name="Grupo 130723" transform="translate(6.824)">
              <g id="Grupo_130722" data-name="Grupo 130722">
                <path id="Trazado_190692" data-name="Trazado 190692" d="M-678.615,506.832a14.9,14.9,0,0,1-.093-2.8,5,5,0,0,1,.929-2.606,2.153,2.153,0,0,1,.93-.743,1.176,1.176,0,0,1,1.141.151,1.246,1.246,0,0,1,.39,1,3.126,3.126,0,0,1-.289,1.073c-.682,1.643-1.82,3.46-3.009,3.92" transform="translate(678.743 -500.603)" fill="#0ddcf1"/>
              </g>
            </g>
          </g>
          <g id="Grupo_130746" data-name="Grupo 130746" transform="translate(0 7.366)">
            <g id="Grupo_130727" data-name="Grupo 130727" transform="translate(3.355 1.021)">
              <g id="Grupo_130726" data-name="Grupo 130726">
                <g id="Grupo_130725" data-name="Grupo 130725">
                  <path id="Trazado_190693" data-name="Trazado 190693" d="M-691.046,509.951a1.106,1.106,0,0,1,.014.23c0,.167,0,.385.007.658s0,.633.016,1.038.016.867.05,1.374c.044,1.02.143,2.229.3,3.567s.394,2.8.709,4.324.7,2.953,1.089,4.245.791,2.436,1.16,3.386c.174.479.356.9.507,1.278s.287.7.4.958.192.451.258.606a1.175,1.175,0,0,1,.079.215,1.132,1.132,0,0,1-.11-.2c-.072-.151-.168-.346-.286-.592s-.272-.572-.43-.947-.349-.794-.53-1.273c-.384-.946-.793-2.094-1.2-3.383s-.781-2.73-1.1-4.256-.54-3-.7-4.34-.233-2.559-.263-3.579c-.026-.511-.021-.973-.025-1.379s0-.755.013-1.041.018-.49.025-.658A1.163,1.163,0,0,1-691.046,509.951Z" transform="translate(691.105 -509.951)" fill="#0ddcf1"/>
                </g>
              </g>
            </g>
            <g id="Grupo_130729" data-name="Grupo 130729" transform="translate(3.815 5.628)">
              <g id="Grupo_130728" data-name="Grupo 130728">
                <path id="Trazado_190694" data-name="Trazado 190694" d="M-690.592,517.9a3.819,3.819,0,0,1,.916-2.406.913.913,0,0,1,.758-.4c.395.057.574.53.589.928a2.814,2.814,0,0,1-.632,1.862,2.378,2.378,0,0,1-1.531.947" transform="translate(690.592 -515.087)" fill="#0ddcf1"/>
              </g>
            </g>
            <g id="Grupo_130731" data-name="Grupo 130731" transform="translate(4.68 9.351)">
              <g id="Grupo_130730" data-name="Grupo 130730">
                <path id="Trazado_190695" data-name="Trazado 190695" d="M-689.623,523.15a6.429,6.429,0,0,1,.889-3.481,1.22,1.22,0,0,1,.343-.348.5.5,0,0,1,.469-.045.707.707,0,0,1,.3.6,4.044,4.044,0,0,1-1.949,3.782" transform="translate(689.627 -519.237)" fill="#0ddcf1"/>
              </g>
            </g>
            <g id="Grupo_130733" data-name="Grupo 130733" transform="translate(5.811 14.092)">
              <g id="Grupo_130732" data-name="Grupo 130732">
                <path id="Trazado_190696" data-name="Trazado 190696" d="M-688.367,527.825a5.869,5.869,0,0,1,1.1-2.872.918.918,0,0,1,.565-.429c.365-.046.657.327.737.687a2.838,2.838,0,0,1-.631,2.122,7.688,7.688,0,0,1-1.414,1.4" transform="translate(688.367 -524.521)" fill="#0ddcf1"/>
              </g>
            </g>
            <g id="Grupo_130735" data-name="Grupo 130735" transform="translate(6.83 17.629)">
              <g id="Grupo_130734" data-name="Grupo 130734">
                <path id="Trazado_190697" data-name="Trazado 190697" d="M-687.231,531.134a5.644,5.644,0,0,1,.994-2.258,1.166,1.166,0,0,1,.4-.356.5.5,0,0,1,.512.03c.228.178.177.534.08.807a4.647,4.647,0,0,1-1.7,2.327" transform="translate(687.231 -528.463)" fill="#0ddcf1"/>
              </g>
            </g>
            <g id="Grupo_130737" data-name="Grupo 130737" transform="translate(2.825 17.492)">
              <g id="Grupo_130736" data-name="Grupo 130736">
                <path id="Trazado_190698" data-name="Trazado 190698" d="M-688.143,529.951a18.356,18.356,0,0,0-2.935-1.56.525.525,0,0,0-.5-.027.347.347,0,0,0-.109.362.888.888,0,0,0,.2.344,4.511,4.511,0,0,0,3.618,1.5" transform="translate(691.695 -528.311)" fill="#0ddcf1"/>
              </g>
            </g>
            <g id="Grupo_130739" data-name="Grupo 130739" transform="translate(1.223 13.342)">
              <g id="Grupo_130738" data-name="Grupo 130738">
                <path id="Trazado_190699" data-name="Trazado 190699" d="M-689.463,525.636l-2.417-1.574a2.226,2.226,0,0,0-.736-.358.751.751,0,0,0-.746.227.74.74,0,0,0-.017.778,1.947,1.947,0,0,0,.562.59,5.453,5.453,0,0,0,1.7.948,2.221,2.221,0,0,0,1.748-.013" transform="translate(693.481 -523.685)" fill="#0ddcf1"/>
              </g>
            </g>
            <g id="Grupo_130741" data-name="Grupo 130741" transform="translate(0.373 8.715)">
              <g id="Grupo_130740" data-name="Grupo 130740">
                <path id="Trazado_190700" data-name="Trazado 190700" d="M-690.676,520.734a6.378,6.378,0,0,0-2.588-2.08,1.079,1.079,0,0,0-.541-.123.807.807,0,0,0-.623.816,1.507,1.507,0,0,0,.524,1.1,3.169,3.169,0,0,0,1.094.608,7.347,7.347,0,0,0,2.271.434" transform="translate(694.428 -518.527)" fill="#0ddcf1"/>
              </g>
            </g>
            <g id="Grupo_130743" data-name="Grupo 130743" transform="translate(0 3.869)">
              <g id="Grupo_130742" data-name="Grupo 130742">
                <path id="Trazado_190701" data-name="Trazado 190701" d="M-691.233,516.127a7.457,7.457,0,0,0-2.584-2.764.78.78,0,0,0-.759-.193.525.525,0,0,0-.265.427,1.227,1.227,0,0,0,.086.515,4,4,0,0,0,3.546,2.621" transform="translate(694.844 -513.126)" fill="#0ddcf1"/>
              </g>
            </g>
            <g id="Grupo_130745" data-name="Grupo 130745" transform="translate(2.71)">
              <g id="Grupo_130744" data-name="Grupo 130744">
                <path id="Trazado_190702" data-name="Trazado 190702" d="M-691.052,513.573a10.642,10.642,0,0,1-.667-1.886,3.57,3.57,0,0,1,.072-1.976,1.54,1.54,0,0,1,.474-.706.838.838,0,0,1,.809-.142.885.885,0,0,1,.482.6,2.241,2.241,0,0,1,.034.793c-.11,1.265-.494,2.748-1.2,3.317" transform="translate(691.823 -508.813)" fill="#0ddcf1"/>
              </g>
            </g>
          </g>
          <g id="Grupo_130768" data-name="Grupo 130768" transform="translate(16.126 7.208)">
            <g id="Grupo_130749" data-name="Grupo 130749" transform="translate(0.894 1.02)">
              <g id="Grupo_130748" data-name="Grupo 130748">
                <g id="Grupo_130747" data-name="Grupo 130747">
                  <path id="Trazado_190703" data-name="Trazado 190703" d="M-671.283,509.774a1.243,1.243,0,0,1,.021.23c.005.168.013.386.024.658s.019.634.013,1.041,0,.868-.025,1.378c-.029,1.022-.116,2.236-.263,3.58s-.381,2.813-.7,4.34-.71,2.963-1.1,4.255-.815,2.438-1.2,3.385c-.18.477-.371.9-.531,1.272s-.305.69-.43.947-.214.441-.285.593a1.209,1.209,0,0,1-.111.2,1.26,1.26,0,0,1,.079-.215l.257-.606c.116-.261.254-.581.4-.957s.333-.8.506-1.278c.369-.951.764-2.1,1.161-3.387s.765-2.724,1.088-4.245.543-2.987.709-4.323.253-2.548.3-3.566c.034-.509.037-.97.049-1.375s.018-.754.016-1.038.006-.491.007-.658A1.134,1.134,0,0,1-671.283,509.774Z" transform="translate(675.873 -509.774)" fill="#0ddcf1"/>
                </g>
              </g>
            </g>
            <g id="Grupo_130751" data-name="Grupo 130751" transform="translate(2.819 5.628)">
              <g id="Grupo_130750" data-name="Grupo 130750">
                <path id="Trazado_190704" data-name="Trazado 190704" d="M-671.463,517.725a3.814,3.814,0,0,0-.915-2.406.913.913,0,0,0-.759-.4c-.394.057-.574.53-.588.928a2.8,2.8,0,0,0,.632,1.862,2.379,2.379,0,0,0,1.531.947" transform="translate(673.727 -514.911)" fill="#0ddcf1"/>
              </g>
            </g>
            <g id="Grupo_130753" data-name="Grupo 130753" transform="translate(2.197 9.351)">
              <g id="Grupo_130752" data-name="Grupo 130752">
                <path id="Trazado_190705" data-name="Trazado 190705" d="M-672.405,522.974a6.432,6.432,0,0,0-.889-3.481,1.231,1.231,0,0,0-.342-.349.5.5,0,0,0-.469-.044.708.708,0,0,0-.3.6,4.045,4.045,0,0,0,1.949,3.782" transform="translate(674.421 -519.06)" fill="#0ddcf1"/>
              </g>
            </g>
            <g id="Grupo_130755" data-name="Grupo 130755" transform="translate(0.645 14.093)">
              <g id="Grupo_130754" data-name="Grupo 130754">
                <path id="Trazado_190706" data-name="Trazado 190706" d="M-673.709,527.648a5.861,5.861,0,0,0-1.1-2.871.916.916,0,0,0-.565-.428c-.366-.047-.658.327-.737.686a2.835,2.835,0,0,0,.631,2.122,7.668,7.668,0,0,0,1.413,1.4" transform="translate(676.15 -524.346)" fill="#0ddcf1"/>
              </g>
            </g>
            <g id="Grupo_130757" data-name="Grupo 130757" transform="translate(0 17.629)">
              <g id="Grupo_130756" data-name="Grupo 130756">
                <path id="Trazado_190707" data-name="Trazado 190707" d="M-674.8,530.958a5.638,5.638,0,0,0-.993-2.258,1.152,1.152,0,0,0-.4-.356.5.5,0,0,0-.512.03c-.227.178-.177.534-.08.807a4.642,4.642,0,0,0,1.7,2.326" transform="translate(676.869 -528.287)" fill="#0ddcf1"/>
              </g>
            </g>
            <g id="Grupo_130759" data-name="Grupo 130759" transform="translate(2.24 17.492)">
              <g id="Grupo_130758" data-name="Grupo 130758">
                <path id="Trazado_190708" data-name="Trazado 190708" d="M-674.091,529.775a18.142,18.142,0,0,1,2.936-1.559.523.523,0,0,1,.5-.028.35.35,0,0,1,.109.363.891.891,0,0,1-.2.344,4.515,4.515,0,0,1-3.619,1.5" transform="translate(674.372 -528.135)" fill="#0ddcf1"/>
              </g>
            </g>
            <g id="Grupo_130761" data-name="Grupo 130761" transform="translate(3.565 13.342)">
              <g id="Grupo_130760" data-name="Grupo 130760">
                <path id="Trazado_190709" data-name="Trazado 190709" d="M-672.8,525.461l2.416-1.575a2.247,2.247,0,0,1,.736-.36.756.756,0,0,1,.747.227.74.74,0,0,1,.016.778,1.96,1.96,0,0,1-.561.592,5.464,5.464,0,0,1-1.7.947,2.229,2.229,0,0,1-1.748-.013" transform="translate(672.895 -523.509)" fill="#0ddcf1"/>
              </g>
            </g>
            <g id="Grupo_130763" data-name="Grupo 130763" transform="translate(4.635 8.714)">
              <g id="Grupo_130762" data-name="Grupo 130762">
                <path id="Trazado_190710" data-name="Trazado 190710" d="M-671.566,520.557a6.4,6.4,0,0,1,2.588-2.08,1.072,1.072,0,0,1,.542-.123.808.808,0,0,1,.623.816,1.509,1.509,0,0,1-.525,1.1,3.186,3.186,0,0,1-1.094.608,7.376,7.376,0,0,1-2.272.434" transform="translate(671.703 -518.351)" fill="#0ddcf1"/>
              </g>
            </g>
            <g id="Grupo_130765" data-name="Grupo 130765" transform="translate(5.262 3.869)">
              <g id="Grupo_130764" data-name="Grupo 130764">
                <path id="Trazado_190711" data-name="Trazado 190711" d="M-670.98,515.951a7.474,7.474,0,0,1,2.584-2.765.784.784,0,0,1,.759-.193.529.529,0,0,1,.266.429,1.226,1.226,0,0,1-.087.514,3.993,3.993,0,0,1-3.546,2.62" transform="translate(671.004 -512.949)" fill="#0ddcf1"/>
              </g>
            </g>
            <g id="Grupo_130767" data-name="Grupo 130767" transform="translate(4.194)">
              <g id="Grupo_130766" data-name="Grupo 130766">
                <path id="Trazado_190712" data-name="Trazado 190712" d="M-670.971,513.4a10.743,10.743,0,0,0,.667-1.885,3.574,3.574,0,0,0-.072-1.975,1.545,1.545,0,0,0-.474-.706.837.837,0,0,0-.809-.143.888.888,0,0,0-.483.6,2.256,2.256,0,0,0-.034.792c.111,1.265.494,2.749,1.2,3.316" transform="translate(672.194 -508.637)" fill="#0ddcf1"/>
              </g>
            </g>
          </g>
          <g id="Grupo_130770" data-name="Grupo 130770" transform="translate(0.337 30.108)">
            <g id="Grupo_130769" data-name="Grupo 130769">
              <path id="Trazado_190713" data-name="Trazado 190713" d="M-694.468,534.162v3.046a1.2,1.2,0,0,0,1.2,1.2h20.841a1.2,1.2,0,0,0,1.2-1.2v-3.046Z" transform="translate(694.468 -534.162)" fill="#0d8791"/>
            </g>
          </g>
          <g id="Grupo_130772" data-name="Grupo 130772" transform="translate(2.145 34.353)">
            <g id="Grupo_130771" data-name="Grupo 130771">
              <path id="Trazado_190714" data-name="Trazado 190714" d="M-692.454,538.894l.173.97,19.23,1.371.487-2.341Z" transform="translate(692.454 -538.894)" fill="#0d8791"/>
            </g>
          </g>
        </g>
      </g>
    </g>
  </g>
</svg>
