<svg xmlns="http://www.w3.org/2000/svg" width="140" height="140" viewBox="0 0 140 140">
  <g id="Grupo_146530" data-name="Grupo 146530" transform="translate(-734 -7297)">
    <circle id="Elipse_5263" data-name="Elipse 5263" cx="70" cy="70" r="70" transform="translate(734 7297)" fill="#ffb30b"/>
    <circle id="Elipse_5264" data-name="Elipse 5264" cx="60" cy="60" r="60" transform="translate(744 7307)" fill="#fff"/>
    <g id="Grupo_133764" data-name="Grupo 133764" transform="translate(518.318 -427.477)">
      <path id="Trazado_197127" data-name="Trazado 197127" d="M252.337,692.687a6.78,6.78,0,0,1-.527,1.337,1.271,1.271,0,0,0,.4,1.992,3.432,3.432,0,0,1,.608.633,1.227,1.227,0,0,1-.044,1.8q-2.665,2.71-5.376,5.375a1.154,1.154,0,0,1-1.888-.043c-.993-1.464-2.09-1.3-3.4-.57-.332.184-.49.317-.476.692.021.532.016,1.068-.016,1.6a1.236,1.236,0,0,1-1.275,1.266q-3.841.032-7.682,0a1.149,1.149,0,0,1-1.249-1.337c.31-1.689-.478-2.434-1.97-2.833-.4-.106-.618-.107-.886.189a12.883,12.883,0,0,1-1.091,1.057,1.231,1.231,0,0,1-1.855-.018q-2.709-2.666-5.375-5.375a1.249,1.249,0,0,1-.008-1.858.243.243,0,0,1,.055-.057c1.624-.924,1.221-2.149.547-3.45a.575.575,0,0,0-.6-.384q-.76.014-1.52-.013a1.277,1.277,0,0,1-1.411-1.378q-.024-3.761,0-7.522c.006-.845.532-1.452,1.356-1.312,1.629.277,2.421-.408,2.791-1.911.1-.4.188-.657-.17-.961a9.235,9.235,0,0,1-1.109-1.15,1.189,1.189,0,0,1,.034-1.73q2.69-2.741,5.428-5.435a1.241,1.241,0,0,1,1.8-.039.443.443,0,0,1,.117.108c.926,1.662,2.167,1.153,3.454.531a.561.561,0,0,0,.369-.608q-.013-.76.014-1.52a1.277,1.277,0,0,1,1.391-1.4q3.721-.022,7.442,0c.9,0,1.512.514,1.38,1.375a2.137,2.137,0,0,0,1.852,2.753.939.939,0,0,0,1.088-.215c1.933-1.9,1.953-1.886,3.859.02,1.4,1.4,2.8,2.787,4.186,4.188.825.832.891,1.513-.019,2.238a1.948,1.948,0,0,0-.591,2.863,1.268,1.268,0,0,0,1.33.865c2.277-.017,2.413.149,2.413,2.46q0,3.041,0,6.082c0,1.294-.417,1.7-1.734,1.7C253.442,692.688,252.91,692.687,252.337,692.687Zm-32.464-2.606c2.343.164,2.686.426,3.52,2.591.181.471.423.918.607,1.388a2.583,2.583,0,0,1-.51,2.889c-.178.193-.362.38-.456.478l3.582,3.61c.093-.086.228-.211.362-.337a2.627,2.627,0,0,1,3.215-.556c.708.3,1.434.566,2.138.88a2.531,2.531,0,0,1,1.6,2.371c.01.256,0,.513,0,.778h5.123c0-.167,0-.3,0-.424a2.684,2.684,0,0,1,2.017-2.894c.67-.255,1.321-.561,1.99-.817a2.541,2.541,0,0,1,2.754.474c.218.19.424.4.558.521l3.613-3.564c-.08-.09-.183-.209-.292-.323a2.645,2.645,0,0,1-.591-3.343c.3-.682.552-1.382.847-2.065a2.521,2.521,0,0,1,2.127-1.6,8.74,8.74,0,0,1,1.027-.006V685c-.163,0-.291,0-.419,0a2.694,2.694,0,0,1-2.9-2.011c-.248-.644-.537-1.272-.793-1.914a2.577,2.577,0,0,1,.5-2.89c.177-.194.361-.383.489-.519l-3.588-3.59c-.082.074-.2.176-.316.285a2.66,2.66,0,0,1-3.346.588c-.682-.3-1.385-.545-2.064-.848a2.528,2.528,0,0,1-1.607-2.368c-.009-.257,0-.514,0-.783h-5.123c0,.165,0,.293,0,.422a2.69,2.69,0,0,1-2.015,2.9c-.668.262-1.321.561-1.991.817a2.534,2.534,0,0,1-2.753-.474c-.217-.191-.424-.394-.545-.506l-3.615,3.565c.093.1.218.236.344.37a2.633,2.633,0,0,1,.553,3.218c-.274.634-.53,1.276-.789,1.917a2.615,2.615,0,0,1-2.623,1.829c-.2.005-.422-.075-.63.082Z" transform="translate(68.815 7126.54)" fill="#084a93"/>
      <path id="Trazado_197128" data-name="Trazado 197128" d="M92.6,719.81c.411-.381.851-.807,1.31-1.211a1.239,1.239,0,0,1,1.91,0q1.78,1.727,3.508,3.508a1.239,1.239,0,0,1,.018,1.909c-.266.3-.559.572-.843.854-.259.257-.559.448-.314.929.212.417.388.677.922.657,2.684-.1,2.647.47,2.605,2.69-.022,1.173,0,2.348-.007,3.521a1.314,1.314,0,0,1-1.466,1.487c-.373.008-.748.015-1.12,0-.395-.018-.686.006-.848.489-.143.427-.188.713.191,1.027a7.6,7.6,0,0,1,.875.932,1.264,1.264,0,0,1-.057,1.97q-1.679,1.716-3.395,3.4a1.271,1.271,0,0,1-2.025.012c-.272-.255-.533-.523-.8-.788s-.45-.555-.931-.311c-.418.213-.677.392-.656.924.107,2.71-.5,2.643-2.692,2.6-1.173-.021-2.347.005-3.521-.007a1.312,1.312,0,0,1-1.485-1.468c-.008-.373-.016-.747,0-1.12.019-.4-.013-.679-.49-.848a.834.834,0,0,0-1.029.192c-1.873,1.795-1.937,1.783-3.753-.029-.85-.848-1.706-1.689-2.543-2.55a1.274,1.274,0,0,1-.012-2.026c.254-.273.525-.531.79-.794s.551-.452.308-.932c-.212-.42-.394-.673-.924-.653-2.692.1-2.643-.479-2.6-2.693.022-1.173,0-2.348.007-3.521a1.311,1.311,0,0,1,1.467-1.485c.373-.008.748-.015,1.12,0,.4.019.685-.008.846-.491.142-.426.188-.713-.192-1.027a7.647,7.647,0,0,1-.875-.931,1.262,1.262,0,0,1,.06-1.969q1.681-1.714,3.4-3.4a1.275,1.275,0,0,1,2.026-.016c.275.252.533.523.794.791s.45.552.93.311c.42-.211.677-.392.656-.923-.107-2.726.51-2.641,2.69-2.6,1.173.02,2.348,0,3.521.006a1.315,1.315,0,0,1,1.489,1.465,4.839,4.839,0,0,1,0,.64C91.377,719.125,91.468,719.79,92.6,719.81ZM76.118,731.6a2.785,2.785,0,0,1,3.011,1.57c.786,1.585,1.078,3.1-.481,4.313l1.833,1.777a2.847,2.847,0,0,1,3.528-.79c1.56.61,2.524,1.542,2.327,3.336H88.9a2.855,2.855,0,0,1,1.777-3.089c1.562-.727,2.966-.88,4.136.622l1.835-1.833c-1.457-1.147-1.365-2.523-.658-4.072a2.872,2.872,0,0,1,3.1-1.844v-2.542c-1.607-.041-2.343-.405-2.878-1.412-.859-1.618-1.268-3.2.416-4.527l-1.781-1.836a3.459,3.459,0,0,1-5.953-2.437h-2.56a2.732,2.732,0,0,1-1.445,2.917c-1.6.837-3.169,1.208-4.408-.368l-1.8,1.791a2.767,2.767,0,0,1,.885,3.243c-.584,1.648-1.456,2.852-3.45,2.61Z" transform="translate(181.831 7088.912)" fill="#084a93"/>
      <path id="Trazado_197129" data-name="Trazado 197129" d="M171.088,570.354h-2.534v-25.6c-1.225,0-2.389-.014-3.552.006a1.388,1.388,0,0,1-1.5-.817,1.409,1.409,0,0,1,.448-1.582q4.871-5.467,9.732-10.942c.891-1,1.614-.992,2.516.024q4.809,5.415,9.622,10.826c.443.5.837.987.519,1.706s-.918.8-1.6.786c-1.114-.02-2.228-.005-3.405-.005v16.615h-2.566v-.805q0-8.324,0-16.648c0-1.315.406-1.721,1.711-1.725.556,0,1.113,0,1.838,0l-7.387-8.314-7.395,8.315c.833,0,1.514-.017,2.195,0a1.257,1.257,0,0,1,1.348,1.357C171.091,552.466,171.088,561.373,171.088,570.354Z" transform="translate(111.172 7234.766)" fill="#084a93"/>
      <path id="Trazado_197130" data-name="Trazado 197130" d="M307.118,522.011h-2.5c-.186-.179-.085-.434-.085-.659q-.009-9.685,0-19.369c0-1.308.408-1.71,1.721-1.714.555,0,1.109,0,1.828,0l-7.388-8.314-7.393,8.314c.811,0,1.468-.012,2.124,0a1.27,1.27,0,0,1,1.418,1.369q.012,11.406,0,22.811c0,.022-.022.044-.056.108h-2.478V502.83c-1.227,0-2.392-.012-3.556,0a1.387,1.387,0,0,1-1.457-.754,1.348,1.348,0,0,1,.374-1.592q4.924-5.527,9.84-11.061a1.365,1.365,0,0,1,2.351-.02q4.923,5.528,9.838,11.062a1.332,1.332,0,0,1-1.044,2.364c-1.147-.017-2.294,0-3.534,0Z" transform="translate(12.307 7267.73)" fill="#084a93"/>
      <path id="Trazado_197131" data-name="Trazado 197131" d="M55.614,592.663v12.748H53.081c-.144-.118-.05-.349-.05-.548q-.009-6.563,0-13.126c0-1.2.436-1.629,1.639-1.636.581,0,1.163,0,1.909,0l-7.388-8.314L41.793,590.1c.838,0,1.521-.017,2.2,0a1.239,1.239,0,0,1,1.337,1.284c.014,6.8.008,13.6.008,20.44H42.8V592.663c-1.2,0-2.338-.013-3.475.005a1.438,1.438,0,0,1-1.538-.752,1.4,1.4,0,0,1,.423-1.653q4.871-5.466,9.732-10.942c.869-.977,1.607-.985,2.463-.023q4.865,5.472,9.73,10.944c.43.482.761.972.455,1.649a1.418,1.418,0,0,1-1.523.778C57.929,592.649,56.789,592.663,55.614,592.663Z" transform="translate(210.024 7197.108)" fill="#084a93"/>
      <path id="Trazado_197134" data-name="Trazado 197134" d="M269.514,710.291a10.246,10.246,0,1,1-10.286,10.164A10.272,10.272,0,0,1,269.514,710.291Zm-.037,17.927a7.682,7.682,0,1,0-7.685-7.679A7.7,7.7,0,0,0,269.476,728.218Z" transform="translate(35.84 7093.566)" fill="#084a93"/>
      <path id="Trazado_197135" data-name="Trazado 197135" d="M122.331,758.643a6.4,6.4,0,1,1-6.376-6.427A6.42,6.42,0,0,1,122.331,758.643Zm-2.563-.006a3.839,3.839,0,1,0-3.819,3.82A3.855,3.855,0,0,0,119.768,758.637Z" transform="translate(153.525 7060.607)" fill="#084a93"/>
    </g>
  </g>
</svg>
