<svg xmlns="http://www.w3.org/2000/svg" xmlns:xlink="http://www.w3.org/1999/xlink" width="275" height="174.744" viewBox="0 0 275 174.744">
  <defs>
    <clipPath id="clip-path">
      <rect id="Rectángulo_296766" data-name="Rectángulo 296766" width="47.208" height="62.104" fill="none"/>
    </clipPath>
    <clipPath id="clip-path-2">
      <rect id="Rectángulo_296767" data-name="Rectángulo 296767" width="8.257" height="36.297" fill="none"/>
    </clipPath>
  </defs>
  <g id="Grupo_146563" data-name="Grupo 146563" transform="translate(-1013 -1248)">
    <g id="Grupo_146391" data-name="Grupo 146391" transform="translate(1013 1248)">
      <rect id="Rectángulo_296784" data-name="Rectángulo 296784" width="147.37" height="93.743" transform="translate(49.768 12.996)" fill="#fff"/>
      <rect id="Rectángulo_296785" data-name="Rectángulo 296785" width="26.542" height="93.743" transform="translate(49.768 12.996)" fill="#ececec"/>
      <path id="Trazado_203512" data-name="Trazado 203512" d="M119.721,663.67h-11.57a1.189,1.189,0,1,1,0-2.378h11.57a1.189,1.189,0,0,1,0,2.378" transform="translate(-52.156 -619.848)" fill="#e1e1e1"/>
      <path id="Trazado_203513" data-name="Trazado 203513" d="M119.721,655.6h-11.57a1.189,1.189,0,1,1,0-2.378h11.57a1.189,1.189,0,0,1,0,2.378" transform="translate(-52.156 -617.841)" fill="#e1e1e1"/>
      <path id="Trazado_203514" data-name="Trazado 203514" d="M119.721,648.227h-11.57a1.189,1.189,0,1,1,0-2.378h11.57a1.189,1.189,0,0,1,0,2.378" transform="translate(-52.156 -616.003)" fill="#e1e1e1"/>
      <path id="Trazado_203515" data-name="Trazado 203515" d="M119.721,641.227h-11.57a1.189,1.189,0,1,1,0-2.379h11.57a1.189,1.189,0,0,1,0,2.379" transform="translate(-52.156 -614.259)" fill="#e1e1e1"/>
      <path id="Trazado_203516" data-name="Trazado 203516" d="M161.317,639.064H150.358a1.189,1.189,0,0,1,0-2.379h10.959a1.189,1.189,0,0,1,0,2.379" transform="translate(-62.665 -613.721)" fill="#042c58"/>
      <path id="Trazado_203517" data-name="Trazado 203517" d="M161.317,647.353H150.358a1.189,1.189,0,0,1,0-2.378h10.959a1.189,1.189,0,0,1,0,2.378" transform="translate(-62.665 -615.786)" fill="#e1e1e1"/>
      <path id="Trazado_203518" data-name="Trazado 203518" d="M161.317,655.918H150.358a1.189,1.189,0,0,1,0-2.378h10.959a1.189,1.189,0,0,1,0,2.378" transform="translate(-62.665 -617.918)" fill="#ffb30b"/>
      <path id="Trazado_203519" data-name="Trazado 203519" d="M156.642,668.476h-6.284a1.189,1.189,0,0,1,0-2.378h6.284a1.189,1.189,0,0,1,0,2.378" transform="translate(-62.666 -621.045)" fill="#e1e1e1"/>
      <path id="Trazado_203520" data-name="Trazado 203520" d="M156.642,720.06h-6.284a1.189,1.189,0,1,1,0-2.378h6.284a1.189,1.189,0,1,1,0,2.378" transform="translate(-62.666 -633.889)" fill="#042c58"/>
      <path id="Trazado_203521" data-name="Trazado 203521" d="M179.774,720.06H168.251a1.189,1.189,0,1,1,0-2.378h11.523a1.189,1.189,0,1,1,0,2.378" transform="translate(-67.121 -633.889)" fill="#e1e1e1"/>
      <path id="Trazado_203522" data-name="Trazado 203522" d="M161.881,727.693H150.358a1.189,1.189,0,0,1,0-2.378h11.523a1.189,1.189,0,0,1,0,2.378" transform="translate(-62.666 -635.788)" fill="#ffb30b"/>
      <path id="Trazado_203523" data-name="Trazado 203523" d="M175.243,727.693h-2.567a1.189,1.189,0,1,1,0-2.378h2.567a1.189,1.189,0,0,1,0,2.378" transform="translate(-68.223 -635.788)" fill="#042c58"/>
      <path id="Trazado_203524" data-name="Trazado 203524" d="M199.64,727.693H183.292a1.189,1.189,0,1,1,0-2.378H199.64a1.189,1.189,0,0,1,0,2.378" transform="translate(-70.865 -635.788)" fill="#e1e1e1"/>
      <path id="Trazado_203525" data-name="Trazado 203525" d="M184.7,639.064H173.737a1.189,1.189,0,0,1,0-2.379H184.7a1.189,1.189,0,0,1,0,2.379" transform="translate(-68.487 -613.721)" fill="#084a93"/>
      <path id="Trazado_203526" data-name="Trazado 203526" d="M198.816,647.353h-25.08a1.189,1.189,0,1,1,0-2.378h25.08a1.189,1.189,0,0,1,0,2.378" transform="translate(-68.486 -615.786)" fill="#042c58"/>
      <path id="Trazado_203527" data-name="Trazado 203527" d="M225.819,655.918H173.737a1.189,1.189,0,0,1,0-2.378h52.082a1.189,1.189,0,0,1,0,2.378" transform="translate(-68.487 -617.918)" fill="#e1e1e1"/>
      <path id="Trazado_203528" data-name="Trazado 203528" d="M191.6,668.476H167.047a1.189,1.189,0,0,1,0-2.378H191.6a1.189,1.189,0,0,1,0,2.378" transform="translate(-66.821 -621.045)" fill="#e1e1e1"/>
      <path id="Trazado_203529" data-name="Trazado 203529" d="M215.324,668.476h-8.232a1.189,1.189,0,0,1,0-2.378h8.232a1.189,1.189,0,0,1,0,2.378" transform="translate(-76.792 -621.045)" fill="#e1e1e1"/>
      <path id="Trazado_203530" data-name="Trazado 203530" d="M240.921,668.425H225.372a1.189,1.189,0,1,1,0-2.378h15.549a1.189,1.189,0,0,1,0,2.378" transform="translate(-81.344 -621.031)" fill="#e1e1e1"/>
      <path id="Trazado_203531" data-name="Trazado 203531" d="M269.1,668.425H253.548a1.189,1.189,0,1,1,0-2.378H269.1a1.189,1.189,0,1,1,0,2.378" transform="translate(-88.359 -621.031)" fill="#e1e1e1"/>
      <path id="Trazado_203532" data-name="Trazado 203532" d="M156.642,677.477h-6.284a1.189,1.189,0,0,1,0-2.378h6.284a1.189,1.189,0,0,1,0,2.378" transform="translate(-62.666 -623.286)" fill="#e1e1e1"/>
      <path id="Trazado_203533" data-name="Trazado 203533" d="M191.6,677.477H167.047a1.189,1.189,0,0,1,0-2.378H191.6a1.189,1.189,0,0,1,0,2.378" transform="translate(-66.821 -623.286)" fill="#e1e1e1"/>
      <path id="Trazado_203534" data-name="Trazado 203534" d="M215.324,677.477h-8.232a1.189,1.189,0,0,1,0-2.378h8.232a1.189,1.189,0,0,1,0,2.378" transform="translate(-76.792 -623.286)" fill="#e1e1e1"/>
      <path id="Trazado_203535" data-name="Trazado 203535" d="M240.921,677.425H225.372a1.189,1.189,0,1,1,0-2.378h15.549a1.189,1.189,0,1,1,0,2.378" transform="translate(-81.344 -623.272)" fill="#e1e1e1"/>
      <path id="Trazado_203536" data-name="Trazado 203536" d="M269.1,677.425H253.548a1.189,1.189,0,1,1,0-2.378H269.1a1.189,1.189,0,1,1,0,2.378" transform="translate(-88.359 -623.272)" fill="#e1e1e1"/>
      <path id="Trazado_203537" data-name="Trazado 203537" d="M156.642,685.477h-6.284a1.189,1.189,0,0,1,0-2.378h6.284a1.189,1.189,0,0,1,0,2.378" transform="translate(-62.666 -625.278)" fill="#e1e1e1"/>
      <path id="Trazado_203538" data-name="Trazado 203538" d="M191.6,685.477H167.047a1.189,1.189,0,0,1,0-2.378H191.6a1.189,1.189,0,0,1,0,2.378" transform="translate(-66.821 -625.278)" fill="#e1e1e1"/>
      <path id="Trazado_203539" data-name="Trazado 203539" d="M215.324,685.477h-8.232a1.189,1.189,0,0,1,0-2.378h8.232a1.189,1.189,0,0,1,0,2.378" transform="translate(-76.792 -625.278)" fill="#e1e1e1"/>
      <path id="Trazado_203540" data-name="Trazado 203540" d="M240.921,685.425H225.372a1.189,1.189,0,0,1,0-2.378h15.549a1.189,1.189,0,0,1,0,2.378" transform="translate(-81.344 -625.264)" fill="#e1e1e1"/>
      <path id="Trazado_203541" data-name="Trazado 203541" d="M269.1,685.425H253.548a1.189,1.189,0,0,1,0-2.378H269.1a1.189,1.189,0,1,1,0,2.378" transform="translate(-88.359 -625.264)" fill="#e1e1e1"/>
      <path id="Trazado_203542" data-name="Trazado 203542" d="M156.642,693.477h-6.284a1.189,1.189,0,0,1,0-2.379h6.284a1.189,1.189,0,0,1,0,2.379" transform="translate(-62.666 -627.27)" fill="#e1e1e1"/>
      <path id="Trazado_203543" data-name="Trazado 203543" d="M191.6,693.477H167.047a1.189,1.189,0,0,1,0-2.379H191.6a1.189,1.189,0,0,1,0,2.379" transform="translate(-66.821 -627.27)" fill="#e1e1e1"/>
      <path id="Trazado_203544" data-name="Trazado 203544" d="M215.324,693.477h-8.232a1.189,1.189,0,0,1,0-2.379h8.232a1.189,1.189,0,0,1,0,2.379" transform="translate(-76.792 -627.27)" fill="#e1e1e1"/>
      <path id="Trazado_203545" data-name="Trazado 203545" d="M240.921,693.425H225.372a1.189,1.189,0,1,1,0-2.378h15.549a1.189,1.189,0,0,1,0,2.378" transform="translate(-81.344 -627.256)" fill="#e1e1e1"/>
      <path id="Trazado_203546" data-name="Trazado 203546" d="M269.1,693.425H253.548a1.189,1.189,0,1,1,0-2.378H269.1a1.189,1.189,0,1,1,0,2.378" transform="translate(-88.359 -627.256)" fill="#e1e1e1"/>
      <path id="Trazado_203547" data-name="Trazado 203547" d="M156.642,702.477h-6.284a1.189,1.189,0,0,1,0-2.379h6.284a1.189,1.189,0,0,1,0,2.379" transform="translate(-62.666 -629.508)" fill="#e1e1e1"/>
      <path id="Trazado_203548" data-name="Trazado 203548" d="M191.6,702.477H167.047a1.189,1.189,0,0,1,0-2.379H191.6a1.189,1.189,0,0,1,0,2.379" transform="translate(-66.821 -629.508)" fill="#e1e1e1"/>
      <path id="Trazado_203549" data-name="Trazado 203549" d="M215.324,702.477h-8.232a1.189,1.189,0,0,1,0-2.379h8.232a1.189,1.189,0,0,1,0,2.379" transform="translate(-76.792 -629.508)" fill="#e1e1e1"/>
      <path id="Trazado_203550" data-name="Trazado 203550" d="M240.921,702.425H225.372a1.189,1.189,0,1,1,0-2.378h15.549a1.189,1.189,0,1,1,0,2.378" transform="translate(-81.344 -629.497)" fill="#e1e1e1"/>
      <path id="Trazado_203551" data-name="Trazado 203551" d="M269.1,702.425H253.548a1.189,1.189,0,1,1,0-2.378H269.1a1.189,1.189,0,1,1,0,2.378" transform="translate(-88.359 -629.497)" fill="#e1e1e1"/>
      <path id="Trazado_203552" data-name="Trazado 203552" d="M156.642,710.477h-6.284a1.189,1.189,0,0,1,0-2.379h6.284a1.189,1.189,0,0,1,0,2.379" transform="translate(-62.666 -631.501)" fill="#e1e1e1"/>
      <path id="Trazado_203553" data-name="Trazado 203553" d="M191.6,710.477H167.047a1.189,1.189,0,0,1,0-2.379H191.6a1.189,1.189,0,0,1,0,2.379" transform="translate(-66.821 -631.501)" fill="#e1e1e1"/>
      <path id="Trazado_203554" data-name="Trazado 203554" d="M215.324,710.477h-8.232a1.189,1.189,0,0,1,0-2.379h8.232a1.189,1.189,0,0,1,0,2.379" transform="translate(-76.792 -631.501)" fill="#e1e1e1"/>
      <path id="Trazado_203555" data-name="Trazado 203555" d="M240.921,710.425H225.372a1.189,1.189,0,0,1,0-2.378h15.549a1.189,1.189,0,0,1,0,2.378" transform="translate(-81.344 -631.49)" fill="#e1e1e1"/>
      <path id="Trazado_203556" data-name="Trazado 203556" d="M269.1,710.425H253.548a1.189,1.189,0,0,1,0-2.378H269.1a1.189,1.189,0,1,1,0,2.378" transform="translate(-88.359 -631.49)" fill="#e1e1e1"/>
      <path id="Trazado_203557" data-name="Trazado 203557" d="M114.71,672.209h-6.559a1.189,1.189,0,0,1,0-2.378h6.559a1.189,1.189,0,0,1,0,2.378" transform="translate(-52.155 -621.975)" fill="#e1e1e1"/>
      <path id="Trazado_203558" data-name="Trazado 203558" d="M112.747,697.825h-4.6a1.189,1.189,0,0,1,0-2.379h4.6a1.189,1.189,0,0,1,0,2.379" transform="translate(-52.156 -628.353)" fill="#e1e1e1"/>
      <path id="Trazado_203559" data-name="Trazado 203559" d="M120.909,680.747H108.15a1.189,1.189,0,0,1,0-2.378h12.76a1.189,1.189,0,0,1,0,2.378" transform="translate(-52.156 -624.1)" fill="#e1e1e1"/>
      <path id="Trazado_203560" data-name="Trazado 203560" d="M118.671,689.285H108.15a1.189,1.189,0,0,1,0-2.378h10.521a1.189,1.189,0,0,1,0,2.378" transform="translate(-52.156 -626.226)" fill="#e1e1e1"/>
      <path id="Trazado_203561" data-name="Trazado 203561" d="M244.744,606.393H104.312a4.058,4.058,0,0,0-4.058,4.058v8.724h147.37v-9.9a2.88,2.88,0,0,0-2.88-2.88" transform="translate(-50.486 -606.178)" fill="#e1e1e1"/>
      <path id="Trazado_203562" data-name="Trazado 203562" d="M111.568,614.835a1.755,1.755,0,1,1-1.756-1.756,1.756,1.756,0,0,1,1.756,1.756" transform="translate(-52.428 -607.843)" fill="#fff"/>
      <path id="Trazado_203563" data-name="Trazado 203563" d="M118.761,614.835a1.755,1.755,0,1,1-1.756-1.756,1.756,1.756,0,0,1,1.756,1.756" transform="translate(-54.22 -607.843)" fill="#fff"/>
      <path id="Trazado_203564" data-name="Trazado 203564" d="M125.954,614.835a1.755,1.755,0,1,1-1.756-1.756,1.756,1.756,0,0,1,1.756,1.756" transform="translate(-56.011 -607.843)" fill="#fff"/>
      <path id="Trazado_203565" data-name="Trazado 203565" d="M141.991,746.288l12.456,13.466,11.308-13.466Z" transform="translate(-60.878 -641.01)" fill="#fff"/>
      <path id="Trazado_203566" data-name="Trazado 203566" d="M243.556,712.846a4.687,4.687,0,0,0,1.289-.24,3.986,3.986,0,0,0,2.518-2.7,4.355,4.355,0,0,0,.141-1.328q0-.716-.005-1.5,0-1.578-.01-3.448c-.006-2.493-.013-5.367-.02-8.6-.017-12.952-.04-31.683-.068-54.828q-.006-8.681-.013-18.168,0-4.738-.006-9.664c-.011-.813.022-1.665-.025-2.455a3.84,3.84,0,0,0-3.014-3.327,17.2,17.2,0,0,0-2.5-.08l-43.455.02-48.018.012-25.4,0H105.422c-.539.008-1.12-.019-1.625.02a3.734,3.734,0,0,0-1.476.471,3.807,3.807,0,0,0-1.823,2.434,11.513,11.513,0,0,0-.1,2.251V618.6q0,4.58,0,9.119,0,9.075,0,17.966c0,11.849,0,23.43-.006,34.68q0,8.436,0,16.617,0,4.088,0,8.107c0,1.335-.013,2.685.011,3.989a3.789,3.789,0,0,0,3.693,3.567l1.953.006,3.889,0,7.662,0,14.835.008h.078l.053.056,11.408,12.01-.255.008,10.087-12,.049-.058h.075l65.509.071,17.881.044,4.659.023c1.05.008,1.588.024,1.588.024s-.538.016-1.588.024l-4.659.023-17.881.044-65.509.071.123-.058L143.97,724.96l-.124.147-.132-.139-11.421-12,.131.056-14.835.008-7.662,0-3.889,0-1.963,0A4.183,4.183,0,0,1,100,709.1c-.026-1.35-.008-2.667-.014-4.012q0-4.018,0-8.107,0-8.176-.005-16.617c0-11.25,0-22.831-.006-34.68q0-8.887,0-17.966V610.556a4.852,4.852,0,0,1,.113-1.194,4.231,4.231,0,0,1,2.028-2.707,4.171,4.171,0,0,1,1.643-.524c.591-.043,1.11-.012,1.668-.022h19.551l25.4,0,48.018.013,43.455.02a17.054,17.054,0,0,1,2.571.091,4.188,4.188,0,0,1,3.284,3.633c.049.863.013,1.663.023,2.492q0,4.924-.007,9.664-.007,9.476-.014,18.168c-.029,23.144-.052,41.875-.068,54.828-.007,3.235-.014,6.11-.02,8.6q-.006,1.869-.01,3.448,0,.789-.005,1.5a4.426,4.426,0,0,1-.155,1.351,3.99,3.99,0,0,1-1.183,1.9,3.946,3.946,0,0,1-2.374,1.012c-.222.008-.333.006-.333.006" transform="translate(-50.414 -606.107)" fill="#042c58"/>
      <path id="Trazado_203375" data-name="Trazado 203375" d="M324.991,796.127a1.6,1.6,0,0,1,.035.343c.011.255.026.583.044.987.017.429.042.954.013,1.563s-.005,1.306-.095,2.069c-.073.765-.124,1.606-.282,2.5-.072.445-.129.911-.221,1.383s-.205.956-.311,1.452a35.782,35.782,0,0,1-2.092,6.265,36.851,36.851,0,0,1-3.255,5.75c-.6.817-1.163,1.607-1.761,2.286-.294.343-.561.689-.848.995l-.828.877c-.515.571-1.043,1.025-1.484,1.446s-.842.76-1.178,1.028l-.769.619a1.554,1.554,0,0,1-.28.2,1.613,1.613,0,0,1,.244-.245l.734-.659c.323-.28.716-.626,1.141-1.06s.945-.891,1.447-1.469l.81-.884c.281-.308.542-.655.83-1,.587-.681,1.133-1.47,1.728-2.285a38.086,38.086,0,0,0,3.21-5.716,36.87,36.87,0,0,0,2.1-6.21l.321-1.439c.1-.468.157-.929.234-1.371.167-.883.229-1.718.314-2.477.1-.759.09-1.452.136-2.058s.035-1.129.035-1.557c0-.4.007-.73.01-.986a1.569,1.569,0,0,1,.022-.345" transform="translate(-141.952 -692.65)" fill="#e1e1e1"/>
      <path id="Trazado_203377" data-name="Trazado 203377" d="M.571,892.842l31.274-21.118L183.377,871l6.936,22.16Z" transform="translate(-0.26 -726.751)" fill="#084a93"/>
      <path id="Trazado_203378" data-name="Trazado 203378" d="M189.658,919.418,0,919.28v-8.928l189.741.593Z" transform="translate(0 -744.674)" fill="#084a93"/>
      <path id="Trazado_203379" data-name="Trazado 203379" d="M186.739,911.177c0,.085-40.954.135-91.462.111-50.525-.024-91.471-.112-91.471-.2s40.946-.134,91.471-.111c50.508.024,91.462.113,91.462.2" transform="translate(-1.733 -744.956)" fill="#042c58"/>
      <path id="Trazado_203387" data-name="Trazado 203387" d="M100.063,774.781s-3.383.729-3.97,3.13,4.711,59.84,4.924,61.239c.334,2.2,2.188,4.99,6.364,4.84,3.639-.131,53.237-.015,65.726.014,1.66,0,2.657-1.409,2.876-3.09l-61.409-3.625Z" transform="translate(-43.744 -682.929)" fill="#e1e1e1"/>
      <path id="Trazado_203388" data-name="Trazado 203388" d="M100.587,776.7l5.319,61.944a2.005,2.005,0,0,0,1.962,1.8l70.179.315-13.482-13.378-45.59-.321L114.1,778.53a1.522,1.522,0,0,0-1.169-1.323l-10.213-2.38a1.746,1.746,0,0,0-2.132,1.87" transform="translate(-45.808 -682.929)" fill="#e1e1e1"/>
      <path id="Trazado_203389" data-name="Trazado 203389" d="M100.583,776.67a1.383,1.383,0,0,1-.011-.3,1.672,1.672,0,0,1,.273-.838,1.765,1.765,0,0,1,1.193-.786,2.122,2.122,0,0,1,.933.076l1.039.237,5.421,1.244,3.437.792a1.608,1.608,0,0,1,1.3,1.382q.1.995.211,2.047c1.141,11.225,2.77,27.253,4.727,46.495l-.131-.119,45.59.3h.062l.044.044,13.483,13.376.267.266-.377,0-3.108-.014-51.446-.243-11.552-.058-2.789-.014c-.464,0-.914,0-1.385-.013a2.128,2.128,0,0,1-1.975-1.817c-.052-.461-.08-.9-.121-1.347q-.114-1.336-.225-2.649c-.595-7.005-1.149-13.531-1.654-19.488-1-11.912-1.813-21.551-2.374-28.221-.273-3.328-.486-5.913-.63-7.674-.068-.873-.12-1.54-.156-2s-.042-.681-.042-.681.031.229.074.678.105,1.122.187,1.994c.157,1.76.389,4.343.687,7.669.584,6.667,1.429,16.3,2.472,28.211.517,5.957,1.084,12.481,1.692,19.485q.114,1.314.229,2.649c.041.442.072.9.121,1.334a1.865,1.865,0,0,0,1.732,1.59c.444.012.913.007,1.371.01l2.789.011,11.552.045,51.445.219,3.109.014-.109.264-13.48-13.379.106.044-45.59-.341h-.119l-.011-.119c-1.911-19.246-3.5-35.278-4.617-46.505q-.1-1.052-.2-2.046a1.465,1.465,0,0,0-1.184-1.265l-3.433-.809-5.412-1.281-1.037-.247a2.063,2.063,0,0,0-.907-.085,1.724,1.724,0,0,0-1.169.748,1.69,1.69,0,0,0-.287.817c-.016.2,0,.3-.009.3" transform="translate(-45.804 -682.902)" fill="#042c58"/>
      <path id="Trazado_203390" data-name="Trazado 203390" d="M190.246,884.039h6.523l-8.247-10.7h-3.872Z" transform="translate(-84.098 -727.817)" fill="#042c58"/>
      <path id="Trazado_203391" data-name="Trazado 203391" d="M105.018,782.715,110,836.535l9.282-7.382-4-45.345a.787.787,0,0,0-.673-.709l-8.7-1.245a.787.787,0,0,0-.894.86" transform="translate(-47.828 -686.146)" fill="#042c58"/>
      <path id="Trazado_203392" data-name="Trazado 203392" d="M123.327,884.039h6.733l6.842-10.7H133.03Z" transform="translate(-56.169 -727.817)" fill="#042c58"/>
      <path id="Trazado_203393" data-name="Trazado 203393" d="M138.5,884.039h6.523l3.575-10.7h-3.872Z" transform="translate(-63.08 -727.817)" fill="#042c58"/>
      <path id="Trazado_203394" data-name="Trazado 203394" d="M153.165,884.039h6.523l.351-10.7h-3.872Z" transform="translate(-69.758 -727.817)" fill="#042c58"/>
      <path id="Trazado_203395" data-name="Trazado 203395" d="M166.761,884.039h6.523l-2.408-10.7H167Z" transform="translate(-75.95 -727.817)" fill="#042c58"/>
      <path id="Trazado_203396" data-name="Trazado 203396" d="M178.705,884.039h6.523l-5.314-10.7h-3.872Z" transform="translate(-80.178 -727.817)" fill="#042c58"/>
      <path id="Trazado_203397" data-name="Trazado 203397" d="M169.139,889.08c0,.051-9.947.093-22.215.093s-22.218-.041-22.218-.093,9.945-.093,22.218-.093,22.215.041,22.215.093" transform="translate(-56.797 -734.943)" fill="#e1e1e1"/>
      <path id="Trazado_203398" data-name="Trazado 203398" d="M168.838,885.478c0,.051-9.447.093-21.1.093s-21.1-.041-21.1-.093,9.445-.093,21.1-.093,21.1.042,21.1.093" transform="translate(-57.678 -733.303)" fill="#e1e1e1"/>
      <path id="Trazado_203399" data-name="Trazado 203399" d="M170.921,882.131c0,.1-8.889.185-19.852.185s-19.854-.083-19.854-.185,8.887-.185,19.854-.185,19.852.083,19.852.185" transform="translate(-59.761 -731.736)" fill="#e1e1e1"/>
      <path id="Trazado_203400" data-name="Trazado 203400" d="M172.138,879.148c0,.1-8.7.185-19.425.185s-19.427-.083-19.427-.185,8.7-.185,19.427-.185,19.425.083,19.425.185" transform="translate(-60.704 -730.378)" fill="#e1e1e1"/>
      <path id="Trazado_203401" data-name="Trazado 203401" d="M173.6,876.97c0,.1-8.755.185-19.552.185s-19.553-.083-19.553-.185,8.753-.185,19.553-.185,19.552.083,19.552.185" transform="translate(-61.253 -729.386)" fill="#e1e1e1"/>
      <path id="Trazado_203402" data-name="Trazado 203402" d="M174.751,874.7c0,.1-8.919.185-19.918.185s-19.92-.083-19.92-.185,8.917-.185,19.92-.185,19.918.083,19.918.185" transform="translate(-61.445 -728.35)" fill="#e1e1e1"/>
      <path id="Trazado_203403" data-name="Trazado 203403" d="M112.164,882.538l12.158-11.375" transform="translate(-51.085 -726.825)" fill="#e1e1e1"/>
      <path id="Trazado_203404" data-name="Trazado 203404" d="M124.321,871.161c.058.062-2.617,2.659-5.973,5.8s-6.126,5.637-6.185,5.575,2.616-2.658,5.974-5.8,6.126-5.637,6.184-5.575" transform="translate(-51.084 -726.824)" fill="#042c58"/>
      <path id="Trazado_203405" data-name="Trazado 203405" d="M459.665,783.75s-.6-6.289-16.269-10.313c-7.567-1.943-25.631-2.877-27.678,8.864-.066.38-8.991,74.224-8.991,74.224h33.4Z" transform="translate(-185.242 -681.782)" fill="#084a93"/>
      <path id="Trazado_203406" data-name="Trazado 203406" d="M481.34,861.716H465.933l5.146-72.348c.377-3.521,4.02-6.059,8.138-5.669l1.379.131c4.118.389,6.726,4.356,6.608,8.875Z" transform="translate(-212.207 -686.972)" fill="#084a93"/>
      <path id="Trazado_203407" data-name="Trazado 203407" d="M468.051,869c-.085-.007,1-14.258,2.43-31.827s2.653-31.812,2.738-31.805-1,14.255-2.43,31.83S468.136,869,468.051,869" transform="translate(-213.17 -696.858)" fill="#042c58"/>
      <path id="Trazado_203408" data-name="Trazado 203408" d="M488.951,786.387a15.964,15.964,0,0,0-2.166-.509,8.111,8.111,0,0,0-8.6,4.932,16.148,16.148,0,0,0-.654,2.127,1.981,1.981,0,0,1,.031-.606,7.105,7.105,0,0,1,.421-1.6,8,8,0,0,1,8.829-5.065,7.119,7.119,0,0,1,1.6.445,1.951,1.951,0,0,1,.539.28" transform="translate(-217.486 -687.836)" fill="#042c58"/>
      <path id="Trazado_203409" data-name="Trazado 203409" d="M382.389,616.241c.155-4.236-2.716-4.807-4.926-4.32a7.493,7.493,0,0,0-9.215.5,6.665,6.665,0,0,0-9.856,5.8,5.569,5.569,0,0,0-4.528,9.552,5.353,5.353,0,0,0,2.623,10.324L382.476,620.8c1.559-1.641-.17-2.293-.087-4.555" transform="translate(-159.571 -608.142)" fill="#12263f"/>
      <path id="Trazado_203410" data-name="Trazado 203410" d="M359.638,644.391a22.711,22.711,0,0,1,21.884-21.677l1.175-.042c12.7.29,19.55,11.237,18.909,23.925l-.335,42.27-.083,8.026-29.038,6.9-.3-16.732S359.6,685.6,359.02,673.427c-.282-5.881.124-18.037.618-29.036" transform="translate(-163.472 -613.651)" fill="#c17560"/>
      <path id="Trazado_203411" data-name="Trazado 203411" d="M382.481,736.512a29.569,29.569,0,0,0,15.8-5.24s-3.443,8.9-15.637,8.236Z" transform="translate(-174.199 -663.113)" fill="#7c4236"/>
      <path id="Trazado_203412" data-name="Trazado 203412" d="M366.743,683.751a1.741,1.741,0,0,0,1.74,1.7,1.665,1.665,0,0,0,1.737-1.633,1.742,1.742,0,0,0-1.738-1.7,1.667,1.667,0,0,0-1.739,1.634" transform="translate(-167.031 -640.725)" fill="#12263f"/>
      <path id="Trazado_203413" data-name="Trazado 203413" d="M365.194,672.842c.223.219,1.506-.8,3.379-.865,1.869-.088,3.277.826,3.472.59.1-.106-.138-.507-.751-.921a4.776,4.776,0,0,0-2.79-.753,4.592,4.592,0,0,0-2.679.971c-.56.462-.741.88-.63.977" transform="translate(-166.312 -635.612)" fill="#12263f"/>
      <path id="Trazado_203414" data-name="Trazado 203414" d="M394.376,683.043a1.74,1.74,0,0,0,1.74,1.7,1.665,1.665,0,0,0,1.738-1.633,1.742,1.742,0,0,0-1.738-1.7,1.666,1.666,0,0,0-1.739,1.634" transform="translate(-179.617 -640.403)" fill="#12263f"/>
      <path id="Trazado_203415" data-name="Trazado 203415" d="M398.065,671.194c.224.219,1.509-.8,3.38-.864,1.868-.088,3.277.826,3.472.589.1-.105-.136-.507-.753-.921a4.772,4.772,0,0,0-2.789-.753,4.588,4.588,0,0,0-2.68.971c-.558.462-.739.879-.631.977" transform="translate(-181.283 -634.862)" fill="#12263f"/>
      <path id="Trazado_203416" data-name="Trazado 203416" d="M383.643,685.637a12.359,12.359,0,0,0-3.06-.441c-.48-.032-.936-.111-1.028-.435a2.438,2.438,0,0,1,.268-1.428q.613-1.759,1.285-3.69c1.779-5.252,3.048-9.564,2.836-9.634s-1.826,4.13-3.6,9.383q-.64,1.942-1.224,3.71a2.77,2.77,0,0,0-.182,1.885,1.2,1.2,0,0,0,.811.671,3.273,3.273,0,0,0,.816.084,12.238,12.238,0,0,0,3.082-.105" transform="translate(-172.534 -635.21)" fill="#12263f"/>
      <path id="Trazado_203417" data-name="Trazado 203417" d="M393.032,700.725c-.3-.007-.237,2.025-1.924,3.529s-3.859,1.358-3.865,1.642c-.024.129.5.378,1.412.37a5.065,5.065,0,0,0,3.23-1.256,4.412,4.412,0,0,0,1.483-2.955c.047-.853-.2-1.348-.336-1.331" transform="translate(-176.368 -649.2)" fill="#12263f"/>
      <path id="Trazado_203418" data-name="Trazado 203418" d="M397.679,661.377c.24.478,1.837-.015,3.8-.053,1.959-.082,3.606.312,3.79-.179.08-.234-.264-.665-.966-1.055a5.854,5.854,0,0,0-2.934-.663,5.619,5.619,0,0,0-2.846.84c-.655.431-.948.882-.841,1.109" transform="translate(-181.111 -630.39)" fill="#12263f"/>
      <path id="Trazado_203419" data-name="Trazado 203419" d="M365.63,663.522c.309.44,1.618.059,3.17.111,1.553,0,2.849.419,3.172-.011.142-.21-.044-.645-.6-1.074a4.594,4.594,0,0,0-5.111-.08c-.567.411-.768.841-.632,1.055" transform="translate(-166.506 -631.44)" fill="#12263f"/>
      <path id="Trazado_203420" data-name="Trazado 203420" d="M361.978,637.562s2.942-7.743,6.557-9.654c4.377-2.314,6.468,2.507,10.669,1.169s8.38-3.557,12.833-.43c4.875,3.422,2.74,6.02,3.225,11.415,1.969,21.872,6.191,27.926,6.962,17.563.084-1.135,3.191-2.146,3.486-6.94.382-6.217.353-13.748-1.186-18.1-1.3-3.664-3.5-6.149-7.391-8.838-6.14-4.243-14.359-4.047-19.918-3.287s-16.087,7.562-15.239,17.1" transform="translate(-164.839 -612.451)" fill="#12263f"/>
      <path id="Trazado_203421" data-name="Trazado 203421" d="M434.449,685.731a3.308,3.308,0,0,1,3.457-3.314c2.28.136,4.854,1.335,4.871,6.036.03,8.337-8.347,6.648-8.362,6.409-.01-.163.016-5.642.035-9.131" transform="translate(-197.851 -640.859)" fill="#c17560"/>
      <path id="Trazado_203422" data-name="Trazado 203422" d="M437.72,693.981c.036-.027.146.1.392.213a1.453,1.453,0,0,0,1.086.018c.88-.326,1.616-1.727,1.652-3.23a4.8,4.8,0,0,0-.414-2.078,1.677,1.677,0,0,0-1.1-1.11.739.739,0,0,0-.855.4c-.111.234-.058.4-.1.414-.023.021-.18-.139-.114-.484a.924.924,0,0,1,.326-.523,1.1,1.1,0,0,1,.8-.215,2.04,2.04,0,0,1,1.522,1.287,4.931,4.931,0,0,1,.512,2.322c-.047,1.68-.9,3.255-2.105,3.608a1.557,1.557,0,0,1-1.329-.216c-.259-.205-.3-.391-.275-.407" transform="translate(-199.354 -643.122)" fill="#7c4236"/>
      <path id="Trazado_203423" data-name="Trazado 203423" d="M405.116,638.874a7.918,7.918,0,0,1-3.469,1.754,2.718,2.718,0,0,1-3.082-1.8c-.119-.576,0-1.254-.4-1.688-.474-.518-1.307-.321-2-.222a5.32,5.32,0,0,1-5.653-3.615,2.233,2.233,0,0,1-2.983.388,11.954,11.954,0,0,1-2.354-2.345,3.427,3.427,0,0,0-2.91-1.329,8.235,8.235,0,0,1-1.8.463c-1.1-.058-1.677-1.32-1.881-2.4s-.378-2.341-1.325-2.9c-.878-.516-1.979-.161-2.981.024s-2.31-.006-2.6-.982A1.98,1.98,0,0,1,372,622.7a5.4,5.4,0,0,1,6.294-2.268,7.315,7.315,0,0,1,13.382-1.894,7.424,7.424,0,0,1,11.957,2.283,5.381,5.381,0,0,1,6.341,7.607,5.111,5.111,0,0,1,2.954,3.967c.093,1.723-1.526,3.5-3.205,3.106a2.98,2.98,0,0,1-5.046,3.154" transform="translate(-169.255 -610.132)" fill="#12263f"/>
      <path id="Trazado_203424" data-name="Trazado 203424" d="M432.518,652.612a2,2,0,0,1-.462,1.619,2.678,2.678,0,0,1-1.634,1.055,2.887,2.887,0,0,1-2.4-.606l.35-.065a8.338,8.338,0,0,1-1.589,2.136,4.786,4.786,0,0,1-1.484,1,3.7,3.7,0,0,1-4.123-1.078,4.805,4.805,0,0,1-.736-1.709,1.645,1.645,0,0,1-.088-.67c.036-.009.114.217.267.615a5.6,5.6,0,0,0,.826,1.557,3.4,3.4,0,0,0,5.009-.06,8.384,8.384,0,0,0,1.516-2l.138-.251.213.186a2.529,2.529,0,0,0,2.031.568,2.452,2.452,0,0,0,1.479-.848,4.052,4.052,0,0,0,.686-1.443" transform="translate(-191.443 -627.287)" fill="#727997"/>
      <path id="Trazado_203425" data-name="Trazado 203425" d="M223.849,852.05s-15.717-.471-16.66-.765a9.874,9.874,0,0,0-4.356,0c-1.118.353-5.592,1.942-5.592,1.942l-9.5,2.531S178.2,862,178.4,863.249s1.236,2.1,2.943,1.457,10.323-5.122,10.323-5.122l9.456-1s12.932,4.646,15.543,4.415,9.3-1.362,9.3-1.362.942-6.7.471-7.762-2.59-1.825-2.59-1.825" transform="translate(-81.252 -717.661)" fill="#c17560"/>
      <path id="Trazado_203426" data-name="Trazado 203426" d="M179.584,871.911s7.965-8.541,10.172-9.693,14.491-3.167,14.491-3.167,3.935-1.631,5.374-1.055,16.7,2.879,17.37,2.975-3.263,13.435-3.263,13.435a31.109,31.109,0,0,1-11.42-.48c-6.142-1.44-8.253-3.359-8.253-3.359l-6.131-1.61-3.751,1.431s-.674,5.553-3.361,5.265l-1.248-.864.96-6.142-3.934,1.632s-3.071,4.606-5.374,3.935-1.632-2.3-1.632-2.3" transform="translate(-81.749 -720.772)" fill="#c17560"/>
      <path id="Trazado_203427" data-name="Trazado 203427" d="M179.569,871.8a1.875,1.875,0,0,0-.061.667,1.484,1.484,0,0,0,.3.75,2.192,2.192,0,0,0,.9.657,2.273,2.273,0,0,0,1.383.2,4.228,4.228,0,0,0,1.524-.774,13.893,13.893,0,0,0,2.892-3.175l.015-.021.023-.01,3.929-1.645.161-.067-.027.173c-.284,1.848-.6,3.922-.944,6.144l-.048-.111,1.25.861-.054-.02a1.8,1.8,0,0,0,1.384-.508,4.1,4.1,0,0,0,.916-1.333,12.069,12.069,0,0,0,.92-3.324l.011-.078.071-.027,3.749-1.436.041-.016.042.011,6.133,1.6.027.007.033.026a15.962,15.962,0,0,0,4.242,2.162,35.626,35.626,0,0,0,4.832,1.343,30.672,30.672,0,0,0,5.155.581,29.239,29.239,0,0,0,5.321-.294l-.12.108.856-2.972c.842-3.018,1.69-5.988,2.306-8.925a10.3,10.3,0,0,0,.168-1.094,1.351,1.351,0,0,0,0-.248c.006-.039-.036-.061.025-.011a.07.07,0,0,0,.034.009l-.015,0L226.9,861l-.07-.01-.553-.083-2.193-.336-4.293-.676c-2.819-.455-5.55-.9-8.17-1.4-.656-.137-1.3-.246-1.947-.446a3.6,3.6,0,0,0-1.843-.055,18.706,18.706,0,0,0-3.552,1.066l-.015.006-.014,0c-4.294.722-8.222,1.428-11.647,2.25a21.243,21.243,0,0,0-2.441.715,7.45,7.45,0,0,0-1.936,1.31c-1.159.984-2.167,1.957-3.075,2.833-1.811,1.76-3.189,3.185-4.134,4.149l-1.075,1.1c-.245.25-.376.371-.376.371s.113-.141.347-.4l1.047-1.131c.927-.982,2.288-2.424,4.086-4.2.9-.886,1.9-1.867,3.061-2.865.291-.248.591-.5.914-.736a4.293,4.293,0,0,1,1.066-.616,21.031,21.031,0,0,1,2.464-.737c3.435-.843,7.359-1.565,11.657-2.3l-.029.008a18.924,18.924,0,0,1,3.607-1.093,3.856,3.856,0,0,1,1.981.063c.6.182,1.261.3,1.908.43,2.613.493,5.345.934,8.163,1.384l4.292.671,2.192.334.552.082.069.01.034.005.019,0a.28.28,0,0,1,.065.025.293.293,0,0,1,.131.236,1.569,1.569,0,0,1,0,.311,10.228,10.228,0,0,1-.172,1.132c-.619,2.962-1.464,5.927-2.308,8.95l-.857,2.974-.027.094-.093.014a29.382,29.382,0,0,1-5.386.3,30.883,30.883,0,0,1-5.2-.592,35.749,35.749,0,0,1-4.873-1.362,22.981,22.981,0,0,1-2.265-.959,10.848,10.848,0,0,1-2.068-1.268l.06.033-6.129-1.617.083,0L194.2,870.4l.082-.106a12.259,12.259,0,0,1-.953,3.4,4.321,4.321,0,0,1-.978,1.407,2.036,2.036,0,0,1-1.571.562l-.029,0-.025-.017-1.245-.866-.059-.041.011-.07c.353-2.221.682-4.293.976-6.139l.134.105-3.94,1.618.038-.031a13.9,13.9,0,0,1-2.954,3.187,4.317,4.317,0,0,1-1.579.777,2.363,2.363,0,0,1-1.44-.224,2.237,2.237,0,0,1-.92-.7,1.5,1.5,0,0,1-.288-.786,1.266,1.266,0,0,1,.106-.67" transform="translate(-81.734 -720.661)" fill="#7c4236"/>
      <path id="Trazado_203428" data-name="Trazado 203428" d="M212.92,869.677a2.29,2.29,0,0,1-.6-.015c-.387-.029-.946-.083-1.635-.155l-2.419-.269-.7-.082a2.316,2.316,0,0,0-.7.014,14.171,14.171,0,0,0-1.493.31c-2,.581-4,.966-4.767,2.151a4.465,4.465,0,0,0-.711,1.432,5.879,5.879,0,0,1-.158.579,1.432,1.432,0,0,1,.041-.608,4.084,4.084,0,0,1,.651-1.532,3.732,3.732,0,0,1,.815-.835,4.72,4.72,0,0,1,1.189-.6c.867-.316,1.832-.617,2.863-.882a13.3,13.3,0,0,1,1.53-.311,2.585,2.585,0,0,1,.767-.008l.7.093,2.414.335c.686.1,1.241.186,1.624.252a2.278,2.278,0,0,1,.59.134" transform="translate(-90.962 -725.766)" fill="#7c4236"/>
      <path id="Trazado_203429" data-name="Trazado 203429" d="M184.676,871.2a4.918,4.918,0,0,1,.659-.664c.442-.407,1.093-.984,1.92-1.673s1.825-1.49,2.978-2.328c.579-.416,1.195-.84,1.863-1.243a9.8,9.8,0,0,1,1.061-.555,9.427,9.427,0,0,1,1.174-.377,63,63,0,0,1,8.28-1.424l2.525-.314a5.369,5.369,0,0,1,.931-.074,5.363,5.363,0,0,1-.915.192l-2.509.41a76.861,76.861,0,0,0-8.231,1.506,9.313,9.313,0,0,0-1.135.362,9.767,9.767,0,0,0-1.028.533c-.657.391-1.272.808-1.851,1.214-1.154.818-2.163,1.6-3,2.266l-1.978,1.594a6.01,6.01,0,0,1-.738.573" transform="translate(-84.109 -722.898)" fill="#7c4236"/>
      <path id="Trazado_203430" data-name="Trazado 203430" d="M319.211,770.09a91.678,91.678,0,0,0-7.51,12.668c-2.846,5.925-12.056,26.1-12.056,26.1l-37.52,1.97.554,14.5s36.24,12.91,44.352,10.42S323.784,823.9,323.784,823.9l3.88-61.146s-3.219-.607-8.453,7.34" transform="translate(-119.383 -677.444)" fill="#ffb30b"/>
      <path id="Trazado_203431" data-name="Trazado 203431" d="M366.287,753.868s-9.621,21.821-11.026,31.065c-2.791,18.35-3.728,29.837-3.728,29.837l-3.271,28.4H412.34s2.122-52.633.759-70.28c-1.021-13.222-11.148-21.457-15.29-25.98a40.485,40.485,0,0,1-1.39-3.974l-29.86,7.648Z" transform="translate(-158.614 -668.424)" fill="#ffb30b"/>
      <path id="Trazado_203432" data-name="Trazado 203432" d="M363.525,769.1a1.133,1.133,0,0,1-.074.207l-.245.6-.959,2.28c-.824,1.982-2.012,4.857-3.207,8.5a101.463,101.463,0,0,0-3.313,13.054c-.953,4.984-1.725,10.514-2.369,16.337-1.181,11.658-2.25,22.21-3.026,29.868L349.391,849c-.117,1.054-.207,1.879-.272,2.459-.033.268-.059.479-.078.638a1.248,1.248,0,0,1-.037.217,1.153,1.153,0,0,1,.005-.22l.048-.642.215-2.465c.2-2.157.489-5.247.845-9.059.741-7.648,1.72-18.214,2.936-29.88.645-5.828,1.426-11.365,2.4-16.356a98.7,98.7,0,0,1,3.385-13.068c1.225-3.647,2.446-6.513,3.3-8.482.424-.988.778-1.744,1.012-2.258l.273-.583a1.154,1.154,0,0,1,.1-.194" transform="translate(-158.951 -680.342)" fill="#042c58"/>
      <g id="Grupo_138100" data-name="Grupo 138100" transform="translate(190.809 108.107)" opacity="0.3">
        <g id="Grupo_138099" data-name="Grupo 138099">
          <g id="Grupo_138098" data-name="Grupo 138098" clip-path="url(#clip-path)">
            <path id="Trazado_203433" data-name="Trazado 203433" d="M397.45,819.634c-.59-5.814-3.2-11.646-7.985-15l-39.071,55.794c6.9,3.719,14.556,7.56,22.219,5.921a22.05,22.05,0,0,0,10.76-6.3c6.178-6.214,9.531-14.68,11.887-23.12,1.572-5.629,2.78-11.475,2.19-17.289" transform="translate(-350.394 -804.631)"/>
          </g>
        </g>
      </g>
      <path id="Trazado_203434" data-name="Trazado 203434" d="M360.368,792.782c-4.868,17.226-15.824,38.244-19.188,42.467a26.12,26.12,0,0,1-20.442,10.03c-4.408,0-41.665-7.256-52.706-9.425a4.729,4.729,0,0,1-3.716-3.67l-.1-.457-4.971-1.338,2.647-13.337.528-.739,53.285,1.676,15.5-43.173c.292-.493,4.77-14.982,16.908-14.323" transform="translate(-118.074 -676.411)" fill="#ffb30b"/>
      <path id="Trazado_203435" data-name="Trazado 203435" d="M347.968,760.483s-.136.006-.4.005a11.774,11.774,0,0,0-1.187.029,13.4,13.4,0,0,0-4.477,1.064,16.258,16.258,0,0,0-5.848,4.511,29.288,29.288,0,0,0-4.918,8.759l.007-.015-15.456,43.189-.033.092-.1,0-53.286-1.657.13-.064-.528.739.026-.059c-.766,3.857-1.58,7.96-2.4,12.108-.083.421-.167.841-.244,1.229l-.111-.179,4.97,1.339.1.026.014.091a4.8,4.8,0,0,0,1.464,2.871,4.468,4.468,0,0,0,1.362.873,7.944,7.944,0,0,0,1.591.406l6.522,1.274,12.739,2.451c8.349,1.582,16.392,3.086,24.064,4.385,1.919.318,3.815.622,5.688.887.938.117,1.87.249,2.789.291a21.847,21.847,0,0,0,2.76-.138,26.168,26.168,0,0,0,10.07-3.23,26.764,26.764,0,0,0,7.515-6.411,35.359,35.359,0,0,0,2.586-3.9q1.164-1.979,2.2-3.914A210.788,210.788,0,0,0,357,802.356c1.128-3.058,1.93-5.456,2.44-7.091l.574-1.862c.131-.419.205-.631.205-.631s-.054.218-.176.64l-.546,1.871c-.492,1.641-1.276,4.047-2.388,7.114a206.328,206.328,0,0,1-11.347,25.236q-1.037,1.937-2.2,3.927a35.51,35.51,0,0,1-2.6,3.933,26.988,26.988,0,0,1-7.572,6.481,26.406,26.406,0,0,1-10.166,3.278,22.088,22.088,0,0,1-2.792.143c-.949-.042-1.88-.174-2.823-.29-1.879-.263-3.776-.566-5.7-.882-7.678-1.291-15.723-2.789-24.074-4.367L275.1,837.41l-6.522-1.271a8.238,8.238,0,0,1-1.649-.424,4.779,4.779,0,0,1-1.454-.932,5.119,5.119,0,0,1-1.557-3.033l.111.117-4.97-1.338-.139-.038.028-.142.243-1.229,2.4-12.108.007-.033.019-.027.528-.739.048-.067.082,0,53.285,1.7-.131.089,15.546-43.157.007-.015A29.227,29.227,0,0,1,335.95,766a16.271,16.271,0,0,1,5.913-4.508,13.2,13.2,0,0,1,4.512-1.026,10.343,10.343,0,0,1,1.191-.006c.267.008.4.019.4.019" transform="translate(-117.923 -676.401)" fill="#042c58"/>
      <path id="Trazado_203436" data-name="Trazado 203436" d="M336.227,854.294a15.085,15.085,0,0,0-6.149-6.6,4.186,4.186,0,0,1,1.24.561,11.407,11.407,0,0,1,4.437,4.763,4.173,4.173,0,0,1,.472,1.276" transform="translate(-150.332 -716.135)" fill="#042c58"/>
      <path id="Trazado_203437" data-name="Trazado 203437" d="M369.487,876.636c-.053.008-.156-.683-.466-1.758a16.227,16.227,0,0,0-4.491-7.356c-.815-.766-1.382-1.174-1.35-1.218a1.522,1.522,0,0,1,.43.242,10.023,10.023,0,0,1,1.067.813,14.361,14.361,0,0,1,4.555,7.462,9.945,9.945,0,0,1,.236,1.321,1.509,1.509,0,0,1,.019.493" transform="translate(-165.408 -724.611)" fill="#042c58"/>
      <g id="Grupo_138103" data-name="Grupo 138103" transform="translate(189.865 105.06)" opacity="0.3">
        <g id="Grupo_138102" data-name="Grupo 138102" transform="translate(0)">
          <g id="Grupo_138101" data-name="Grupo 138101" clip-path="url(#clip-path-2)">
            <path id="Trazado_203438" data-name="Trazado 203438" d="M348.661,835.216l3.1.115c.5-12.17,3.008-24.307,5.155-36.3-5.469,11.17-6.9,23.819-8.257,36.182" transform="translate(-348.661 -799.035)"/>
          </g>
        </g>
      </g>
      <path id="Trazado_203439" data-name="Trazado 203439" d="M412.612,750.229a1.19,1.19,0,0,1-.292.1l-.853.234-3.142.835c-2.652.7-6.308,1.715-10.371,2.74s-7.781,1.818-10.494,2.264c-1.356.224-2.457.382-3.222.46l-.881.089a1.2,1.2,0,0,1-.309.01,1.176,1.176,0,0,1,.3-.072l.872-.146c.758-.115,1.852-.306,3.2-.557,2.7-.5,6.4-1.322,10.457-2.348s7.724-2,10.392-2.652c1.333-.33,2.416-.58,3.167-.741l.867-.178a1.183,1.183,0,0,1,.307-.041" transform="translate(-174.458 -671.745)" fill="#042c58"/>
    </g>
  </g>
</svg>
